<?xml version="1.0" encoding="UTF-8"?>
<svg width="138px" height="18px" viewBox="0 0 138 18" version="1.1" xmlns="http://www.w3.org/2000/svg" xmlns:xlink="http://www.w3.org/1999/xlink">
    <!-- Generator: Sketch 61 (89581) - https://sketch.com -->
    <title>atlassian-seeklogo.com</title>
    <desc>Created with Sketch.</desc>
    <defs>
        <linearGradient x1="50%" y1="0%" x2="50%" y2="13.0733808%" id="linearGradient-1">
            <stop stop-color="#706FBF" stop-opacity="0" offset="0%"></stop>
            <stop stop-color="#706FBF" offset="100%"></stop>
        </linearGradient>
        <linearGradient x1="41.9949002%" y1="-7.43850597%" x2="41.9949002%" y2="64.3480659%" id="linearGradient-2">
            <stop stop-color="#1A2238" offset="0%"></stop>
            <stop stop-color="#262D4F" offset="100%"></stop>
        </linearGradient>
        <linearGradient x1="50%" y1="6.83528029%" x2="50%" y2="100%" id="linearGradient-3">
            <stop stop-color="#4D4994" stop-opacity="0.237762238" offset="0%"></stop>
            <stop stop-color="#39348B" offset="100%"></stop>
        </linearGradient>
    </defs>
    <g id="Design" stroke="none" stroke-width="1" fill="none" fill-rule="evenodd">
        <g id="01—01—01x—Segment—Contact" transform="translate(-1187.000000, -474.000000)">
            <g id="Social-proof" transform="translate(836.000000, 128.000000)" fill="#F5F6FB" fill-rule="nonzero" opacity="0.6">
                <g id="logos" transform="translate(4.000000, 178.000000)">
                    <g id="logos-muted" transform="translate(0.000000, 161.000000)">
                        <g id="3" transform="translate(346.000000, 7.000000)">
                            <g id="atlassian-seeklogo.com" transform="translate(1.000000, 0.000000)">
                                <path d="M81.03158,3.0327907 C82.6124892,3.00344669 84.1799277,3.32825478 85.6189945,3.98340492 L85.6189945,3.98340492 L85.6189945,7.16656088 C84.1178906,6.49119152 82.5352326,6.00441587 80.9296375,6.00441587 C79.6094815,6.00441587 78.8907866,6.34082627 78.8907866,7.1436238 C78.8907866,7.78586183 79.3775622,8.2293119 81.3832818,8.67276197 C85.0175335,9.455171 86.3045581,10.5943789 86.3045581,13.0231601 C86.3045581,15.5997579 84.7626772,17.3302326 80.8761176,17.3302326 C78.1211204,17.3302326 76.6429535,16.7160287 75.5241341,16.1680876 L75.5241341,16.1680876 L75.5241341,12.8294692 C77.1713739,13.7523297 79.0214175,14.253146 80.909249,14.2872476 C82.4842613,14.2872476 82.9480999,13.8437975 82.9480999,13.1047141 C82.9480999,12.3656306 82.4842613,12.0062832 80.2670109,11.5424446 C76.5512052,10.8262982 75.600591,9.19012038 75.600591,7.15126949 L75.6000136,7.16103276 L75.582751,7.15126949 C75.582751,4.66414693 77.3415838,3.11796373 80.744224,3.036203 Z M94.4854473,3.0327907 C96.0663565,3.00344669 97.633795,3.32825478 99.0728618,3.98340492 L99.0728618,3.98340492 L99.0728618,7.16656088 C97.5717579,6.49119152 95.9890999,6.00441587 94.3835048,6.00441587 C93.0633488,6.00441587 92.3446539,6.34082627 92.3446539,7.1436238 C92.3446539,7.78586183 92.8314295,8.2293119 94.8371491,8.67276197 C98.4714008,9.455171 99.7584254,10.5943789 99.7584254,13.0231601 L99.7584254,13.0231601 L99.7405855,13.0231601 C99.7405855,15.5997579 98.1987045,17.3302326 94.312145,17.3302326 C91.5571477,17.3302326 90.0789808,16.7160287 88.9601614,16.1680876 L88.9601614,16.1680876 L88.9601614,12.8294692 C90.6074013,13.7523297 92.4574449,14.253146 94.3452763,14.2872476 C95.9202886,14.2872476 96.3841272,13.8437975 96.3841272,13.1047141 C96.3841272,12.3656306 95.9202886,12.0062832 93.7030383,11.5424446 C89.9872326,10.8262982 89.0366183,9.19012038 89.0366183,7.15126949 C89.0366183,4.59506019 90.8945212,3.0327907 94.4854473,3.0327907 Z M4.57243399,7.85769738 C4.73929117,7.83944738 4.90353176,7.90984438 5.00537893,8.04326676 C7.18694938,10.3726539 7.93877565,14.2719562 6.70017373,16.8460055 C6.61944526,17.0167391 6.44551483,17.1236963 6.25672367,17.1187018 L6.25672367,17.1187018 L0.496969904,17.1187018 C0.32521981,17.1192348 0.165497885,17.030598 0.075078106,16.8845753 C-0.015341673,16.7385525 -0.0235033117,16.556067 0.0535198358,16.4025554 L0.0535198358,16.4025554 L4.18983858,8.13246648 C4.26043666,7.9801829 4.40557682,7.87594739 4.57243399,7.85769738 Z M8.46123119,0.245032759 C8.64064357,0.245032759 8.80415035,0.347947459 8.88174419,0.509712722 L8.88174419,0.509712722 L16.8205198,16.4025554 C16.8969497,16.5548543 16.8895679,16.7357769 16.8009849,16.8813432 C16.7124019,17.0269094 16.5551035,17.1166016 16.3847155,17.1187042 L16.3847155,17.1187042 L10.6249617,17.1187042 C10.4373837,17.119283 10.2656312,17.0136651 10.1815116,16.8460055 L10.1815116,16.8460055 L7.39083447,11.2901368 C5.68897903,7.8339451 5.93599237,3.73642967 8.04071819,0.509712722 C8.11831203,0.347947459 8.28181881,0.245032759 8.46123119,0.245032759 Z M130.188275,3.24432148 L133.547282,9.60043912 L134.666101,12.199974 L134.666101,3.24432148 L137.622435,3.24432148 L137.622435,17.1187018 L133.906629,17.1187018 L129.724436,9.34813133 L128.478189,6.53961423 L128.478189,17.1187018 L125.521855,17.1187018 L125.521855,3.24432148 L130.188275,3.24432148 Z M106.718553,3.24432148 L106.718553,17.1187018 L103.486974,17.1187018 L103.486974,3.24432148 L106.718553,3.24432148 Z M53.7543037,3.24432148 L53.7543037,14.121591 L58.1888044,14.121591 L57.1438933,17.1187018 L50.5023365,17.1187018 L50.5023365,3.24432148 L53.7543037,3.24432148 Z M48.0659097,3.24432148 L48.0659097,6.24398085 L44.2226758,6.24398085 L44.2226758,17.1187018 L40.9707086,17.1187018 L40.9707086,6.24398085 L37.3797825,6.24398085 L37.3797825,3.24432148 L48.0659097,3.24432148 Z M32.6649398,3.24432148 L37.5123078,17.1187018 L33.8168906,17.1187018 L33.1313269,14.7816689 C31.439324,15.2799564 29.6395515,15.2799564 27.9475486,14.7816689 L27.9475486,14.7816689 L27.2696306,17.1187018 L23.5614706,17.1187018 L28.4037415,3.24432148 L32.6649398,3.24432148 Z M68.592041,3.24432148 L73.4292148,17.1187018 L69.7337975,17.1187018 L69.0482339,14.7816689 C67.3594116,15.2779571 65.5634721,15.2779571 63.8746498,14.7816689 L63.8746498,14.7816689 L63.1839891,17.1187018 L59.4885718,17.1187018 L64.3308427,3.24432148 L68.592041,3.24432148 Z M118.360391,3.24432148 L123.197565,17.1187018 L119.502148,17.1187018 L118.816584,14.7816689 C117.127762,15.2779571 115.331822,15.2779571 113.643,14.7816689 L113.643,14.7816689 L112.952339,17.1187018 L109.256922,17.1187018 L114.099193,3.24432148 L118.360391,3.24432148 Z M30.5343406,5.96873598 L28.7503461,12.0266717 C29.3297554,12.1965371 29.9305454,12.2823642 30.5343406,12.2815341 C31.1381359,12.2823642 31.7389258,12.1965371 32.3183352,12.0266717 L32.3183352,12.0266717 L30.5343406,5.96873598 Z M66.4614419,5.96873598 L64.6774473,12.0266717 C65.2568567,12.1965371 65.8576466,12.2823642 66.4614419,12.2815341 C67.0652371,12.2823642 67.6660271,12.1965371 68.2454364,12.0266717 L68.2454364,12.0266717 L66.4614419,5.96873598 Z M116.229792,5.96873598 L114.445798,12.0266717 C115.025207,12.1965371 115.625997,12.2823642 116.229792,12.2815341 C116.833587,12.2823642 117.434377,12.1965371 118.013787,12.0266717 L118.013787,12.0266717 L116.229792,5.96873598 Z" id="Combined-Shape"></path>
                            </g>
                        </g>
                    </g>
                </g>
            </g>
        </g>
    </g>
</svg>
