<?xml version="1.0" encoding="UTF-8"?>
<svg width="139px" height="23px" viewBox="0 0 139 23" version="1.1" xmlns="http://www.w3.org/2000/svg" xmlns:xlink="http://www.w3.org/1999/xlink">
    <!-- Generator: Sketch 61 (89581) - https://sketch.com -->
    <title>digitalocean-9158bfae8a</title>
    <desc>Created with Sketch.</desc>
    <defs>
        <linearGradient x1="50%" y1="0%" x2="50%" y2="13.0733808%" id="linearGradient-1">
            <stop stop-color="#706FBF" stop-opacity="0" offset="0%"></stop>
            <stop stop-color="#706FBF" offset="100%"></stop>
        </linearGradient>
        <linearGradient x1="41.9949002%" y1="-7.43850597%" x2="41.9949002%" y2="64.3480659%" id="linearGradient-2">
            <stop stop-color="#1A2238" offset="0%"></stop>
            <stop stop-color="#262D4F" offset="100%"></stop>
        </linearGradient>
        <linearGradient x1="50%" y1="6.83528029%" x2="50%" y2="100%" id="linearGradient-3">
            <stop stop-color="#4D4994" stop-opacity="0.237762238" offset="0%"></stop>
            <stop stop-color="#39348B" offset="100%"></stop>
        </linearGradient>
    </defs>
    <g id="Design" stroke="none" stroke-width="1" fill="none" fill-rule="evenodd">
        <g id="01—01—01x—Segment—Contact" transform="translate(-1186.000000, -642.000000)">
            <g id="Social-proof" transform="translate(836.000000, 128.000000)" fill="#F5F6FB" fill-rule="nonzero" opacity="0.6">
                <g id="logos" transform="translate(4.000000, 178.000000)">
                    <g id="logos-muted" transform="translate(0.000000, 161.000000)">
                        <g id="3" transform="translate(346.000000, 7.000000)">
                            <g id="digitalocean-9158bfae8a" transform="translate(0.000000, 168.000000)">
                                <path d="M15.0742628,0.555028172 C18.5063494,1.63174913 21.1981821,4.32355153 22.2749151,7.75559959 C24.6975645,15.6291216 18.8428285,22.829693 11.3729929,22.829693 L11.3729929,18.3882191 C16.0837001,18.3882191 19.7176741,13.7448599 17.9006871,8.83232055 C17.2277289,7.01535393 15.8145168,5.53486261 13.9302339,4.86191201 C9.08493518,3.11224045 4.44152386,6.74617369 4.44152386,11.3895328 L7.33635375e-13,11.3895328 C7.33635375e-13,3.98707623 7.20065233,-1.86759399 15.0742628,0.555028172 Z M54.2805991,8.59616068 C55.1709571,8.59616068 55.992826,8.99509852 56.6777168,9.59350529 L56.54,9.479 L56.5407387,8.7956296 L58.8693674,8.7956296 L58.8693674,17.040345 C58.8693674,18.4366275 58.3899438,19.5004617 57.5680749,20.3648271 C56.7462059,21.2291924 55.6503807,21.6281302 54.21211,21.6281302 C53.1847738,21.6281302 52.2944158,21.4286613 51.609525,20.9632338 C50.9246342,20.4978063 50.3767216,20.0323789 50.0342762,19.5669514 L50.0342762,19.5669514 L49.9657871,19.5004617 L51.609525,17.9712 C52.4313939,19.1015239 53.1162847,19.5004617 54.21211,19.5004617 C54.9654899,19.5004617 55.5134025,19.3009928 55.924337,18.902055 C56.3352714,18.5031171 56.5407387,17.9047104 56.5407387,17.1733243 L56.5407387,17.1733243 L56.5407387,16.9738554 C55.924337,17.4392829 55.102468,17.7052414 54.21211,17.7052414 C52.9108175,17.7052414 51.8149922,17.3063036 50.9931233,16.4419383 C50.1712543,15.5775729 49.7603199,14.447249 49.7603199,13.1839459 C49.7603199,11.8541531 50.2397434,10.7903188 51.0616124,9.92595349 C51.8834813,9.06158816 52.9793066,8.59616068 54.2805991,8.59616068 Z M7.50255807,17.9712 L7.50255807,21.3621717 L4.07810411,21.3621717 L4.07810411,17.9712 L7.50255807,17.9712 Z M105.715897,8.72913996 C107.291146,8.72913996 108.592439,9.32754672 109.619775,10.5908499 L109.619775,10.5908499 L108.044526,12.053622 C107.359635,11.2557463 106.537766,10.7903188 105.784387,10.7903188 C105.099496,10.7903188 104.551583,10.9897877 104.07216,11.5217049 C103.592736,12.053622 103.387269,12.6520288 103.387269,13.4499044 C103.387269,14.2477801 103.592736,14.8461869 104.07216,15.378104 C104.551583,15.8435315 105.099496,16.1094901 105.784387,16.1094901 C106.26381,16.1094901 106.674745,15.9765108 107.01719,15.7770419 C107.291146,15.5775729 107.77057,15.1786351 108.181504,14.7132076 L108.181504,14.7132076 L109.756753,16.2424693 C108.797906,17.5722622 107.428124,18.3036482 105.715897,18.3036482 C104.414605,18.3036482 103.250291,17.8382207 102.359933,16.9073658 C101.469575,16.0430004 100.990151,14.8461869 100.990151,13.5163941 C100.990151,12.1866013 101.469575,11.0562774 102.359933,10.1254224 C103.31878,9.19456744 104.414605,8.72913996 105.715897,8.72913996 Z M92.8399506,4.8727408 C96.6068499,4.8727408 99.6888585,7.86477463 99.6888585,11.5217049 C99.6888585,15.1786351 96.6068499,18.1706689 92.8399506,18.1706689 C89.0730512,18.1706689 85.9910427,15.1786351 85.9910427,11.5217049 C85.9910427,7.86477463 89.0730512,4.8727408 92.8399506,4.8727408 Z M114.4825,8.66265032 C115.235879,8.66265032 115.92077,8.7956296 116.468683,9.06158816 C117.016595,9.32754672 117.496019,9.65999493 117.838464,10.1254224 C118.18091,10.5243603 118.454866,11.0562774 118.523355,11.5217049 C118.728822,12.053622 118.797312,12.6520288 118.797312,13.2504355 L118.797312,13.2504355 L118.797312,14.1148008 L112.496316,14.1148008 C112.564805,14.7132076 112.770273,15.1786351 113.181207,15.5110833 C113.660631,15.8435315 114.140054,16.0430004 114.824945,16.0430004 C115.235879,16.0430004 115.646814,15.9765108 115.989259,15.7770419 C116.194727,15.7105522 116.468683,15.5110833 116.67415,15.3116144 C116.879617,15.1121455 117.085085,14.9791662 117.222063,14.7796973 L117.222063,14.7796973 L118.797312,16.2424693 L118.728822,16.308959 C117.701486,17.5722622 116.400194,18.1706689 114.824945,18.1706689 C113.386674,18.1706689 112.290849,17.7052414 111.400491,16.8408761 C110.510133,15.9765108 110.099199,14.8461869 110.099199,13.4499044 C110.099199,12.1201116 110.510133,10.9897877 111.263513,10.0589328 C112.085382,9.1280778 113.181207,8.66265032 114.4825,8.66265032 Z M124.002482,8.66265032 C125.235285,8.66265032 126.262621,8.92860888 126.947512,9.52701564 C127.700892,10.1254224 128.043337,10.9897877 128.043337,12.053622 L128.043337,12.053622 L128.043337,17.9047104 L125.714709,17.9047104 L125.714709,17.1733243 C124.89284,17.7717311 124.070971,18.1041793 123.180613,18.1041793 C122.290255,18.1041793 121.536875,17.9047104 120.920473,17.3727932 C120.304071,16.8408761 120.030115,16.1759797 120.030115,15.3116144 C120.030115,14.3807594 120.37256,13.5828837 121.12594,13.0509666 C121.87932,12.5190495 122.838167,12.2530909 124.002482,12.2530909 C124.550394,12.2530909 125.098307,12.3195805 125.714709,12.5190495 L125.714709,12.5190495 L125.714709,12.053622 C125.714709,11.6546841 125.57773,11.3222359 125.235285,11.0562774 C124.89284,10.7903188 124.481905,10.6573395 124.002482,10.6573395 C123.043634,10.6573395 122.358744,10.9897877 121.742342,11.9871323 L121.742342,11.9871323 L120.235582,10.5908499 C120.578028,9.92595349 121.194429,9.460526 121.810831,9.1280778 C122.495722,8.86211924 123.249102,8.66265032 124.002482,8.66265032 Z M75.9916371,8.66265032 C77.2244406,8.66265032 78.2517767,8.92860888 78.9366675,9.52701564 C79.6215583,10.1254224 80.0324928,10.9897877 80.0324928,12.053622 L80.0324928,12.053622 L80.0324928,17.9047104 L77.7038641,17.9047104 L77.7038641,17.1733243 C76.8819952,17.7717311 76.0601262,18.1041793 75.1697682,18.1041793 C74.2794102,18.1041793 73.5260303,17.9047104 72.9096286,17.3727932 C72.2932269,16.8408761 72.0192705,16.1759797 72.0192705,15.3116144 C72.0192705,14.3807594 72.3617159,13.5828837 73.1150958,13.0509666 C73.8684757,12.5190495 74.8273228,12.2530909 75.9916371,12.2530909 C76.5395498,12.2530909 77.0874624,12.3195805 77.7038641,12.5190495 L77.7038641,12.5190495 L77.7038641,12.053622 C77.7038641,11.6546841 77.566886,11.3222359 77.2244406,11.0562774 C76.8819952,10.7903188 76.4710607,10.6573395 75.9916371,10.6573395 C75.03279,10.6573395 74.3478992,10.9897877 73.7314975,11.9871323 L73.7314975,11.9871323 L72.2247378,10.5908499 C72.5671832,9.92595349 73.1835849,9.460526 73.7999866,9.1280778 C74.4848774,8.86211924 75.2382573,8.66265032 75.9916371,8.66265032 Z M134.412822,8.59616068 C135.577136,8.59616068 136.467494,8.92860888 137.152385,9.65999493 C137.768786,10.391381 138.111232,11.3887256 138.179721,12.6520288 L138.179721,12.6520288 L138.179721,17.9712 L135.782603,17.9712 L135.782603,12.6520288 C135.782603,12.053622 135.577136,11.5217049 135.30318,11.1892567 C135.029223,10.8568085 134.618289,10.6573395 134.070376,10.6573395 C133.522464,10.6573395 133.04304,10.8568085 132.700595,11.2557463 C132.358149,11.6546841 132.221171,12.2530909 132.221171,12.9179873 L132.221171,12.9179873 L132.221171,17.9712 L129.824053,17.9712 L129.824053,8.86211924 L132.152682,8.86211924 L132.152682,9.39403636 C132.700595,8.86211924 133.453974,8.59616068 134.412822,8.59616068 Z M4.07810411,15.1786351 L4.07810411,17.9712 L1.20156279,17.9712 L1.20156279,15.1786351 L4.07810411,15.1786351 Z M36.7473948,5.00572008 C38.665089,5.00572008 40.377316,5.47114757 41.6786085,6.3355129 C42.4319884,6.80094038 42.979901,7.46583679 43.3908355,8.4631814 C43.80177,9.26105708 44.0072372,10.3248913 44.0072372,11.4552152 C44.0072372,12.5855391 43.80177,13.6493734 43.3908355,14.5137387 C42.979901,15.378104 42.4319884,16.0430004 41.6786085,16.5749175 C40.3088269,17.5057725 38.665089,17.9712 36.7473948,17.9712 L36.7473948,17.9712 L32.569561,17.9712 L32.569561,5.00572008 Z M84.2788157,5.00572008 L84.2788157,17.9712 L81.8816979,17.9712 L81.8816979,5.00572008 L84.2788157,5.00572008 Z M12.0228373,13.6493734 L12.0228373,17.9712 L7.50255807,17.9712 L7.50255807,13.6493734 L12.0228373,13.6493734 Z M48.116582,8.7956296 L48.116582,17.9047104 L45.7194642,17.9047104 L45.7194642,8.7956296 L48.116582,8.7956296 Z M63.4581357,8.7956296 L63.4581357,17.9047104 L61.0610179,17.9047104 L61.0610179,8.7956296 L63.4581357,8.7956296 Z M68.5948166,6.3355129 L68.6633057,8.86211924 L70.8549562,8.86211924 L70.8549562,10.9232981 L68.6633057,10.9232981 L68.6633057,14.3807594 C68.6633057,14.9791662 68.7317948,15.378104 68.937262,15.5775729 C69.0742401,15.7770419 69.4851746,15.8435315 70.0330873,15.8435315 L70.0330873,15.8435315 L70.8549562,15.7770419 L70.8549562,17.8382207 L70.717978,17.8382207 C70.3070436,17.9047104 69.9645982,17.9047104 69.5536637,17.9047104 C68.3893494,17.9047104 67.4989913,17.6387518 67.0195678,17.1733243 C66.5401442,16.7078968 66.2661879,15.8435315 66.2661879,14.646718 L66.2661879,14.646718 L66.2661879,10.8568085 L64.8964063,10.8568085 L64.8964063,8.7956296 L66.2661879,8.7956296 L66.2661879,6.3355129 L68.5948166,6.3355129 Z M123.865503,14.1812905 C123.38608,14.1812905 123.043634,14.2477801 122.769678,14.447249 C122.495722,14.646718 122.358744,14.8461869 122.290255,15.1786351 C122.290255,15.4445937 122.427233,15.6440626 122.6327,15.8435315 C122.838167,16.0430004 123.180613,16.1094901 123.591547,16.1094901 C124.413416,16.1094901 125.098307,15.8435315 125.646219,15.378104 L125.646219,15.378104 L125.646219,14.5137387 C125.029818,14.3142698 124.413416,14.1812905 123.865503,14.1812905 Z M75.7861699,14.1812905 C75.3067463,14.1812905 74.9643009,14.2477801 74.6903446,14.447249 C74.4848774,14.646718 74.3478992,14.8461869 74.2109211,15.1786351 C74.2109211,15.4445937 74.3478992,15.6440626 74.5533665,15.8435315 C74.7588337,16.0430004 75.1012791,16.1094901 75.5122136,16.1094901 C76.3340825,16.1094901 77.0189733,15.8435315 77.566886,15.378104 L77.566886,15.378104 L77.566886,14.5137387 C76.9504842,14.3142698 76.3340825,14.1812905 75.7861699,14.1812905 Z M36.3364604,7.19987822 L35.0351679,7.19987822 L35.0351679,15.8435315 L36.4049494,15.8435315 C37.9117092,15.8435315 39.0760235,15.5110833 39.9663815,14.9791662 C40.9252287,14.3142698 41.4731413,13.1174562 41.4731413,11.4552152 C41.4731413,9.79297421 40.9937177,8.66265032 39.9663815,8.06424355 C39.0075344,7.46583679 37.774731,7.19987822 36.3364604,7.19987822 L36.3364604,7.19987822 Z M92.8399506,7.13338858 C90.3743437,7.13338858 88.3881604,9.06158816 88.3881604,11.4552152 C88.3881604,13.8488423 90.3743437,15.7770419 92.8399506,15.7770419 C95.3055574,15.7770419 97.2917407,13.8488423 97.2917407,11.4552152 C97.2917407,9.06158816 95.3055574,7.13338858 92.8399506,7.13338858 Z M54.4175772,10.7238292 C53.7326864,10.7238292 53.1847738,10.9232981 52.7738393,11.3887256 C52.3629049,11.8541531 52.1574376,12.4525598 52.1574376,13.1839459 C52.1574376,13.9153319 52.3629049,14.5137387 52.7738393,14.9791662 C53.1847738,15.4445937 53.7326864,15.6440626 54.4175772,15.6440626 C55.102468,15.6440626 55.6503807,15.4445937 56.0613151,14.9791662 C56.4722496,14.5137387 56.6777168,13.9153319 56.6777168,13.1839459 C56.6777168,12.4525598 56.4722496,11.8541531 56.0613151,11.3887256 C55.6503807,10.9232981 55.102468,10.7238292 54.4175772,10.7238292 Z M114.550989,10.7238292 C114.071565,10.7238292 113.660631,10.8568085 113.318185,11.1892567 C113.044229,11.4552152 112.838762,11.7876634 112.701784,12.2530909 L112.701784,12.2530909 L116.331705,12.2530909 C116.263216,11.8541531 116.126237,11.4552152 115.852281,11.1892567 C115.578325,10.8568085 115.098901,10.7238292 114.550989,10.7238292 Z M62.2253322,4.80625116 C62.6362667,4.80625116 62.9787121,4.93923044 63.2526684,5.20518901 C63.5266247,5.47114757 63.6636029,5.80359577 63.6636029,6.20253362 C63.6636029,6.60147146 63.5266247,6.93391966 63.2526684,7.19987822 C62.9787121,7.46583679 62.6362667,7.59881607 62.2253322,7.59881607 C61.8143978,7.59881607 61.4719524,7.46583679 61.1979961,7.19987822 C60.9240397,6.93391966 60.7870616,6.60147146 60.7870616,6.20253362 C60.7870616,5.80359577 60.9240397,5.47114757 61.1979961,5.20518901 C61.4719524,4.93923044 61.8143978,4.80625116 62.2253322,4.80625116 Z M46.9522676,4.80625116 C47.3632021,4.80625116 47.7056475,4.93923044 47.9111147,5.20518901 C48.185071,5.47114757 48.3220492,5.80359577 48.3220492,6.20253362 C48.3220492,6.60147146 48.185071,6.93391966 47.9111147,7.19987822 C47.6371584,7.46583679 47.294713,7.59881607 46.8837785,7.59881607 C46.4728441,7.59881607 46.1303987,7.46583679 45.8564423,7.19987822 C45.582486,6.93391966 45.4455079,6.60147146 45.4455079,6.20253362 C45.4455079,5.80359577 45.582486,5.47114757 45.9249314,5.20518901 C46.1988877,4.93923044 46.5413331,4.80625116 46.9522676,4.80625116 Z" id="Combined-Shape"></path>
                            </g>
                        </g>
                    </g>
                </g>
            </g>
        </g>
    </g>
</svg>
