<?xml version="1.0" encoding="UTF-8"?>
<svg width="85px" height="34px" viewBox="0 0 85 34" version="1.1" xmlns="http://www.w3.org/2000/svg" xmlns:xlink="http://www.w3.org/1999/xlink">
    <!-- Generator: Sketch 61 (89581) - https://sketch.com -->
    <title>drift-seeklogo.com</title>
    <desc>Created with Sketch.</desc>
    <defs>
        <linearGradient x1="50%" y1="0%" x2="50%" y2="13.0733808%" id="linearGradient-1">
            <stop stop-color="#706FBF" stop-opacity="0" offset="0%"></stop>
            <stop stop-color="#706FBF" offset="100%"></stop>
        </linearGradient>
        <linearGradient x1="41.9949002%" y1="-7.43850597%" x2="41.9949002%" y2="64.3480659%" id="linearGradient-2">
            <stop stop-color="#1A2238" offset="0%"></stop>
            <stop stop-color="#262D4F" offset="100%"></stop>
        </linearGradient>
        <linearGradient x1="50%" y1="6.83528029%" x2="50%" y2="100%" id="linearGradient-3">
            <stop stop-color="#4D4994" stop-opacity="0.237762238" offset="0%"></stop>
            <stop stop-color="#39348B" offset="100%"></stop>
        </linearGradient>
        <polygon id="path-4" points="0.0198221614 0.308564979 33.3293126 0.308564979 33.3293126 33.6778523 0.0198221614 33.6778523"></polygon>
    </defs>
    <g id="Design" stroke="none" stroke-width="1" fill="none" fill-rule="evenodd">
        <g id="01—01—01x—Segment—Contact" transform="translate(-1016.000000, -636.000000)">
            <g id="Social-proof" transform="translate(836.000000, 128.000000)" opacity="0.6">
                <g id="logos" transform="translate(4.000000, 178.000000)">
                    <g id="logos-muted" transform="translate(0.000000, 161.000000)">
                        <g id="2" transform="translate(173.000000, 0.000000)">
                            <g id="drift-seeklogo.com" transform="translate(3.000000, 169.000000)">
                                <g id="Group-3">
                                    <mask id="mask-5" fill="white">
                                        <use xlink:href="#path-4"></use>
                                    </mask>
                                    <g id="Clip-2"></g>
                                    <path d="M15.7919856,17.8125246 L6.80329617,12.5665896 C6.58690424,12.4393974 6.31831395,12.4393974 6.10060055,12.5665896 C5.88321751,12.6937818 5.74875718,12.9273529 5.74875718,13.181407 L5.74875718,15.9462681 C5.74875718,16.2003222 5.88321751,16.4348844 6.10060055,16.5620766 L8.95763475,18.2297811 L8.95763475,25.46487 C8.95763475,25.7182633 9.09110397,25.9528256 9.308487,26.0800178 L11.0769542,27.112422 C11.1859761,27.1751922 11.307552,27.2078988 11.4287975,27.2078988 C11.5500431,27.2078988 11.6712886,27.1751922 11.7806409,27.112422 C11.9973632,26.9852298 12.1314932,26.7506676 12.1314932,26.4966135 L12.1314932,20.083814 L15.0882989,21.8106546 C15.0912722,21.8119761 15.0932544,21.8126368 15.0949063,21.8136279 C15.3116286,21.937186 15.5762544,21.9358646 15.7919856,21.8106546 C16.009699,21.6834624 16.143829,21.4492305 16.143829,21.1951765 L16.143829,18.4283331 C16.143829,18.1752702 16.009699,17.9393865 15.7919856,17.8125246 Z M15.9439555,6.89414774 C15.7265725,6.76728591 15.4579822,6.76728591 15.2402688,6.89414774 L7.51359029,11.4043502 C7.3312264,11.5113899 7.32759234,11.772712 7.50995622,11.8794213 C8.60050547,12.5127394 11.5817585,14.2501518 12.676933,14.8880951 C12.860288,14.9948044 13.0869213,14.8613352 13.0869213,14.6479166 L13.0869213,12.5583304 L15.8052004,10.971236 C16.1088098,10.7931669 16.2957989,10.4677531 16.2957989,10.1162401 L16.2957989,7.50995622 C16.2957989,7.25590219 16.1616689,7.02133995 15.9439555,6.89414774 Z M17.5373269,10.8902955 L20.3702442,12.5437941 C20.3851108,12.5530445 20.3943611,12.5689022 20.3943611,12.585751 L20.3943611,14.6389966 C20.3943611,14.8560492 20.6259501,14.9924918 20.8129391,14.8831395 C21.9137298,14.242223 24.8751607,12.5160431 25.9667011,11.8817339 C26.1510472,11.7750246 26.1480739,11.509738 25.9640581,11.4020376 L18.2406833,6.89447811 C18.0233003,6.76761628 17.75471,6.76761628 17.5373269,6.89447811 C17.3186224,7.02167031 17.1854836,7.25623256 17.1854836,7.51028659 L17.1854836,10.2741566 C17.1854836,10.528541 17.3186224,10.7631033 17.5373269,10.8902955 Z M27.228712,12.5662592 C27.0109986,12.4393974 26.7427387,12.4393974 26.5250253,12.5662592 L17.5373269,17.8118639 C17.3186224,17.9400472 17.1854836,18.1746094 17.1854836,18.4289938 L17.1854836,21.1948461 C17.1854836,21.4485698 17.3186224,21.6834624 17.5373269,21.8106546 C17.7530581,21.9365253 18.017684,21.9365253 18.2344063,21.8132975 C18.2363885,21.8126368 18.2380404,21.8113153 18.2406833,21.8106546 L21.1978194,20.0834836 L21.1978194,26.4962832 C21.1978194,26.7500068 21.3312886,26.9848995 21.5490021,27.1120917 C21.6580239,27.1751922 21.7792695,27.2075684 21.9008454,27.2075684 C22.0217606,27.2075684 22.1430062,27.1751922 22.2523584,27.1120917 L24.0198345,26.0806785 C24.2372175,25.9538167 24.3716778,25.717933 24.3716778,25.4645397 L24.3716778,18.2304419 L27.228712,16.5617462 C27.4464254,16.4348844 27.5805554,16.1999918 27.5805554,15.9459378 L27.5805554,13.1820677 C27.5805554,12.9280137 27.4464254,12.6934514 27.228712,12.5662592 Z M33.3293126,17.0031197 C33.3293126,26.2230677 25.8679207,33.6976744 16.6644911,33.6976744 C7.46106156,33.6976744 0,26.2230677 0,17.0031197 C0,7.78317168 7.46106156,0.308564979 16.6644911,0.308564979 C25.8679207,0.308564979 33.3293126,7.78317168 33.3293126,17.0031197 L33.3293126,17.0031197 Z" id="Fill-1" fill="#F5F6FB" mask="url(#mask-5)"></path>
                                </g>
                                <path d="M72.6819193,9.10002394 C74.0149596,9.10002394 75.3714562,9.65669631 75.8154726,10.0795691 C75.971407,10.1915643 76.0150157,10.4588331 75.9046724,10.6583762 L74.8161053,12.5725363 C74.7037798,12.7515964 74.4593064,12.8183311 74.259433,12.7060055 C73.9264207,12.5067927 73.4384651,12.3062585 72.9260622,12.3062585 C71.771091,12.3062585 71.6366306,12.9518003 71.6366306,13.7757415 L71.6366306,14.621487 L74.2161546,14.621487 C74.4817715,14.621487 74.7037798,14.8216908 74.7037798,15.1110944 L74.7037798,17.1811888 C74.7037798,17.4484576 74.4817715,17.6711265 74.2161546,17.6711265 L71.6366306,17.6711265 L71.6366306,24.4166081 C71.6366306,24.6835465 71.3931484,24.9062155 71.1275315,24.9062155 L68.7492025,24.9062155 C68.5047291,24.9062155 68.2602558,24.6835465 68.2602558,24.4166081 L68.2602558,17.6711265 L67.3715622,17.6711265 C67.0828194,17.6711265 66.8826156,17.4484576 66.8826156,17.1811888 L66.8826156,15.1110944 C66.8826156,14.8216908 67.0828194,14.621487 67.3715622,14.621487 L68.2602558,14.621487 L68.2602558,13.7757415 C68.2602558,11.0145144 69.7043003,9.10002394 72.6819193,9.10002394 Z M42.8535308,9.32335363 C47.141725,9.32335363 50.6535513,12.8180007 50.6535513,17.0916587 C50.6535513,21.411238 47.141725,24.9058851 42.8535308,24.9058851 L37.4321696,24.9058851 C37.2098311,24.9058851 37.0320923,24.7053509 37.0320923,24.4826819 L37.0320923,9.7462264 C37.0320923,9.52355746 37.2098311,9.32335363 37.4321696,9.32335363 L42.8535308,9.32335363 Z M57.5856915,14.3984877 C58.5196457,14.3984877 59.2084658,14.6432914 59.5850869,14.9326949 C59.7638167,15.0661642 59.7638167,15.2888331 59.6524822,15.4893673 L58.6299891,17.5148618 C58.5196457,17.7160568 58.3422373,17.8719911 58.0521731,17.7596655 C57.8744343,17.6929309 57.4974829,17.6040616 57.2741532,17.6040616 C56.4967941,17.6040616 55.9193085,18.1613947 55.9193085,19.0296053 L55.9193085,24.4162777 C55.9193085,24.727816 55.7412394,24.9058851 55.364288,24.9058851 L53.0298981,24.9058851 C52.7639508,24.9058851 52.5416122,24.6832161 52.5416122,24.4162777 L52.5416122,15.110764 C52.5416122,14.8213605 52.7639508,14.6211566 53.0298981,14.6211566 L54.0969911,14.6211566 C54.3649207,14.6211566 54.4970684,14.7546259 54.5634726,14.9326949 L55.0299542,16.0681744 C55.4746313,15.2442332 56.2523208,14.3984877 57.5856915,14.3984877 Z M64.5673871,14.6211566 C64.8353167,14.6211566 65.0566642,14.8213605 65.0566642,15.110764 L65.0566642,24.4162777 C65.0566642,24.6832161 64.8353167,24.9058851 64.5673871,24.9058851 L62.1679145,24.9058851 C61.9013064,24.9058851 61.679959,24.6832161 61.679959,24.4162777 L61.679959,15.110764 C61.679959,14.8213605 61.9013064,14.6211566 62.1679145,14.6211566 L64.5673871,14.6211566 Z M80.7660575,11.0366491 C81.0111915,11.0366491 81.2097435,11.2599788 81.2097435,11.5272476 L81.2097435,14.3763529 L83.2771949,14.3763529 C83.5431423,14.3763529 83.7654808,14.5765568 83.7654808,14.8659603 L83.7654808,16.9363851 C83.7654808,17.2033235 83.5431423,17.4259925 83.2771949,17.4259925 L81.2097435,17.4259925 L81.2097435,21.0098393 C81.2097435,21.5001074 81.4545472,21.7221156 81.8995547,21.7221156 C82.2547018,21.7221156 82.9210568,21.5661813 83.1661908,21.5001074 C83.4327989,21.4323817 83.6766115,21.5440465 83.7440068,21.8119761 L84.1883536,23.7486012 C84.2550882,24.0601395 84.143093,24.1936088 83.8550109,24.327078 C83.1661908,24.6168119 82.0108892,24.9058851 80.9213311,24.9058851 C78.9668659,24.9058851 77.8327079,23.6597319 77.8327079,21.3220383 L77.8327079,17.4259925 L76.9886142,17.4259925 C76.7441409,17.4259925 76.542946,17.2033235 76.542946,16.9363851 L76.542946,14.8659603 C76.542946,14.5765568 76.7441409,14.3763529 76.9886142,14.3763529 L77.8327079,14.3763529 L77.8327079,11.5272476 C77.8327079,11.2599788 78.0550465,11.0366491 78.3216546,11.0366491 L80.7660575,11.0366491 Z M42.831396,12.5953317 L40.4983276,12.5953317 L40.4983276,21.6111115 L42.831396,21.6111115 C45.3431943,21.6111115 46.9649774,19.6302168 46.9649774,17.0916587 C46.9649774,14.5772175 45.3431943,12.5953317 42.831396,12.5953317 Z M63.3453509,9.32335363 C64.4121135,9.32335363 65.2799938,10.213699 65.2799938,11.2821135 C65.2799938,12.3283933 64.4121135,13.196604 63.3453509,13.196604 C62.279249,13.196604 61.4348249,12.3283933 61.4348249,11.2821135 C61.4348249,10.213699 62.279249,9.32335363 63.3453509,9.32335363 Z" id="Combined-Shape" fill="#F5F6FB"></path>
                            </g>
                        </g>
                    </g>
                </g>
            </g>
        </g>
    </g>
</svg>
