<?xml version="1.0" encoding="UTF-8"?>
<svg width="69px" height="30px" viewBox="0 0 69 30" version="1.1" xmlns="http://www.w3.org/2000/svg" xmlns:xlink="http://www.w3.org/1999/xlink">
    <!-- Generator: Sketch 61 (89581) - https://sketch.com -->
    <title>FOX_wordmark</title>
    <desc>Created with Sketch.</desc>
    <defs>
        <linearGradient x1="50%" y1="0%" x2="50%" y2="13.0733808%" id="linearGradient-1">
            <stop stop-color="#706FBF" stop-opacity="0" offset="0%"></stop>
            <stop stop-color="#706FBF" offset="100%"></stop>
        </linearGradient>
        <linearGradient x1="41.9949002%" y1="-7.43850597%" x2="41.9949002%" y2="64.3480659%" id="linearGradient-2">
            <stop stop-color="#1A2238" offset="0%"></stop>
            <stop stop-color="#262D4F" offset="100%"></stop>
        </linearGradient>
        <linearGradient x1="50%" y1="6.83528029%" x2="50%" y2="100%" id="linearGradient-3">
            <stop stop-color="#4D4994" stop-opacity="0.237762238" offset="0%"></stop>
            <stop stop-color="#39348B" offset="100%"></stop>
        </linearGradient>
    </defs>
    <g id="Design" stroke="none" stroke-width="1" fill="none" fill-rule="evenodd">
        <g id="01—01—01x—Segment—Contact" transform="translate(-851.000000, -468.000000)">
            <g id="Social-proof" transform="translate(836.000000, 128.000000)" fill="#F5F6FB" fill-rule="nonzero" opacity="0.6">
                <g id="logos" transform="translate(4.000000, 178.000000)">
                    <g id="logos-muted" transform="translate(0.000000, 161.000000)">
                        <g id="1" transform="translate(0.000000, 1.000000)">
                            <g id="FOX_wordmark" transform="translate(11.000000, 0.000000)">
                                <polygon id="path7" points="8.37762264 8.11438385 8.37762264 11.9741386 16.5357931 11.9741386 16.5357931 20.0448445 8.37762264 20.0448445 8.37762264 29.606341 0 29.606341 0 6.48403828e-06 17.8077398 6.48403828e-06 18.3780234 8.11438385"></polygon>
                                <path d="M42.2951459,4.55096253 C45.0744272,7.38790476 46.4648585,10.8125262 46.4648585,14.8240971 C46.4648585,18.8647417 45.0743055,22.3033527 42.2951459,25.1406599 C39.515378,27.9774804 36.1627718,29.3958907 32.2370841,29.3958907 C28.282566,29.3958907 24.9149972,27.9774804 22.1358375,25.1406599 C19.355948,22.3034743 17.9663682,18.8647417 17.9663682,14.8240971 C17.9663682,10.8124046 19.355948,7.38790476 22.1358375,4.55096253 C24.9149972,1.71402029 28.282566,0.295488354 32.2370841,0.295488354 C36.1626502,0.295488354 39.515378,1.71402029 42.2951459,4.55096253 Z M29.8299227,20.7558743 C29.8299227,21.4155689 30.0730961,21.9884072 30.5606594,22.4753623 C31.0474929,22.9629256 31.6352938,23.2062207 32.3229673,23.2062207 C33.0107625,23.2062207 33.5910212,22.9629256 34.0638652,22.4753623 C34.5368308,21.9884072 34.773192,21.4155689 34.773192,20.7558743 L34.773192,8.76337347 C34.773192,8.07569994 34.5368308,7.48862892 34.0638652,7.00106559 C33.5911429,6.51423214 33.0108841,6.27032883 32.3229673,6.27032883 C31.6352938,6.27032883 31.0476145,6.51423214 30.5606594,7.00106559 C30.0729744,7.48862892 29.8299227,8.07569994 29.8299227,8.76337347 L29.8299227,20.7558743 Z" id="path9"></path>
                                <polygon id="path11" points="59.5351566 29.6944138 55.324692 22.1938699 51.2456068 29.6944138 42.0346985 29.6944138 50.8070674 14.3427378 42.5171526 6.48403828e-06 51.9913062 6.48403828e-06 55.4564363 6.40377618 58.9652379 6.48403828e-06 68.1321097 6.48403828e-06 60.0177324 14.2549083 68.965517 29.6942921 59.5351566 29.6942921"></polygon>
                            </g>
                        </g>
                    </g>
                </g>
            </g>
        </g>
    </g>
</svg>
