<?xml version="1.0" encoding="UTF-8"?>
<svg width="91px" height="19px" viewBox="0 0 91 19" version="1.1" xmlns="http://www.w3.org/2000/svg" xmlns:xlink="http://www.w3.org/1999/xlink">
    <!-- Generator: Sketch 61 (89581) - https://sketch.com -->
    <title>logo-glossier</title>
    <desc>Created with Sketch.</desc>
    <defs>
        <linearGradient x1="50%" y1="0%" x2="50%" y2="13.0733808%" id="linearGradient-1">
            <stop stop-color="#706FBF" stop-opacity="0" offset="0%"></stop>
            <stop stop-color="#706FBF" offset="100%"></stop>
        </linearGradient>
        <linearGradient x1="41.9949002%" y1="-7.43850597%" x2="41.9949002%" y2="64.3480659%" id="linearGradient-2">
            <stop stop-color="#1A2238" offset="0%"></stop>
            <stop stop-color="#262D4F" offset="100%"></stop>
        </linearGradient>
        <linearGradient x1="50%" y1="6.83528029%" x2="50%" y2="100%" id="linearGradient-3">
            <stop stop-color="#4D4994" stop-opacity="0.237762238" offset="0%"></stop>
            <stop stop-color="#39348B" offset="100%"></stop>
        </linearGradient>
    </defs>
    <g id="Design" stroke="none" stroke-width="1" fill="none" fill-rule="evenodd">
        <g id="01—01—01x—Segment—Contact" transform="translate(-1013.000000, -558.000000)">
            <g id="Social-proof" transform="translate(836.000000, 128.000000)" fill="#F5F6FB" fill-rule="nonzero" opacity="0.6">
                <g id="logos" transform="translate(4.000000, 178.000000)">
                    <g id="logos-muted" transform="translate(0.000000, 161.000000)">
                        <g id="2" transform="translate(173.000000, 0.000000)">
                            <g id="logo-glossier" transform="translate(0.000000, 91.000000)">
                                <path d="M24,0 L20.3683274,19 L17,19 L20.6192171,0 L24,0 Z M90,6.3137992 L88.9967482,9.02264508 C85.8149582,8.79065325 84.0315887,10.2900711 83.251471,13.8296525 C82.876742,15.5354748 82.5701456,17.2412972 82.2158563,19 L79,19 L81.4766181,6.2302139 L84.6379684,6.2302139 L84.440384,7.84903931 C86.0397956,6.26262452 87.7567358,5.5359442 90,6.3137992 Z M64,6 L61.4040012,19 L58,19 L60.612123,6 L64,6 Z M12.3235188,0.221704388 C14.8700308,0.709385601 16.5607048,2.79488781 17,5.91427418 L13.8496758,6.73180523 C13.6606564,6.29555222 13.5241423,5.97279593 13.3806276,5.65358641 C12.5422913,3.77202362 11.0353862,2.95626595 9.02617946,3.29675611 C6.11387977,3.78621071 3.85264708,6.44629005 3.61987313,9.73946828 C3.5370236,10.5997801 3.56703784,11.4674226 3.70913231,12.3197452 C4.33919715,15.5278009 7.641787,16.8401067 10.3283135,14.9993318 C11.334667,14.3094846 12.0504907,13.3181617 12.2535116,12.2612235 L9.02442928,12.2612235 L9.54948331,9.50892807 L16.2736753,9.50892807 L14.5077435,18.7305365 L11.6987045,18.7305365 L11.5866929,17.1859171 C10.3843192,18.3226576 9.0576827,18.9238356 7.50352277,18.9912242 C3.35909629,19.1685629 0.418793724,16.6468076 0.0635071632,12.4598428 C-0.286528857,8.36686734 0.777580644,4.75447959 4.07491995,2.12100104 C6.49891939,0.184463277 9.32546026,-0.361739681 12.3235188,0.221704388 Z M74.0751746,6.13627247 C76.2590456,6.5468376 77.790885,8.07108145 77.9734539,10.2036931 C78.0638689,11.2641811 77.8986876,12.3446157 77.8447863,13.5098228 L68.4085858,13.5098228 C68.2347107,14.7780868 68.6885247,15.6158391 69.7248202,16.0596484 C71.2392721,16.7095714 72.6615702,16.1693541 74.5342048,14.1796923 L77.0032309,15.3914412 C75.3722827,18.6244339 70.569853,20.0073901 67.5305167,18.1955844 C65.3431682,16.8924141 64.8354529,14.8595349 65.0423643,12.5906224 C65.4301057,8.33703457 69.6900451,5.31015558 74.0751746,6.13627247 Z M32.7427674,6.15064517 C35.4944069,6.68767705 37.0217784,8.68069908 36.9997653,11.7010865 C36.965899,15.9473075 33.9450222,18.9877084 29.7523702,18.991044 C26.5655484,19.1578241 23.7800426,16.989683 24.0137202,12.9519371 C24.2778776,8.39383733 28.1979056,5.26337511 32.7427674,6.15064517 Z M58,8.1388596 L55.8141935,9.63884807 C55.1435484,9.3055173 54.5722581,8.9405201 53.9583871,8.73385502 C53.3054839,8.51719002 52.673871,8.71718849 52.3829032,9.34718364 C52.0919355,9.9771788 52.4733871,10.4271753 53.0570968,10.7155065 C53.5574194,10.9621712 54.0772581,11.1738363 54.59,11.3955012 C56.7190323,12.3154942 57.5103226,13.4154857 57.3133871,15.1721389 C57.0880645,17.1837901 55.8585484,18.4154473 53.6408065,18.850444 C50.913871,19.3854398 48.5382258,18.4637803 47.4453226,16.4271292 C47.3850555,16.295251 47.3276392,16.1622685 47.2731056,16.0282641 C47.0896743,16.5834788 46.7564417,17.1176563 46.2700456,17.5877722 C43.7495111,20.0208447 38.6851369,19.1760048 37.2671121,16.0810301 C37.1611682,15.8036922 37.0719922,15.521085 37,15.2345271 L39.7715124,14.1701618 C39.9507823,14.5027759 40.0977836,14.8071179 40.2698827,15.091503 C40.8381682,16.031138 42.0625815,16.5433638 43.1382008,16.172499 C43.5325945,16.0361272 43.9933181,15.6336641 44.0757823,15.2810931 C44.1582464,14.928522 43.8965124,14.363078 43.5899609,14.151868 C42.7940026,13.6130331 41.8671773,13.2471575 41.0210235,12.7665301 C38.8984681,11.5591407 38.4305737,9.18427565 39.9740874,7.42142064 C41.9460561,5.16297055 47.0050522,5.7234254 48,8.20140083 L45.8648957,9.64162011 C45.1693286,9.28239682 44.6566167,8.92483661 44.0721969,8.74189882 C43.392764,8.5273627 42.7097458,8.67371292 42.404987,9.36222422 C42.1002282,10.0507355 42.5842568,10.4798078 43.1794329,10.7708452 C43.8965124,11.1217531 44.6691656,11.379529 45.3736962,11.7487308 C46.7912012,12.4889202 47.508184,13.7840934 47.4502753,15.0951843 L49.7783871,14.1721466 C49.9362903,14.4838108 50.0622581,14.7571421 50.2095161,15.0188067 C50.7577419,15.9954659 51.8825806,16.5321284 52.9896774,16.2037976 C53.4083871,16.0804652 53.921129,15.6688017 54.0116129,15.3038045 C54.1020968,14.9388073 53.811129,14.3488119 53.4793548,14.1204803 C52.6685484,13.5638179 51.7051613,13.1971541 50.8641935,12.6854913 C49.1929032,11.685499 48.6446774,9.99217869 49.411129,8.28719179 C50.1775806,6.58220489 51.7441935,6.0438757 53.5396774,6.00220935 C55.3351613,5.960543 56.9248387,6.50220551 58,8.1388596 Z M89.5041645,16 C90.3325765,16.002339 91.0022604,16.6809837 90.9999453,17.5158013 C91.0033329,17.9104493 90.8492592,18.2899261 90.5723318,18.5689948 C90.2954044,18.8480636 89.9188393,19.0033286 89.5272195,18.9999148 C88.6399511,19.0083633 88.0055891,18.3874012 88,17.5073528 C88.0023151,16.6725352 88.6757524,15.9976731 89.5041645,16 Z M30.4957362,8.74407552 C28.6246214,9.1009849 27.4867126,10.6954025 27.4325265,13.0303237 C27.3969668,14.6080634 27.948988,15.7221543 28.9751379,16.1424402 C30.0012878,16.562726 31.4930997,16.2091522 32.3617711,15.3385601 C33.5470928,14.1427469 33.9822751,11.6810728 33.2778554,10.1483638 C32.7580072,9.01592706 31.7538705,8.50557999 30.4957362,8.74407552 Z M69.1197349,11.0314722 L74.7932787,11.0314722 C74.6541786,9.45237548 73.9360746,8.74095088 72.5155152,8.68609805 C70.9645495,8.62625859 69.328385,9.73827509 69.1197349,11.0314722 Z M63.497215,1 C64.313982,1.01019305 64.9768193,1.6577819 64.9986476,2.4669015 C65.0159628,2.86864063 64.8664071,3.25986543 64.5848301,3.54941261 C64.303253,3.83895979 63.9142483,4.0015396 63.5084617,3.99926766 C62.6340319,4.02434274 62.0056233,3.40303791 62,2.51426554 C62,1.62967235 62.6199735,0.997223049 63.497215,1 Z" id="Combined-Shape"></path>
                            </g>
                        </g>
                    </g>
                </g>
            </g>
        </g>
    </g>
</svg>
