<?xml version="1.0" encoding="UTF-8"?>
<svg width="76px" height="31px" viewBox="0 0 76 31" version="1.1" xmlns="http://www.w3.org/2000/svg" xmlns:xlink="http://www.w3.org/1999/xlink">
    <!-- Generator: Sketch 61 (89581) - https://sketch.com -->
    <title>ibm-seeklogo.com</title>
    <desc>Created with Sketch.</desc>
    <defs>
        <linearGradient x1="50%" y1="0%" x2="50%" y2="13.0733808%" id="linearGradient-1">
            <stop stop-color="#706FBF" stop-opacity="0" offset="0%"></stop>
            <stop stop-color="#706FBF" offset="100%"></stop>
        </linearGradient>
        <linearGradient x1="41.9949002%" y1="-7.43850597%" x2="41.9949002%" y2="64.3480659%" id="linearGradient-2">
            <stop stop-color="#1A2238" offset="0%"></stop>
            <stop stop-color="#262D4F" offset="100%"></stop>
        </linearGradient>
        <linearGradient x1="50%" y1="6.83528029%" x2="50%" y2="100%" id="linearGradient-3">
            <stop stop-color="#4D4994" stop-opacity="0.237762238" offset="0%"></stop>
            <stop stop-color="#39348B" offset="100%"></stop>
        </linearGradient>
    </defs>
    <g id="Design" stroke="none" stroke-width="1" fill="none" fill-rule="evenodd">
        <g id="01—01—01x—Segment—Contact" transform="translate(-1021.000000, -467.000000)">
            <g id="Social-proof" transform="translate(836.000000, 128.000000)" fill="#F5F6FB" opacity="0.6">
                <g id="logos" transform="translate(4.000000, 178.000000)">
                    <g id="logos-muted" transform="translate(0.000000, 161.000000)">
                        <g id="2" transform="translate(173.000000, 0.000000)">
                            <g id="ibm-seeklogo.com" transform="translate(8.000000, 0.000000)">
                                <path d="M53.9985977,0.0947386047 L54.7659438,2.27632605 L54.5850396,2.27577595 C53.0513801,2.27393135 42.2839381,2.2787399 42.2839381,2.27632605 L42.2836855,2.20072109 C42.282406,1.81623452 42.2768242,0.0960865116 42.2799907,0.0960865116 L53.9985977,0.0947386047 Z M32.9729819,0.0957013953 C34.9044363,0.282001395 36.5831581,0.970107907 38.0136726,2.27584465 L26.3857208,2.27672408 C21.4312652,2.27694743 16.7717177,2.27688178 16.7717177,2.27584465 L16.7717177,0.09522 L16.7717177,0.09522 L32.9729819,0.0957013953 Z M75.9273112,0.0964716279 L75.9273112,2.27276372 L63.3055102,2.27276372 L64.08306,0.0964716279 L75.9273112,0.0964716279 Z M14.8592302,0.0957013953 L14.8592302,2.27199349 L0.102537209,2.27199349 L0.102537209,0.0957013953 L14.8592302,0.0957013953 Z M55.4523153,4.18977628 L56.2158084,6.35836605 L42.279413,6.35836605 L42.279413,4.18977628 L55.4523153,4.18977628 Z M75.9273112,4.1901614 L75.9273112,6.35576651 L61.8591098,6.35576651 C61.8591098,6.35576651 62.626454,4.19102791 62.6217363,4.1901614 L75.9273112,4.1901614 Z M39.667747,4.1891986 C39.9476302,4.90426326 40.2790228,5.51553907 40.2790228,6.3549 L16.7757614,6.3549 L16.7757614,4.1891986 L39.667747,4.1891986 Z M14.8592302,4.1891986 L14.8592302,6.3549 L0.102537209,6.3549 L0.102537209,4.1891986 L14.8592302,4.1891986 Z M61.1920884,8.27326047 L71.7555391,8.27624512 L71.7555391,10.4441609 L60.4200265,10.4489749 L61.1920884,8.27326047 Z M56.8938056,8.27268279 L57.6633642,10.4489749 L46.4345288,10.4489749 L46.4345288,8.27268279 L56.8938056,8.27268279 Z M40.4654191,8.27229767 C40.4654191,9.01846047 40.3717395,9.79601023 40.1546302,10.4489749 L33.7192409,10.4489749 L33.7192409,8.27229767 L40.4654191,8.27229767 Z M10.5582516,8.28288837 L10.5582516,10.4484935 L4.21548279,10.4484935 L4.21548279,8.28288837 L10.5582516,8.28288837 Z M27.3768572,8.27229767 L27.3768572,10.4484935 L21.0450642,10.4484935 L21.0450642,8.27229767 L27.3768572,8.27229767 Z M39.2205312,12.2827386 C38.8239572,13.0074949 38.102827,13.8891223 37.4185716,14.4489851 L32.7190483,14.4497095 C27.8810214,14.4503499 21.0446791,14.4509137 21.0446791,14.4489851 L21.0450642,12.2828023 L21.0450642,12.2828023 L39.2205312,12.2827386 Z M58.3207577,12.2832837 L59.0590256,14.3025447 C59.0624916,14.3037963 59.770913,12.2783735 59.7722609,12.2827951 L71.7515916,12.2827951 L71.7515916,14.4489851 L65.5445763,14.4489851 C65.5439986,14.4459042 65.5411102,12.799147 65.5411102,12.799147 L64.9669981,14.4489851 L53.2449251,14.4459042 L52.6717758,12.7987619 L52.6724621,13.540411 C52.6727912,13.9780547 52.6729761,14.447342 52.6722572,14.4489851 L46.4345288,14.4489851 L46.4345288,12.2832837 L58.3207577,12.2832837 Z M10.5582516,12.2823209 L10.5582516,14.4485037 L4.21548279,14.4485037 L4.21548279,12.2823209 L10.5582516,12.2823209 Z M71.7515916,16.3662865 L71.7515916,18.5319879 L65.5445763,18.5319879 L65.5445763,16.3662865 L71.7515916,16.3662865 Z M71.7511102,20.4493856 L71.7511102,22.6154721 L65.5445763,22.6154721 L65.5445763,20.4493856 L71.7511102,20.4493856 Z M64.2909265,16.3662832 C64.2627167,16.3632056 63.563827,18.5309288 63.5344619,18.5319879 L54.6933474,18.5358391 C54.6864153,18.532373 53.9159902,16.3632056 53.9154126,16.3662832 L64.2909265,16.3662832 Z M52.6717758,16.3662865 C52.6786651,16.3662865 52.6759443,17.6757615 52.6743949,18.2582487 L52.6736051,18.5319879 C52.6736051,18.5326902 47.484407,18.5312314 46.5710005,18.5317713 L46.4345277,18.5319879 L46.4345277,16.3662865 Z M37.3873772,16.3658051 C38.13354,16.9876716 38.807686,17.7546307 39.3360057,18.5319879 L38.8310924,18.5317513 C35.8847998,18.5312687 21.0446791,18.5326811 21.0446791,18.5319879 L21.0445496,17.8041366 C21.0444378,17.1754378 21.044294,16.3671584 21.044294,16.3658051 L37.3873772,16.3658051 Z M10.5572888,16.3658051 L10.5572888,18.5315065 L10.5572888,18.5315065 L4.22597699,18.5309288 C4.22665106,18.5309288 4.22665106,17.9896479 4.22648254,17.448367 L4.22597699,16.3658051 L10.5572888,16.3658051 Z M52.6717758,20.4493856 L52.6717758,22.615087 L46.4341437,22.615087 L46.4341437,20.4493856 L52.6717758,20.4493856 Z M62.8604121,20.4493843 C62.8484735,20.44746 62.0846916,22.6157609 62.0829586,22.6255814 C62.0817741,22.6335346 57.4738848,22.6199254 56.3568381,22.6165094 L56.1151005,22.6157609 C56.1151005,22.6157609 55.3314851,20.4484228 55.3445791,20.4493843 L55.3445791,20.4493843 Z M40.2378153,20.4490005 C40.5484116,21.1018688 40.579606,21.8788409 40.6416098,22.6250037 L33.8329465,22.6250037 L33.8329465,20.4490005 L40.2378153,20.4490005 Z M27.4704405,20.4490005 C27.4704405,20.4490005 27.4762172,22.6157609 27.4704405,22.6157609 C27.4643749,22.6157609 21.0446791,22.6131614 21.0446791,22.615087 L21.0445347,21.5354015 C21.0444865,20.9928569 21.0444865,20.449193 21.0446791,20.4490005 L27.4704405,20.4490005 Z M10.5572888,20.4490005 L10.5572888,22.6145093 L4.22597721,22.6145093 L4.22597721,20.4490005 L10.5572888,20.4490005 Z M75.926926,24.4488181 L75.926926,26.6154823 L65.5445763,26.6154823 L65.5445763,24.4488181 L75.926926,24.4488181 Z M52.6717758,24.4488181 L52.6717758,26.6154823 L42.2790279,26.6154823 L42.2790279,24.4488181 L52.6717758,24.4488181 Z M75.926926,28.5323023 L75.926926,30.7072465 L65.5439986,30.7072465 L65.5439986,28.5323023 L75.926926,28.5323023 Z M60.009974,28.5323023 L59.2495619,30.7032028 L58.9578363,30.7032028 L58.2169688,28.5323023 L60.009974,28.5323023 Z M61.4194995,24.4488181 L60.6863344,26.6154823 L57.5164423,26.6154823 L56.7557414,24.4488181 L61.4194995,24.4488181 Z M40.3717395,24.4488181 C40.2165377,25.1634014 40.0742372,26.0344381 39.5522121,26.6154823 L39.3574395,26.6146158 L16.7748949,26.6146158 L16.7748949,24.4488181 L40.3717395,24.4488181 Z M0.101655795,24.4488181 C0.0907084493,24.4488181 6.12411374,24.4493691 10.4758918,24.4497665 L14.8482544,24.450166 C14.8416112,24.450166 14.8544163,26.6179856 14.8482544,26.6146197 L14.8482544,26.6146197 L0.101655795,26.6146197 Z M38.1379688,28.5384642 C36.7075507,29.9059158 34.7449019,30.6778814 32.6310949,30.7084981 L16.7748949,30.7041656 L16.7717177,30.7032028 L16.7717177,28.5358647 L23.6587091,28.5367046 C29.8892727,28.5374641 38.1000483,28.5384642 38.1379688,28.5384642 Z M52.6717758,28.5323023 L52.6717758,30.7072465 L42.2790279,30.7072465 L42.2790279,28.5323023 L52.6717758,28.5323023 Z M14.8482563,28.541834 L14.8477949,28.7019353 C14.8464105,29.2022522 14.8427187,30.7032028 14.8482563,30.7032028 L13.9821766,30.7037098 C10.8233797,30.7055252 0.105364026,30.7113928 0.101670698,30.7075353 C0.0977232558,30.7032028 0.10561814,28.5358647 0.101670698,28.5358647 L0.968333343,28.5366128 C4.12757337,28.5392883 14.8425916,28.5479074 14.8482563,28.541834 Z" id="Combined-Shape"></path>
                            </g>
                        </g>
                    </g>
                </g>
            </g>
        </g>
    </g>
</svg>
