<?xml version="1.0" encoding="UTF-8"?>
<svg width="135px" height="28px" viewBox="0 0 135 28" version="1.1" xmlns="http://www.w3.org/2000/svg" xmlns:xlink="http://www.w3.org/1999/xlink">
    <!-- Generator: Sketch 61 (89581) - https://sketch.com -->
    <title>logo-instacart</title>
    <desc>Created with Sketch.</desc>
    <defs>
        <linearGradient x1="50%" y1="0%" x2="50%" y2="13.0733808%" id="linearGradient-1">
            <stop stop-color="#706FBF" stop-opacity="0" offset="0%"></stop>
            <stop stop-color="#706FBF" offset="100%"></stop>
        </linearGradient>
        <linearGradient x1="41.9949002%" y1="-7.43850597%" x2="41.9949002%" y2="64.3480659%" id="linearGradient-2">
            <stop stop-color="#1A2238" offset="0%"></stop>
            <stop stop-color="#262D4F" offset="100%"></stop>
        </linearGradient>
        <linearGradient x1="50%" y1="6.83528029%" x2="50%" y2="100%" id="linearGradient-3">
            <stop stop-color="#4D4994" stop-opacity="0.237762238" offset="0%"></stop>
            <stop stop-color="#39348B" offset="100%"></stop>
        </linearGradient>
    </defs>
    <g id="Design" stroke="none" stroke-width="1" fill="none" fill-rule="evenodd">
        <g id="01—01—01x—Segment—Contact" transform="translate(-1188.000000, -553.000000)">
            <g id="Social-proof" transform="translate(836.000000, 128.000000)" fill="#F5F6FB" fill-rule="nonzero" opacity="0.6">
                <g id="logos" transform="translate(4.000000, 178.000000)">
                    <g id="logos-muted" transform="translate(0.000000, 161.000000)">
                        <g id="3" transform="translate(346.000000, 7.000000)">
                            <g id="logo-instacart" transform="translate(2.000000, 79.000000)">
                                <path d="M16.5733421,11.2126697 L16.5679855,11.2126697 C18.1749676,12.8144796 19.4551967,15.4094118 18.7106283,16.9578281 C16.7233271,21.0958371 1.89623888,28.3520362 0.632079628,27.1026244 C-0.632079628,25.8532127 6.65826252,11.04181 10.8149896,9.07692308 C12.363049,8.33475113 14.9770732,9.61085973 16.5733421,11.2126697 Z M108.310594,9.90986425 C109.536849,9.88915322 110.743257,10.2042749 111.799391,10.8180841 L112.060219,10.9777376 L112.274857,11.1231325 C114.032379,12.3640852 115.079988,14.3769255 115.086038,16.5233545 L115.081345,16.7923077 L115.081345,22.361267 C115.081345,22.8650992 114.700858,23.2803498 114.210673,23.3371008 L114.095729,23.3437104 L112.965485,23.3437104 C112.460026,23.3437104 112.043435,22.9644478 111.986501,22.4758406 L111.97987,22.361267 L111.97987,21.8914027 C110.991789,23.0469128 109.533359,23.6962873 108.010624,23.658733 C106.856374,23.6604961 105.72266,23.3544753 104.727024,22.7723982 C102.691513,21.6297738 101.438067,19.461991 101.438067,16.7923077 C101.352239,14.5470131 102.410648,12.417055 104.239426,11.1232687 L104.453837,10.9777376 L104.714664,10.8180841 C105.682787,10.2554256 106.777182,9.94374771 107.897387,9.91166151 L108.203462,9.90986425 L108.310594,9.90986425 Z M80.2526863,9.90986425 C81.4790591,9.88825716 82.6857137,10.2033774 83.7415657,10.8178929 L84.0023112,10.9777376 L84.216899,11.1231148 C85.9739621,12.3639506 87.0200452,14.3774214 87.0231491,16.5234146 L87.0180809,16.7923077 L87.0180809,22.361267 C87.0180809,22.8650992 86.6375937,23.2803498 86.1474089,23.3371008 L86.0324652,23.3437104 L84.9075778,23.3437104 C84.4021187,23.3437104 83.9855272,22.9644478 83.928593,22.4758406 L83.9219621,22.361267 L83.9219621,21.8914027 C82.9364963,23.0473317 81.4794161,23.6969821 79.9580729,23.658733 C78.8020404,23.6611895 77.6664209,23.3551535 76.6691162,22.7723982 C74.6389621,21.6297738 73.3855161,19.461991 73.3855161,16.7923077 C73.2887981,14.5579308 74.3280857,12.4320303 76.1376156,11.129983 L76.358433,10.9777376 L76.6193147,10.818211 C77.5876093,10.2559824 78.6818818,9.94433939 79.8020043,9.91179791 L80.1080579,9.90986425 L80.2526863,9.90986425 Z M67.3646898,6.10289593 C67.8701489,6.10289593 68.2867403,6.48215858 68.3436745,6.97076571 L68.3503055,7.08533937 L68.3503055,10.0326697 L71.0768185,10.0326697 C71.3391469,10.0312486 71.5912204,10.134128 71.7772193,10.3185261 C71.9322185,10.4721912 72.0306714,10.6718999 72.0591835,10.8855251 L72.0677908,11.0151131 L72.0677908,11.9121267 C72.0677908,12.1736146 71.9632183,12.4243156 71.7772193,12.6087137 C71.6222202,12.7623788 71.421336,12.8594337 71.2068697,12.8866945 L71.0768185,12.8945701 L68.3717319,12.8945701 L68.3717319,18.020362 C68.3717319,19.4947873 69.5708492,20.6900452 71.0500354,20.6900452 C71.5571287,20.690016 71.9764937,21.0678182 72.0385173,21.5575963 L72.0463643,21.6724887 L72.0463643,22.4253394 C72.0463643,22.7496235 71.917127,23.0606259 71.6870831,23.2899294 C71.4899025,23.4864753 71.2325046,23.6091975 70.9581131,23.6402499 L70.8197013,23.6480543 L70.5520903,23.6373685 C69.1295691,23.5472404 67.7884267,22.9293442 66.7965134,21.9000557 C65.8084748,20.8747878 65.2435338,19.520813 65.2063468,18.1064118 L65.2059772,7.08533937 C65.2059772,6.58150716 65.5864644,6.16625649 66.0766493,6.10950554 L66.1915929,6.10289593 L67.3646898,6.10289593 Z M129.817371,6.10289593 C130.32283,6.10289593 130.739422,6.48215858 130.796356,6.97076571 L130.802987,7.08533937 L130.802987,10.0326697 L133.508073,10.0326697 C133.770402,10.0312486 134.022475,10.134128 134.208474,10.3185261 C134.363473,10.4721912 134.461926,10.6718999 134.490438,10.8855251 L134.499046,11.0151131 L134.499046,11.9121267 C134.499046,12.1736146 134.394473,12.4243156 134.208474,12.6087137 C134.053475,12.7623788 133.852591,12.8594337 133.638124,12.8866945 L133.508073,12.8945701 L130.824413,12.8945701 L130.824413,18.020362 C130.824413,19.4947873 132.02353,20.6900452 133.502717,20.6900452 C134.00981,20.690016 134.429175,21.0678182 134.491198,21.5575963 L134.499046,21.6724887 L134.499046,22.4253394 C134.499046,22.7496235 134.369808,23.0606259 134.139764,23.2899294 C133.942584,23.4864753 133.685186,23.6091975 133.410794,23.6402499 L133.272383,23.6480543 L133.004772,23.6373685 C131.58225,23.5472404 130.241108,22.9293442 129.249195,21.9000557 C128.195287,20.8064366 127.62277,19.3388221 127.658658,17.8228054 L127.658658,7.08533937 C127.658658,6.58150716 128.039146,6.16625649 128.52933,6.10950554 L128.644274,6.10289593 L129.817371,6.10289593 Z M57.8085029,9.92054299 C59.2009761,9.94764065 60.5655992,10.3142797 61.7831053,10.9884163 C62.094844,11.1492449 62.3278228,11.4292141 62.42878,11.7643193 C62.5153146,12.0515523 62.4985121,12.3582435 62.3840872,12.6323364 L62.318766,12.7664253 L62.2116339,12.9586425 C61.9070025,13.5173944 61.240342,13.7598265 60.6539296,13.5455396 L60.5296593,13.4925792 L60.3796743,13.4124887 C59.5931477,12.9502939 58.7046225,12.6880783 57.7924331,12.6489593 C56.389002,12.6489593 55.435526,13.1775566 55.435526,14.0265158 C55.435526,14.7324987 56.0853287,15.1336763 57.2224835,15.3335025 L57.4281838,15.3666968 L58.7566223,15.5642534 C61.7938185,16.0180995 63.3365213,17.2408145 63.368661,19.3925792 C63.368661,22.0942986 61.1885219,23.6320362 57.6692311,23.6320362 C55.9895154,23.5733713 54.3472114,23.1215909 52.8750678,22.3132127 C52.5718879,22.1451082 52.352584,21.8588027 52.2697712,21.5229864 C52.1955519,21.2300413 52.2261252,20.922117 52.3534343,20.6512752 L52.4251128,20.5191855 L52.4947487,20.4017195 C52.7265412,20.0329827 53.1295893,19.8059935 53.5660701,19.798371 C53.7988387,19.7984758 54.0269801,19.8631852 54.2249328,19.9852489 C55.2575545,20.6100834 56.4452501,20.9337987 57.6531613,20.919638 C59.8440136,20.919638 60.1761232,20.161448 60.1761232,19.4993665 C60.1761232,18.8740674 59.5645442,18.467847 58.3052859,18.2582156 L58.0763332,18.2232579 L56.7371815,18.0523982 C53.8071175,17.6519457 52.259058,16.2957466 52.259058,14.16 C52.259058,11.5223529 54.4338405,9.92054299 57.8085029,9.92054299 Z M95.7386372,9.88316742 C97.0670799,9.86073046 98.3722307,10.2324305 99.4882621,10.9510407 C99.846392,11.1890193 100.080635,11.5726573 100.128166,11.999063 C100.169756,12.3721681 100.064671,12.7446061 99.8387915,13.0399201 L99.734666,13.1615385 L99.6221772,13.2843439 C99.1678224,13.7458383 98.4526041,13.8302334 97.9027064,13.4872398 C97.2476386,13.0427613 96.4721231,12.8080614 95.6797145,12.8144796 C93.5638547,12.8144796 92.0318651,14.4963801 92.0318651,16.7923077 C92.0318651,19.0882353 93.5370717,20.7487783 95.6797145,20.7487783 C96.4867489,20.7369657 97.2740298,20.4982101 97.9509159,20.06 C98.1684932,19.9213365 98.4211681,19.8472595 98.6794144,19.8464253 C99.0597207,19.8458071 99.4222059,20.0070407 99.6757433,20.2895928 L99.7560924,20.3696833 C100.039668,20.6840472 100.172953,21.1053166 100.121611,21.524964 C100.07027,21.9446113 99.8393209,22.3216049 99.4882621,22.5588235 C98.3719614,23.2768419 97.0669949,23.6484895 95.7386372,23.6266968 C91.678329,23.6266968 88.8446839,20.8021719 88.8446839,16.7549321 C88.8446839,12.7076923 91.678329,9.88316742 95.7386372,9.88316742 Z M34.5661851,10.0326697 C35.0716441,10.0326697 35.4882356,10.4119323 35.5451698,10.9005395 L35.5518008,11.0151131 L35.5518008,22.3452489 C35.5518008,22.8490811 35.1713135,23.2643317 34.6811287,23.3210827 L34.5661851,23.3276923 L33.4573674,23.3276923 C32.9519084,23.3276923 32.5353169,22.9484297 32.4783827,22.4598225 L32.4717517,22.3452489 L32.4717517,11.0151131 C32.4717517,10.5112809 32.852239,10.0960303 33.3424238,10.0392793 L33.4573674,10.0326697 L34.5661851,10.0326697 Z M48.4120649,11.5647809 C49.4975093,12.5957942 50.1525562,13.9928321 50.2539142,15.4771969 L50.2664002,15.7564706 L50.2664002,22.3452489 C50.2664002,22.8490811 49.8859129,23.2643443 49.3957281,23.321097 L49.2807845,23.3277068 L48.1558971,23.3277068 C47.650438,23.3277068 47.2338465,22.9484317 47.1769123,22.4598227 L47.1702814,22.3452489 L47.1702814,16.2530317 C47.1702814,14.2133937 45.9329051,12.8625339 44.122372,12.8625339 C42.374271,12.8625339 41.1604804,14.1218372 41.0788493,16.0445188 L41.0744626,16.2530317 L41.0744626,22.3452489 C41.0744665,22.6067368 40.9698901,22.8574377 40.7838912,23.0418359 C40.628892,23.195501 40.4280078,23.2925559 40.2135415,23.319825 L40.0834903,23.3277068 L38.9639594,23.3277068 C38.4585004,23.3277068 38.0419089,22.9484317 37.9849747,22.4598227 L37.9783437,22.3452489 L37.9783437,15.7564706 C38.0119882,14.1688916 38.6793944,12.6602325 39.832679,11.5647809 C40.9859636,10.4693293 42.5298957,9.87754066 44.122372,9.92054299 C45.7148482,9.87754066 47.2587803,10.4693293 48.4120649,11.5647809 Z M123.212675,9.92054299 C123.899089,9.91448365 124.584959,9.96089418 125.264255,10.0593665 C125.492901,10.1074068 125.69427,10.2412208 125.826699,10.4331222 C125.952563,10.6394215 125.992909,10.8864603 125.939188,11.1219005 C125.880265,11.3461538 125.821342,11.5971041 125.740993,11.9281448 C125.597528,12.5328204 125.057335,12.960936 124.433981,12.9639819 C124.346668,12.9718532 124.25882,12.9718532 124.171507,12.9639819 C123.864553,12.902063 123.552584,12.8681071 123.239458,12.8625339 C122.427264,12.8495479 121.646109,13.1732244 121.08249,13.7562872 C120.565839,14.2907614 120.274483,14.9992211 120.262763,15.7363671 L120.266541,15.938009 L120.266541,22.3452489 C120.266541,22.8490811 119.886053,23.2643443 119.395869,23.321097 L119.280925,23.3277068 L118.161394,23.3277068 C117.899066,23.3291134 117.646992,23.226234 117.460993,23.0418359 C117.305994,22.8881708 117.207541,22.688462 117.179029,22.4748369 L117.170422,22.3452489 L117.170422,15.7938462 C117.170422,12.6238317 119.689931,10.040386 122.84179,9.92459407 L123.06269,9.92054299 L123.212675,9.92054299 Z M108.64806,12.8678733 L107.892778,12.8678733 L107.697546,12.8938173 C105.8947,13.1818738 104.641318,14.7462256 104.641318,16.8083258 C104.55389,18.4430706 105.527633,19.9495578 107.057148,20.5458824 C107.316969,20.6321071 107.584596,20.692047 107.855981,20.7249354 L108.128469,20.7487783 L108.423083,20.7487783 C108.787671,20.7290863 109.147976,20.6608487 109.494404,20.5458824 C111.019695,19.9460104 111.988583,18.4403573 111.899521,16.8083258 C111.899521,14.6619005 110.555012,13.0654299 108.64806,12.8678733 Z M80.5955091,12.8678733 L79.8134445,12.8678733 L79.618212,12.8938173 C77.8153664,13.1818738 76.561984,14.7462256 76.561984,16.8083258 C76.4753701,18.4444303 77.4515427,19.9513364 78.9831704,20.5458824 C79.2429053,20.6324362 79.5105443,20.6924648 79.7819643,20.725187 L80.0544918,20.7487783 L80.3491052,20.7487783 C80.7137484,20.7295365 81.0741134,20.6612875 81.4204266,20.5458824 C82.9541671,19.9531183 83.9327721,18.4457922 83.8469696,16.8083258 C83.8469696,14.6619005 82.5024612,13.0654299 80.5955091,12.8678733 Z M22.377152,7.41741773 L22.5298891,7.42705882 C23.4524859,7.53761512 24.0903855,8.39546102 24.3766004,9.28836221 L24.426128,9.4560181 L24.4314846,9.4720362 C24.6832451,10.4277828 24.576113,11.639819 23.8047616,12.1737557 C22.3049116,13.2469683 18.292813,11.9334842 18.0892619,11.1646154 C17.8970192,10.4384615 20.4186585,7.56438272 22.2201529,7.42270365 L22.377152,7.41741773 Z M18.8499001,0.672760181 L18.8499001,0.656742081 C20.1890518,1.019819 21.5282036,1.93819005 21.699615,3.32642534 C21.9942284,5.84660633 17.5268181,9.81909502 16.46621,9.53076923 C15.4056018,9.24244344 13.5361459,3.65746606 15.0467091,1.54841629 C15.8287737,0.480542986 17.5107483,0.315022624 18.8499001,0.672760181 Z M33.9983847,5.27529412 L33.9983847,5.30199095 C34.6989198,5.2648384 35.3627959,5.61624128 35.7242679,6.21553541 C36.08574,6.81482953 36.08574,7.5640845 35.7242679,8.16337862 C35.3627959,8.76267274 34.6989198,9.11407563 33.9983847,9.07692308 C33.4955513,9.08160015 33.0126429,8.88123748 32.6616514,8.52230143 C32.3106599,8.16336539 32.1220787,7.67703961 32.1396421,7.1761086 C32.1310516,6.6777159 32.322572,6.19655647 32.6716234,5.83960444 C33.0206748,5.48265242 33.4983267,5.27949313 33.9983847,5.27529412 Z" id="Combined-Shape"></path>
                            </g>
                        </g>
                    </g>
                </g>
            </g>
        </g>
    </g>
</svg>
