<?xml version="1.0" encoding="UTF-8"?>
<svg width="90px" height="27px" viewBox="0 0 90 27" version="1.1" xmlns="http://www.w3.org/2000/svg" xmlns:xlink="http://www.w3.org/1999/xlink">
    <!-- Generator: Sketch 61 (89581) - https://sketch.com -->
    <title>intuit-seeklogo.com</title>
    <desc>Created with Sketch.</desc>
    <defs>
        <linearGradient x1="50%" y1="0%" x2="50%" y2="13.0733808%" id="linearGradient-1">
            <stop stop-color="#706FBF" stop-opacity="0" offset="0%"></stop>
            <stop stop-color="#706FBF" offset="100%"></stop>
        </linearGradient>
        <linearGradient x1="41.9949002%" y1="-7.43850597%" x2="41.9949002%" y2="64.3480659%" id="linearGradient-2">
            <stop stop-color="#1A2238" offset="0%"></stop>
            <stop stop-color="#262D4F" offset="100%"></stop>
        </linearGradient>
        <linearGradient x1="50%" y1="6.83528029%" x2="50%" y2="100%" id="linearGradient-3">
            <stop stop-color="#4D4994" stop-opacity="0.237762238" offset="0%"></stop>
            <stop stop-color="#39348B" offset="100%"></stop>
        </linearGradient>
    </defs>
    <g id="Design" stroke="none" stroke-width="1" fill="none" fill-rule="evenodd">
        <g id="01—01—01x—Segment—Contact" transform="translate(-840.000000, -553.000000)">
            <g id="Social-proof" transform="translate(836.000000, 128.000000)" fill="#F5F6FB" opacity="0.6">
                <g id="logos" transform="translate(4.000000, 178.000000)">
                    <g id="logos-muted" transform="translate(0.000000, 161.000000)">
                        <g id="1" transform="translate(0.000000, 1.000000)">
                            <g id="intuit-seeklogo.com" transform="translate(0.000000, 85.000000)">
                                <path d="M48.6651779,8.19052625 C49.2566833,8.19052625 49.5896022,8.37432993 49.5896022,9.04106877 L49.5896022,19.1908161 C49.5896022,21.2234686 50.1063248,22.6263231 52.323682,22.6263231 C53.7251851,22.6263231 55.4997015,21.8514645 56.6079295,20.8540592 L56.6079295,9.04106877 C56.6079295,8.41262237 56.9408485,8.19052625 57.5301014,8.19052625 L60.1529079,8.19052625 C60.7448638,8.19052625 61.0777828,8.37432993 61.0777828,9.04106877 L61.0777828,25.1018163 C61.0777828,25.8771255 60.8547857,26.1352615 60.1168679,26.1352615 L57.7521975,26.1352615 C57.2719654,26.1352615 56.903457,25.8771255 56.8674171,25.3977943 L56.8295752,24.4733699 C55.1293911,25.8419866 53.0976396,26.5794538 50.9550654,26.5794538 C46.8181311,26.5794538 45.119749,23.9584493 45.119749,19.9670263 L45.119749,9.04106877 C45.119749,8.41262237 45.4887079,8.19052625 46.0779609,8.19052625 L48.6651779,8.19052625 Z M88.3253269,23.8584385 C88.9781002,23.8584385 89.5245558,24.3733591 89.5245558,25.0486574 C89.5245558,25.7356687 88.9781002,26.2514903 88.3253269,26.2514903 C87.6694,26.2514903 87.1193405,25.7356687 87.1193405,25.0486574 C87.1193405,24.3733591 87.6694,23.8584385 88.3253269,23.8584385 Z M3.78959941,8.18962526 C4.23289064,8.18962526 4.49102669,8.44821181 4.49102669,8.92754297 L4.49102669,25.2121886 C4.49102669,25.8771255 4.1945982,26.1352615 3.56750329,26.1352615 L0.960914829,26.1352615 C0.297779982,26.1352615 -3.64153152e-14,25.8771255 -3.64153152e-14,25.2121886 L-3.64153152e-14,8.92754297 C-3.64153152e-14,8.48560324 0.222096114,8.18962526 0.664486344,8.18962526 L3.78959941,8.18962526 Z M69.4899546,8.18962526 C69.9341469,8.18962526 70.1922829,8.44821181 70.1922829,8.92754297 L70.1922829,25.2121886 C70.1922829,25.8771255 69.8963049,26.1352615 69.2678585,26.1352615 L66.6608196,26.1352615 C65.9976847,26.1352615 65.6999047,25.8771255 65.6999047,25.2121886 L65.6999047,8.92754297 C65.6999047,8.48560324 65.9233523,8.18962526 66.3652921,8.18962526 L69.4899546,8.18962526 Z M19.3444364,7.74047754 C23.4818212,7.74047754 25.1802032,10.3258925 25.1802032,14.3524545 L25.1802032,25.1747972 C25.1802032,25.8032436 24.9590081,26.1352615 24.2927197,26.1352615 L21.6334229,26.1352615 C20.968486,26.1352615 20.7472909,25.8032436 20.7472909,25.1747972 L20.7472909,15.1264122 C20.7472909,13.0960122 20.1940779,11.6548652 17.9393293,11.6548652 C16.4981823,11.6548652 14.7259184,12.4319764 13.5807494,13.4280301 L13.5807494,25.2121886 C13.5807494,25.8419866 13.3221628,26.1352615 12.6955184,26.1352615 L9.99747861,26.1352615 C9.44336457,26.1352615 9.11044565,25.8419866 9.11044565,25.2491296 L9.11044565,9.11765364 C9.11044565,8.52614817 9.3708342,8.19413025 10.03487,8.19413025 L12.4351299,8.19413025 C12.9518525,8.19413025 13.2865734,8.34144349 13.3221628,8.89555753 L13.3586533,9.88124981 C15.0588373,8.51578669 17.2018621,7.74047754 19.3444364,7.74047754 Z M41.3134811,8.18962526 C41.7567724,8.18962526 42.0153589,8.3369385 42.0153589,8.81762116 L42.0153589,11.4192541 C42.0153589,11.8620949 41.7202819,12.1211319 41.2760897,12.1211319 L36.9949957,12.1211319 L36.9949957,25.2121886 C36.9949957,25.8771255 36.6999187,26.1352615 36.0340808,26.1352615 L33.4639828,26.1352615 C32.7985955,26.1352615 32.503969,25.8771255 32.503969,25.2121886 L32.503969,12.1211319 L28.2215234,12.1211319 C27.7786827,12.1211319 27.4831552,11.8620949 27.4831552,11.4192541 L27.4831552,8.81762116 C27.4831552,8.3369385 27.7412912,8.18962526 28.185033,8.18962526 L41.3134811,8.18962526 Z M87.1544794,8.18962526 C87.5968696,8.18962526 87.8550057,8.3369385 87.8550057,8.81762116 L87.8550057,11.4192541 C87.8550057,11.8620949 87.5603792,12.1211319 87.116187,12.1211319 L82.8350929,12.1211319 L82.8350929,25.2121886 C82.8350929,25.8771255 82.5404664,26.1352615 81.8750791,26.1352615 L79.3036296,26.1352615 C78.6386927,26.1352615 78.3440662,25.8771255 78.3440662,25.2121886 L78.3431652,12.1211319 L74.0629722,12.1211319 C73.61878,12.1211319 73.3232525,11.8620949 73.3232525,11.4192541 L73.3232525,8.81762116 C73.3232525,8.3369385 73.58274,8.18962526 74.0242292,8.18962526 L87.1544794,8.18962526 Z M88.3253269,24.0341332 C87.7653563,24.0341332 87.3364811,24.4765234 87.3364811,25.0486574 C87.3364811,25.6347569 87.7653563,26.0757956 88.3253269,26.0757956 C88.8794409,26.0757956 89.3074152,25.6347569 89.3074152,25.0486574 C89.3074152,24.4765234 88.8794409,24.0341332 88.3253269,24.0341332 Z M88.3978572,24.3544381 C88.7312267,24.3544381 88.8884509,24.4855334 88.8884509,24.7549319 C88.8884509,25.0063105 88.7294247,25.1130788 88.520393,25.1351533 L88.9208868,25.7527877 L88.6866272,25.7527877 L88.3064059,25.1504703 L88.0752998,25.1504703 L88.0752998,25.7527877 L87.8581592,25.7527877 L87.8581592,24.3544381 L88.3978572,24.3544381 Z M88.3636193,24.5305833 L88.0752998,24.5305833 L88.0752998,24.9747756 L88.3028019,24.9747756 C88.4951651,24.9747756 88.6704093,24.9657656 88.6704093,24.745021 C88.6704093,24.5589648 88.511383,24.5305833 88.3636193,24.5305833 Z M34.7492571,0.439236736 C36.246266,0.439236736 37.4585593,1.65288163 37.4585593,3.14898952 C37.4585593,4.64554792 36.246266,5.85739081 34.7492571,5.85739081 C33.2535997,5.85739081 32.0395043,4.64554792 32.0395043,3.14898952 C32.0395043,1.65288163 33.2535997,0.439236736 34.7492571,0.439236736 Z M80.5898048,0.439236736 C82.0863632,0.439236736 83.2995576,1.65288163 83.2995576,3.14898952 C83.2995576,4.64554792 82.0863632,5.85739081 80.5898048,5.85739081 C79.0936969,5.85739081 77.8805025,4.64554792 77.8805025,3.14898952 C77.8805025,1.65288163 79.0936969,0.439236736 80.5898048,0.439236736 Z" id="Combined-Shape"></path>
                            </g>
                        </g>
                    </g>
                </g>
            </g>
        </g>
    </g>
</svg>
