<?xml version="1.0" encoding="utf-8"?>
<!-- Generator: Adobe Illustrator 24.0.2, SVG Export Plug-In . SVG Version: 6.00 Build 0)  -->
<svg version="1.1" id="Layer_1" xmlns="http://www.w3.org/2000/svg" xmlns:xlink="http://www.w3.org/1999/xlink" height="35px" width="70px" 
	 viewBox="0 0 400 200" style="enable-background:new 0 0 400 200;" xml:space="preserve">
<style type="text/css">
	.st0{fill:#F5F6FB;opacity:0.6}
</style>
<g>
	<path class="st0" d="M341.9,189.3L341.9,189.3c-0.2-0.2-0.5-0.4-0.9-0.5c0.9-0.1,1.6-0.4,2.2-1c0.5-0.6,0.8-1.2,0.8-2
		c0-0.5-0.2-1.1-0.5-1.5c-0.3-0.4-0.7-0.8-1.3-1c-0.5-0.2-1.4-0.3-2.5-0.3h-3.5v10.3h1.6V189h1c0.6,0,1,0.1,1.3,0.3
		c0.4,0.3,1,1.1,1.7,2.4l0.9,1.6h2l-1.2-2C342.8,190.4,342.4,189.7,341.9,189.3z M339.8,187.5h-2v-3.1h1.9c0.8,0,1.3,0.1,1.6,0.2
		c0.3,0.2,0.6,0.3,0.7,0.5c0.2,0.3,0.2,0.5,0.2,0.8c0,0.5-0.2,0.8-0.5,1.2C341.4,187.4,340.7,187.5,339.8,187.5z"/>
	<path class="st0" d="M345,179.6c-1.5-0.8-3.1-1.2-4.7-1.2c-1.6,0-3.1,0.4-4.6,1.2c-1.5,0.9-2.7,2-3.6,3.6c-0.9,1.6-1.2,3.2-1.2,4.8
		c0,1.7,0.4,3.2,1.2,4.8c0.9,1.5,2,2.7,3.5,3.6c1.5,0.9,3,1.3,4.7,1.3c1.6,0,3.2-0.4,4.7-1.3c1.5-0.8,2.7-2,3.5-3.6
		c0.8-1.5,1.3-3.1,1.3-4.8c0-1.7-0.4-3.3-1.3-4.8C347.6,181.7,346.4,180.5,345,179.6z M347.1,192c-0.7,1.3-1.7,2.3-3,3
		c-1.2,0.7-2.5,1.1-3.9,1.1c-1.4,0-2.7-0.4-3.9-1.1c-1.3-0.7-2.2-1.7-3-3c-0.7-1.2-1-2.5-1-4c0-1.4,0.3-2.7,1-4
		c0.7-1.3,1.7-2.3,2.9-3c1.3-0.7,2.5-1,3.9-1c1.3,0,2.6,0.3,3.9,1c1.2,0.7,2.2,1.7,3,3c0.7,1.3,1,2.6,1,4
		C348.1,189.5,347.8,190.8,347.1,192z"/>
	<path class="st0" d="M2.7,2.7l37.9,179l2.9-1.5c40.3-21.1,80.5-19.9,107.1-15.1c28.9,5.2,48.6,15.5,48.8,15.6l1,0.6l1.1-0.5
		c47.5-21.1,86.8-19.9,111.3-15.2c26.6,5.2,42.2,15.4,42.4,15.6l3,2l0.8-3.5L397.7,2.7L2.7,2.7z M107.1,111.8H51.4V53.1h22.2v43.7
		h33.5V111.8z M143,113.8c-22.7,0-34.8-11.7-34.8-31.4c0-19.6,12.5-31.3,33.5-31.3c22.4,0,33.5,14.3,33.5,31.3
		c0,1.3-0.1,2.6-0.3,3.6h-42.4c0,8.3,4.7,13.5,12.1,13.5c6.3,0,11.2-1.8,12.2-7h18.5C173.1,106,163.6,113.8,143,113.8z M216.5,111.9
		h-18.3l-29.1-59.3h25.6l15.6,34.2h0.4l15.6-34.2h18.3L216.5,111.9z M270.2,111.8H248V52.5h22.2V111.8z M290.7,57.3L290.7,57.3
		l-7.7,9.3h-3.2l3.5-10.1h-7V42.9h14.4V57.3z M319.6,113.1c-20.3,0-27.9-8.9-27.9-19.8V93h18.6c0,5.1,4,7.7,9.7,7.7
		c5,0,7.6-1.7,7.6-4.9c0-8.5-35.4-0.4-35.4-24.3c0-12.8,11.9-20.3,30.6-20.3c16.6,0,26.7,8.2,26.7,18.1h-17c0-2.8-3.5-5.7-9.6-5.7
		c-6.2,0-8.5,2.2-8.5,4.1c0,9.3,37.1,0.2,37.1,24.5C351.4,104,342.6,113.1,319.6,113.1z"/>
	<path class="st0" d="M141.9,63.8c-6.3,0-8.5,5.9-8.5,11.7h16.9C150.3,69,148.2,63.8,141.9,63.8z"/>
</g>
</svg>
