<svg width="591" height="571" viewBox="0 0 591 571" fill="none" xmlns="http://www.w3.org/2000/svg">
<rect x="0.0800781" y="0.570312" width="590" height="570" fill="white"/>
<rect x="16.5928" y="10.5586" width="558" height="554.311" fill="white"/>
<path d="M539.175 536.354C539.727 536.354 540.175 535.906 540.175 535.354C540.175 534.801 539.727 534.354 539.175 534.354C538.623 534.354 538.175 534.801 538.175 535.354C538.175 535.906 538.623 536.354 539.175 536.354Z" stroke="#262E4F" stroke-opacity="0.5" stroke-width="2" stroke-linecap="round" stroke-linejoin="round"/>
<path d="M546.175 536.354C546.727 536.354 547.175 535.906 547.175 535.354C547.175 534.801 546.727 534.354 546.175 534.354C545.623 534.354 545.175 534.801 545.175 535.354C545.175 535.906 545.623 536.354 546.175 536.354Z" stroke="#262E4F" stroke-opacity="0.5" stroke-width="2" stroke-linecap="round" stroke-linejoin="round"/>
<path d="M532.175 536.354C532.727 536.354 533.175 535.906 533.175 535.354C533.175 534.801 532.727 534.354 532.175 534.354C531.623 534.354 531.175 534.801 531.175 535.354C531.175 535.906 531.623 536.354 532.175 536.354Z" stroke="#262E4F" stroke-opacity="0.5" stroke-width="2" stroke-linecap="round" stroke-linejoin="round"/>
<rect x="46.0762" y="51.7129" width="212.373" height="41.2204" rx="4.5" fill="#6152BD" stroke="#6152BD"/>
<path d="M102.098 78.168C104.988 78.168 107.062 76.689 107.419 73.765H105.209C104.971 75.482 103.781 76.332 102.098 76.332C99.8538 76.332 98.5448 74.717 98.5448 71.98V71.844C98.5448 69.124 99.9388 67.458 102.081 67.458C103.832 67.458 104.733 68.291 104.988 69.906H107.283C107.011 67.05 104.852 65.656 102.064 65.656C98.6808 65.656 96.1648 68.206 96.1648 71.861V71.997C96.1648 75.737 98.2898 78.168 102.098 78.168ZM111.619 78.168C112.979 78.168 113.761 77.675 114.339 76.91V77.998H116.362V72.167C116.362 69.736 114.798 68.92 112.809 68.92C110.82 68.92 109.171 69.787 109.001 71.861H110.99C111.092 70.977 111.619 70.467 112.69 70.467C113.897 70.467 114.305 71.062 114.305 72.252V72.711H113.2C110.65 72.711 108.644 73.459 108.644 75.533C108.644 77.386 109.987 78.168 111.619 78.168ZM112.112 76.689C111.092 76.689 110.684 76.196 110.684 75.448C110.684 74.36 111.687 74.003 113.251 74.003H114.305V74.887C114.305 76.026 113.37 76.689 112.112 76.689ZM118.72 77.998H120.777V73.374C120.777 71.487 121.865 70.909 123.667 70.892V68.971C122.171 68.988 121.338 69.651 120.777 70.773V69.107H118.72V77.998ZM128.586 78.151C129.215 78.151 129.657 78.049 129.98 77.93V76.298C129.691 76.417 129.385 76.468 128.977 76.468C128.331 76.468 127.957 76.111 127.957 75.329V70.654H129.912V69.107H127.957V67.152H125.9V69.107H124.71V70.654H125.9V75.516C125.9 77.199 126.818 78.151 128.586 78.151ZM135.121 77.998H137.246L138.198 74.989H142.839L143.808 77.998H146.154L142.142 65.843H139.184L135.121 77.998ZM140.527 67.696L142.312 73.34H138.725L140.527 67.696ZM152.803 78.168C155.098 78.168 156.747 76.434 156.747 73.578V73.442C156.747 70.569 155.03 68.92 152.803 68.92C151.494 68.92 150.389 69.685 149.896 70.535V64.993H147.839V77.998H149.896V76.57C150.372 77.471 151.392 78.168 152.803 78.168ZM152.293 76.536C150.797 76.536 149.828 75.601 149.828 73.612V73.476C149.828 71.504 150.848 70.535 152.276 70.535C153.619 70.535 154.639 71.504 154.639 73.476V73.612C154.639 75.516 153.806 76.536 152.293 76.536ZM160.926 78.168C162.286 78.168 163.068 77.675 163.646 76.91V77.998H165.669V72.167C165.669 69.736 164.105 68.92 162.116 68.92C160.127 68.92 158.478 69.787 158.308 71.861H160.297C160.399 70.977 160.926 70.467 161.997 70.467C163.204 70.467 163.612 71.062 163.612 72.252V72.711H162.507C159.957 72.711 157.951 73.459 157.951 75.533C157.951 77.386 159.294 78.168 160.926 78.168ZM161.419 76.689C160.399 76.689 159.991 76.196 159.991 75.448C159.991 74.36 160.994 74.003 162.558 74.003H163.612V74.887C163.612 76.026 162.677 76.689 161.419 76.689ZM168.027 77.998H170.084V72.762C170.084 71.351 171.019 70.637 172.175 70.637C173.399 70.637 173.943 71.249 173.943 72.592V77.998H176V72.405C176 69.957 174.742 68.92 172.957 68.92C171.495 68.92 170.509 69.651 170.084 70.518V69.107H168.027V77.998ZM181.702 78.168C183.011 78.168 184.15 77.386 184.626 76.502V77.998H186.683V64.993H184.626V70.467C184.133 69.583 183.232 68.92 181.787 68.92C179.475 68.92 177.792 70.722 177.792 73.561V73.697C177.792 76.587 179.475 78.168 181.702 78.168ZM182.212 76.536C180.886 76.536 179.9 75.601 179.9 73.646V73.51C179.9 71.589 180.784 70.535 182.297 70.535C183.793 70.535 184.694 71.504 184.694 73.459V73.595C184.694 75.584 183.64 76.536 182.212 76.536ZM193.105 76.57C191.541 76.57 190.64 75.431 190.64 73.612V73.476C190.64 71.64 191.575 70.535 193.105 70.535C194.635 70.535 195.553 71.657 195.553 73.493V73.612C195.553 75.431 194.635 76.57 193.105 76.57ZM193.088 78.168C195.706 78.168 197.661 76.366 197.661 73.595V73.459C197.661 70.739 195.706 68.92 193.105 68.92C190.487 68.92 188.532 70.756 188.532 73.51V73.646C188.532 76.349 190.47 78.168 193.088 78.168ZM199.52 77.998H201.577V72.762C201.577 71.351 202.512 70.637 203.668 70.637C204.892 70.637 205.436 71.249 205.436 72.592V77.998H207.493V72.405C207.493 69.957 206.235 68.92 204.45 68.92C202.988 68.92 202.002 69.651 201.577 70.518V69.107H199.52V77.998ZM213.773 78.168C216.051 78.168 217.564 77.148 217.853 75.278H215.864C215.711 76.145 215.065 76.638 213.824 76.638C212.294 76.638 211.444 75.686 211.376 74.003H217.887V73.408C217.887 70.229 215.898 68.92 213.688 68.92C211.155 68.92 209.268 70.756 209.268 73.51V73.646C209.268 76.451 211.155 78.168 213.773 78.168ZM211.41 72.626C211.614 71.249 212.447 70.416 213.688 70.416C214.963 70.416 215.745 71.096 215.847 72.626H211.41ZM219.724 77.998H221.781V73.374C221.781 71.487 222.869 70.909 224.671 70.892V68.971C223.175 68.988 222.342 69.651 221.781 70.773V69.107H219.724V77.998ZM229.524 78.168C231.802 78.168 233.077 77.131 233.077 75.329C233.077 73.442 231.836 72.932 229.745 72.609C228.334 72.371 227.909 72.116 227.909 71.47C227.909 70.841 228.436 70.416 229.32 70.416C230.272 70.416 230.731 70.79 230.901 71.606H232.805C232.584 69.6 231.139 68.92 229.32 68.92C227.654 68.92 225.988 69.804 225.988 71.589C225.988 73.255 226.855 73.918 229.201 74.292C230.51 74.513 231.105 74.785 231.105 75.516C231.105 76.264 230.612 76.655 229.507 76.655C228.3 76.655 227.841 76.128 227.739 75.227H225.801C225.886 77.114 227.229 78.168 229.524 78.168Z" fill="white"/>
<path fill-rule="evenodd" clip-rule="evenodd" d="M67.0424 64.3366C67.0424 65.7974 68.1983 66.9817 69.6242 66.9817C71.0501 66.9817 72.206 65.7974 72.206 64.3366C72.206 62.8757 71.0501 61.6914 69.6242 61.6914C68.1983 61.6914 67.0424 62.8757 67.0424 64.3366ZM62.7397 71.3899V78.4445H64.4605V80.2075C64.4605 80.6947 64.075 81.0897 63.5995 81.0897H61.8787C61.4036 81.0897 61.0177 80.6943 61.0177 80.2075V75.7994H59.2969V70.5091C59.2969 69.5343 60.0675 68.7447 61.0177 68.7447H63.6227C63.0754 69.4841 62.7397 70.394 62.7397 71.3899ZM71.3449 82.8527H67.9034C67.4278 82.8527 67.0423 82.4577 67.0423 81.9705V76.6802H64.4605V71.3899C64.4605 69.929 65.6164 68.7447 67.0423 68.7447H72.206C73.6319 68.7447 74.7878 69.929 74.7878 71.3899V76.6802H72.206V81.9705C72.206 82.4577 71.8205 82.8527 71.3449 82.8527ZM61.0183 66.1002C61.0183 67.0743 61.789 67.8639 62.7398 67.8639C63.6905 67.8639 64.4612 67.0743 64.4612 66.1002C64.4612 65.1262 63.6905 64.3366 62.7398 64.3366C61.789 64.3366 61.0183 65.1262 61.0183 66.1002ZM76.5086 78.4445V71.3899C76.5086 70.394 76.1729 69.4841 75.6256 68.7447H78.2306C79.1807 68.7447 79.9514 69.5343 79.9514 70.5091V75.7994H78.2306V80.2075C78.2306 80.6947 77.8451 81.0897 77.3696 81.0897H75.6488C75.1733 81.0897 74.7878 80.6947 74.7878 80.2075V78.4445H76.5086ZM78.23 66.1002C78.23 67.0743 77.4593 67.8639 76.5086 67.8639C75.5579 67.8639 74.7872 67.0743 74.7872 66.1002C74.7872 65.1262 75.5579 64.3366 76.5086 64.3366C77.4593 64.3366 78.23 65.1262 78.23 66.1002Z" fill="white"/>
<path d="M48.7262 123.395H50.6022V114.855H53.3882V113.385H45.9402V114.855H48.7262V123.395ZM54.7463 123.395H56.4403V119.083C56.4403 117.921 57.2103 117.333 58.1623 117.333C59.1703 117.333 59.6183 117.837 59.6183 118.943V123.395H61.3123V118.789C61.3123 116.773 60.2763 115.919 58.8063 115.919C57.6023 115.919 56.7903 116.521 56.4403 117.235V112.685H54.7463V123.395ZM63.3059 123.395H64.9999V116.073H63.3059V123.395ZM64.1319 114.869C64.6919 114.869 65.1399 114.449 65.1399 113.903C65.1399 113.343 64.6919 112.923 64.1319 112.923C63.5719 112.923 63.1239 113.343 63.1239 113.903C63.1239 114.449 63.5719 114.869 64.1319 114.869ZM69.5706 123.535C71.4466 123.535 72.4966 122.681 72.4966 121.197C72.4966 119.643 71.4746 119.223 69.7526 118.957C68.5906 118.761 68.2406 118.551 68.2406 118.019C68.2406 117.501 68.6746 117.151 69.4026 117.151C70.1866 117.151 70.5646 117.459 70.7046 118.131H72.2726C72.0906 116.479 70.9006 115.919 69.4026 115.919C68.0306 115.919 66.6586 116.647 66.6586 118.117C66.6586 119.489 67.3726 120.035 69.3046 120.343C70.3826 120.525 70.8726 120.749 70.8726 121.351C70.8726 121.967 70.4666 122.289 69.5566 122.289C68.5626 122.289 68.1846 121.855 68.1006 121.113H66.5046C66.5746 122.667 67.6806 123.535 69.5706 123.535ZM79.2365 123.535C80.3565 123.535 81.0005 123.129 81.4765 122.499V123.395H83.1425V118.593C83.1425 116.591 81.8545 115.919 80.2165 115.919C78.5785 115.919 77.2205 116.633 77.0805 118.341H78.7185C78.8025 117.613 79.2365 117.193 80.1185 117.193C81.1125 117.193 81.4485 117.683 81.4485 118.663V119.041H80.5385C78.4385 119.041 76.7865 119.657 76.7865 121.365C76.7865 122.891 77.8925 123.535 79.2365 123.535ZM79.6425 122.317C78.8025 122.317 78.4665 121.911 78.4665 121.295C78.4665 120.399 79.2925 120.105 80.5805 120.105H81.4485V120.833C81.4485 121.771 80.6785 122.317 79.6425 122.317ZM87.5342 123.535C88.7242 123.535 89.4942 122.961 89.8582 122.247V123.395H91.5522V116.073H89.8582V120.427C89.8582 121.589 89.0602 122.177 88.1502 122.177C87.1702 122.177 86.7082 121.673 86.7082 120.567V116.073H85.0142V120.763C85.0142 122.709 86.0922 123.535 87.5342 123.535ZM96.3047 123.535C97.3827 123.535 98.3207 122.891 98.7127 122.163V123.395H100.407V112.685H98.7127V117.193C98.3067 116.465 97.5647 115.919 96.3747 115.919C94.4707 115.919 93.0847 117.403 93.0847 119.741V119.853C93.0847 122.233 94.4707 123.535 96.3047 123.535ZM96.7247 122.191C95.6327 122.191 94.8207 121.421 94.8207 119.811V119.699C94.8207 118.117 95.5487 117.249 96.7947 117.249C98.0267 117.249 98.7687 118.047 98.7687 119.657V119.769C98.7687 121.407 97.9007 122.191 96.7247 122.191ZM102.462 123.395H104.156V116.073H102.462V123.395ZM103.288 114.869C103.848 114.869 104.296 114.449 104.296 113.903C104.296 113.343 103.848 112.923 103.288 112.923C102.728 112.923 102.28 113.343 102.28 113.903C102.28 114.449 102.728 114.869 103.288 114.869ZM109.441 123.535C111.317 123.535 112.563 122.695 112.801 121.155H111.163C111.037 121.869 110.505 122.275 109.483 122.275C108.223 122.275 107.523 121.491 107.467 120.105H112.829V119.615C112.829 116.997 111.191 115.919 109.371 115.919C107.285 115.919 105.731 117.431 105.731 119.699V119.811C105.731 122.121 107.285 123.535 109.441 123.535ZM107.495 118.971C107.663 117.837 108.349 117.151 109.371 117.151C110.421 117.151 111.065 117.711 111.149 118.971H107.495ZM114.342 123.395H116.036V119.083C116.036 117.921 116.806 117.333 117.758 117.333C118.766 117.333 119.214 117.837 119.214 118.943V123.395H120.908V118.789C120.908 116.773 119.872 115.919 118.402 115.919C117.198 115.919 116.386 116.521 116.036 117.235V116.073H114.342V123.395ZM126.066 123.535C128.054 123.535 129.328 122.345 129.454 120.665H127.9C127.802 121.701 127.032 122.233 126.136 122.233C124.89 122.233 124.106 121.393 124.106 119.797V119.685C124.106 118.173 124.932 117.277 126.094 117.277C126.99 117.277 127.634 117.683 127.774 118.663H129.412C129.216 116.647 127.69 115.919 126.066 115.919C124.022 115.919 122.37 117.389 122.37 119.713V119.825C122.37 122.163 123.966 123.535 126.066 123.535ZM134.132 123.535C136.008 123.535 137.254 122.695 137.492 121.155H135.854C135.728 121.869 135.196 122.275 134.174 122.275C132.914 122.275 132.214 121.491 132.158 120.105H137.52V119.615C137.52 116.997 135.882 115.919 134.062 115.919C131.976 115.919 130.422 117.431 130.422 119.699V119.811C130.422 122.121 131.976 123.535 134.132 123.535ZM132.186 118.971C132.354 117.837 133.04 117.151 134.062 117.151C135.112 117.151 135.756 117.711 135.84 118.971H132.186ZM145.575 123.535C147.563 123.535 148.837 122.345 148.963 120.665H147.409C147.311 121.701 146.541 122.233 145.645 122.233C144.399 122.233 143.615 121.393 143.615 119.797V119.685C143.615 118.173 144.441 117.277 145.603 117.277C146.499 117.277 147.143 117.683 147.283 118.663H148.921C148.725 116.647 147.199 115.919 145.575 115.919C143.531 115.919 141.879 117.389 141.879 119.713V119.825C141.879 122.163 143.475 123.535 145.575 123.535ZM153.698 122.219C152.41 122.219 151.668 121.281 151.668 119.783V119.671C151.668 118.159 152.438 117.249 153.698 117.249C154.958 117.249 155.714 118.173 155.714 119.685V119.783C155.714 121.281 154.958 122.219 153.698 122.219ZM153.684 123.535C155.84 123.535 157.45 122.051 157.45 119.769V119.657C157.45 117.417 155.84 115.919 153.698 115.919C151.542 115.919 149.932 117.431 149.932 119.699V119.811C149.932 122.037 151.528 123.535 153.684 123.535ZM158.981 123.395H160.675V119.083C160.675 117.921 161.445 117.333 162.397 117.333C163.405 117.333 163.853 117.837 163.853 118.943V123.395H165.547V118.789C165.547 116.773 164.511 115.919 163.041 115.919C161.837 115.919 161.025 116.521 160.675 117.235V116.073H158.981V123.395ZM169.99 123.521C170.508 123.521 170.872 123.437 171.138 123.339V121.995C170.9 122.093 170.648 122.135 170.312 122.135C169.78 122.135 169.472 121.841 169.472 121.197V117.347H171.082V116.073H169.472V114.463H167.778V116.073H166.798V117.347H167.778V121.351C167.778 122.737 168.534 123.521 169.99 123.521ZM174.653 123.535C175.773 123.535 176.417 123.129 176.893 122.499V123.395H178.559V118.593C178.559 116.591 177.271 115.919 175.633 115.919C173.995 115.919 172.637 116.633 172.497 118.341H174.135C174.219 117.613 174.653 117.193 175.535 117.193C176.529 117.193 176.865 117.683 176.865 118.663V119.041H175.955C173.855 119.041 172.203 119.657 172.203 121.365C172.203 122.891 173.309 123.535 174.653 123.535ZM175.059 122.317C174.219 122.317 173.883 121.911 173.883 121.295C173.883 120.399 174.709 120.105 175.997 120.105H176.865V120.833C176.865 121.771 176.095 122.317 175.059 122.317ZM180.542 123.395H182.236V116.073H180.542V123.395ZM181.368 114.869C181.928 114.869 182.376 114.449 182.376 113.903C182.376 113.343 181.928 112.923 181.368 112.923C180.808 112.923 180.36 113.343 180.36 113.903C180.36 114.449 180.808 114.869 181.368 114.869ZM184.301 123.395H185.995V119.083C185.995 117.921 186.765 117.333 187.717 117.333C188.725 117.333 189.173 117.837 189.173 118.943V123.395H190.867V118.789C190.867 116.773 189.831 115.919 188.361 115.919C187.157 115.919 186.345 116.521 185.995 117.235V116.073H184.301V123.395ZM195.325 123.535C197.201 123.535 198.251 122.681 198.251 121.197C198.251 119.643 197.229 119.223 195.507 118.957C194.345 118.761 193.995 118.551 193.995 118.019C193.995 117.501 194.429 117.151 195.157 117.151C195.941 117.151 196.319 117.459 196.459 118.131H198.027C197.845 116.479 196.655 115.919 195.157 115.919C193.785 115.919 192.413 116.647 192.413 118.117C192.413 119.489 193.127 120.035 195.059 120.343C196.137 120.525 196.627 120.749 196.627 121.351C196.627 121.967 196.221 122.289 195.311 122.289C194.317 122.289 193.939 121.855 193.855 121.113H192.259C192.329 122.667 193.435 123.535 195.325 123.535ZM204.99 123.535C206.11 123.535 206.754 123.129 207.23 122.499V123.395H208.896V118.593C208.896 116.591 207.608 115.919 205.97 115.919C204.332 115.919 202.974 116.633 202.834 118.341H204.472C204.556 117.613 204.99 117.193 205.872 117.193C206.866 117.193 207.202 117.683 207.202 118.663V119.041H206.292C204.192 119.041 202.54 119.657 202.54 121.365C202.54 122.891 203.646 123.535 204.99 123.535ZM205.396 122.317C204.556 122.317 204.22 121.911 204.22 121.295C204.22 120.399 205.046 120.105 206.334 120.105H207.202V120.833C207.202 121.771 206.432 122.317 205.396 122.317ZM210.88 123.395H212.574V112.685H210.88V123.395ZM214.681 123.395H216.375V112.685H214.681V123.395ZM224.226 123.535C225.416 123.535 226.186 122.961 226.55 122.247V123.395H228.244V116.073H226.55V120.427C226.55 121.589 225.752 122.177 224.842 122.177C223.862 122.177 223.4 121.673 223.4 120.567V116.073H221.706V120.763C221.706 122.709 222.784 123.535 224.226 123.535ZM232.758 123.535C234.634 123.535 235.684 122.681 235.684 121.197C235.684 119.643 234.662 119.223 232.94 118.957C231.778 118.761 231.428 118.551 231.428 118.019C231.428 117.501 231.862 117.151 232.59 117.151C233.374 117.151 233.752 117.459 233.892 118.131H235.46C235.278 116.479 234.088 115.919 232.59 115.919C231.218 115.919 229.846 116.647 229.846 118.117C229.846 119.489 230.56 120.035 232.492 120.343C233.57 120.525 234.06 120.749 234.06 121.351C234.06 121.967 233.654 122.289 232.744 122.289C231.75 122.289 231.372 121.855 231.288 121.113H229.692C229.762 122.667 230.868 123.535 232.758 123.535ZM240.39 123.535C242.266 123.535 243.512 122.695 243.75 121.155H242.112C241.986 121.869 241.454 122.275 240.432 122.275C239.172 122.275 238.472 121.491 238.416 120.105H243.778V119.615C243.778 116.997 242.14 115.919 240.32 115.919C238.234 115.919 236.68 117.431 236.68 119.699V119.811C236.68 122.121 238.234 123.535 240.39 123.535ZM238.444 118.971C238.612 117.837 239.298 117.151 240.32 117.151C241.37 117.151 242.014 117.711 242.098 118.971H238.444ZM245.291 123.395H246.985V119.587C246.985 118.033 247.881 117.557 249.365 117.543V115.961C248.133 115.975 247.447 116.521 246.985 117.445V116.073H245.291V123.395ZM253.362 123.535C255.238 123.535 256.288 122.681 256.288 121.197C256.288 119.643 255.266 119.223 253.544 118.957C252.382 118.761 252.032 118.551 252.032 118.019C252.032 117.501 252.466 117.151 253.194 117.151C253.978 117.151 254.356 117.459 254.496 118.131H256.064C255.882 116.479 254.692 115.919 253.194 115.919C251.822 115.919 250.45 116.647 250.45 118.117C250.45 119.489 251.164 120.035 253.096 120.343C254.174 120.525 254.664 120.749 254.664 121.351C254.664 121.967 254.258 122.289 253.348 122.289C252.354 122.289 251.976 121.855 251.892 121.113H250.296C250.366 122.667 251.472 123.535 253.362 123.535ZM262.622 123.395H264.358L265.842 118.467L267.2 123.395H268.922L271.218 116.073H269.566L268.04 121.365L266.612 116.073H265.198L263.644 121.365L262.188 116.073H260.382L262.622 123.395ZM272.512 123.395H274.206V119.083C274.206 117.921 274.976 117.333 275.928 117.333C276.936 117.333 277.384 117.837 277.384 118.943V123.395H279.078V118.789C279.078 116.773 278.042 115.919 276.572 115.919C275.368 115.919 274.556 116.521 274.206 117.235V112.685H272.512V123.395ZM284.249 123.535C286.125 123.535 287.371 122.695 287.609 121.155H285.971C285.845 121.869 285.313 122.275 284.291 122.275C283.031 122.275 282.331 121.491 282.275 120.105H287.637V119.615C287.637 116.997 285.999 115.919 284.179 115.919C282.093 115.919 280.539 117.431 280.539 119.699V119.811C280.539 122.121 282.093 123.535 284.249 123.535ZM282.303 118.971C282.471 117.837 283.157 117.151 284.179 117.151C285.229 117.151 285.873 117.711 285.957 118.971H282.303ZM289.151 123.395H290.845V119.587C290.845 118.033 291.741 117.557 293.225 117.543V115.961C291.993 115.975 291.307 116.521 290.845 117.445V116.073H289.151V123.395ZM297.798 123.535C299.674 123.535 300.92 122.695 301.158 121.155H299.52C299.394 121.869 298.862 122.275 297.84 122.275C296.58 122.275 295.88 121.491 295.824 120.105H301.186V119.615C301.186 116.997 299.548 115.919 297.728 115.919C295.642 115.919 294.088 117.431 294.088 119.699V119.811C294.088 122.121 295.642 123.535 297.798 123.535ZM295.852 118.971C296.02 117.837 296.706 117.151 297.728 117.151C298.778 117.151 299.422 117.711 299.506 118.971H295.852ZM303.639 123.493C304.269 123.493 304.759 123.017 304.759 122.401C304.759 121.785 304.269 121.295 303.639 121.295C303.023 121.295 302.533 121.785 302.533 122.401C302.533 123.017 303.023 123.493 303.639 123.493ZM307.686 123.493C308.316 123.493 308.806 123.017 308.806 122.401C308.806 121.785 308.316 121.295 307.686 121.295C307.07 121.295 306.58 121.785 306.58 122.401C306.58 123.017 307.07 123.493 307.686 123.493ZM311.733 123.493C312.363 123.493 312.853 123.017 312.853 122.401C312.853 121.785 312.363 121.295 311.733 121.295C311.117 121.295 310.627 121.785 310.627 122.401C310.627 123.017 311.117 123.493 311.733 123.493Z" fill="#6152BD"/>
<path d="M65.2229 238.341C66.3009 238.341 66.9589 237.977 67.5049 237.291V238.215H68.6669V233.385C68.6669 231.341 67.3929 230.767 65.9929 230.767C64.5789 230.767 63.2489 231.383 63.0949 233.049H64.2569C64.3689 232.153 64.9289 231.733 65.9369 231.733C67.0569 231.733 67.5049 232.223 67.5049 233.385V233.917H66.4549C64.5789 233.917 62.7869 234.491 62.7869 236.185C62.7869 237.683 63.8649 238.341 65.2229 238.341ZM65.3349 237.417C64.3129 237.417 63.9489 236.941 63.9489 236.185C63.9489 235.107 65.0269 234.743 66.4969 234.743H67.5049V235.653C67.5049 236.787 66.5669 237.417 65.3349 237.417ZM70.9494 238.215H72.1114V233.777C72.1114 232.461 73.0774 231.775 74.1554 231.775C75.3314 231.775 75.8774 232.349 75.8774 233.637V238.215H77.0394V233.721C77.0394 231.593 75.9754 230.767 74.4634 230.767C73.2594 230.767 72.4474 231.369 72.1114 232.055V230.893H70.9494V238.215ZM82.0746 238.341C83.1386 238.341 84.1606 237.669 84.5806 236.955V238.215H85.7426V227.393H84.5806V232.069C84.1606 231.355 83.4046 230.767 82.1866 230.767C80.1706 230.767 78.7706 232.349 78.7706 234.589V234.701C78.7706 236.983 80.1566 238.341 82.0746 238.341ZM82.2006 237.375C80.9686 237.375 79.9746 236.493 79.9746 234.645V234.533C79.9746 232.755 80.8426 231.733 82.2986 231.733C83.7266 231.733 84.6226 232.615 84.6226 234.491V234.603C84.6226 236.479 83.5586 237.375 82.2006 237.375Z" fill="#262E4F"/>
<rect x="64.4492" y="169.215" width="126" height="31" rx="5" fill="#E9EAED"/>
<path d="M78.189 189.375H80.051V185.567H81.451C83.593 185.567 85.119 184.629 85.119 182.515V182.459C85.119 180.359 83.649 179.365 81.409 179.365H78.189V189.375ZM80.051 184.223V180.807H81.409C82.599 180.807 83.299 181.269 83.299 182.459V182.515C83.299 183.621 82.641 184.223 81.409 184.223H80.051ZM86.5803 189.375H88.2743V185.567C88.2743 184.013 89.1703 183.537 90.6543 183.523V181.941C89.4223 181.955 88.7363 182.501 88.2743 183.425V182.053H86.5803V189.375ZM95.284 188.199C93.996 188.199 93.254 187.261 93.254 185.763V185.651C93.254 184.139 94.024 183.229 95.284 183.229C96.544 183.229 97.3 184.153 97.3 185.665V185.763C97.3 187.261 96.544 188.199 95.284 188.199ZM95.27 189.515C97.426 189.515 99.036 188.031 99.036 185.749V185.637C99.036 183.397 97.426 181.899 95.284 181.899C93.128 181.899 91.518 183.411 91.518 185.679V185.791C91.518 188.017 93.114 189.515 95.27 189.515ZM103.311 189.515C104.389 189.515 105.327 188.871 105.719 188.143V189.375H107.413V178.665H105.719V183.173C105.313 182.445 104.571 181.899 103.381 181.899C101.477 181.899 100.091 183.383 100.091 185.721V185.833C100.091 188.213 101.477 189.515 103.311 189.515ZM103.731 188.171C102.639 188.171 101.827 187.401 101.827 185.791V185.679C101.827 184.097 102.555 183.229 103.801 183.229C105.033 183.229 105.775 184.027 105.775 185.637V185.749C105.775 187.387 104.907 188.171 103.731 188.171ZM111.876 189.515C113.066 189.515 113.836 188.941 114.2 188.227V189.375H115.894V182.053H114.2V186.407C114.2 187.569 113.402 188.157 112.492 188.157C111.512 188.157 111.05 187.653 111.05 186.547V182.053H109.356V186.743C109.356 188.689 110.434 189.515 111.876 189.515ZM121.109 189.515C123.097 189.515 124.371 188.325 124.497 186.645H122.943C122.845 187.681 122.075 188.213 121.179 188.213C119.933 188.213 119.149 187.373 119.149 185.777V185.665C119.149 184.153 119.975 183.257 121.137 183.257C122.033 183.257 122.677 183.663 122.817 184.643H124.455C124.259 182.627 122.733 181.899 121.109 181.899C119.065 181.899 117.413 183.369 117.413 185.693V185.805C117.413 188.143 119.009 189.515 121.109 189.515ZM128.447 189.501C128.965 189.501 129.329 189.417 129.595 189.319V187.975C129.357 188.073 129.105 188.115 128.769 188.115C128.237 188.115 127.929 187.821 127.929 187.177V183.327H129.539V182.053H127.929V180.443H126.235V182.053H125.255V183.327H126.235V187.331C126.235 188.717 126.991 189.501 128.447 189.501ZM133.829 189.375H135.579L136.363 186.897H140.185L140.983 189.375H142.915L139.611 179.365H137.175L133.829 189.375ZM138.281 180.891L139.751 185.539H136.797L138.281 180.891ZM146.91 189.515C147.988 189.515 148.926 188.871 149.318 188.143V189.375H151.012V178.665H149.318V183.173C148.912 182.445 148.17 181.899 146.98 181.899C145.076 181.899 143.69 183.383 143.69 185.721V185.833C143.69 188.213 145.076 189.515 146.91 189.515ZM147.33 188.171C146.238 188.171 145.426 187.401 145.426 185.791V185.679C145.426 184.097 146.154 183.229 147.4 183.229C148.632 183.229 149.374 184.027 149.374 185.637V185.749C149.374 187.387 148.506 188.171 147.33 188.171ZM155.77 189.515C156.848 189.515 157.786 188.871 158.178 188.143V189.375H159.872V178.665H158.178V183.173C157.772 182.445 157.03 181.899 155.84 181.899C153.936 181.899 152.55 183.383 152.55 185.721V185.833C152.55 188.213 153.936 189.515 155.77 189.515ZM156.19 188.171C155.098 188.171 154.286 187.401 154.286 185.791V185.679C154.286 184.097 155.014 183.229 156.26 183.229C157.492 183.229 158.234 184.027 158.234 185.637V185.749C158.234 187.387 157.366 188.171 156.19 188.171ZM165.105 189.515C166.981 189.515 168.227 188.675 168.465 187.135H166.827C166.701 187.849 166.169 188.255 165.147 188.255C163.887 188.255 163.187 187.471 163.131 186.085H168.493V185.595C168.493 182.977 166.855 181.899 165.035 181.899C162.949 181.899 161.395 183.411 161.395 185.679V185.791C161.395 188.101 162.949 189.515 165.105 189.515ZM163.159 184.951C163.327 183.817 164.013 183.131 165.035 183.131C166.085 183.131 166.729 183.691 166.813 184.951H163.159ZM172.75 189.515C173.828 189.515 174.766 188.871 175.158 188.143V189.375H176.852V178.665H175.158V183.173C174.752 182.445 174.01 181.899 172.82 181.899C170.916 181.899 169.53 183.383 169.53 185.721V185.833C169.53 188.213 170.916 189.515 172.75 189.515ZM173.17 188.171C172.078 188.171 171.266 187.401 171.266 185.791V185.679C171.266 184.097 171.994 183.229 173.24 183.229C174.472 183.229 175.214 184.027 175.214 185.637V185.749C175.214 187.387 174.346 188.171 173.17 188.171Z" fill="#262E4F"/>
<rect x="200.449" y="169.215" width="75" height="31" rx="5" fill="#E9EAED"/>
<path d="M215.003 189.375H216.753L217.537 186.897H221.359L222.157 189.375H224.089L220.785 179.365H218.349L215.003 189.375ZM219.455 180.891L220.925 185.539H217.971L219.455 180.891ZM227.764 189.501C228.282 189.501 228.646 189.417 228.912 189.319V187.975C228.674 188.073 228.422 188.115 228.086 188.115C227.554 188.115 227.246 187.821 227.246 187.177V183.327H228.856V182.053H227.246V180.443H225.552V182.053H224.572V183.327H225.552V187.331C225.552 188.717 226.308 189.501 227.764 189.501ZM230.482 189.375H232.176V178.665H230.482V189.375ZM237.46 189.515C239.336 189.515 240.582 188.675 240.82 187.135H239.182C239.056 187.849 238.524 188.255 237.502 188.255C236.242 188.255 235.542 187.471 235.486 186.085H240.848V185.595C240.848 182.977 239.21 181.899 237.39 181.899C235.304 181.899 233.75 183.411 233.75 185.679V185.791C233.75 188.101 235.304 189.515 237.46 189.515ZM235.514 184.951C235.682 183.817 236.368 183.131 237.39 183.131C238.44 183.131 239.084 183.691 239.168 184.951H235.514ZM244.348 189.515C245.468 189.515 246.112 189.109 246.588 188.479V189.375H248.254V184.573C248.254 182.571 246.966 181.899 245.328 181.899C243.69 181.899 242.332 182.613 242.192 184.321H243.83C243.914 183.593 244.348 183.173 245.23 183.173C246.224 183.173 246.56 183.663 246.56 184.643V185.021H245.65C243.55 185.021 241.898 185.637 241.898 187.345C241.898 188.871 243.004 189.515 244.348 189.515ZM244.754 188.297C243.914 188.297 243.578 187.891 243.578 187.275C243.578 186.379 244.404 186.085 245.692 186.085H246.56V186.813C246.56 187.751 245.79 188.297 244.754 188.297ZM252.702 189.515C254.578 189.515 255.628 188.661 255.628 187.177C255.628 185.623 254.606 185.203 252.883 184.937C251.722 184.741 251.372 184.531 251.372 183.999C251.372 183.481 251.806 183.131 252.534 183.131C253.318 183.131 253.696 183.439 253.836 184.111H255.404C255.222 182.459 254.032 181.899 252.534 181.899C251.162 181.899 249.79 182.627 249.79 184.097C249.79 185.469 250.504 186.015 252.436 186.323C253.514 186.505 254.004 186.729 254.004 187.331C254.004 187.947 253.598 188.269 252.688 188.269C251.694 188.269 251.316 187.835 251.232 187.093H249.636C249.706 188.647 250.812 189.515 252.702 189.515ZM259.605 189.501C260.123 189.501 260.487 189.417 260.753 189.319V187.975C260.515 188.073 260.263 188.115 259.927 188.115C259.395 188.115 259.087 187.821 259.087 187.177V183.327H260.697V182.053H259.087V180.443H257.393V182.053H256.413V183.327H257.393V187.331C257.393 188.717 258.149 189.501 259.605 189.501Z" fill="#262E4F"/>
<rect x="285.449" y="169.215" width="63" height="31" rx="5" fill="#E9EAED"/>
<path d="M298.511 189.375H300.387V179.365H298.721L296.397 181.017V182.655L298.511 181.213V189.375ZM308.3 189.375H310.176V180.835H312.962V179.365H305.514V180.835H308.3V189.375ZM314.226 189.375H315.92V182.053H314.226V189.375ZM315.052 180.849C315.612 180.849 316.06 180.429 316.06 179.883C316.06 179.323 315.612 178.903 315.052 178.903C314.492 178.903 314.044 179.323 314.044 179.883C314.044 180.429 314.492 180.849 315.052 180.849ZM317.985 189.375H319.679V184.993C319.679 183.873 320.449 183.313 321.289 183.313C322.115 183.313 322.591 183.775 322.591 184.853V189.375H324.285V184.993C324.285 183.873 325.055 183.313 325.895 183.313C326.735 183.313 327.197 183.775 327.197 184.853V189.375H328.891V184.741C328.891 182.725 327.799 181.899 326.455 181.899C325.545 181.899 324.537 182.305 323.977 183.215C323.613 182.305 322.857 181.899 321.905 181.899C320.827 181.899 320.029 182.487 319.679 183.173V182.053H317.985V189.375ZM334.056 189.515C335.932 189.515 337.178 188.675 337.416 187.135H335.778C335.652 187.849 335.12 188.255 334.098 188.255C332.838 188.255 332.138 187.471 332.082 186.085H337.444V185.595C337.444 182.977 335.806 181.899 333.986 181.899C331.9 181.899 330.346 183.411 330.346 185.679V185.791C330.346 188.101 331.9 189.515 334.056 189.515ZM332.11 184.951C332.278 183.817 332.964 183.131 333.986 183.131C335.036 183.131 335.68 183.691 335.764 184.951H332.11Z" fill="#262E4F"/>
<rect x="45.9492" y="152.715" width="499.287" height="64" rx="4.5" stroke="#262E4F" stroke-opacity="0.1"/>
<rect x="64.4492" y="267.814" width="140" height="31" rx="5" fill="#E9EAED"/>
<path d="M81.4754 286.619C79.6554 286.619 78.3254 285.205 78.3254 283.021V282.909C78.3254 280.753 79.4874 279.311 81.4474 279.311C83.4074 279.311 84.5554 280.837 84.5554 282.895V283.007C84.5554 285.177 83.3654 286.619 81.4754 286.619ZM81.4474 288.117C84.4854 288.117 86.4874 285.919 86.4874 282.993V282.881C86.4874 279.941 84.4294 277.827 81.4474 277.827C78.4794 277.827 76.3794 279.997 76.3794 282.923V283.035C76.3794 285.919 78.3814 288.117 81.4474 288.117ZM88.1457 287.977H89.8397V284.169C89.8397 282.615 90.7357 282.139 92.2197 282.125V280.543C90.9877 280.557 90.3017 281.103 89.8397 282.027V280.655H88.1457V287.977ZM96.3174 288.117C97.3954 288.117 98.3334 287.473 98.7254 286.745V287.977H100.419V277.267H98.7254V281.775C98.3194 281.047 97.5774 280.501 96.3874 280.501C94.4834 280.501 93.0974 281.985 93.0974 284.323V284.435C93.0974 286.815 94.4834 288.117 96.3174 288.117ZM96.7374 286.773C95.6454 286.773 94.8334 286.003 94.8334 284.393V284.281C94.8334 282.699 95.5614 281.831 96.8074 281.831C98.0394 281.831 98.7814 282.629 98.7814 284.239V284.351C98.7814 285.989 97.9134 286.773 96.7374 286.773ZM105.653 288.117C107.529 288.117 108.775 287.277 109.013 285.737H107.375C107.249 286.451 106.717 286.857 105.695 286.857C104.435 286.857 103.735 286.073 103.679 284.687H109.041V284.197C109.041 281.579 107.403 280.501 105.583 280.501C103.497 280.501 101.943 282.013 101.943 284.281V284.393C101.943 286.703 103.497 288.117 105.653 288.117ZM103.707 283.553C103.875 282.419 104.561 281.733 105.583 281.733C106.633 281.733 107.277 282.293 107.361 283.553H103.707ZM110.554 287.977H112.248V284.169C112.248 282.615 113.144 282.139 114.628 282.125V280.543C113.396 280.557 112.71 281.103 112.248 282.027V280.655H110.554V287.977ZM123.976 288.117C126.356 288.117 128.064 286.899 128.358 284.491H126.538C126.342 285.905 125.362 286.605 123.976 286.605C122.128 286.605 121.05 285.275 121.05 283.021V282.909C121.05 280.669 122.198 279.297 123.962 279.297C125.404 279.297 126.146 279.983 126.356 281.313H128.246C128.022 278.961 126.244 277.813 123.948 277.813C121.162 277.813 119.09 279.913 119.09 282.923V283.035C119.09 286.115 120.84 288.117 123.976 288.117ZM133.107 286.801C131.819 286.801 131.077 285.863 131.077 284.365V284.253C131.077 282.741 131.847 281.831 133.107 281.831C134.367 281.831 135.123 282.755 135.123 284.267V284.365C135.123 285.863 134.367 286.801 133.107 286.801ZM133.093 288.117C135.249 288.117 136.859 286.633 136.859 284.351V284.239C136.859 281.999 135.249 280.501 133.107 280.501C130.951 280.501 129.341 282.013 129.341 284.281V284.393C129.341 286.619 130.937 288.117 133.093 288.117ZM138.39 287.977H140.084V283.595C140.084 282.475 140.854 281.915 141.694 281.915C142.52 281.915 142.996 282.377 142.996 283.455V287.977H144.69V283.595C144.69 282.475 145.46 281.915 146.3 281.915C147.14 281.915 147.602 282.377 147.602 283.455V287.977H149.296V283.343C149.296 281.327 148.204 280.501 146.86 280.501C145.95 280.501 144.942 280.907 144.382 281.817C144.018 280.907 143.262 280.501 142.31 280.501C141.232 280.501 140.434 281.089 140.084 281.775V280.655H138.39V287.977ZM151.241 290.483H152.935V286.829C153.327 287.543 154.167 288.117 155.329 288.117C157.219 288.117 158.577 286.689 158.577 284.337V284.225C158.577 281.859 157.163 280.501 155.329 280.501C154.251 280.501 153.341 281.131 152.935 281.831V280.655H151.241V290.483ZM154.909 286.773C153.677 286.773 152.879 286.003 152.879 284.365V284.253C152.879 282.629 153.719 281.831 154.895 281.831C156.001 281.831 156.841 282.629 156.841 284.253V284.365C156.841 285.933 156.155 286.773 154.909 286.773ZM160.143 287.977H161.837V277.267H160.143V287.977ZM167.122 288.117C168.998 288.117 170.244 287.277 170.482 285.737H168.844C168.718 286.451 168.186 286.857 167.164 286.857C165.904 286.857 165.204 286.073 165.148 284.687H170.51V284.197C170.51 281.579 168.872 280.501 167.052 280.501C164.966 280.501 163.412 282.013 163.412 284.281V284.393C163.412 286.703 164.966 288.117 167.122 288.117ZM165.176 283.553C165.344 282.419 166.03 281.733 167.052 281.733C168.102 281.733 168.746 282.293 168.83 283.553H165.176ZM174.515 288.103C175.033 288.103 175.397 288.019 175.663 287.921V286.577C175.425 286.675 175.173 286.717 174.837 286.717C174.305 286.717 173.997 286.423 173.997 285.779V281.929H175.607V280.655H173.997V279.045H172.303V280.655H171.323V281.929H172.303V285.933C172.303 287.319 173.059 288.103 174.515 288.103ZM180.411 288.117C182.287 288.117 183.533 287.277 183.771 285.737H182.133C182.007 286.451 181.475 286.857 180.453 286.857C179.193 286.857 178.493 286.073 178.437 284.687H183.799V284.197C183.799 281.579 182.161 280.501 180.341 280.501C178.255 280.501 176.701 282.013 176.701 284.281V284.393C176.701 286.703 178.255 288.117 180.411 288.117ZM178.465 283.553C178.633 282.419 179.319 281.733 180.341 281.733C181.391 281.733 182.035 282.293 182.119 283.553H178.465ZM188.056 288.117C189.134 288.117 190.072 287.473 190.464 286.745V287.977H192.158V277.267H190.464V281.775C190.058 281.047 189.316 280.501 188.126 280.501C186.222 280.501 184.836 281.985 184.836 284.323V284.435C184.836 286.815 186.222 288.117 188.056 288.117ZM188.476 286.773C187.384 286.773 186.572 286.003 186.572 284.393V284.281C186.572 282.699 187.3 281.831 188.546 281.831C189.778 281.831 190.52 282.629 190.52 284.239V284.351C190.52 285.989 189.652 286.773 188.476 286.773Z" fill="#262E4F"/>
<rect x="214.449" y="267.814" width="140" height="31" rx="5" fill="#E9EAED"/>
<path d="M224.915 287.977H226.777V283.721H231.271V287.977H233.147V277.967H231.271V282.223H226.777V277.967H224.915V287.977ZM237.138 288.117C238.258 288.117 238.902 287.711 239.378 287.081V287.977H241.044V283.175C241.044 281.173 239.756 280.501 238.118 280.501C236.48 280.501 235.122 281.215 234.982 282.923H236.62C236.704 282.195 237.138 281.775 238.02 281.775C239.014 281.775 239.35 282.265 239.35 283.245V283.623H238.44C236.34 283.623 234.688 284.239 234.688 285.947C234.688 287.473 235.794 288.117 237.138 288.117ZM237.544 286.899C236.704 286.899 236.368 286.493 236.368 285.877C236.368 284.981 237.194 284.687 238.482 284.687H239.35V285.415C239.35 286.353 238.58 286.899 237.544 286.899ZM242.986 290.483H244.68V286.829C245.072 287.543 245.912 288.117 247.074 288.117C248.964 288.117 250.322 286.689 250.322 284.337V284.225C250.322 281.859 248.908 280.501 247.074 280.501C245.996 280.501 245.086 281.131 244.68 281.831V280.655H242.986V290.483ZM246.654 286.773C245.422 286.773 244.624 286.003 244.624 284.365V284.253C244.624 282.629 245.464 281.831 246.64 281.831C247.746 281.831 248.586 282.629 248.586 284.253V284.365C248.586 285.933 247.9 286.773 246.654 286.773ZM251.845 290.483H253.539V286.829C253.931 287.543 254.771 288.117 255.933 288.117C257.823 288.117 259.181 286.689 259.181 284.337V284.225C259.181 281.859 257.767 280.501 255.933 280.501C254.855 280.501 253.945 281.131 253.539 281.831V280.655H251.845V290.483ZM255.513 286.773C254.281 286.773 253.483 286.003 253.483 284.365V284.253C253.483 282.629 254.323 281.831 255.499 281.831C256.605 281.831 257.445 282.629 257.445 284.253V284.365C257.445 285.933 256.759 286.773 255.513 286.773ZM263.924 288.117C265.8 288.117 267.046 287.277 267.284 285.737H265.646C265.52 286.451 264.988 286.857 263.966 286.857C262.706 286.857 262.006 286.073 261.95 284.687H267.312V284.197C267.312 281.579 265.674 280.501 263.854 280.501C261.768 280.501 260.214 282.013 260.214 284.281V284.393C260.214 286.703 261.768 288.117 263.924 288.117ZM261.978 283.553C262.146 282.419 262.832 281.733 263.854 281.733C264.904 281.733 265.548 282.293 265.632 283.553H261.978ZM268.825 287.977H270.519V283.665C270.519 282.503 271.289 281.915 272.241 281.915C273.249 281.915 273.697 282.419 273.697 283.525V287.977H275.391V283.371C275.391 281.355 274.355 280.501 272.885 280.501C271.681 280.501 270.869 281.103 270.519 281.817V280.655H268.825V287.977ZM280.563 288.117C282.439 288.117 283.685 287.277 283.923 285.737H282.285C282.159 286.451 281.627 286.857 280.605 286.857C279.345 286.857 278.645 286.073 278.589 284.687H283.951V284.197C283.951 281.579 282.313 280.501 280.493 280.501C278.407 280.501 276.853 282.013 276.853 284.281V284.393C276.853 286.703 278.407 288.117 280.563 288.117ZM278.617 283.553C278.785 282.419 279.471 281.733 280.493 281.733C281.543 281.733 282.187 282.293 282.271 283.553H278.617ZM288.208 288.117C289.286 288.117 290.224 287.473 290.616 286.745V287.977H292.31V277.267H290.616V281.775C290.21 281.047 289.468 280.501 288.278 280.501C286.374 280.501 284.988 281.985 284.988 284.323V284.435C284.988 286.815 286.374 288.117 288.208 288.117ZM288.628 286.773C287.536 286.773 286.724 286.003 286.724 284.393V284.281C286.724 282.699 287.452 281.831 288.698 281.831C289.93 281.831 290.672 282.629 290.672 284.239V284.351C290.672 285.989 289.804 286.773 288.628 286.773ZM297.799 287.977H304.295V286.507H299.661V283.581H303.189V282.181H299.661V279.437H304.057V277.967H297.799V287.977ZM305.19 287.977H306.954L308.704 285.331L310.412 287.977H312.386L309.768 284.099L312.134 280.655H310.356L308.844 283.021L307.318 280.655H305.358L307.738 284.225L305.19 287.977ZM315.532 288.117C316.652 288.117 317.296 287.711 317.772 287.081V287.977H319.438V283.175C319.438 281.173 318.15 280.501 316.512 280.501C314.874 280.501 313.516 281.215 313.376 282.923H315.014C315.098 282.195 315.532 281.775 316.414 281.775C317.408 281.775 317.744 282.265 317.744 283.245V283.623H316.834C314.734 283.623 313.082 284.239 313.082 285.947C313.082 287.473 314.188 288.117 315.532 288.117ZM315.938 286.899C315.098 286.899 314.762 286.493 314.762 285.877C314.762 284.981 315.588 284.687 316.876 284.687H317.744V285.415C317.744 286.353 316.974 286.899 315.938 286.899ZM324.586 288.117C326.574 288.117 327.848 286.927 327.974 285.247H326.42C326.322 286.283 325.552 286.815 324.656 286.815C323.41 286.815 322.626 285.975 322.626 284.379V284.267C322.626 282.755 323.452 281.859 324.614 281.859C325.51 281.859 326.154 282.265 326.294 283.245H327.932C327.736 281.229 326.21 280.501 324.586 280.501C322.542 280.501 320.89 281.971 320.89 284.295V284.407C320.89 286.745 322.486 288.117 324.586 288.117ZM331.925 288.103C332.443 288.103 332.807 288.019 333.073 287.921V286.577C332.835 286.675 332.583 286.717 332.247 286.717C331.715 286.717 331.407 286.423 331.407 285.779V281.929H333.017V280.655H331.407V279.045H329.713V280.655H328.733V281.929H329.713V285.933C329.713 287.319 330.469 288.103 331.925 288.103ZM334.643 287.977H336.337V277.267H334.643V287.977ZM339.214 290.483H340.88L344.87 280.655H343.218L341.426 285.373L339.48 280.655H337.646L340.544 287.235L339.214 290.483Z" fill="#262E4F"/>
<rect x="364.449" y="267.814" width="75" height="31" rx="5" fill="#E9EAED"/>
<path d="M381.865 286.633C380.367 286.633 379.499 285.485 379.499 283.217V282.713C379.499 280.487 380.325 279.283 381.837 279.283C383.335 279.283 384.147 280.571 384.147 282.699V283.189C384.147 285.457 383.405 286.633 381.865 286.633ZM381.823 288.117C384.441 288.117 386.009 286.199 386.009 283.189V282.685C386.009 279.675 384.357 277.827 381.823 277.827C379.303 277.827 377.623 279.689 377.623 282.727V283.231C377.623 286.241 379.275 288.117 381.823 288.117ZM393.562 288.103C394.08 288.103 394.444 288.019 394.71 287.921V286.577C394.472 286.675 394.22 286.717 393.884 286.717C393.352 286.717 393.044 286.423 393.044 285.779V281.929H394.654V280.655H393.044V279.045H391.35V280.655H390.37V281.929H391.35V285.933C391.35 287.319 392.106 288.103 393.562 288.103ZM396.279 287.977H397.973V280.655H396.279V287.977ZM397.105 279.451C397.665 279.451 398.113 279.031 398.113 278.485C398.113 277.925 397.665 277.505 397.105 277.505C396.545 277.505 396.097 277.925 396.097 278.485C396.097 279.031 396.545 279.451 397.105 279.451ZM400.038 287.977H401.732V283.595C401.732 282.475 402.502 281.915 403.342 281.915C404.168 281.915 404.644 282.377 404.644 283.455V287.977H406.338V283.595C406.338 282.475 407.108 281.915 407.948 281.915C408.788 281.915 409.25 282.377 409.25 283.455V287.977H410.944V283.343C410.944 281.327 409.852 280.501 408.508 280.501C407.598 280.501 406.59 280.907 406.03 281.817C405.666 280.907 404.91 280.501 403.958 280.501C402.88 280.501 402.082 281.089 401.732 281.775V280.655H400.038V287.977ZM416.11 288.117C417.986 288.117 419.232 287.277 419.47 285.737H417.832C417.706 286.451 417.174 286.857 416.152 286.857C414.892 286.857 414.192 286.073 414.136 284.687H419.498V284.197C419.498 281.579 417.86 280.501 416.04 280.501C413.954 280.501 412.4 282.013 412.4 284.281V284.393C412.4 286.703 413.954 288.117 416.11 288.117ZM414.164 283.553C414.332 282.419 415.018 281.733 416.04 281.733C417.09 281.733 417.734 282.293 417.818 283.553H414.164ZM423.585 288.117C425.461 288.117 426.511 287.263 426.511 285.779C426.511 284.225 425.489 283.805 423.767 283.539C422.605 283.343 422.255 283.133 422.255 282.601C422.255 282.083 422.689 281.733 423.417 281.733C424.201 281.733 424.579 282.041 424.719 282.713H426.287C426.105 281.061 424.915 280.501 423.417 280.501C422.045 280.501 420.673 281.229 420.673 282.699C420.673 284.071 421.387 284.617 423.319 284.925C424.397 285.107 424.887 285.331 424.887 285.933C424.887 286.549 424.481 286.871 423.571 286.871C422.577 286.871 422.199 286.437 422.115 285.695H420.519C420.589 287.249 421.695 288.117 423.585 288.117Z" fill="#262E4F"/>
<rect x="45.9492" y="251.715" width="499.287" height="64" rx="4.5" stroke="#262E4F" stroke-opacity="0.1"/>
<path d="M65.2229 337.341C66.3009 337.341 66.9589 336.977 67.5049 336.291V337.215H68.6669V332.385C68.6669 330.341 67.3929 329.767 65.9929 329.767C64.5789 329.767 63.2489 330.383 63.0949 332.049H64.2569C64.3689 331.153 64.9289 330.733 65.9369 330.733C67.0569 330.733 67.5049 331.223 67.5049 332.385V332.917H66.4549C64.5789 332.917 62.7869 333.491 62.7869 335.185C62.7869 336.683 63.8649 337.341 65.2229 337.341ZM65.3349 336.417C64.3129 336.417 63.9489 335.941 63.9489 335.185C63.9489 334.107 65.0269 333.743 66.4969 333.743H67.5049V334.653C67.5049 335.787 66.5669 336.417 65.3349 336.417ZM70.9494 337.215H72.1114V332.777C72.1114 331.461 73.0774 330.775 74.1554 330.775C75.3314 330.775 75.8774 331.349 75.8774 332.637V337.215H77.0394V332.721C77.0394 330.593 75.9754 329.767 74.4634 329.767C73.2594 329.767 72.4474 330.369 72.1114 331.055V329.893H70.9494V337.215ZM82.0746 337.341C83.1386 337.341 84.1606 336.669 84.5806 335.955V337.215H85.7426V326.393H84.5806V331.069C84.1606 330.355 83.4046 329.767 82.1866 329.767C80.1706 329.767 78.7706 331.349 78.7706 333.589V333.701C78.7706 335.983 80.1566 337.341 82.0746 337.341ZM82.2006 336.375C80.9686 336.375 79.9746 335.493 79.9746 333.645V333.533C79.9746 331.755 80.8426 330.733 82.2986 330.733C83.7266 330.733 84.6226 331.615 84.6226 333.491V333.603C84.6226 335.479 83.5586 336.375 82.2006 336.375Z" fill="#262E4F"/>
<rect x="64.707" y="366.814" width="191" height="31" rx="5" fill="#E9EAED"/>
<path d="M75.9605 386.977H77.8225V383.169H79.2225C81.3645 383.169 82.8905 382.231 82.8905 380.117V380.061C82.8905 377.961 81.4205 376.967 79.1805 376.967H75.9605V386.977ZM77.8225 381.825V378.409H79.1805C80.3705 378.409 81.0705 378.871 81.0705 380.061V380.117C81.0705 381.223 80.4125 381.825 79.1805 381.825H77.8225ZM84.3518 386.977H86.0458V383.169C86.0458 381.615 86.9417 381.139 88.4258 381.125V379.543C87.1938 379.557 86.5078 380.103 86.0458 381.027V379.655H84.3518V386.977ZM93.0555 385.801C91.7675 385.801 91.0255 384.863 91.0255 383.365V383.253C91.0255 381.741 91.7955 380.831 93.0555 380.831C94.3155 380.831 95.0715 381.755 95.0715 383.267V383.365C95.0715 384.863 94.3155 385.801 93.0555 385.801ZM93.0415 387.117C95.1975 387.117 96.8075 385.633 96.8075 383.351V383.239C96.8075 380.999 95.1975 379.501 93.0555 379.501C90.8995 379.501 89.2895 381.013 89.2895 383.281V383.393C89.2895 385.619 90.8855 387.117 93.0415 387.117ZM98.3381 389.483H100.032V385.829C100.424 386.543 101.264 387.117 102.426 387.117C104.316 387.117 105.674 385.689 105.674 383.337V383.225C105.674 380.859 104.26 379.501 102.426 379.501C101.348 379.501 100.438 380.131 100.032 380.831V379.655H98.3381V389.483ZM102.006 385.773C100.774 385.773 99.9761 385.003 99.9761 383.365V383.253C99.9761 381.629 100.816 380.831 101.992 380.831C103.098 380.831 103.938 381.629 103.938 383.253V383.365C103.938 384.933 103.252 385.773 102.006 385.773ZM110.417 387.117C112.293 387.117 113.539 386.277 113.777 384.737H112.139C112.013 385.451 111.481 385.857 110.459 385.857C109.199 385.857 108.499 385.073 108.443 383.687H113.805V383.197C113.805 380.579 112.167 379.501 110.347 379.501C108.261 379.501 106.707 381.013 106.707 383.281V383.393C106.707 385.703 108.261 387.117 110.417 387.117ZM108.471 382.553C108.639 381.419 109.325 380.733 110.347 380.733C111.397 380.733 112.041 381.293 112.125 382.553H108.471ZM115.319 386.977H117.013V382.665C117.013 381.503 117.783 380.915 118.735 380.915C119.743 380.915 120.191 381.419 120.191 382.525V386.977H121.885V382.371C121.885 380.355 120.849 379.501 119.379 379.501C118.175 379.501 117.363 380.103 117.013 380.817V379.655H115.319V386.977ZM126.342 387.117C128.218 387.117 129.268 386.263 129.268 384.779C129.268 383.225 128.246 382.805 126.524 382.539C125.362 382.343 125.012 382.133 125.012 381.601C125.012 381.083 125.446 380.733 126.174 380.733C126.958 380.733 127.336 381.041 127.476 381.713H129.044C128.862 380.061 127.672 379.501 126.174 379.501C124.802 379.501 123.43 380.229 123.43 381.699C123.43 383.071 124.144 383.617 126.076 383.925C127.154 384.107 127.644 384.331 127.644 384.933C127.644 385.549 127.238 385.871 126.328 385.871C125.334 385.871 124.956 385.437 124.872 384.695H123.276C123.346 386.249 124.452 387.117 126.342 387.117ZM130.796 386.977H132.49V379.655H130.796V386.977ZM131.622 378.451C132.182 378.451 132.63 378.031 132.63 377.485C132.63 376.925 132.182 376.505 131.622 376.505C131.062 376.505 130.614 376.925 130.614 377.485C130.614 378.031 131.062 378.451 131.622 378.451ZM137.047 387.103C137.565 387.103 137.929 387.019 138.195 386.921V385.577C137.957 385.675 137.705 385.717 137.369 385.717C136.837 385.717 136.529 385.423 136.529 384.779V380.929H138.139V379.655H136.529V378.045H134.835V379.655H133.855V380.929H134.835V384.933C134.835 386.319 135.591 387.103 137.047 387.103ZM140.535 389.483H142.201L146.191 379.655H144.539L142.747 384.373L140.801 379.655H138.967L141.865 386.235L140.535 389.483ZM153.289 387.103C153.807 387.103 154.171 387.019 154.437 386.921V385.577C154.199 385.675 153.947 385.717 153.611 385.717C153.079 385.717 152.771 385.423 152.771 384.779V380.929H154.381V379.655H152.771V378.045H151.077V379.655H150.097V380.929H151.077V384.933C151.077 386.319 151.833 387.103 153.289 387.103ZM159.241 385.801C157.953 385.801 157.211 384.863 157.211 383.365V383.253C157.211 381.741 157.981 380.831 159.241 380.831C160.501 380.831 161.257 381.755 161.257 383.267V383.365C161.257 384.863 160.501 385.801 159.241 385.801ZM159.227 387.117C161.383 387.117 162.993 385.633 162.993 383.351V383.239C162.993 380.999 161.383 379.501 159.241 379.501C157.085 379.501 155.475 381.013 155.475 383.281V383.393C155.475 385.619 157.071 387.117 159.227 387.117ZM168 386.977H171.85C174.048 386.977 175.28 386.039 175.28 384.177V384.121C175.28 382.791 174.636 382.049 173.278 381.755C174.412 381.405 174.86 380.621 174.86 379.627V379.571C174.86 377.751 173.642 376.967 171.584 376.967H168V386.977ZM169.82 385.647V382.441H171.5C172.872 382.441 173.446 382.959 173.446 383.995V384.051C173.446 385.087 172.872 385.647 171.626 385.647H169.82ZM169.82 381.181V378.297H171.332C172.522 378.297 173.068 378.703 173.068 379.655V379.711C173.068 380.733 172.592 381.181 171.36 381.181H169.82ZM179.333 387.117C180.523 387.117 181.293 386.543 181.657 385.829V386.977H183.351V379.655H181.657V384.009C181.657 385.171 180.859 385.759 179.949 385.759C178.969 385.759 178.507 385.255 178.507 384.149V379.655H176.813V384.345C176.813 386.291 177.891 387.117 179.333 387.117ZM186.172 389.483H187.838L191.828 379.655H190.176L188.384 384.373L186.438 379.655H184.604L187.502 386.235L186.172 389.483ZM197.988 386.977H199.864V376.967H198.198L195.874 378.619V380.257L197.988 378.815V386.977ZM206.476 386.977H208.282V384.947H209.626V383.561H208.282V376.967H205.944L201.52 384.289V384.947H206.476V386.977ZM203.508 383.561L206.504 378.381V383.561H203.508ZM216.401 385.507V378.437H217.479C219.831 378.437 220.811 379.739 220.811 381.895V382.007C220.811 384.219 219.733 385.507 217.493 385.507H216.401ZM214.539 386.977H217.549C221.063 386.977 222.757 384.905 222.757 381.993V381.867C222.757 378.955 221.063 376.967 217.577 376.967H214.539V386.977ZM226.311 387.117C227.431 387.117 228.075 386.711 228.551 386.081V386.977H230.217V382.175C230.217 380.173 228.929 379.501 227.291 379.501C225.653 379.501 224.295 380.215 224.155 381.923H225.793C225.877 381.195 226.311 380.775 227.193 380.775C228.187 380.775 228.523 381.265 228.523 382.245V382.623H227.613C225.513 382.623 223.861 383.239 223.861 384.947C223.861 386.473 224.967 387.117 226.311 387.117ZM226.717 385.899C225.877 385.899 225.541 385.493 225.541 384.877C225.541 383.981 226.367 383.687 227.655 383.687H228.523V384.415C228.523 385.353 227.753 385.899 226.717 385.899ZM232.765 389.483H234.431L238.421 379.655H236.769L234.977 384.373L233.031 379.655H231.197L234.095 386.235L232.765 389.483ZM242.198 387.117C244.074 387.117 245.124 386.263 245.124 384.779C245.124 383.225 244.102 382.805 242.38 382.539C241.218 382.343 240.868 382.133 240.868 381.601C240.868 381.083 241.302 380.733 242.03 380.733C242.814 380.733 243.192 381.041 243.332 381.713H244.9C244.718 380.061 243.528 379.501 242.03 379.501C240.658 379.501 239.286 380.229 239.286 381.699C239.286 383.071 240 383.617 241.932 383.925C243.01 384.107 243.5 384.331 243.5 384.933C243.5 385.549 243.094 385.871 242.184 385.871C241.19 385.871 240.812 385.437 240.728 384.695H239.132C239.202 386.249 240.308 387.117 242.198 387.117Z" fill="#262E4F"/>
<rect x="266.768" y="366.814" width="203" height="31" rx="5" fill="#E9EAED"/>
<path d="M280.064 386.977H281.94V376.967H280.064V386.977ZM286.667 387.117C288.543 387.117 289.593 386.263 289.593 384.779C289.593 383.225 288.571 382.805 286.849 382.539C285.687 382.343 285.337 382.133 285.337 381.601C285.337 381.083 285.771 380.733 286.499 380.733C287.283 380.733 287.661 381.041 287.801 381.713H289.369C289.187 380.061 287.997 379.501 286.499 379.501C285.127 379.501 283.755 380.229 283.755 381.699C283.755 383.071 284.469 383.617 286.401 383.925C287.479 384.107 287.969 384.331 287.969 384.933C287.969 385.549 287.563 385.871 286.653 385.871C285.659 385.871 285.281 385.437 285.197 384.695H283.601C283.671 386.249 284.777 387.117 286.667 387.117ZM299.049 387.117C301.877 387.117 303.613 385.437 303.613 382.665V381.741H299.259V383.141H301.779C301.723 384.527 300.953 385.661 299.077 385.661C296.977 385.661 295.983 384.191 295.983 382.049V381.937C295.983 379.739 297.117 378.283 299.077 378.283C300.379 378.283 301.275 378.857 301.499 380.187H303.361C303.095 377.793 301.191 376.813 299.049 376.813C296.123 376.813 294.051 378.941 294.051 381.923V382.035C294.051 384.989 295.843 387.117 299.049 387.117ZM305.271 386.977H306.965V383.169C306.965 381.615 307.861 381.139 309.345 381.125V379.543C308.113 379.557 307.427 380.103 306.965 381.027V379.655H305.271V386.977ZM313.918 387.117C315.794 387.117 317.04 386.277 317.278 384.737H315.64C315.514 385.451 314.982 385.857 313.96 385.857C312.7 385.857 312 385.073 311.944 383.687H317.306V383.197C317.306 380.579 315.668 379.501 313.848 379.501C311.762 379.501 310.208 381.013 310.208 383.281V383.393C310.208 385.703 311.762 387.117 313.918 387.117ZM311.972 382.553C312.14 381.419 312.826 380.733 313.848 380.733C314.898 380.733 315.542 381.293 315.626 382.553H311.972ZM320.806 387.117C321.926 387.117 322.57 386.711 323.046 386.081V386.977H324.712V382.175C324.712 380.173 323.424 379.501 321.786 379.501C320.148 379.501 318.79 380.215 318.65 381.923H320.288C320.372 381.195 320.806 380.775 321.688 380.775C322.682 380.775 323.018 381.265 323.018 382.245V382.623H322.108C320.008 382.623 318.356 383.239 318.356 384.947C318.356 386.473 319.462 387.117 320.806 387.117ZM321.212 385.899C320.372 385.899 320.036 385.493 320.036 384.877C320.036 383.981 320.862 383.687 322.15 383.687H323.018V384.415C323.018 385.353 322.248 385.899 321.212 385.899ZM329.146 387.103C329.664 387.103 330.028 387.019 330.294 386.921V385.577C330.056 385.675 329.804 385.717 329.468 385.717C328.936 385.717 328.628 385.423 328.628 384.779V380.929H330.238V379.655H328.628V378.045H326.934V379.655H325.954V380.929H326.934V384.933C326.934 386.319 327.69 387.103 329.146 387.103ZM335.041 387.117C336.917 387.117 338.163 386.277 338.401 384.737H336.763C336.637 385.451 336.105 385.857 335.083 385.857C333.823 385.857 333.123 385.073 333.067 383.687H338.429V383.197C338.429 380.579 336.791 379.501 334.971 379.501C332.885 379.501 331.331 381.013 331.331 383.281V383.393C331.331 385.703 332.885 387.117 335.041 387.117ZM333.095 382.553C333.263 381.419 333.949 380.733 334.971 380.733C336.021 380.733 336.665 381.293 336.749 382.553H333.095ZM339.943 386.977H341.637V383.169C341.637 381.615 342.533 381.139 344.017 381.125V379.543C342.785 379.557 342.099 380.103 341.637 381.027V379.655H339.943V386.977ZM350.985 386.977H352.861V378.437H355.647V376.967H348.199V378.437H350.985V386.977ZM357.005 386.977H358.699V382.665C358.699 381.503 359.469 380.915 360.421 380.915C361.429 380.915 361.877 381.419 361.877 382.525V386.977H363.571V382.371C363.571 380.355 362.535 379.501 361.065 379.501C359.861 379.501 359.049 380.103 358.699 380.817V376.267H357.005V386.977ZM367.441 387.117C368.561 387.117 369.205 386.711 369.681 386.081V386.977H371.347V382.175C371.347 380.173 370.059 379.501 368.421 379.501C366.783 379.501 365.425 380.215 365.285 381.923H366.923C367.007 381.195 367.441 380.775 368.323 380.775C369.317 380.775 369.653 381.265 369.653 382.245V382.623H368.743C366.643 382.623 364.991 383.239 364.991 384.947C364.991 386.473 366.097 387.117 367.441 387.117ZM367.847 385.899C367.007 385.899 366.671 385.493 366.671 384.877C366.671 383.981 367.497 383.687 368.785 383.687H369.653V384.415C369.653 385.353 368.883 385.899 367.847 385.899ZM373.288 386.977H374.982V382.665C374.982 381.503 375.752 380.915 376.704 380.915C377.712 380.915 378.16 381.419 378.16 382.525V386.977H379.854V382.371C379.854 380.355 378.818 379.501 377.348 379.501C376.144 379.501 375.332 380.103 374.982 380.817V379.655H373.288V386.977ZM388.418 385.801C387.13 385.801 386.388 384.863 386.388 383.365V383.253C386.388 381.741 387.158 380.831 388.418 380.831C389.678 380.831 390.434 381.755 390.434 383.267V383.365C390.434 384.863 389.678 385.801 388.418 385.801ZM388.404 387.117C390.56 387.117 392.17 385.633 392.17 383.351V383.239C392.17 380.999 390.56 379.501 388.418 379.501C386.262 379.501 384.652 381.013 384.652 383.281V383.393C384.652 385.619 386.248 387.117 388.404 387.117ZM393.7 386.977H395.394V383.169C395.394 381.615 396.29 381.139 397.774 381.125V379.543C396.542 379.557 395.856 380.103 395.394 381.027V379.655H393.7V386.977ZM402.741 386.977H409.237V385.507H404.603V382.581H408.131V381.181H404.603V378.437H408.999V376.967H402.741V386.977ZM415.929 389.483H417.623V379.655H415.929V380.775C415.523 380.047 414.781 379.501 413.591 379.501C411.687 379.501 410.301 380.985 410.301 383.323V383.435C410.301 385.815 411.687 387.117 413.521 387.117C414.599 387.117 415.537 386.473 415.929 385.773V389.483ZM413.941 385.773C412.849 385.773 412.037 385.003 412.037 383.393V383.281C412.037 381.699 412.765 380.831 414.011 380.831C415.243 380.831 415.985 381.629 415.985 383.239V383.351C415.985 384.989 415.117 385.773 413.941 385.773ZM422.086 387.117C423.276 387.117 424.046 386.543 424.41 385.829V386.977H426.104V379.655H424.41V384.009C424.41 385.171 423.612 385.759 422.702 385.759C421.722 385.759 421.26 385.255 421.26 384.149V379.655H419.566V384.345C419.566 386.291 420.644 387.117 422.086 387.117ZM430.03 387.117C431.15 387.117 431.794 386.711 432.27 386.081V386.977H433.936V382.175C433.936 380.173 432.648 379.501 431.01 379.501C429.372 379.501 428.014 380.215 427.874 381.923H429.512C429.596 381.195 430.03 380.775 430.912 380.775C431.906 380.775 432.242 381.265 432.242 382.245V382.623H431.332C429.232 382.623 427.58 383.239 427.58 384.947C427.58 386.473 428.686 387.117 430.03 387.117ZM430.436 385.899C429.596 385.899 429.26 385.493 429.26 384.877C429.26 383.981 430.086 383.687 431.374 383.687H432.242V384.415C432.242 385.353 431.472 385.899 430.436 385.899ZM435.92 386.977H437.614V376.267H435.92V386.977ZM445.157 386.977H447.033V378.437H449.819V376.967H442.371V378.437H445.157V386.977ZM453.4 385.801C452.112 385.801 451.37 384.863 451.37 383.365V383.253C451.37 381.741 452.14 380.831 453.4 380.831C454.66 380.831 455.416 381.755 455.416 383.267V383.365C455.416 384.863 454.66 385.801 453.4 385.801ZM453.386 387.117C455.542 387.117 457.152 385.633 457.152 383.351V383.239C457.152 380.999 455.542 379.501 453.4 379.501C451.244 379.501 449.634 381.013 449.634 383.281V383.393C449.634 385.619 451.23 387.117 453.386 387.117Z" fill="#262E4F"/>
<rect x="479.959" y="366.814" width="44" height="31" rx="5" fill="#E9EAED"/>
<path d="M490.409 386.977H492.327L495.967 377.191V376.967H488.967V378.479H493.629L490.409 386.977ZM500.195 387.117C502.351 387.117 503.877 385.787 503.877 383.673C503.877 381.573 502.603 380.313 500.797 380.313C499.733 380.313 499.033 380.705 498.641 381.153L498.655 378.437H503.303V376.967H497.227L497.143 382.539H498.095C498.543 382.021 499.159 381.671 500.181 381.671C501.287 381.671 501.987 382.441 501.987 383.645C501.987 384.877 501.329 385.675 500.181 385.675C498.893 385.675 498.515 385.031 498.361 384.107H496.625C496.737 385.829 497.843 387.117 500.195 387.117ZM507.016 380.593C506.358 380.593 505.938 380.145 505.938 379.291C505.938 378.451 506.358 377.989 507.016 377.989C507.674 377.989 508.08 378.479 508.08 379.291C508.08 380.117 507.674 380.593 507.016 380.593ZM507.002 381.727C508.374 381.727 509.438 380.691 509.438 379.277C509.438 377.877 508.36 376.869 507.016 376.869C505.672 376.869 504.566 377.905 504.566 379.305C504.566 380.691 505.63 381.727 507.002 381.727ZM505.938 386.977H507.128L513.568 376.967H512.392L505.938 386.977ZM512.504 385.983C511.846 385.983 511.426 385.535 511.426 384.681C511.426 383.841 511.846 383.379 512.504 383.379C513.162 383.379 513.568 383.869 513.568 384.681C513.568 385.507 513.162 385.983 512.504 385.983ZM512.49 387.117C513.862 387.117 514.94 386.081 514.94 384.667C514.94 383.267 513.848 382.259 512.504 382.259C511.16 382.259 510.068 383.295 510.068 384.695C510.068 386.081 511.118 387.117 512.49 387.117Z" fill="#262E4F"/>
<rect x="45.9492" y="350.715" width="499.287" height="64" rx="4.5" stroke="#262E4F" stroke-opacity="0.1"/>
<g filter="url(#filter0_d)">
<path d="M0.0800781 450.094H590.08V540.585C590.08 556.602 577.096 569.585 561.08 569.585H29.0801C13.0638 569.585 0.0800781 556.602 0.0800781 540.585L0.0800781 450.094Z" fill="#FCFDFF"/>
</g>
<path d="M46.1236 491.439H47.9996V482.899H50.7856V481.429H43.3376V482.899H46.1236V491.439ZM52.1437 491.439H53.8377V487.127C53.8377 485.965 54.6077 485.377 55.5597 485.377C56.5677 485.377 57.0157 485.881 57.0157 486.987V491.439H58.7097V486.833C58.7097 484.817 57.6737 483.963 56.2037 483.963C54.9997 483.963 54.1877 484.565 53.8377 485.279V480.729H52.1437V491.439ZM63.8813 491.579C65.7573 491.579 67.0033 490.739 67.2413 489.199H65.6033C65.4773 489.913 64.9453 490.319 63.9233 490.319C62.6633 490.319 61.9633 489.535 61.9073 488.149H67.2693V487.659C67.2693 485.041 65.6313 483.963 63.8113 483.963C61.7253 483.963 60.1713 485.475 60.1713 487.743V487.855C60.1713 490.165 61.7253 491.579 63.8813 491.579ZM61.9353 487.015C62.1033 485.881 62.7893 485.195 63.8113 485.195C64.8613 485.195 65.5053 485.755 65.5893 487.015H61.9353ZM68.7824 491.439H70.4764V487.631C70.4764 486.077 71.3724 485.601 72.8564 485.587V484.005C71.6244 484.019 70.9384 484.565 70.4764 485.489V484.117H68.7824V491.439ZM77.4301 491.579C79.3061 491.579 80.5521 490.739 80.7901 489.199H79.1521C79.0261 489.913 78.4941 490.319 77.4721 490.319C76.2121 490.319 75.5121 489.535 75.4561 488.149H80.8181V487.659C80.8181 485.041 79.1801 483.963 77.3601 483.963C75.2741 483.963 73.7201 485.475 73.7201 487.743V487.855C73.7201 490.165 75.2741 491.579 77.4301 491.579ZM75.4841 487.015C75.6521 485.881 76.3381 485.195 77.3601 485.195C78.4101 485.195 79.0541 485.755 79.1381 487.015H75.4841ZM87.5852 491.579C88.7052 491.579 89.3492 491.173 89.8252 490.543V491.439H91.4912V486.637C91.4912 484.635 90.2032 483.963 88.5652 483.963C86.9272 483.963 85.5692 484.677 85.4292 486.385H87.0672C87.1512 485.657 87.5852 485.237 88.4672 485.237C89.4612 485.237 89.7972 485.727 89.7972 486.707V487.085H88.8872C86.7872 487.085 85.1352 487.701 85.1352 489.409C85.1352 490.935 86.2412 491.579 87.5852 491.579ZM87.9912 490.361C87.1512 490.361 86.8152 489.955 86.8152 489.339C86.8152 488.443 87.6412 488.149 88.9292 488.149H89.7972V488.877C89.7972 489.815 89.0272 490.361 87.9912 490.361ZM93.4328 491.439H95.1268V487.631C95.1268 486.077 96.0228 485.601 97.5068 485.587V484.005C96.2748 484.019 95.5888 484.565 95.1268 485.489V484.117H93.4328V491.439ZM102.081 491.579C103.957 491.579 105.203 490.739 105.441 489.199H103.803C103.677 489.913 103.145 490.319 102.123 490.319C100.863 490.319 100.163 489.535 100.107 488.149H105.469V487.659C105.469 485.041 103.831 483.963 102.011 483.963C99.9245 483.963 98.3705 485.475 98.3705 487.743V487.855C98.3705 490.165 99.9245 491.579 102.081 491.579ZM100.135 487.015C100.303 485.881 100.989 485.195 102.011 485.195C103.061 485.195 103.705 485.755 103.789 487.015H100.135ZM109.52 491.439H116.758V489.997H112.502L114.728 487.827C115.918 486.679 116.688 485.545 116.688 484.243C116.688 482.479 115.456 481.289 113.384 481.289C111.27 481.289 109.954 482.549 109.828 484.733H111.536C111.704 483.319 112.334 482.745 113.328 482.745C114.294 482.745 114.826 483.333 114.826 484.271C114.826 485.223 114.252 486.105 113.3 487.113L109.52 491.103V491.439ZM121.659 491.579C123.955 491.579 125.411 490.431 125.411 488.583C125.411 487.253 124.641 486.427 123.479 486.161C124.445 485.797 125.103 485.111 125.103 483.977C125.103 482.493 123.885 481.289 121.799 481.289C119.657 481.289 118.355 482.619 118.257 484.355H119.909C120.021 483.347 120.707 482.703 121.771 482.703C122.807 482.703 123.325 483.305 123.325 484.117C123.325 485.055 122.807 485.587 121.659 485.587H120.945V486.917H121.715C122.933 486.917 123.521 487.463 123.521 488.555C123.521 489.549 122.919 490.179 121.617 490.179C120.273 490.179 119.685 489.395 119.587 488.345H117.893C117.977 490.263 119.279 491.579 121.659 491.579ZM132.92 491.579C134.11 491.579 134.88 491.005 135.244 490.291V491.439H136.938V484.117H135.244V488.471C135.244 489.633 134.446 490.221 133.536 490.221C132.556 490.221 132.094 489.717 132.094 488.611V484.117H130.4V488.807C130.4 490.753 131.478 491.579 132.92 491.579ZM141.452 491.579C143.328 491.579 144.378 490.725 144.378 489.241C144.378 487.687 143.356 487.267 141.634 487.001C140.472 486.805 140.122 486.595 140.122 486.063C140.122 485.545 140.556 485.195 141.284 485.195C142.068 485.195 142.446 485.503 142.586 486.175H144.154C143.972 484.523 142.782 483.963 141.284 483.963C139.912 483.963 138.54 484.691 138.54 486.161C138.54 487.533 139.254 488.079 141.186 488.387C142.264 488.569 142.754 488.793 142.754 489.395C142.754 490.011 142.348 490.333 141.438 490.333C140.444 490.333 140.066 489.899 139.982 489.157H138.386C138.456 490.711 139.562 491.579 141.452 491.579ZM149.084 491.579C150.96 491.579 152.206 490.739 152.444 489.199H150.806C150.68 489.913 150.148 490.319 149.126 490.319C147.866 490.319 147.166 489.535 147.11 488.149H152.472V487.659C152.472 485.041 150.834 483.963 149.014 483.963C146.928 483.963 145.374 485.475 145.374 487.743V487.855C145.374 490.165 146.928 491.579 149.084 491.579ZM147.138 487.015C147.306 485.881 147.992 485.195 149.014 485.195C150.064 485.195 150.708 485.755 150.792 487.015H147.138ZM153.986 491.439H155.68V487.631C155.68 486.077 156.576 485.601 158.06 485.587V484.005C156.828 484.019 156.142 484.565 155.68 485.489V484.117H153.986V491.439ZM162.056 491.579C163.932 491.579 164.982 490.725 164.982 489.241C164.982 487.687 163.96 487.267 162.238 487.001C161.076 486.805 160.726 486.595 160.726 486.063C160.726 485.545 161.16 485.195 161.888 485.195C162.672 485.195 163.05 485.503 163.19 486.175H164.758C164.576 484.523 163.386 483.963 161.888 483.963C160.516 483.963 159.144 484.691 159.144 486.161C159.144 487.533 159.858 488.079 161.79 488.387C162.868 488.569 163.358 488.793 163.358 489.395C163.358 490.011 162.952 490.333 162.042 490.333C161.048 490.333 160.67 489.899 160.586 489.157H158.99C159.06 490.711 160.166 491.579 162.056 491.579ZM169.846 491.439H171.54V484.117H169.846V491.439ZM170.672 482.913C171.232 482.913 171.68 482.493 171.68 481.947C171.68 481.387 171.232 480.967 170.672 480.967C170.112 480.967 169.664 481.387 169.664 481.947C169.664 482.493 170.112 482.913 170.672 482.913ZM173.605 491.439H175.299V487.127C175.299 485.965 176.069 485.377 177.021 485.377C178.029 485.377 178.477 485.881 178.477 486.987V491.439H180.171V486.833C180.171 484.817 179.135 483.963 177.665 483.963C176.461 483.963 175.649 484.565 175.299 485.279V484.117H173.605V491.439ZM187.95 491.565C188.468 491.565 188.832 491.481 189.098 491.383V490.039C188.86 490.137 188.608 490.179 188.272 490.179C187.74 490.179 187.432 489.885 187.432 489.241V485.391H189.042V484.117H187.432V482.507H185.738V484.117H184.758V485.391H185.738V489.395C185.738 490.781 186.494 491.565 187.95 491.565ZM190.626 491.439H192.32V487.127C192.32 485.965 193.09 485.377 194.042 485.377C195.05 485.377 195.498 485.881 195.498 486.987V491.439H197.192V486.833C197.192 484.817 196.156 483.963 194.686 483.963C193.482 483.963 192.67 484.565 192.32 485.279V480.729H190.626V491.439ZM199.186 491.439H200.88V484.117H199.186V491.439ZM200.012 482.913C200.572 482.913 201.02 482.493 201.02 481.947C201.02 481.387 200.572 480.967 200.012 480.967C199.452 480.967 199.004 481.387 199.004 481.947C199.004 482.493 199.452 482.913 200.012 482.913ZM205.451 491.579C207.327 491.579 208.377 490.725 208.377 489.241C208.377 487.687 207.355 487.267 205.633 487.001C204.471 486.805 204.121 486.595 204.121 486.063C204.121 485.545 204.555 485.195 205.283 485.195C206.067 485.195 206.445 485.503 206.585 486.175H208.153C207.971 484.523 206.781 483.963 205.283 483.963C203.911 483.963 202.539 484.691 202.539 486.161C202.539 487.533 203.253 488.079 205.185 488.387C206.263 488.569 206.753 488.793 206.753 489.395C206.753 490.011 206.347 490.333 205.437 490.333C204.443 490.333 204.065 489.899 203.981 489.157H202.385C202.455 490.711 203.561 491.579 205.451 491.579ZM215.116 491.579C216.236 491.579 216.88 491.173 217.356 490.543V491.439H219.022V486.637C219.022 484.635 217.734 483.963 216.096 483.963C214.458 483.963 213.1 484.677 212.96 486.385H214.598C214.682 485.657 215.116 485.237 215.998 485.237C216.992 485.237 217.328 485.727 217.328 486.707V487.085H216.418C214.318 487.085 212.666 487.701 212.666 489.409C212.666 490.935 213.772 491.579 215.116 491.579ZM215.522 490.361C214.682 490.361 214.346 489.955 214.346 489.339C214.346 488.443 215.172 488.149 216.46 488.149H217.328V488.877C217.328 489.815 216.558 490.361 215.522 490.361ZM223.414 491.579C224.604 491.579 225.374 491.005 225.738 490.291V491.439H227.432V484.117H225.738V488.471C225.738 489.633 224.94 490.221 224.03 490.221C223.05 490.221 222.588 489.717 222.588 488.611V484.117H220.894V488.807C220.894 490.753 221.972 491.579 223.414 491.579ZM232.185 491.579C233.263 491.579 234.201 490.935 234.593 490.207V491.439H236.287V480.729H234.593V485.237C234.187 484.509 233.445 483.963 232.255 483.963C230.351 483.963 228.965 485.447 228.965 487.785V487.897C228.965 490.277 230.351 491.579 232.185 491.579ZM232.605 490.235C231.513 490.235 230.701 489.465 230.701 487.855V487.743C230.701 486.161 231.429 485.293 232.675 485.293C233.907 485.293 234.649 486.091 234.649 487.701V487.813C234.649 489.451 233.781 490.235 232.605 490.235ZM238.342 491.439H240.036V484.117H238.342V491.439ZM239.168 482.913C239.728 482.913 240.176 482.493 240.176 481.947C240.176 481.387 239.728 480.967 239.168 480.967C238.608 480.967 238.16 481.387 238.16 481.947C238.16 482.493 238.608 482.913 239.168 482.913ZM245.321 491.579C247.197 491.579 248.443 490.739 248.681 489.199H247.043C246.917 489.913 246.385 490.319 245.363 490.319C244.103 490.319 243.403 489.535 243.347 488.149H248.709V487.659C248.709 485.041 247.071 483.963 245.251 483.963C243.165 483.963 241.611 485.475 241.611 487.743V487.855C241.611 490.165 243.165 491.579 245.321 491.579ZM243.375 487.015C243.543 485.881 244.229 485.195 245.251 485.195C246.301 485.195 246.945 485.755 247.029 487.015H243.375ZM250.222 491.439H251.916V487.127C251.916 485.965 252.686 485.377 253.638 485.377C254.646 485.377 255.094 485.881 255.094 486.987V491.439H256.788V486.833C256.788 484.817 255.752 483.963 254.282 483.963C253.078 483.963 252.266 484.565 251.916 485.279V484.117H250.222V491.439ZM261.945 491.579C263.933 491.579 265.207 490.389 265.333 488.709H263.779C263.681 489.745 262.911 490.277 262.015 490.277C260.769 490.277 259.985 489.437 259.985 487.841V487.729C259.985 486.217 260.811 485.321 261.973 485.321C262.869 485.321 263.513 485.727 263.653 486.707H265.291C265.095 484.691 263.569 483.963 261.945 483.963C259.901 483.963 258.249 485.433 258.249 487.757V487.869C258.249 490.207 259.845 491.579 261.945 491.579ZM270.012 491.579C271.888 491.579 273.134 490.739 273.372 489.199H271.734C271.608 489.913 271.076 490.319 270.054 490.319C268.794 490.319 268.094 489.535 268.038 488.149H273.4V487.659C273.4 485.041 271.762 483.963 269.942 483.963C267.856 483.963 266.302 485.475 266.302 487.743V487.855C266.302 490.165 267.856 491.579 270.012 491.579ZM268.066 487.015C268.234 485.881 268.92 485.195 269.942 485.195C270.992 485.195 271.636 485.755 271.72 487.015H268.066Z" fill="#262E4F"/>
<rect x="42.1523" y="506.098" width="32" height="32" rx="16" fill="#E9E6F6"/>
<path d="M49.3754 526.598H51.0004L51.7284 524.297H55.2774L56.0184 526.598H57.8124L54.7444 517.303H52.4824L49.3754 526.598ZM53.5094 518.72L54.8744 523.036H52.1314L53.5094 518.72ZM62.7795 526.728C64.9895 526.728 66.5755 525.597 66.8485 523.361H65.1585C64.9765 524.674 64.0665 525.324 62.7795 525.324C61.0635 525.324 60.0625 524.089 60.0625 521.996V521.892C60.0625 519.812 61.1285 518.538 62.7665 518.538C64.1055 518.538 64.7945 519.175 64.9895 520.41H66.7445C66.5365 518.226 64.8855 517.16 62.7535 517.16C60.1665 517.16 58.2425 519.11 58.2425 521.905V522.009C58.2425 524.869 59.8675 526.728 62.7795 526.728Z" fill="#6152BD"/>
<rect x="82.1523" y="506.098" width="32" height="32" rx="16" fill="#FDE8E1"/>
<path d="M93.6569 526.598H95.3989V518.668H97.9859V517.303H91.0699V518.668H93.6569V526.598ZM99.377 526.598H101.106V522.789H104.278V521.45H101.106V518.681H105.136V517.303H99.377V526.598Z" fill="#F36331"/>
<rect x="122.152" y="506.098" width="32" height="32" rx="16" fill="#E0FBD9"/>
<path d="M133.992 526.728C136.046 526.728 137.411 525.467 137.411 523.855C137.411 521.996 136.28 521.372 134.096 521.073C132.484 520.839 132.172 520.462 132.172 519.708C132.172 518.993 132.718 518.486 133.771 518.486C134.837 518.486 135.396 518.902 135.565 519.877H137.151C136.969 518.096 135.773 517.186 133.771 517.186C131.834 517.186 130.534 518.33 130.534 519.851C130.534 521.593 131.587 522.269 133.81 522.568C135.318 522.815 135.747 523.14 135.747 523.998C135.747 524.856 135.019 525.428 133.992 525.428C132.419 525.428 132.042 524.648 131.925 523.712H130.261C130.391 525.467 131.457 526.728 133.992 526.728ZM139.085 526.598H140.814V522.841H141.919L144.35 526.598H146.222L143.609 522.581C144.766 522.282 145.676 521.541 145.676 520.085V520.033C145.676 518.135 144.246 517.303 142.205 517.303H139.085V526.598ZM140.814 521.606V518.642H142.205C143.31 518.642 143.973 519.006 143.973 520.072V520.124C143.973 521.112 143.362 521.606 142.205 521.606H140.814Z" fill="#52BD95"/>
<rect x="162.152" y="506.098" width="32" height="32" rx="16" fill="#D9F7FB"/>
<path d="M171.846 525.233V518.668H172.847C175.031 518.668 175.941 519.877 175.941 521.879V521.983C175.941 524.037 174.94 525.233 172.86 525.233H171.846ZM170.117 526.598H172.912C176.175 526.598 177.748 524.674 177.748 521.97V521.853C177.748 519.149 176.175 517.303 172.938 517.303H170.117V526.598ZM179.398 526.598H181.127V523.062H182.427C184.416 523.062 185.833 522.191 185.833 520.228V520.176C185.833 518.226 184.468 517.303 182.388 517.303H179.398V526.598ZM181.127 521.814V518.642H182.388C183.493 518.642 184.143 519.071 184.143 520.176V520.228C184.143 521.255 183.532 521.814 182.388 521.814H181.127Z" fill="#14B5D0"/>
<rect x="202.152" y="506.098" width="32" height="32" rx="16" fill="#E9E6F6"/>
<path d="M209.715 526.598H211.366L213.251 519.825L215.084 526.598H216.813L219.14 517.303H217.528L215.864 524.167L214.018 517.303H212.588L210.781 524.128L209.169 517.303H207.401L209.715 526.598ZM220.545 526.598H222.274V522.646H226.447V526.598H228.189V517.303H226.447V521.255H222.274V517.303H220.545V526.598Z" fill="#6152BD"/>
<rect x="242.152" y="506.098" width="32" height="32" rx="16" fill="#D9F7FB"/>
<path d="M249.433 526.598H251.058L251.786 524.297H255.335L256.076 526.598H257.87L254.802 517.303H252.54L249.433 526.598ZM253.567 518.72L254.932 523.036H252.189L253.567 518.72ZM262.47 526.728C264.927 526.728 266.24 525.389 266.24 522.958V517.303H264.498V522.815C264.498 524.739 263.822 525.337 262.483 525.337C261.105 525.337 260.559 524.635 260.559 522.932V517.303H258.817V523.062C258.817 525.454 260.143 526.728 262.47 526.728Z" fill="#6152BD"/>
<rect x="282.152" y="506.098" width="32" height="32" rx="16" fill="#E0FBD9"/>
<path d="M291.869 526.598H297.563V525.22H293.598V517.303H291.869V526.598ZM299.847 526.598H301.589V518.668H304.176V517.303H297.26V518.668H299.847V526.598Z" fill="#6152BD"/>
<rect x="322.152" y="506.098" width="32" height="32" rx="16" fill="#E9E6F6"/>
<path d="M330.828 526.598H332.557V522.841H333.662L336.093 526.598H337.965L335.352 522.581C336.509 522.282 337.419 521.541 337.419 520.085V520.033C337.419 518.135 335.989 517.303 333.948 517.303H330.828V526.598ZM332.557 521.606V518.642H333.948C335.053 518.642 335.716 519.006 335.716 520.072V520.124C335.716 521.112 335.105 521.606 333.948 521.606H332.557ZM339.347 526.598H341.076V522.789H344.248V521.45H341.076V518.681H345.106V517.303H339.347V526.598Z" fill="#6152BD"/>
<rect x="362.152" y="506.098" width="32" height="32" rx="16" fill="#FDE8E1"/>
<path d="M372.727 525.233V518.668H373.728C375.912 518.668 376.822 519.877 376.822 521.879V521.983C376.822 524.037 375.821 525.233 373.741 525.233H372.727ZM370.998 526.598H373.793C377.056 526.598 378.629 524.674 378.629 521.97V521.853C378.629 519.149 377.056 517.303 373.819 517.303H370.998V526.598ZM380.278 526.598H385.972V525.22H382.007V517.303H380.278V526.598Z" fill="#F36331"/>
<rect x="402.152" y="506.098" width="32" height="32" rx="16" fill="#E0FBD9"/>
<path d="M414.29 526.728C416.344 526.728 417.709 525.467 417.709 523.855C417.709 521.996 416.578 521.372 414.394 521.073C412.782 520.839 412.47 520.462 412.47 519.708C412.47 518.993 413.016 518.486 414.069 518.486C415.135 518.486 415.694 518.902 415.863 519.877H417.449C417.267 518.096 416.071 517.186 414.069 517.186C412.132 517.186 410.832 518.33 410.832 519.851C410.832 521.593 411.885 522.269 414.108 522.568C415.616 522.815 416.045 523.14 416.045 523.998C416.045 524.856 415.317 525.428 414.29 525.428C412.717 525.428 412.34 524.648 412.223 523.712H410.559C410.689 525.467 411.755 526.728 414.29 526.728ZM419.383 526.598H421.112V523.062H422.412C424.401 523.062 425.818 522.191 425.818 520.228V520.176C425.818 518.226 424.453 517.303 422.373 517.303H419.383V526.598ZM421.112 521.814V518.642H422.373C423.478 518.642 424.128 519.071 424.128 520.176V520.228C424.128 521.255 423.517 521.814 422.373 521.814H421.112Z" fill="#52BD95"/>
<rect x="442.152" y="506.098" width="32" height="32" rx="16" fill="#D9F7FB"/>
<path d="M450.027 526.598H451.756V522.256L455.331 526.598H457.372L453.329 521.736L457.177 517.29H455.318L451.756 521.515V517.303H450.027V526.598ZM462.086 525.337C460.396 525.337 459.161 524.024 459.161 521.996V521.892C459.161 519.89 460.24 518.551 462.06 518.551C463.88 518.551 464.946 519.968 464.946 521.879V521.983C464.946 523.998 463.841 525.337 462.086 525.337ZM462.06 526.728C464.881 526.728 466.74 524.687 466.74 521.97V521.866C466.74 519.136 464.829 517.173 462.06 517.173C459.304 517.173 457.354 519.188 457.354 521.905V522.009C457.354 524.687 459.213 526.728 462.06 526.728Z" fill="#14B5D0"/>
<rect x="482.152" y="506.098" width="32" height="32" rx="16" fill="#E9E6F6"/>
<path d="M495.183 526.728C497.393 526.728 498.979 525.597 499.252 523.361H497.562C497.38 524.674 496.47 525.324 495.183 525.324C493.467 525.324 492.466 524.089 492.466 521.996V521.892C492.466 519.812 493.532 518.538 495.17 518.538C496.509 518.538 497.198 519.175 497.393 520.41H499.148C498.94 518.226 497.289 517.16 495.157 517.16C492.57 517.16 490.646 519.11 490.646 521.905V522.009C490.646 524.869 492.271 526.728 495.183 526.728ZM501.417 526.715C503.133 526.715 504.29 525.792 504.29 523.777V517.303H502.548V523.738C502.548 524.882 502.002 525.324 501.157 525.324C500.611 525.324 500.286 525.22 499.961 525.09V526.442C500.26 526.598 500.65 526.715 501.417 526.715Z" fill="#6152BD"/>
<defs>
<filter id="filter0_d" x="0.0800781" y="449.094" width="590" height="120.492" filterUnits="userSpaceOnUse" color-interpolation-filters="sRGB">
<feFlood flood-opacity="0" result="BackgroundImageFix"/>
<feColorMatrix in="SourceAlpha" type="matrix" values="0 0 0 0 0 0 0 0 0 0 0 0 0 0 0 0 0 0 127 0"/>
<feOffset dy="-1"/>
<feColorMatrix type="matrix" values="0 0 0 0 0.937255 0 0 0 0 0.937255 0 0 0 0 0.945098 0 0 0 1 0"/>
<feBlend mode="normal" in2="BackgroundImageFix" result="effect1_dropShadow"/>
<feBlend mode="normal" in="SourceGraphic" in2="effect1_dropShadow" result="shape"/>
</filter>
</defs>
</svg>
