<svg width="481" height="502" viewBox="0 0 481 502" fill="none" xmlns="http://www.w3.org/2000/svg">
<g filter="url(#filter0_d)">
<path d="M26.4546 293.143C17.1081 287.747 17.1081 278.999 26.4546 273.603L158.358 197.455C167.705 192.059 182.858 192.059 192.205 197.455L459.526 351.779C468.872 357.175 468.872 365.923 459.526 371.319L327.622 447.467C318.275 452.863 303.122 452.863 293.775 447.467L26.4546 293.143Z" fill="url(#paint0_linear)"/>
</g>
<path d="M26.4858 293.354C21.8159 290.658 19.4793 287.125 19.476 283.592L19.476 278.299L158.39 197.666C167.736 192.27 182.89 192.27 192.236 197.666L466.526 356.3C466.526 356.3 466.541 358.509 466.572 361.791C466.013 364.943 464.28 368.803 459.557 371.53L327.653 447.678C318.307 453.074 303.153 453.074 293.806 447.678L26.4858 293.354Z" fill="url(#paint1_linear)"/>
<path d="M26.4546 288.145C17.1081 282.749 17.1081 274.001 26.4546 268.605L158.358 192.457C167.705 187.061 182.858 187.061 192.205 192.457L459.526 346.781C468.872 352.177 468.872 360.925 459.526 366.321L327.622 442.469C318.275 447.865 303.122 447.865 293.775 442.469L26.4546 288.145Z" fill="url(#paint2_linear)"/>
<path fill-rule="evenodd" clip-rule="evenodd" d="M375.437 372.243C375.648 372.121 375.912 372.029 376.215 371.976C376.518 371.938 376.835 371.937 377.151 371.983C377.467 372.028 377.73 372.119 377.954 372.248C378.178 372.377 378.322 372.537 378.414 372.712C378.519 372.895 378.519 373.077 378.426 373.252C378.347 373.435 378.188 373.587 377.977 373.709C377.753 373.838 377.502 373.922 377.186 373.968C376.87 374.014 376.566 374.007 376.25 373.961C375.934 373.901 375.684 373.817 375.46 373.688C375.25 373.566 375.079 373.422 374.987 373.232C374.895 373.042 374.909 372.867 374.988 372.684C375.081 372.509 375.226 372.364 375.437 372.243ZM378.123 373.214C378.202 373.062 378.203 372.91 378.124 372.758C378.058 372.613 377.927 372.492 377.716 372.385C377.532 372.279 377.322 372.203 377.058 372.158C376.781 372.12 376.518 372.12 376.267 372.158C376.004 372.204 375.793 372.28 375.621 372.379C375.437 372.486 375.318 372.6 375.238 372.752C375.172 372.897 375.172 373.049 375.251 373.201C375.329 373.353 375.461 373.475 375.645 373.581C375.842 373.695 376.053 373.771 376.303 373.809C376.58 373.847 376.83 373.854 377.094 373.808C377.344 373.77 377.569 373.702 377.753 373.595C377.938 373.488 378.057 373.359 378.123 373.214ZM376.898 372.979C376.964 372.956 377.03 372.949 377.083 372.949C377.162 372.944 377.253 372.952 377.368 372.963C377.425 372.968 377.487 372.974 377.557 372.979L377.979 373.039L377.715 373.192L377.385 373.139C377.122 373.093 376.937 373.078 376.845 373.086C376.779 373.094 376.713 373.116 376.634 373.162L376.502 373.238L377.068 373.565L376.857 373.687L375.502 372.904L375.963 372.638C376.108 372.554 376.24 372.493 376.333 372.47C376.438 372.44 376.544 372.44 376.636 372.447C376.728 372.455 376.833 372.485 376.899 372.523C377.004 372.584 377.044 372.652 377.057 372.736C377.057 372.827 377.004 372.903 376.898 372.979ZM376.305 373.124L376.569 372.972C376.687 372.903 376.767 372.843 376.767 372.797C376.754 372.744 376.741 372.706 376.675 372.668C376.635 372.645 376.609 372.63 376.543 372.622C376.516 372.617 376.483 372.622 376.444 372.629C376.426 372.632 376.406 372.635 376.385 372.637C376.332 372.653 376.253 372.683 376.148 372.744L375.897 372.889L376.305 373.124ZM336.331 395.32L307.774 384.607L359.888 354.522L378.075 370.917L378.43 371.244L377.771 371.32C377.719 371.32 374.318 371.734 370.125 373.365C366.274 374.874 360.931 377.776 357.441 382.997L357.361 383.118L357.15 383.149C357.15 383.149 357.148 383.149 357.145 383.15C356.977 383.181 353.08 383.905 348.659 385.681C344.518 387.342 339.056 390.313 336.516 394.985L336.331 395.32ZM350.772 367.667L348.966 366.624L350.856 365.533L352.769 366.638L353.002 367.939L352.582 368.182L351.69 367.136L350.772 367.667ZM332.186 382.412C329.564 380.898 329.64 379.048 332.396 377.456C335.336 375.759 338.719 376.03 340.993 377.328C341.167 377.428 341.328 377.536 341.435 377.628L335.87 380.841C336.994 381.49 338.293 381.527 339.264 380.967C340.091 380.489 340.493 379.979 339.929 379.502L342.357 378.1C343.848 379.309 343.671 380.631 340.954 382.2C337.961 383.927 334.808 383.925 332.186 382.412ZM354.892 367.636C353.18 366.647 353.751 365.159 356.193 363.75C358.371 362.492 360.807 362.368 362.105 363.147L359.874 364.435C359.486 364.211 358.639 364.268 357.852 364.723C357.051 365.185 357.03 365.536 357.284 365.683C357.76 365.958 358.587 365.614 359.609 365.189C361.261 364.503 363.423 363.605 365.431 364.764C366.996 365.667 367.071 367.029 364.053 368.772C361.388 370.31 359.187 370.191 357.742 369.357L357.702 369.334L360.143 367.925C360.825 368.319 361.698 368.216 362.446 367.784C363.103 367.405 363.217 367.077 362.788 366.83C362.364 366.585 361.6 366.893 360.644 367.279C359.041 367.926 356.894 368.792 354.892 367.636ZM354.468 374.089L346.536 369.51L349.449 367.828L357.381 372.407L354.468 374.089ZM347.945 377.87L336.193 375.496L339.566 373.549L346.189 375.008L346.241 374.977L343.714 371.154L346.116 369.768L350.347 376.484L347.945 377.87ZM328.664 388.986L320.812 384.453L323.712 382.779L329.558 386.153L333.968 383.607L335.974 384.766L328.664 388.986ZM336.802 378.681C335.932 378.18 334.948 377.945 334.121 378.422C333.294 378.899 333.795 379.522 334.584 379.962L336.802 378.681Z" fill="#9C222F"/>
<rect width="189.805" height="193.454" transform="matrix(0.866044 -0.499967 0.866044 0.499967 46.9102 298.701)" fill="url(#paint3_radial)"/>
<rect width="136.047" height="12.3383" rx="5" transform="matrix(0.866044 -0.499967 0.866044 0.499967 46.7832 271.75)" fill="#E8EBF3"/>
<g clip-path="url(#clip0)">
<path d="M250.518 330.144C252.539 328.977 252.539 327.085 250.518 325.919C248.497 324.752 245.221 324.752 243.2 325.919C241.179 327.085 241.179 328.977 243.2 330.144C245.221 331.31 248.497 331.31 250.518 330.144Z" stroke="white" stroke-width="7" stroke-linecap="round" stroke-linejoin="round"/>
<path d="M290.765 306.909C292.786 305.743 292.786 303.851 290.765 302.684C288.744 301.518 285.468 301.518 283.447 302.684C281.426 303.851 281.426 305.743 283.447 306.909C285.468 308.076 288.744 308.076 290.765 306.909Z" stroke="white" stroke-width="7" stroke-linecap="round" stroke-linejoin="round"/>
<path d="M144.401 302.684L159.038 294.234L217.839 316.858C219.858 317.637 222.288 317.982 224.703 317.831C227.118 317.68 229.364 317.044 231.049 316.034L266.615 295.501C268.365 294.529 269.467 293.232 269.728 291.838C269.989 290.444 269.392 289.041 268.042 287.876L243.197 266.773L180.992 302.684" stroke="white" stroke-width="7" stroke-linecap="round" stroke-linejoin="round"/>
</g>
<ellipse rx="18.3575" ry="18.3575" transform="matrix(0.866044 0.499967 -0.866044 0.499967 158.357 258.766)" fill="#6152BD" fill-opacity="0.25"/>
<ellipse rx="11.4517" ry="11.4517" transform="matrix(0.866044 0.499967 -0.866044 0.499967 158.357 258.021)" fill="#6152BD" fill-opacity="0.5"/>
<mask id="mask0" mask-type="alpha" maskUnits="userSpaceOnUse" x="19" y="188" width="448" height="259">
<path d="M26.4556 288.145C17.1091 282.749 17.1091 274.001 26.4556 268.605L158.359 192.457C167.706 187.061 182.859 187.061 192.206 192.457L459.527 346.781C468.873 352.177 468.873 360.925 459.527 366.321L327.623 442.469C318.276 447.865 303.123 447.865 293.776 442.469L26.4556 288.145Z" fill="#F8F9FC"/>
</mask>
<g mask="url(#mask0)">
<g filter="url(#filter1_d)">
<path d="M22.2947 106.016C12.948 100.62 12.948 91.8719 22.2947 86.4761L154.2 10.327C163.547 4.93119 178.701 4.9312 188.047 10.327L455.372 164.653C464.718 170.049 464.718 178.798 455.372 184.193L323.466 260.342C314.12 265.738 298.966 265.738 289.619 260.342L22.2947 106.016Z" fill="#4EB38D"/>
</g>
</g>
<path fill-rule="evenodd" clip-rule="evenodd" d="M462.382 174.483C462.39 175.45 462.402 176.903 462.418 178.667C461.86 181.818 460.127 185.679 455.403 188.405L323.498 264.554C314.151 269.95 298.997 269.95 289.65 264.554L22.326 110.228C17.6561 107.532 15.3194 103.999 15.3161 100.466L15.3161 96.9525C15.2748 96.4828 15.2748 96.0121 15.3161 95.5423L15.3161 95.1732L15.3606 95.1473C15.7953 91.9864 18.1068 88.8953 22.2951 86.4774L154.201 10.3283C163.547 4.93254 178.701 4.93254 188.048 10.3283L455.372 164.655C459.47 167.02 461.771 170.03 462.276 173.12L462.372 173.175C462.372 173.175 462.375 173.558 462.38 174.241C462.382 174.321 462.383 174.402 462.382 174.483Z" fill="url(#paint4_linear)"/>
<path opacity="0.4" d="M22.2947 106.014C12.948 100.618 12.948 91.87 22.2947 86.4742L154.2 10.3251C163.547 4.92926 178.701 4.92927 188.047 10.3251L455.372 164.651C464.718 170.047 464.718 178.796 455.372 184.191L323.466 260.341C314.12 265.736 298.966 265.736 289.619 260.341L22.2947 106.014Z" fill="url(#paint5_linear)"/>
<path d="M22.2947 106.016C12.948 100.62 12.948 91.8719 22.2947 86.4761L154.2 10.327C163.547 4.93119 178.701 4.9312 188.047 10.327L455.372 164.653C464.718 170.049 464.718 178.798 455.372 184.193L323.466 260.342C314.12 265.738 298.966 265.738 289.619 260.342L22.2947 106.016Z" fill="url(#paint6_linear)"/>
<path d="M22.2947 106.016C12.948 100.62 12.948 91.8719 22.2947 86.4761L154.2 10.327C163.547 4.93119 178.701 4.9312 188.047 10.327L455.372 164.653C464.718 170.049 464.718 178.798 455.372 184.193L323.466 260.342C314.12 265.738 298.966 265.738 289.619 260.342L22.2947 106.016Z" fill="url(#paint7_linear)"/>
<g filter="url(#filter2_d)">
<ellipse rx="3.54296" ry="3.60476" transform="matrix(0.866044 0.499967 -0.866044 0.499967 158.23 252.617)" fill="#6152BD"/>
</g>
<path d="M183 175L161.46 188.948C159.449 190.25 158.288 192.697 158.288 195.635L158.288 264.086" stroke="url(#paint8_linear)" stroke-width="10"/>
<path d="M206.016 153.305L207.445 152.481L203.626 147.716L203.47 147.626L198.984 150.216L200.119 150.871L202.847 149.296L206.016 153.305ZM212.397 149.732C213.826 148.907 213.93 147.877 212.613 147.117C211.297 146.357 209.755 146.357 208.63 147.007C207.928 147.412 207.772 147.822 207.824 148.132L206.3 147.222L209.175 145.562L208.11 144.947L204.187 147.212L207.625 149.297L208.404 148.847C208.37 148.537 208.517 148.212 209.097 147.877C209.721 147.517 210.518 147.537 211.184 147.922C211.843 148.302 211.947 148.752 211.314 149.117C210.604 149.527 210.05 149.447 209.452 149.192L208.162 149.937C209.331 150.542 210.873 150.612 212.397 149.732ZM212.613 144.888C212.241 145.103 211.747 145.088 211.253 144.803C210.786 144.533 210.742 144.238 211.115 144.023C211.487 143.808 211.989 143.848 212.448 144.113C212.925 144.388 212.985 144.673 212.613 144.888ZM213.384 145.343C214.293 144.818 214.284 144.063 213.401 143.553C212.526 143.048 211.219 143.083 210.353 143.583C209.478 144.088 209.435 144.863 210.301 145.363C211.175 145.867 212.466 145.872 213.384 145.343ZM215.869 147.617L216.649 147.167L214.57 141.218L213.791 141.668L215.869 147.617ZM219.325 144.823C218.961 145.033 218.467 145.018 217.982 144.738C217.506 144.463 217.472 144.173 217.835 143.963C218.216 143.743 218.71 143.778 219.178 144.048C219.645 144.318 219.706 144.603 219.325 144.823ZM220.113 145.278C221.022 144.753 221.005 143.993 220.122 143.483C219.247 142.978 217.939 143.013 217.064 143.518C216.198 144.018 216.155 144.793 217.03 145.298C217.896 145.797 219.195 145.807 220.113 145.278Z" fill="white"/>
<path d="M192.073 145.922L192.879 145.456L191.23 144.504L191.836 144.154C192.764 143.619 193.018 143.003 192.103 142.474L192.079 142.46C191.169 141.935 190.102 142.054 189.132 142.614L187.738 143.419L192.073 145.922ZM190.648 144.168L189.169 143.314L189.757 142.975C190.272 142.677 190.775 142.618 191.291 142.915L191.315 142.929C191.794 143.206 191.769 143.521 191.236 143.829L190.648 144.168ZM195.706 143.824L196.44 143.401L194.791 142.449C194.118 142.06 194.3 141.717 194.936 141.343L194.251 140.947C193.724 141.259 193.663 141.567 193.863 141.913L193.269 141.57L192.536 141.994L195.706 143.824ZM198.966 141.354C198.408 141.676 197.681 141.627 197.032 141.253L196.983 141.225C196.329 140.847 196.268 140.427 196.814 140.112C197.359 139.797 198.087 139.839 198.742 140.217L198.784 140.241C199.433 140.616 199.511 141.039 198.966 141.354ZM199.53 141.687C200.463 141.148 200.518 140.374 199.53 139.804L199.481 139.776C198.511 139.216 197.165 139.244 196.238 139.779C195.304 140.318 195.262 141.099 196.244 141.666L196.292 141.694C197.256 142.25 198.596 142.226 199.53 141.687ZM202.848 140.954L203.581 140.531L201.999 139.617C202.478 139.698 203.09 139.631 203.593 139.341C204.412 138.868 204.381 138.172 203.363 137.584L203.315 137.556C202.29 136.964 201.09 136.978 200.295 137.437C199.829 137.706 199.707 138.091 199.835 138.368L199.326 138.074L198.592 138.497L202.848 140.954ZM202.83 139.11C202.296 139.418 201.617 139.425 200.908 139.015L200.859 138.987C200.156 138.581 200.174 138.172 200.683 137.878C201.162 137.601 201.872 137.591 202.575 137.997L202.623 138.025C203.302 138.417 203.369 138.798 202.83 139.11ZM207.054 137.343C207.866 136.874 208.042 136.353 207.478 135.908L206.769 136.318C207.024 136.528 206.969 136.762 206.526 137.018C205.981 137.332 205.338 137.312 204.714 136.979L207.036 135.639L206.823 135.516C205.69 134.862 204.514 135.002 203.726 135.457C202.822 135.978 202.804 136.745 203.786 137.312L203.835 137.339C204.835 137.917 206.12 137.882 207.054 137.343ZM204.235 136.689C203.817 136.363 203.817 136.02 204.259 135.765C204.714 135.502 205.235 135.481 205.817 135.775L204.235 136.689ZM209.115 136.083L209.849 135.659L207.982 134.581C207.479 134.291 207.557 133.951 207.97 133.713C208.406 133.461 208.818 133.475 209.297 133.752L211.225 134.865L211.959 134.441L209.964 133.29C209.091 132.786 208.273 132.832 207.636 133.199C207.115 133.5 207.024 133.853 207.182 134.119L206.678 133.829L205.945 134.252L209.115 136.083ZM213.95 133.362C214.762 132.893 214.847 132.417 214.204 132.046C213.531 131.658 212.907 131.808 212.046 132.172C211.458 132.414 211.215 132.449 210.985 132.316C210.761 132.186 210.797 131.99 211.112 131.808C211.452 131.612 211.749 131.595 212.101 131.728L212.78 131.336C211.985 130.968 211.228 131.126 210.579 131.5C209.985 131.843 209.706 132.368 210.342 132.736C210.937 133.079 211.482 133.037 212.452 132.631C212.998 132.407 213.307 132.34 213.568 132.491C213.834 132.645 213.798 132.827 213.404 133.054C212.974 133.303 212.622 133.289 212.264 133.124L211.573 133.523C212.276 133.894 213.131 133.835 213.95 133.362ZM215.818 132.214L216.551 131.79L213.381 129.96L212.647 130.383L215.818 132.214ZM212.483 129.876C212.726 129.736 212.738 129.519 212.502 129.382C212.259 129.242 211.883 129.249 211.641 129.389C211.398 129.529 211.386 129.746 211.629 129.886C211.865 130.023 212.241 130.016 212.483 129.876ZM218.579 130.683C218.803 130.553 218.924 130.441 218.997 130.35L218.415 130.014C218.355 130.098 218.264 130.172 218.118 130.256C217.888 130.389 217.627 130.392 217.348 130.231L215.681 129.269L216.378 128.866L215.827 128.548L215.129 128.95L214.432 128.548L213.699 128.971L214.396 129.374L213.972 129.619L214.523 129.937L214.948 129.692L216.681 130.693C217.282 131.04 217.948 131.047 218.579 130.683ZM221.12 130.406L221.841 129.989L219.313 126.535L218.598 126.948L219.865 128.575L216.979 127.882L216.185 128.341L220.289 129.261L221.12 130.406ZM225.612 126.622C225.836 126.493 225.958 126.381 226.03 126.29L225.448 125.954C225.388 126.038 225.297 126.111 225.151 126.195C224.921 126.328 224.66 126.332 224.381 126.171L222.714 125.208L223.412 124.806L222.86 124.487L222.163 124.89L221.466 124.487L220.732 124.911L221.429 125.313L221.005 125.558L221.556 125.877L221.981 125.632L223.715 126.633C224.315 126.979 224.982 126.986 225.612 126.622ZM227.626 124.809C227.068 125.131 226.34 125.082 225.692 124.707L225.643 124.679C224.989 124.301 224.928 123.881 225.474 123.567C226.019 123.252 226.747 123.294 227.401 123.671L227.444 123.696C228.092 124.07 228.171 124.494 227.626 124.809ZM228.189 125.141C229.123 124.602 229.178 123.829 228.189 123.259L228.141 123.231C227.171 122.671 225.825 122.699 224.898 123.234C223.964 123.773 223.922 124.553 224.904 125.12L224.952 125.148C225.916 125.705 227.256 125.68 228.189 125.141ZM231.928 122.913L233.595 121.951C234.546 121.402 234.674 120.859 233.867 120.394L233.843 120.38C233.267 120.047 232.667 120.023 231.952 120.289C232.291 119.918 232.146 119.61 231.715 119.361L231.691 119.347C230.903 118.892 230.036 119.001 229.145 119.515L227.593 120.411L231.928 122.913ZM232.14 122.126L230.751 121.325L231.479 120.905C232.073 120.562 232.546 120.548 232.995 120.807L233.019 120.821C233.467 121.08 233.461 121.363 232.922 121.674L232.14 122.126ZM230.206 121.01L228.957 120.289L229.612 119.911C230.127 119.613 230.539 119.578 230.952 119.816L230.976 119.83C231.418 120.086 231.406 120.317 230.873 120.625L230.206 121.01ZM236.896 120.115C237.411 119.818 237.496 119.482 237.344 119.212L237.842 119.499L238.575 119.076L235.404 117.245L234.671 117.669L236.556 118.757C237.059 119.048 236.969 119.394 236.574 119.622C236.15 119.867 235.732 119.856 235.253 119.58L233.307 118.456L232.573 118.88L234.604 120.052C235.447 120.539 236.271 120.476 236.896 120.115ZM240.882 118.997L241.603 118.581L239.075 115.126L238.36 115.539L239.627 117.167L236.741 116.474L235.947 116.932L240.051 117.853L240.882 118.997Z" fill="white"/>
<rect x="-0.866044" width="27.1273" height="27.1273" rx="13.5637" transform="matrix(0.866044 -0.499967 0.866044 0.499967 154.711 160.776)" stroke="white"/>
<mask id="mask1" mask-type="alpha" maskUnits="userSpaceOnUse" x="161" y="151" width="33" height="20">
<rect width="26.1273" height="26.1273" rx="13.0637" transform="matrix(0.866044 -0.499967 0.866044 0.499967 154.827 161.209)" fill="white"/>
</mask>
<g mask="url(#mask1)">
<path fill-rule="evenodd" clip-rule="evenodd" d="M173.566 158.964C172.589 159.527 172.589 160.441 173.566 161.005C174.542 161.568 176.479 161.772 177.455 161.209C178.431 160.646 178.077 159.527 177.101 158.964C176.125 158.4 174.542 158.4 173.566 158.964ZM177.455 164.883C177.65 164.996 177.967 164.996 178.162 164.883L183.819 161.617C184.014 161.504 184.014 161.322 183.819 161.209L183.031 160.754C182.403 160.392 181.437 160.312 180.657 160.557C179.919 160.789 178.995 161.136 178.162 161.617C177.432 162.044 176.811 162.529 176.319 163.057C175.895 163.507 176.035 164.064 176.662 164.425L177.455 164.883Z" fill="white"/>
<path d="M181.415 154.975C181.373 155.167 181.292 155.357 181.166 155.539C182.541 155.839 183.809 156.305 184.879 156.923C188.974 159.286 188.974 163.132 184.879 165.495C180.785 167.859 174.124 167.859 170.03 165.495C165.936 163.132 165.936 159.286 170.03 156.923C171.452 156.102 173.258 155.541 175.204 155.294C175.323 155.444 175.487 155.58 175.687 155.698C176.661 156.261 178.248 156.261 179.223 155.698C180.197 155.136 180.197 154.22 179.223 153.657C178.248 153.095 176.661 153.095 175.687 153.657C175.175 153.953 174.94 154.346 174.965 154.734C172.83 155.006 170.873 155.624 169.323 156.515C164.839 159.103 164.839 163.315 169.323 165.903C173.807 168.492 181.103 168.492 185.587 165.903C190.07 163.315 190.07 159.103 185.587 156.515C184.388 155.823 182.962 155.303 181.415 154.975Z" fill="white"/>
</g>
<path d="M286.565 105.652L289.252 104.101L288.716 103.792L287.137 104.704L287.158 103.762C287.173 103.261 287.038 102.853 286.555 102.575C285.9 102.197 285.001 102.206 284.232 102.65C283.447 103.102 283.427 103.654 284.191 104.149L284.824 103.783C284.362 103.444 284.383 103.186 284.752 102.973C285.11 102.766 285.526 102.778 285.874 102.979C286.227 103.183 286.342 103.495 286.363 103.915L286.441 105.58L286.565 105.652ZM289.866 103.747L290.494 103.384L288.868 102.445C288.452 102.205 288.53 101.92 288.842 101.74C289.148 101.563 289.497 101.56 289.897 101.791L291.575 102.76L292.204 102.397L290.577 101.458C290.162 101.218 290.24 100.933 290.551 100.753C290.863 100.573 291.206 100.573 291.606 100.804L293.285 101.773L293.913 101.41L292.193 100.417C291.445 99.9853 290.733 100.042 290.234 100.33C289.897 100.525 289.673 100.828 289.803 101.143C289.33 101.026 288.899 101.101 288.546 101.305C288.146 101.536 288.068 101.833 288.192 102.055L287.777 101.815L287.148 102.178L289.866 103.747Z" fill="white"/>
<path d="M162.336 126.347L163.73 125.542L161.479 124.242L162.267 123.787C163.678 122.972 163.964 122.087 162.656 121.332L162.622 121.312C161.314 120.557 159.79 120.667 158.283 121.537L156.144 122.772L162.336 126.347ZM160.5 123.677L158.603 122.582L159.313 122.172C159.98 121.787 160.621 121.717 161.279 122.097L161.314 122.117C161.929 122.472 161.894 122.872 161.21 123.267L160.5 123.677ZM167.645 123.282L168.9 122.557L166.631 121.248C165.765 120.748 165.999 120.263 166.934 119.733L165.765 119.058C165.038 119.488 164.917 119.928 165.237 120.443L164.371 119.943L163.115 120.668L167.645 123.282ZM172.359 119.571C171.649 119.981 170.731 119.911 169.865 119.411L169.796 119.371C168.93 118.871 168.843 118.341 169.536 117.941C170.238 117.536 171.164 117.601 172.03 118.101L172.091 118.136C172.948 118.631 173.061 119.166 172.359 119.571ZM173.303 120.126C174.663 119.341 174.784 118.221 173.355 117.396L173.286 117.356C171.874 116.541 169.943 116.606 168.583 117.391C167.224 118.176 167.12 119.306 168.54 120.126L168.609 120.166C170.021 120.98 171.952 120.905 173.303 120.126ZM178.233 117.28C178.9 116.895 179.064 116.35 178.839 115.95L179.593 116.385L180.84 115.665L174.258 111.865L173.011 112.585L175.739 114.16C175.029 114.04 174.258 114.115 173.53 114.535C172.396 115.19 172.413 116.19 173.903 117.05L173.972 117.09C175.479 117.96 177.133 117.915 178.233 117.28ZM177.627 116.5C177.003 116.86 176.129 116.855 175.228 116.335L175.159 116.295C174.258 115.775 174.171 115.275 174.873 114.87C175.557 114.475 176.414 114.51 177.315 115.03L177.384 115.07C178.302 115.6 178.285 116.12 177.627 116.5ZM183.557 114.206C184.302 113.776 184.414 113.311 184.189 112.911L184.899 113.321L186.146 112.601L181.617 109.987L180.37 110.707L183.028 112.241C183.695 112.626 183.609 113.056 183.08 113.361C182.544 113.671 181.998 113.646 181.383 113.291L178.638 111.706L177.391 112.426L180.309 114.111C181.496 114.796 182.673 114.716 183.557 114.206ZM189.405 110.83C190.722 110.07 190.756 109.19 189.752 108.53L188.617 109.185C189.137 109.555 189.024 109.96 188.522 110.25C187.82 110.655 186.946 110.62 186.036 110.095L185.967 110.055C185.101 109.555 185.049 109.025 185.699 108.65C186.21 108.355 186.772 108.31 187.387 108.565L188.574 107.88C187.162 107.195 185.733 107.49 184.685 108.095C183.395 108.84 183.239 109.96 184.703 110.805L184.772 110.845C186.253 111.7 188.08 111.595 189.405 110.83ZM194.005 108.165C194.343 107.97 194.533 107.79 194.646 107.655L193.676 107.095C193.589 107.215 193.477 107.31 193.286 107.42C192.966 107.605 192.611 107.61 192.247 107.4L190.064 106.14L191.017 105.59L190.125 105.075L189.172 105.625L188.194 105.06L186.947 105.78L187.925 106.345L187.345 106.68L188.237 107.195L188.817 106.86L191.112 108.185C192.056 108.729 193.052 108.714 194.005 108.165ZM196.352 108.31L199.998 106.205L199.313 105.81L195.667 107.915L196.352 108.31ZM198.785 105.305L200.101 104.545L199.148 103.505L201.391 102.21L203.193 102.76L204.656 101.915L196.455 99.5006L194.628 100.556L198.785 105.305ZM196.602 100.736L200.092 101.81L198.456 102.755L196.602 100.736ZM207.098 100.616C207.765 100.231 207.93 99.6858 207.705 99.2858L208.458 99.7208L209.705 99.0008L203.123 95.2011L201.876 95.921L204.604 97.4959C203.894 97.3759 203.123 97.4509 202.396 97.8709C201.261 98.5259 201.279 99.5258 202.768 100.386L202.837 100.426C204.344 101.296 205.998 101.251 207.098 100.616ZM206.492 99.8358C205.869 100.196 204.994 100.191 204.093 99.6708L204.024 99.6308C203.123 99.1108 203.037 98.6109 203.738 98.2059C204.422 97.8109 205.28 97.8459 206.18 98.3659L206.25 98.4059C207.168 98.9358 207.15 99.4558 206.492 99.8358ZM212.613 97.4323C213.279 97.0474 213.444 96.5024 213.219 96.1024L213.972 96.5374L215.219 95.8174L208.637 92.0177L207.39 92.7376L210.118 94.3125C209.408 94.1925 208.637 94.2675 207.91 94.6875C206.775 95.3425 206.793 96.3424 208.282 97.2023L208.352 97.2423C209.859 98.1123 211.513 98.0673 212.613 97.4323ZM212.006 96.6524C211.383 97.0124 210.508 97.0074 209.607 96.4874L209.538 96.4474C208.637 95.9274 208.551 95.4275 209.252 95.0225C209.937 94.6275 210.794 94.6625 211.695 95.1825L211.764 95.2225C212.682 95.7524 212.665 96.2724 212.006 96.6524ZM218.517 94.024C219.755 93.309 219.989 92.5441 219.157 91.8941L217.971 92.5791C218.274 92.844 218.239 93.154 217.659 93.489C216.975 93.884 216.135 93.869 215.347 93.454L218.612 91.5691L218.265 91.3691C216.646 90.4342 214.923 90.6392 213.753 91.3141C212.437 92.0741 212.35 93.194 213.779 94.019L213.849 94.059C215.295 94.8939 217.148 94.8139 218.517 94.024ZM214.593 92.999C214.048 92.5741 214.056 92.1391 214.619 91.8141C215.217 91.4691 215.893 91.4591 216.62 91.8291L214.593 92.999ZM223.21 91.3146C223.877 90.9296 224.041 90.3846 223.816 89.9847L224.57 90.4196L225.817 89.6997L219.235 85.8999L217.988 86.6199L220.716 88.1948C220.005 88.0748 219.235 88.1498 218.507 88.5697C217.373 89.2247 217.39 90.2246 218.88 91.0846L218.949 91.1246C220.456 91.9945 222.11 91.9495 223.21 91.3146ZM222.604 90.5346C221.98 90.8946 221.105 90.8896 220.205 90.3696L220.135 90.3296C219.235 89.8097 219.148 89.3097 219.85 88.9047C220.534 88.5098 221.391 88.5448 222.292 89.0647L222.361 89.1047C223.279 89.6347 223.262 90.1546 222.604 90.5346Z" fill="white"/>
<rect x="-0.866044" width="27.1273" height="27.1273" rx="13.5637" transform="matrix(0.866044 -0.499967 0.866044 0.499967 115.227 137.547)" stroke="white"/>
<path fill-rule="evenodd" clip-rule="evenodd" d="M132.313 136.348C133.094 136.799 134.36 136.799 135.142 136.348C135.923 135.897 135.923 135.166 135.142 134.715C134.36 134.264 133.094 134.264 132.313 134.715C131.532 135.166 131.532 135.897 132.313 136.348ZM133.727 139.885L137.499 142.063L138.442 141.518L139.384 142.063C139.645 142.213 139.645 142.457 139.384 142.607L138.442 143.151C138.181 143.302 137.759 143.302 137.498 143.151L135.142 141.791L134.199 142.335L131.371 140.702C130.849 140.401 130.849 139.914 131.37 139.613L132.797 138.79C132.892 139.191 133.195 139.578 133.727 139.885ZM144.569 140.702L142.684 141.79C142.424 141.941 142.001 141.941 141.741 141.79L138.913 140.157L137.498 140.974L134.67 139.341C133.889 138.89 133.889 138.159 134.67 137.708L137.498 136.075C138.279 135.624 139.546 135.624 140.327 136.075L143.155 137.708L141.741 138.525L144.569 140.157C144.83 140.308 144.83 140.552 144.569 140.702ZM129.956 138.797C130.477 139.098 131.321 139.098 131.842 138.797C132.363 138.496 132.363 138.009 131.842 137.708C131.321 137.408 130.477 137.408 129.956 137.708C129.436 138.009 129.436 138.496 129.956 138.797ZM145.041 137.709L141.269 135.531C140.737 135.224 140.067 135.049 139.371 134.994L140.798 134.17C141.319 133.87 142.163 133.87 142.684 134.171L145.513 135.803L144.57 136.348L146.927 137.708C147.187 137.859 147.187 138.102 146.927 138.253L145.984 138.797C145.724 138.947 145.302 138.947 145.041 138.797L144.098 138.253L145.041 137.709ZM139.384 133.354C139.905 133.655 139.905 134.142 139.384 134.443C138.863 134.744 138.019 134.744 137.498 134.443C136.978 134.142 136.978 133.655 137.498 133.354C138.019 133.054 138.863 133.054 139.384 133.354Z" fill="white"/>
<path d="M246.848 76.4658C247.649 76.0038 247.721 75.3918 246.937 74.9389C246.157 74.4889 245.217 74.4919 244.546 74.8789C244.151 75.1069 244.037 75.3408 244.058 75.5208L243.055 74.9359L244.78 73.9399L244.235 73.6249L241.979 74.9269L244.016 76.1388L244.37 75.9348C244.344 75.7278 244.442 75.5208 244.822 75.3018C245.232 75.0649 245.778 75.0799 246.225 75.3378C246.682 75.6018 246.734 75.9138 246.308 76.1598C245.83 76.4358 245.451 76.3788 245.05 76.2138L244.406 76.5858C245.087 76.9307 245.975 76.9697 246.848 76.4658ZM249.776 74.7753C250.473 74.3734 250.546 73.9654 249.995 73.6474C249.418 73.3144 248.883 73.4434 248.145 73.7554C247.641 73.9624 247.433 73.9924 247.236 73.8784C247.043 73.7674 247.074 73.5994 247.345 73.4434C247.636 73.2754 247.89 73.2604 248.192 73.3744L248.774 73.0384C248.093 72.7235 247.443 72.8585 246.887 73.1794C246.378 73.4734 246.139 73.9234 246.685 74.2384C247.194 74.5323 247.662 74.4963 248.493 74.1484C248.961 73.9564 249.226 73.8994 249.449 74.0284C249.678 74.1604 249.647 74.3164 249.309 74.5113C248.94 74.7243 248.639 74.7123 248.332 74.5713L247.74 74.9133C248.342 75.2313 249.075 75.1803 249.776 74.7753Z" fill="white"/>
<path d="M249.509 176.576L250.124 176.221L249.042 175.596C250.315 174.751 250.211 173.851 249.172 173.251C247.968 172.556 246.738 172.766 245.24 173.401L243.69 172.506C244.235 172.291 244.729 172.326 245.257 172.541L246.495 171.826C245.274 171.241 243.975 171.311 242.694 171.931L241.914 171.481L241.299 171.836L242.07 172.281C240.918 173.046 240.858 173.931 241.853 174.506C242.997 175.166 244.157 175.076 245.751 174.406L247.422 175.371C246.634 175.706 246.045 175.576 245.482 175.321L244.2 176.061C245.361 176.651 246.825 176.756 248.427 175.951L249.509 176.576ZM248.037 174.076C248.461 174.321 248.453 174.676 248.037 175.016L246.461 174.106C247.24 173.816 247.621 173.836 248.037 174.076ZM242.988 173.721C242.624 173.511 242.616 173.186 243.057 172.851L244.521 173.696C243.75 173.991 243.386 173.951 242.988 173.721ZM252.927 173.253L254.33 172.443L248.138 168.868L246.908 169.578L246.492 170.988L247.688 171.678L248.121 170.478L252.927 173.253ZM257.024 172.118L256.184 170.273L254.564 170.698L255.941 172.373L257.024 172.118ZM260.274 169.121C261.651 168.326 262.024 167.341 260.811 166.641C260.075 166.216 259.131 166.141 258.152 166.416C258.455 165.961 258.386 165.511 257.763 165.151C256.706 164.541 255.095 164.751 253.909 165.436C252.748 166.106 252.332 167.056 253.406 167.676C254.03 168.036 254.801 168.091 255.597 167.901C255.138 168.456 255.251 169.021 256.005 169.456C257.217 170.156 258.906 169.911 260.274 169.121ZM259.252 168.531C258.681 168.861 257.884 168.931 257.269 168.576C256.654 168.221 256.784 167.756 257.356 167.426C257.936 167.091 258.715 167.031 259.321 167.381C259.936 167.736 259.841 168.191 259.252 168.531ZM256.507 166.926C256.022 167.206 255.312 167.266 254.809 166.976C254.307 166.686 254.394 166.286 254.887 166.001C255.381 165.716 256.082 165.681 256.559 165.956C257.07 166.251 257.009 166.636 256.507 166.926ZM265.625 166.022C267.288 165.062 267.08 163.872 265.054 162.702L264.777 162.542C262.993 161.512 261.018 161.322 259.312 162.307C257.831 163.162 257.779 164.192 259.061 164.932C260.317 165.657 261.936 165.582 263.131 164.892C263.876 164.462 264.023 164.027 263.859 163.602C265.097 164.347 265.34 164.957 264.517 165.432C263.928 165.772 263.408 165.762 262.897 165.567L261.59 166.322C262.845 166.887 264.283 166.797 265.625 166.022ZM262.508 164.172C261.884 164.532 261.035 164.502 260.386 164.127C259.736 163.752 259.693 163.257 260.308 162.902C260.94 162.537 261.806 162.547 262.525 162.962C263.131 163.312 263.14 163.807 262.508 164.172ZM270.642 161.866C269.776 162.366 268.668 162.256 267.369 161.506L267.074 161.336C265.792 160.596 265.567 159.956 266.433 159.456C267.291 158.961 268.425 159.116 269.672 159.836L269.949 159.996C271.248 160.746 271.517 161.361 270.642 161.866ZM271.707 162.521C273.379 161.556 273.232 160.281 271.335 159.186L271.049 159.021C269.127 157.911 266.936 157.916 265.342 158.836C263.749 159.756 263.774 161.051 265.68 162.151L265.974 162.321C267.871 163.416 270.062 163.471 271.707 162.521Z" fill="white"/>
<path d="M232.985 169.332L235.64 167.799L234.997 167.428L233.148 168.495L229.456 166.364L228.65 166.829L232.985 169.332ZM236.705 167.184L237.518 166.715L233.819 164.58L235.026 163.884L234.389 163.516L231.164 165.378L231.801 165.746L233.007 165.049L236.705 167.184ZM240.535 164.973L241.469 164.434L238.601 161.085L237.844 161.522L240.226 164.206L235.582 162.828L234.74 163.314L240.535 164.973Z" fill="white"/>
<rect x="-0.866044" width="27.1273" height="27.1273" rx="13.5637" transform="matrix(0.866044 -0.499967 0.866044 0.499967 195.623 184.186)" stroke="white"/>
<mask id="mask2" mask-type="alpha" maskUnits="userSpaceOnUse" x="202" y="175" width="33" height="19">
<rect width="26.1273" height="26.1273" rx="13.0637" transform="matrix(0.866044 -0.499967 0.866044 0.499967 195.739 184.619)" fill="white"/>
</mask>
<g mask="url(#mask2)">
<path fill-rule="evenodd" clip-rule="evenodd" d="M214.478 182.374C213.502 182.938 213.502 183.851 214.478 184.415C215.454 184.978 217.391 185.182 218.367 184.619C219.343 184.056 218.989 182.937 218.013 182.374C217.037 181.81 215.454 181.81 214.478 182.374ZM218.367 188.293C218.562 188.406 218.879 188.406 219.074 188.293L224.731 185.027C224.926 184.915 224.926 184.732 224.731 184.619L223.943 184.164C223.315 183.802 222.349 183.722 221.569 183.967C220.831 184.199 219.907 184.546 219.074 185.027C218.344 185.454 217.723 185.939 217.231 186.467C216.807 186.917 216.947 187.474 217.574 187.835L218.367 188.293Z" fill="white"/>
<path d="M222.327 178.385C222.285 178.577 222.204 178.767 222.078 178.949C223.453 179.249 224.721 179.715 225.792 180.333C229.886 182.696 229.886 186.542 225.792 188.905C221.697 191.269 215.036 191.269 210.942 188.905C206.848 186.542 206.848 182.696 210.942 180.333C212.364 179.512 214.17 178.951 216.116 178.704C216.236 178.854 216.399 178.991 216.599 179.108C217.574 179.671 219.16 179.671 220.135 179.108C221.109 178.546 221.109 177.63 220.135 177.067C219.16 176.505 217.574 176.505 216.599 177.067C216.087 177.363 215.852 177.756 215.877 178.144C213.742 178.416 211.785 179.034 210.235 179.925C205.751 182.513 205.751 186.725 210.235 189.314C214.719 191.902 222.015 191.902 226.499 189.314C230.982 186.725 230.982 182.513 226.499 179.925C225.3 179.233 223.874 178.713 222.327 178.385Z" fill="white"/>
</g>
<path d="M328.847 128.332C329.688 127.846 329.709 127.246 328.956 126.811C328.233 126.394 327.236 126.406 326.524 126.817C326.082 127.072 325.968 127.36 326.082 127.624C325.256 127.123 325.142 126.679 325.64 126.391C325.999 126.184 326.311 126.196 326.659 126.319L327.303 125.947C326.565 125.623 325.786 125.689 325.11 126.079C324.222 126.592 324.274 127.372 325.563 128.116L325.651 128.167C326.633 128.734 327.766 128.956 328.847 128.332ZM328.327 128.044C327.906 128.287 327.324 128.293 326.83 128.008C326.42 127.771 326.42 127.429 326.841 127.186C327.267 126.94 327.838 126.958 328.285 127.216C328.727 127.471 328.743 127.804 328.327 128.044ZM330.778 127.157L331.406 126.794L329.78 125.855C329.364 125.615 329.442 125.33 329.754 125.15C330.061 124.973 330.409 124.97 330.809 125.201L332.487 126.17L333.116 125.807L331.49 124.868C331.074 124.628 331.152 124.343 331.464 124.163C331.775 123.983 332.118 123.983 332.518 124.214L334.197 125.183L334.826 124.82L333.106 123.827C332.357 123.395 331.645 123.452 331.147 123.74C330.809 123.935 330.585 124.238 330.715 124.553C330.242 124.436 329.811 124.511 329.458 124.715C329.058 124.946 328.98 125.243 329.104 125.465L328.689 125.225L328.06 125.588L330.778 127.157Z" fill="white"/>
<path d="M287.434 200.361L288.828 199.556L286.576 198.256L287.364 197.801C288.776 196.986 289.062 196.101 287.754 195.346L287.719 195.326C286.412 194.571 284.887 194.681 283.38 195.551L281.241 196.786L287.434 200.361ZM285.598 197.691L283.701 196.596L284.411 196.186C285.078 195.801 285.719 195.731 286.377 196.111L286.412 196.131C287.027 196.486 286.992 196.886 286.308 197.281L285.598 197.691ZM294.344 196.481C295.089 196.051 295.202 195.586 294.977 195.186L295.687 195.596L296.934 194.876L292.404 192.261L291.157 192.981L293.816 194.516C294.483 194.901 294.396 195.331 293.868 195.636C293.331 195.946 292.786 195.921 292.171 195.566L289.425 193.981L288.178 194.701L291.097 196.386C292.283 197.071 293.461 196.991 294.344 196.481ZM298.045 194.235L299.301 193.51L297.032 192.2C296.166 191.7 296.4 191.215 297.335 190.685L296.166 190.01C295.438 190.44 295.317 190.88 295.637 191.395L294.771 190.895L293.516 191.62L298.045 194.235ZM303.13 193.079L304.386 192.354L302.152 191.064C302.827 191.184 303.685 191.089 304.386 190.684C305.512 190.034 305.521 189.059 304.022 188.194L303.953 188.154C302.455 187.289 300.766 187.314 299.657 187.954C298.991 188.339 298.843 188.864 299.025 189.259L298.315 188.849L297.059 189.574L303.13 193.079ZM303.035 190.334C302.351 190.729 301.476 190.724 300.567 190.199L300.498 190.159C299.588 189.634 299.58 189.109 300.238 188.729C300.87 188.364 301.771 188.364 302.689 188.894L302.758 188.934C303.641 189.444 303.728 189.934 303.035 190.334ZM307.138 188.986L308.385 188.266L301.803 184.466L300.556 185.186L307.138 188.986ZM311.713 186.454C312.951 185.739 313.185 184.974 312.354 184.325L311.167 185.009C311.47 185.274 311.436 185.584 310.855 185.919C310.171 186.314 309.331 186.299 308.543 185.884L311.808 184L311.462 183.8C309.842 182.865 308.119 183.07 306.949 183.745C305.633 184.505 305.546 185.624 306.975 186.449L307.045 186.489C308.491 187.324 310.344 187.244 311.713 186.454ZM307.79 185.429C307.244 185.004 307.253 184.57 307.816 184.245C308.413 183.9 309.089 183.89 309.816 184.26L307.79 185.429Z" fill="white"/>
<path d="M273.897 192.742L274.703 192.277L272.927 191.251L274.406 190.397L273.782 190.037L272.302 190.891L271.011 190.145L272.89 189.06L272.248 188.689L269.562 190.24L273.897 192.742ZM277.995 190.446C278.48 190.166 278.583 189.903 278.517 189.627L278.905 189.851L279.626 189.434L277.547 188.234C276.68 187.734 275.831 187.888 275.122 188.297C274.412 188.707 274.134 189.225 274.813 189.686L275.522 189.277C275.243 189.074 275.249 188.861 275.631 188.64C276.061 188.392 276.419 188.43 276.843 188.675L277.007 188.77L276.613 188.997C275.704 189.522 275.255 190.089 275.995 190.516C276.656 190.897 277.413 190.782 277.995 190.446ZM277.644 190.04C277.28 190.25 276.959 190.232 276.692 190.078C276.304 189.854 276.534 189.574 277.092 189.252L277.468 189.036L277.783 189.218C278.189 189.452 278.092 189.781 277.644 190.04ZM281.209 188.521L282.063 188.027L280.039 185.536L279.317 185.952L280.918 187.821L277.668 186.904L276.88 187.359L281.209 188.521ZM284.544 186.008C283.986 186.33 283.258 186.281 282.61 185.906L282.561 185.878C281.906 185.5 281.846 185.08 282.391 184.765C282.937 184.45 283.664 184.492 284.319 184.87L284.362 184.895C285.01 185.269 285.089 185.693 284.544 186.008ZM285.107 186.34C286.041 185.801 286.095 185.028 285.107 184.457L285.059 184.429C284.089 183.869 282.743 183.897 281.815 184.433C280.882 184.972 280.839 185.752 281.822 186.319L281.87 186.347C282.834 186.904 284.174 186.879 285.107 186.34ZM287.34 184.981L288.074 184.558L286.425 183.606C285.752 183.217 285.934 182.874 286.57 182.5L285.885 182.104C285.358 182.416 285.297 182.724 285.497 183.07L284.903 182.727L284.17 183.151L287.34 184.981ZM289.768 183.58L290.501 183.156L287.331 181.326L286.597 181.749L289.768 183.58ZM286.434 181.242C286.676 181.102 286.688 180.885 286.452 180.748C286.209 180.608 285.833 180.615 285.591 180.755C285.349 180.895 285.336 181.112 285.579 181.252C285.815 181.389 286.191 181.382 286.434 181.242ZM292.529 182.048C292.754 181.919 292.875 181.807 292.948 181.716L292.366 181.38C292.305 181.464 292.214 181.538 292.068 181.622C291.838 181.755 291.577 181.758 291.299 181.597L289.631 180.635L290.329 180.232L289.777 179.914L289.08 180.316L288.383 179.914L287.649 180.337L288.346 180.74L287.922 180.985L288.474 181.303L288.898 181.058L290.632 182.059C291.232 182.405 291.899 182.412 292.529 182.048ZM295.088 180.578C295.901 180.109 296.077 179.588 295.513 179.143L294.803 179.553C295.058 179.763 295.004 179.997 294.561 180.253C294.015 180.568 293.373 180.547 292.748 180.214L295.07 178.874L294.858 178.751C293.724 178.097 292.548 178.237 291.76 178.692C290.857 179.213 290.839 179.98 291.821 180.547L291.869 180.575C292.87 181.152 294.155 181.117 295.088 180.578ZM292.269 179.924C291.851 179.598 291.851 179.255 292.294 179C292.748 178.737 293.27 178.716 293.852 179.01L292.269 179.924ZM298.655 178.449L299.461 177.984L297.813 177.032L298.419 176.682C299.346 176.146 299.601 175.53 298.686 175.002L298.661 174.988C297.752 174.463 296.685 174.582 295.715 175.142L294.321 175.947L298.655 178.449ZM297.231 176.696L295.751 175.842L296.339 175.502C296.855 175.205 297.358 175.145 297.873 175.443L297.897 175.457C298.376 175.733 298.352 176.048 297.819 176.356L297.231 176.696ZM302.289 176.351L303.022 175.928L301.373 174.976C300.7 174.587 300.882 174.244 301.519 173.87L300.834 173.474C300.306 173.786 300.246 174.094 300.446 174.44L299.852 174.097L299.118 174.521L302.289 176.351ZM305.548 173.882C304.991 174.204 304.263 174.155 303.615 173.78L303.566 173.752C302.911 173.374 302.851 172.954 303.396 172.639C303.942 172.324 304.669 172.366 305.324 172.744L305.367 172.769C306.015 173.143 306.094 173.567 305.548 173.882ZM306.112 174.214C307.046 173.675 307.1 172.902 306.112 172.331L306.064 172.303C305.094 171.743 303.748 171.771 302.82 172.307C301.887 172.846 301.844 173.626 302.826 174.193L302.875 174.221C303.839 174.777 305.179 174.753 306.112 174.214ZM309.594 172.204C310.061 171.935 310.188 171.539 310.043 171.259L310.576 171.567L311.31 171.144L306.672 168.466L305.938 168.89L307.891 170.017C307.399 169.936 306.842 169.985 306.326 170.283C305.502 170.759 305.544 171.476 306.557 172.06L306.605 172.088C307.636 172.683 308.8 172.662 309.594 172.204ZM309.194 171.763C308.721 172.036 308.036 172.047 307.339 171.644L307.29 171.616C306.605 171.221 306.545 170.822 307.084 170.51C307.618 170.202 308.285 170.216 308.982 170.619L309.03 170.647C309.74 171.056 309.703 171.469 309.194 171.763ZM313.303 170.063C313.818 169.765 313.903 169.429 313.752 169.16L314.249 169.447L314.982 169.023L311.812 167.193L311.078 167.616L312.964 168.705C313.467 168.995 313.376 169.342 312.982 169.569C312.557 169.814 312.139 169.804 311.66 169.527L309.714 168.404L308.981 168.827L311.011 170C311.854 170.486 312.679 170.423 313.303 170.063ZM317.301 167.755C318.162 167.258 318.198 166.642 317.525 166.19L316.852 166.579C317.258 166.862 317.155 167.188 316.767 167.412C316.228 167.723 315.525 167.709 314.834 167.31L314.785 167.282C314.13 166.904 314.1 166.474 314.603 166.183C314.991 165.959 315.446 165.9 315.931 166.11L316.64 165.7C315.682 165.245 314.706 165.445 314.003 165.851C313.118 166.362 313.039 167.142 314.045 167.723L314.094 167.751C315.106 168.336 316.392 168.28 317.301 167.755ZM320.473 165.917C320.697 165.787 320.818 165.675 320.891 165.584L320.309 165.248C320.248 165.332 320.157 165.406 320.012 165.49C319.782 165.623 319.521 165.626 319.242 165.465L317.575 164.503L318.272 164.1L317.72 163.782L317.023 164.184L316.326 163.782L315.593 164.205L316.29 164.608L315.865 164.853L316.417 165.171L316.841 164.926L318.575 165.927C319.175 166.274 319.842 166.281 320.473 165.917ZM325.04 163.287C326.071 162.692 326.283 161.961 325.368 161.285L324.579 161.74C325.107 162.143 324.986 162.562 324.385 162.909C323.585 163.371 322.542 163.308 321.566 162.744L321.518 162.716C320.548 162.157 320.451 161.527 321.215 161.086C321.839 160.725 322.458 160.711 323.124 160.991L323.943 160.519C322.827 159.987 321.56 160.144 320.566 160.718C319.36 161.415 319.372 162.457 320.675 163.21L320.724 163.238C322.058 164.008 323.682 164.071 325.04 163.287ZM328.424 160.675C327.866 160.997 327.139 160.948 326.49 160.574L326.442 160.546C325.787 160.168 325.726 159.748 326.272 159.433C326.818 159.118 327.545 159.16 328.2 159.538L328.242 159.562C328.891 159.937 328.97 160.36 328.424 160.675ZM328.988 161.008C329.922 160.469 329.976 159.695 328.988 159.125L328.94 159.097C327.97 158.537 326.624 158.565 325.696 159.1C324.763 159.639 324.72 160.42 325.702 160.987L325.751 161.015C326.715 161.571 328.054 161.547 328.988 161.008ZM331.239 159.638L331.973 159.215L327.335 156.537L326.601 156.961L331.239 159.638ZM333.776 157.586C333.218 157.908 332.491 157.859 331.842 157.484L331.794 157.456C331.139 157.078 331.078 156.658 331.624 156.343C332.17 156.028 332.897 156.07 333.552 156.448L333.594 156.473C334.243 156.847 334.322 157.271 333.776 157.586ZM334.34 157.918C335.273 157.379 335.328 156.606 334.34 156.035L334.291 156.007C333.321 155.447 331.976 155.475 331.048 156.011C330.114 156.55 330.072 157.33 331.054 157.897L331.103 157.925C332.067 158.482 333.406 158.457 334.34 157.918ZM336.573 156.559L337.306 156.136L335.657 155.184C334.984 154.795 335.166 154.452 335.803 154.078L335.118 153.682C334.59 153.994 334.53 154.302 334.73 154.648L334.136 154.305L333.402 154.729L336.573 156.559Z" fill="white"/>
<rect x="-0.866044" width="27.1273" height="27.1273" rx="13.5637" transform="matrix(0.866044 -0.499967 0.866044 0.499967 236.535 207.596)" stroke="white"/>
<mask id="mask3" mask-type="alpha" maskUnits="userSpaceOnUse" x="243" y="198" width="33" height="20">
<rect width="26.1273" height="26.1273" rx="13.0637" transform="matrix(0.866044 -0.499967 0.866044 0.499967 236.651 208.029)" fill="white"/>
</mask>
<g mask="url(#mask3)">
<path fill-rule="evenodd" clip-rule="evenodd" d="M255.39 205.784C254.414 206.348 254.414 207.262 255.39 207.825C256.366 208.389 258.303 208.593 259.279 208.029C260.255 207.466 259.901 206.347 258.926 205.784C257.949 205.221 256.366 205.221 255.39 205.784ZM259.279 211.703C259.474 211.816 259.791 211.816 259.986 211.703L265.643 208.438C265.838 208.325 265.838 208.142 265.643 208.029L264.855 207.575C264.227 207.212 263.261 207.132 262.482 207.377C261.743 207.609 260.819 207.957 259.986 208.438C259.256 208.864 258.635 209.349 258.143 209.877C257.719 210.327 257.859 210.884 258.486 211.246L259.279 211.703Z" fill="white"/>
<path d="M263.24 201.795C263.197 201.987 263.116 202.177 262.99 202.359C264.365 202.659 265.633 203.125 266.704 203.743C270.798 206.107 270.798 209.952 266.704 212.316C262.61 214.679 255.949 214.679 251.854 212.316C247.76 209.952 247.76 206.107 251.854 203.743C253.276 202.922 255.082 202.361 257.028 202.114C257.148 202.264 257.311 202.401 257.511 202.518C258.486 203.081 260.072 203.081 261.047 202.518C262.021 201.956 262.021 201.04 261.047 200.477C260.072 199.915 258.486 199.915 257.511 200.477C256.999 200.773 256.764 201.166 256.789 201.554C254.654 201.826 252.697 202.444 251.147 203.335C246.664 205.923 246.664 210.135 251.147 212.724C255.631 215.312 262.927 215.312 267.411 212.724C271.895 210.135 271.895 205.923 267.411 203.335C266.212 202.643 264.786 202.123 263.24 201.795Z" fill="white"/>
</g>
<path d="M371.352 150.822C372.152 150.36 372.225 149.748 371.441 149.295C370.661 148.845 369.721 148.848 369.05 149.235C368.655 149.463 368.541 149.697 368.562 149.877L367.559 149.292L369.284 148.296L368.739 147.981L366.483 149.283L368.52 150.495L368.874 150.291C368.848 150.084 368.946 149.877 369.326 149.658C369.736 149.421 370.282 149.436 370.729 149.694C371.186 149.958 371.238 150.27 370.812 150.516C370.334 150.792 369.954 150.735 369.554 150.57L368.91 150.942C369.591 151.287 370.479 151.326 371.352 150.822ZM373.298 149.639L373.927 149.276L372.327 148.352C371.895 148.103 371.963 147.812 372.316 147.608C372.69 147.392 373.044 147.404 373.454 147.641L375.107 148.595L375.735 148.232L374.026 147.245C373.278 146.813 372.576 146.852 372.03 147.167C371.584 147.425 371.506 147.728 371.641 147.956L369.952 146.981L369.323 147.344L373.298 149.639Z" fill="white"/>
<path d="M101.374 82.0536L102.636 81.3246L100.337 79.9972L102.574 78.7058L104.873 80.0332L106.136 79.3042L100.563 76.0869L99.3004 76.8159L101.576 78.1298L99.3394 79.4212L97.0634 78.1073L95.8007 78.8363L101.374 82.0536ZM108.371 78.1128C109.011 77.7438 109.12 77.3928 109.026 77.0688L109.517 77.3523L110.616 76.7179L107.958 75.1835C106.852 74.5445 105.737 74.72 104.739 75.2959C103.742 75.8719 103.406 76.5604 104.303 77.1588L105.371 76.5424C105.067 76.3129 105.043 76.0654 105.488 75.8089C106.002 75.5119 106.415 75.5794 106.898 75.8584L107.062 75.9529L106.602 76.2184C105.355 76.9383 104.841 77.6493 105.792 78.1983C106.649 78.6932 107.631 78.5402 108.371 78.1128ZM107.919 77.4648C107.506 77.7033 107.132 77.6943 106.836 77.5233C106.399 77.2713 106.641 76.9698 107.296 76.5919L107.732 76.3399L108.075 76.5379C108.527 76.7988 108.418 77.1768 107.919 77.4648ZM111.586 76.1578L112.716 75.5054L110.363 74.1465C109.762 73.8 109.833 73.4175 110.316 73.1385C110.815 72.8506 111.298 72.8776 111.851 73.197L114.283 74.601L115.413 73.9485L112.818 72.4501C111.727 71.8201 110.674 71.8696 109.872 72.3331C109.193 72.7246 109.084 73.1745 109.287 73.5255L108.64 73.152L107.51 73.8045L111.586 76.1578ZM116.382 73.3895L117.512 72.737L115.158 71.3781C114.558 71.0316 114.628 70.6492 115.111 70.3702C115.61 70.0822 116.093 70.1092 116.647 70.4287L119.079 71.8326L120.209 71.1801L117.613 69.6817C116.522 69.0518 115.47 69.1013 114.667 69.5647C113.989 69.9562 113.88 70.4062 114.082 70.7571L113.435 70.3837L112.305 71.0361L116.382 73.3895ZM122.362 70.0361C123.001 69.6672 123.11 69.3162 123.017 68.9922L123.508 69.2757L124.607 68.6412L121.949 67.1068C120.842 66.4679 119.727 66.6434 118.73 67.2193C117.732 67.7953 117.397 68.4837 118.293 69.0822L119.361 68.4657C119.057 68.2363 119.034 67.9888 119.478 67.7323C119.992 67.4353 120.405 67.5028 120.889 67.7818L121.052 67.8763L120.592 68.1418C119.345 68.8617 118.831 69.5727 119.782 70.1216C120.639 70.6166 121.621 70.4636 122.362 70.0361ZM121.91 69.3882C121.497 69.6267 121.122 69.6177 120.826 69.4467C120.39 69.1947 120.631 68.8932 121.286 68.5152L121.723 68.2633L122.066 68.4612C122.518 68.7222 122.409 69.1002 121.91 69.3882ZM125.577 68.0812L126.707 67.4288L124.353 66.0699C123.753 65.7234 123.823 65.3409 124.306 65.0619C124.805 64.7739 125.288 64.8009 125.842 65.1204L128.273 66.5243L129.404 65.8719L126.808 64.3735C125.717 63.7435 124.665 63.793 123.862 64.2565C123.184 64.648 123.075 65.0979 123.277 65.4489L120.783 64.009L119.653 64.6615L125.577 68.0812ZM132.201 64.2569L133.464 63.5279L131.165 62.2005L133.402 60.9091L135.701 62.2365L136.964 61.5075L131.391 58.2903L130.128 59.0192L132.404 60.3331L130.167 61.6245L127.891 60.3106L126.628 61.0396L132.201 64.2569ZM139.456 60.1676C140.126 59.7806 140.228 59.3621 140.025 59.0022L140.664 59.3711L141.787 58.7232L137.71 56.3698L136.588 57.0178L138.981 58.3992C139.581 58.7457 139.503 59.1326 139.027 59.4071C138.544 59.6861 138.053 59.6636 137.5 59.3441L135.029 57.9177L133.907 58.5657L136.533 60.0821C137.601 60.6985 138.661 60.6265 139.456 60.1676ZM144.4 57.3134C145 56.9669 145.148 56.4764 144.946 56.1165L145.624 56.5079L146.746 55.86L140.823 52.4402L139.7 53.0882L142.155 54.5056C141.516 54.3976 140.823 54.4651 140.168 54.8431C139.147 55.4325 139.162 56.3325 140.503 57.1064L140.565 57.1424C141.922 57.9254 143.41 57.8849 144.4 57.3134ZM143.855 56.6114C143.293 56.9354 142.506 56.9309 141.695 56.4629L141.633 56.427C140.823 55.959 140.745 55.509 141.376 55.1445C141.992 54.7891 142.763 54.8206 143.574 55.2885L143.636 55.3245C144.463 55.8015 144.447 56.2695 143.855 56.6114ZM149.316 54.4753C150.392 53.8544 150.571 53.2199 149.69 52.7115C148.817 52.2075 147.999 52.383 146.83 52.8869C146.152 53.1794 145.856 53.2334 145.598 53.0849C145.349 52.9409 145.388 52.7205 145.754 52.509C146.144 52.284 146.487 52.266 146.884 52.4235L147.921 51.825C146.884 51.3435 145.879 51.546 144.975 52.068C144.141 52.5495 143.782 53.2424 144.632 53.7329C145.427 54.1919 146.159 54.1289 147.407 53.5979C148.077 53.3099 148.435 53.2379 148.716 53.3999C148.997 53.5619 148.958 53.7734 148.521 54.0254C148.03 54.3089 147.64 54.2909 147.227 54.1064L146.175 54.7138C147.095 55.1998 148.217 55.1098 149.316 54.4753ZM152.792 51.4788C152.153 51.8477 151.327 51.7847 150.547 51.3348L150.485 51.2988C149.706 50.8488 149.628 50.3718 150.251 50.0118C150.883 49.6474 151.717 49.7059 152.496 50.1558L152.551 50.1873C153.322 50.6328 153.424 51.1143 152.792 51.4788ZM153.642 51.9782C154.865 51.2718 154.975 50.2638 153.689 49.5214L153.626 49.4854C152.356 48.7519 150.618 48.8104 149.394 49.5169C148.17 50.2233 148.077 51.2403 149.355 51.9782L149.417 52.0142C150.688 52.7477 152.426 52.6802 153.642 51.9782ZM156.465 50.2494L157.595 49.5969L155.241 48.238C154.641 47.8915 154.711 47.5091 155.194 47.2301C155.693 46.9421 156.177 46.9691 156.73 47.2886L159.162 48.6925L160.292 48.04L157.696 46.5416C156.605 45.9117 155.553 45.9612 154.75 46.4246C154.072 46.8161 153.963 47.2661 154.166 47.6171L153.519 47.2436L152.388 47.896L156.465 50.2494Z" fill="white"/>
<path d="M110.576 89.3074L111.08 89.0169L109.158 87.9074C108.588 87.5785 108.709 87.1655 109.176 86.896C109.685 86.602 110.17 86.609 110.728 86.931L112.71 88.0754L113.214 87.785L111.268 86.6615C110.346 86.1296 109.528 86.1891 108.873 86.567C108.352 86.868 108.261 87.2215 108.412 87.477L106.393 86.3115L105.89 86.602L110.576 89.3074ZM114.416 87.0907L114.919 86.8002L112.998 85.6908C112.428 85.3618 112.549 84.9488 113.016 84.6794C113.525 84.3854 114.01 84.3924 114.568 84.7144L116.55 85.8588L117.053 85.5683L115.107 84.4449C114.186 83.9129 113.367 83.9724 112.713 84.3504C112.191 84.6514 112.1 85.0048 112.252 85.2603L110.233 84.0949L109.73 84.3854L114.416 87.0907ZM119.383 84.2861C119.893 83.9921 119.984 83.6386 119.832 83.3831L120.335 83.6736L120.838 83.3831L117.668 81.5528L117.165 81.8432L119.086 82.9527C119.656 83.2817 119.529 83.6981 119.08 83.9571C118.583 84.2441 118.098 84.2371 117.54 83.9151L115.558 82.7707L115.055 83.0612L117.062 84.2196C117.935 84.7236 118.753 84.6501 119.383 84.2861ZM123.321 82.0131C123.781 81.7471 123.933 81.3237 123.806 81.0402L124.351 81.3552L124.854 81.0647L120.168 78.3593L119.665 78.6498L121.69 79.8188C121.199 79.7453 120.617 79.7873 120.089 80.0917C119.216 80.5957 119.295 81.3412 120.265 81.9011L120.314 81.9291C121.302 82.4996 122.49 82.4926 123.321 82.0131ZM122.957 81.7401C122.423 82.0481 121.611 82.0761 120.811 81.6141L120.762 81.5861C119.992 81.1417 119.926 80.6692 120.556 80.3052C121.175 79.9482 121.945 79.9447 122.757 80.4137L122.805 80.4417C123.618 80.9107 123.545 81.4007 122.957 81.7401ZM127.126 79.8164C127.896 79.3719 127.902 78.9205 127.326 78.588C126.653 78.1995 126.047 78.3815 125.271 78.6895C124.586 78.966 124.313 78.9905 124.028 78.826C123.755 78.6685 123.81 78.427 124.173 78.217C124.574 77.986 124.919 77.9615 125.337 78.119L125.822 77.839C125.052 77.4926 124.331 77.6431 123.761 77.972C123.264 78.259 122.991 78.7665 123.579 79.106C124.131 79.4244 124.64 79.3964 125.616 79.008C126.198 78.777 126.556 78.6965 126.889 78.889C127.229 79.085 127.18 79.302 126.701 79.5784C126.192 79.8724 125.756 79.8514 125.343 79.6554L124.852 79.9389C125.531 80.2959 126.368 80.2539 127.126 79.8164ZM130.176 77.5724C129.534 77.9434 128.667 77.8979 127.945 77.4814L127.897 77.4534C127.169 77.0335 127.097 76.5295 127.733 76.162C128.364 75.798 129.243 75.8365 129.976 76.26L130.019 76.2845C130.734 76.6975 130.813 77.2049 130.176 77.5724ZM130.588 77.8174C131.492 77.2959 131.492 76.533 130.534 75.98L130.485 75.952C129.534 75.4026 128.212 75.4026 127.315 75.9205C126.418 76.4385 126.424 77.2049 127.375 77.7544L127.424 77.7824C128.351 78.3179 129.685 78.3389 130.588 77.8174ZM133.094 76.3082L133.597 76.0177L131.675 74.9083C131.105 74.5793 131.226 74.1663 131.693 73.8969C132.202 73.6029 132.687 73.6099 133.245 73.9319L135.228 75.0763L135.731 74.7858L133.785 73.6624C132.863 73.1304 132.045 73.1899 131.39 73.5679C130.869 73.8689 130.778 74.2223 130.929 74.4778L130.426 74.1873L129.923 74.4778L133.094 76.3082ZM140.098 73.2936C140.971 72.7896 141.322 72.1667 141.104 71.6837L140.637 71.9532C140.583 72.3557 140.358 72.6811 139.698 73.0626C138.346 73.8431 136.679 73.6786 135.575 73.0416C134.29 72.2997 134.29 71.2637 135.515 70.5568C136.764 69.8358 138.237 69.8463 139.322 70.4728C140.146 70.9488 140.14 71.3512 139.795 71.5507C139.564 71.6837 139.304 71.6522 139.025 71.4422L137.679 70.4553L137.176 70.7458L137.497 70.9803C137.206 70.9103 136.782 70.9173 136.351 71.1657C135.69 71.5472 135.751 72.1982 136.563 72.6671C137.218 73.0451 138.006 73.0521 138.594 72.7126C138.97 72.4957 139.073 72.1492 138.934 71.8657C139.298 72.0197 139.661 72.0477 140.152 71.7642C140.637 71.4842 140.886 70.8718 139.746 70.2138C138.497 69.4928 136.563 69.4893 135.115 70.3258C133.714 71.1342 133.635 72.4607 135.121 73.3181C136.412 74.0636 138.479 74.228 140.098 73.2936ZM138.315 72.4257C137.988 72.6146 137.497 72.6111 137.073 72.3662C136.436 71.9987 136.406 71.5962 136.788 71.3757C137.182 71.1482 137.643 71.1412 138.103 71.4072C138.746 71.7782 138.691 72.2087 138.315 72.4257ZM144.049 70.0467C144.764 69.6337 144.958 69.1367 144.431 68.7063L143.928 68.9967C144.231 69.2487 144.128 69.5182 143.637 69.8017C142.988 70.1762 142.242 70.1447 141.497 69.7422L143.885 68.3633L143.722 68.2688C142.588 67.6143 141.454 67.7578 140.721 68.1813C139.848 68.6853 139.902 69.4237 140.86 69.9767L140.909 70.0047C141.885 70.5681 143.152 70.5646 144.049 70.0467ZM141.109 69.4972C140.63 69.1227 140.624 68.7203 141.139 68.4228C141.66 68.1218 142.261 68.0763 142.964 68.4263L141.109 69.4972ZM146.359 68.65L146.862 68.3595L144.922 67.2396C144.352 66.9106 144.498 66.5046 144.91 66.2667C145.347 66.0147 145.814 66.0112 146.371 66.3332L148.372 67.4881L148.875 67.1976L146.935 66.0777C146.365 65.7487 146.511 65.3427 146.923 65.1047C147.359 64.8528 147.826 64.8493 148.384 65.1712L150.384 66.3262L150.888 66.0357L148.923 64.9018C148.002 64.3698 147.165 64.4608 146.596 64.7898C146.201 65.0172 145.91 65.3952 146.104 65.7592C145.516 65.6087 144.989 65.7172 144.583 65.9517C144.128 66.2142 144.025 66.5536 144.177 66.8091L143.692 66.5291L143.189 66.8196L146.359 68.65ZM152.942 64.9127C153.409 64.6432 153.536 64.3877 153.475 64.0798L153.876 64.3107L154.379 64.0203L152.287 62.8128C151.402 62.3019 150.602 62.4769 149.996 62.8268C149.383 63.1803 149.074 63.6668 149.729 64.1218L150.232 63.8313C149.893 63.5793 149.953 63.3343 150.39 63.0823C150.875 62.8023 151.281 62.8128 151.784 63.1033L152.014 63.2363L151.56 63.4988C150.747 63.9678 150.22 64.5592 150.954 64.9827C151.602 65.3572 152.354 65.2522 152.942 64.9127ZM152.59 64.6537C152.148 64.9092 151.784 64.8812 151.457 64.6922C150.99 64.4227 151.299 64.0623 151.936 63.6948L152.372 63.4428L152.766 63.6703C153.257 63.9538 153.124 64.3457 152.59 64.6537ZM155.596 63.3177L156.099 63.0272L152.928 61.1968L152.425 61.4873L155.596 63.3177ZM152.007 60.9658C152.189 60.8608 152.189 60.6858 152.007 60.5809C151.825 60.4759 151.522 60.4759 151.34 60.5809C151.158 60.6858 151.158 60.8608 151.34 60.9658C151.522 61.0708 151.825 61.0708 152.007 60.9658ZM157.357 62.3006L157.867 62.0067L153.181 59.3013L152.671 59.5953L157.357 62.3006ZM159.489 61.1052C159.701 60.9827 159.707 60.7832 159.489 60.6572C159.271 60.5313 158.925 60.5348 158.713 60.6572C158.501 60.7797 158.495 60.9792 158.713 61.1052C158.931 61.2312 159.277 61.2277 159.489 61.1052ZM162.257 59.5354C163.02 59.0944 163.063 58.482 162.445 58.048L161.978 58.3175C162.438 58.6465 162.293 59.0314 161.844 59.2904C161.232 59.6439 160.395 59.6509 159.619 59.2029L159.571 59.1749C158.825 58.7444 158.807 58.223 159.383 57.8905C159.82 57.6385 160.371 57.537 160.953 57.782L161.45 57.495C160.547 57.0856 159.626 57.2675 158.965 57.649C158.116 58.139 158.08 58.9159 159.05 59.4759L159.098 59.5039C160.08 60.0709 161.371 60.0464 162.257 59.5354ZM165.518 57.1695C164.876 57.5404 164.009 57.4949 163.287 57.0785L163.239 57.0505C162.511 56.6305 162.439 56.1265 163.075 55.759C163.706 55.3951 164.585 55.4336 165.318 55.857L165.361 55.8815C166.076 56.2945 166.155 56.802 165.518 57.1695ZM165.93 57.4144C166.834 56.893 166.834 56.13 165.876 55.5771L165.827 55.5491C164.876 54.9996 163.554 54.9996 162.657 55.5176C161.76 56.0355 161.766 56.802 162.717 57.3514L162.766 57.3794C163.694 57.9149 165.027 57.9359 165.93 57.4144ZM168.436 55.9052L168.939 55.6148L166.999 54.4948C166.429 54.1658 166.574 53.7599 166.987 53.5219C167.423 53.2699 167.89 53.2664 168.448 53.5884L170.448 54.7433L170.951 54.4528L169.012 53.3329C168.442 53.0039 168.587 52.598 168.999 52.36C169.436 52.108 169.903 52.1045 170.46 52.4265L172.461 53.5814L172.964 53.2909L171 52.157C170.079 51.625 169.242 51.716 168.672 52.045C168.278 52.2725 167.987 52.6504 168.181 53.0144C167.593 52.8639 167.066 52.9724 166.659 53.2069C166.205 53.4694 166.102 53.8089 166.253 54.0644L165.768 53.7844L165.265 54.0749L168.436 55.9052Z" fill="white"/>
<path fill-rule="evenodd" clip-rule="evenodd" d="M156.737 28.8574L161.425 26.151C161.553 26.0771 161.723 26.0771 161.851 26.151L166.539 28.8574C166.667 28.9313 166.667 29.0297 166.539 29.1035L161.851 31.81C161.723 31.8838 161.553 31.8838 161.425 31.81L156.737 29.1035C156.609 29.0297 156.609 28.9313 156.737 28.8574ZM161.66 31.0597L162.406 30.6291L162.427 30.6168L159.976 29.202L159.209 29.6449L161.66 31.0597ZM159.231 29.2387C158.997 29.374 158.592 29.3863 158.336 29.2387C158.102 29.1033 158.08 28.8696 158.336 28.722C158.57 28.5866 158.975 28.5743 159.231 28.722C159.487 28.8696 159.487 29.091 159.231 29.2387ZM164.493 29.4233L165.26 28.9804L163.939 28.2176C163.278 27.8363 162.618 27.6271 161.851 28.07C161.467 28.2915 161.424 28.5375 161.51 28.7097L161.169 28.5129L160.444 28.9312L162.895 30.3459L163.662 29.9031L162.447 29.2018C162.128 29.0173 161.872 28.8205 162.277 28.5867C162.66 28.3653 163.023 28.5744 163.3 28.7343L164.493 29.4233Z" fill="white"/>
<path d="M172.506 20.8614C172.41 21.0275 172.25 21.1566 172.058 21.3043C172.154 21.1013 172.122 20.8983 171.931 20.7137C171.867 20.8983 171.707 21.0644 171.515 21.2489C171.131 21.2489 170.716 21.3412 170.428 21.5072C169.885 21.8209 169.885 22.3745 170.46 22.7067C170.556 22.7621 170.62 22.799 170.716 22.8174C169.821 23.2972 168.606 23.5187 167.456 23.4448C167.519 23.5925 167.647 23.7032 167.871 23.8324C168.223 24.0354 168.734 24.1092 169.214 24.0538C169.054 24.1461 168.83 24.2014 168.606 24.2568C169.118 24.552 169.885 24.589 170.46 24.3675C170.396 24.4413 170.3 24.4967 170.205 24.552C170.141 24.589 170.077 24.6259 169.981 24.6443C170.524 24.8104 171.227 24.7735 171.707 24.4967C171.643 24.8658 171.355 25.2164 170.844 25.5116C170.748 25.567 170.684 25.6039 170.588 25.6592C171.355 25.5485 172.09 25.3455 172.666 25.0134C174.584 23.9062 174.04 22.3745 172.666 21.5811C172.634 21.5626 172.57 21.5257 172.538 21.5072C172.602 21.2858 172.602 21.0644 172.506 20.8614Z" fill="white"/>
<circle r="17.6138" transform="matrix(0.866044 -0.499967 0.866044 0.499967 81.5291 97.8359)" fill="#F8F8F8" fill-opacity="0.25"/>
<g opacity="0.9">
<g style="mix-blend-mode:multiply">
<path d="M94.9323 101.012C93.939 100.381 92.3921 100.203 90.2919 100.478C88.1914 100.752 85.1204 101.696 81.0784 103.311C80.1207 102.716 79.4299 102.26 79.006 101.941C78.5822 101.623 78.2932 101.134 78.1385 100.473C77.474 99.8476 77.1152 99.3984 77.0622 99.1259C76.9214 98.4018 79.1158 97.8698 79.8141 97.5372C81.4533 96.7565 83.2189 96.049 83.866 95.3173C84.5135 94.5856 83.2817 93.9986 82.5851 94.0283C82.4623 94.0334 82.5782 93.9268 82.9333 93.7079C83.1997 93.59 83.2548 93.4721 83.0983 93.3541C82.9598 93.2499 82.7168 93.19 82.5817 93.0559C82.3624 92.8384 82.6533 92.7049 82.4987 92.4672C82.3901 92.3003 81.4065 92.3717 81.0668 92.3194C80.727 92.2673 81.1592 92.0275 81.7057 91.6523C82.0642 91.4063 82.1594 90.9606 81.4438 90.9483C80.7284 90.9359 80.1457 91.2006 78.8502 91.2126C77.5548 91.2246 77.8781 90.7894 77.455 90.4071C77.0319 90.0248 75.0713 88.9848 72.9765 89.1343C71.666 89.2278 70.3197 88.7766 66.7513 89.6854C63.1826 90.5941 63.1306 90.5659 61.058 91.5799C58.9854 92.594 57.501 93.3442 55.7746 95.1272C55.042 95.8838 53.9245 96.9287 53.644 97.5587C53.584 97.6935 53.6501 97.7487 53.5303 98.1417C53.4103 98.5346 53.2104 98.7219 53.1918 99.0022C53.1733 99.2824 53.5452 99.3341 53.463 99.5108C53.3812 99.6874 52.499 100.187 52.5191 100.758C52.5396 101.328 53.2726 101.13 53.3791 101.222C53.4084 101.248 53.0762 101.954 53.4959 102.282C53.9155 102.609 54.8663 102.433 55.1063 102.571C55.2463 102.652 54.4917 103.542 55.265 103.847C56.0383 104.153 57.5804 103.605 57.952 103.696C59.5668 104.089 62.5551 103.602 63.4746 103.529C63.8963 103.495 64.8536 103.95 66.3465 104.892C67.4088 105.664 67.8977 106.348 67.8133 106.942C67.7134 107.646 66.7131 108.846 66.2671 109.475C65.3109 110.822 65.5427 111.022 64.5779 111.921C63.6131 112.821 63.7272 113.497 64.1027 113.866C65.5052 115.244 66.9325 116.068 68.3848 116.338L94.9323 101.012Z" fill="#6854C0" fill-opacity="0.96"/>
</g>
<g style="mix-blend-mode:multiply" opacity="0.682">
<path d="M82.5352 92.5201C82.557 92.626 82.4007 92.7824 82.5035 92.9817C82.606 93.1812 83.1629 93.2666 82.9879 93.4017C82.8855 93.4809 82.4402 93.6338 81.9367 93.7286C81.3286 93.843 80.8057 93.8899 80.7513 93.8775C80.6521 93.8548 80.8901 93.6676 80.9412 93.6034C81.0634 93.4498 81.6729 92.6349 81.7441 92.5799C81.8466 92.5008 81.8272 92.6 81.9631 92.5335C82.0991 92.467 81.9985 92.3369 82.1981 92.3579C82.3975 92.3789 82.513 92.4143 82.5349 92.5202L82.5352 92.5201Z" fill="#53439A"/>
</g>
<g style="mix-blend-mode:multiply" opacity="0.519">
<path d="M76.0682 91.5957C76.1671 91.5569 76.2509 91.4325 76.1947 91.4126C76.1028 91.3801 75.7612 91.4539 75.1837 91.6273C74.2532 91.9067 73.9171 92.1206 73.8956 92.0735C73.8935 92.069 73.9355 91.9902 74.0965 91.8782C74.3493 91.7025 74.8679 91.445 75.2049 91.2383C75.6056 90.9926 75.8196 90.749 75.7866 90.7439C75.7471 90.7379 75.3804 90.8386 74.8729 91.0466C74.3654 91.2547 74.3522 91.3341 74.2751 91.3588C74.1981 91.3834 74.4527 91.1485 74.981 90.8323C75.5094 90.516 75.9597 90.4324 76.0339 90.2641C76.108 90.0959 75.7187 90.07 75.3091 90.0878C75.1977 90.0926 75.3135 90.1249 74.3285 90.4556C73.3437 90.7863 72.0247 91.2702 72.0726 91.54C72.1204 91.8097 72.5613 91.753 73.0082 92.0109C73.3041 92.1818 73.6546 92.6403 73.813 92.4755C74.0472 92.2317 74.5684 91.9476 75.0272 91.7928C75.4856 91.6383 75.9687 91.6348 76.0679 91.5959L76.0682 91.5957Z" fill="#53439A"/>
</g>
<g style="mix-blend-mode:multiply" opacity="0.682">
<path d="M75.4349 91.5552C75.1526 91.6984 74.9389 91.7608 74.9157 91.5771C74.8923 91.3935 75.3997 91.0787 75.5176 91.0106C75.6355 90.9426 75.7463 91.072 75.743 91.1724C75.7401 91.2727 75.7172 91.4118 75.4347 91.5551L75.4349 91.5552Z" fill="#53439A"/>
</g>
<g style="mix-blend-mode:multiply" opacity="0.371">
<path d="M74.9658 93.1966C75.4043 93.1689 76.1038 93.3287 77.0643 93.6759C78.0248 94.0232 79.2837 94.7153 80.8408 95.7524C77.1746 97.0866 74.6291 97.9196 73.2041 98.2517C71.0666 98.7496 69.6166 98.7304 68.303 98.6345C66.9892 98.5385 66.9086 97.9675 66.4506 97.496C66.1451 97.1816 65.5539 96.9682 64.6764 96.8558C65.6171 96.1758 66.8753 95.5998 68.451 95.1278C70.8143 94.4198 71.5208 94.2036 72.6061 93.8692C73.3295 93.6464 74.1161 93.4223 74.9658 93.1967L74.9658 93.1966Z" fill="#6854C0"/>
</g>
<g style="mix-blend-mode:multiply" opacity="0.906">
<path d="M80.8935 95.7243C82.4495 95.2445 83.8534 94.9104 83.9611 95.0073C84.0689 95.1041 83.9508 95.4901 82.1851 96.4699C80.4195 97.4498 78.757 97.7296 77.8033 98.3633C76.6624 99.1214 77.1835 99.4568 77.7835 100.045C78.3834 100.633 78.2627 101.073 78.5824 101.612C78.735 101.869 79.9695 102.378 80.4484 103C80.7421 103.382 80.6166 103.857 80.3608 104.124C80.1903 104.302 79.9442 104.517 79.6222 104.769L72.473 104.443C71.3066 104.447 69.6324 104.022 67.4499 103.167C66.2163 102.684 64.7991 101.959 63.1987 100.993L61.4608 99.9898C61.5305 99.7008 61.5705 99.4997 61.5806 99.3868C61.6114 99.0381 61.5298 98.8454 61.7121 98.7586C61.8942 98.6718 62.5813 99.3245 63.0664 99.4126C63.5517 99.5006 64.2901 99.584 64.7681 99.5456C65.4531 99.4906 66.3424 99.1931 66.7735 99.064C67.3661 98.8864 67.8424 98.8093 68.4496 98.6798C69.0565 98.5502 69.6667 98.7011 70.2502 98.6675C71.2682 98.6091 72.3161 98.4386 72.8651 98.3112C74.0175 98.0434 79.3378 96.2039 80.8937 95.7242L80.8935 95.7243Z" fill="#6854C0"/>
</g>
<g style="mix-blend-mode:multiply" opacity="0.682">
<path d="M61.6514 107.818C61.2609 107.592 61.2409 107.213 61.5916 106.679C60.7155 106.817 59.9784 106.76 59.3799 106.507C58.4823 106.126 59.2168 105.645 58.8471 105.578C57.7991 105.387 56.3118 105.529 56.6275 104.711C56.9005 104.003 56.2482 104.493 55.2768 104.138C54.7416 103.943 55.9709 102.193 55.5098 101.994C55.212 101.866 55.4735 101.257 56.2943 100.169C54.3539 99.4299 53.8178 98.453 54.686 97.2383C55.988 95.4163 57.4965 94.7977 59.7957 93.3534C61.4693 92.3022 62.7665 92.0309 63.064 92.2027C63.7704 92.6105 60.1642 94.5873 60.8869 94.5013C61.6096 94.4153 65.9564 92.7459 66.0126 93.0068C66.069 93.2676 58.9757 96.1595 59.1617 96.405C59.3477 96.6504 66.5583 93.8058 66.7681 94.3411C66.9778 94.8766 59.5362 97.2638 59.4324 97.7005C59.3288 98.1371 65.8118 95.3944 65.7965 95.817C65.7814 96.2397 63.4305 97.013 62.622 97.4707C60.8408 98.479 61.2361 98.5692 61.189 99.7501C61.1575 100.537 62.2603 101.393 64.4972 102.316C65.0649 102.679 65.3103 102.95 65.2336 103.127C65.2107 103.18 66.9943 104.899 67.6474 106.196C67.8682 106.634 67.8667 107.013 67.7831 107.287C67.5625 108.011 66.8143 109.051 65.5386 110.408C64.4494 109.959 63.7083 109.485 63.315 108.986C63.0736 108.679 63.0918 108.323 62.9746 108.168C62.7216 107.833 61.7631 107.883 61.6511 107.818L61.6514 107.818Z" fill="#53439A"/>
</g>
<g style="mix-blend-mode:multiply" opacity="0.682">
<path d="M61.6259 107.835C61.2356 107.609 61.2161 107.23 61.5679 106.695C60.6911 106.834 59.9537 106.777 59.3555 106.524C58.458 106.144 59.1938 105.662 58.8239 105.595C57.7759 105.405 56.2878 105.548 56.605 104.729C56.8791 104.02 56.2256 104.511 55.2543 104.157C54.7193 103.961 55.9518 102.211 55.4908 102.012C55.2948 101.927 54.6916 102.329 54.1454 102.073C53.7812 101.903 53.6052 101.59 53.6173 101.135C53.2012 101.077 52.9961 100.89 53.0025 100.575C53.0123 100.103 53.6621 99.7047 53.6505 99.508C53.6052 98.7387 53.3653 98.0982 53.8935 97.3604C54.2024 96.929 54.9398 96.4559 55.2863 96.0205C55.6204 95.6007 55.5632 95.2167 55.8888 94.8968C56.2992 94.4936 56.721 94.2742 57.1177 93.9102C57.5461 93.517 58.2416 93.0906 58.8815 92.6887C59.6204 92.2246 61.2714 91.4233 62.6934 90.8576C64.4968 90.1404 65.0857 90.0309 65.5302 89.9035C65.8657 89.8075 66.3971 89.8281 66.782 89.6982C67.167 89.5684 67.4503 89.4326 67.9718 89.2332C69.1963 88.7649 72.8125 87.9904 74.8752 88.1672C77.1183 88.3593 78.8289 89.2311 78.9378 89.51C78.9488 89.5379 79.2579 89.9714 78.9069 90.1143C78.0082 90.4805 73.9903 92.4954 73.579 92.6037C73.1677 92.7119 66.166 90.3343 65.9644 90.6273C65.8751 90.7569 66.0258 90.8702 66.4218 91.0988C66.8179 91.3275 66.5025 91.6174 66.4945 91.8323C66.4799 92.2384 68.4687 91.4738 68.5494 91.7395C68.6336 92.016 66.3904 92.7656 66.1538 92.9833C65.9675 93.1548 67.8986 92.5008 67.5903 92.8102C67.4212 92.9798 66.7578 93.689 66.9399 93.9211C67.1993 94.2517 68.2818 94.2833 68.4923 94.5062C68.8506 94.8859 68.1564 95.442 68.1546 95.4865C68.1537 95.5139 68.8431 95.3569 69.5232 95.4125C69.805 95.4355 70.4559 95.463 70.3139 95.6922C70.172 95.9215 69.4595 95.7714 69.3657 95.9452C69.2509 96.1579 71.0223 96.6455 70.1649 96.7908C69.6176 96.8834 69.1512 96.3811 68.7029 96.1068C68.4488 95.9513 68.0515 95.9557 68.0187 95.9679C67.5549 96.1401 66.6899 96.2382 65.9498 96.4261C64.4864 96.7975 63.0138 97.2558 62.6135 97.4824C60.83 98.4922 61.2608 98.3415 61.6047 98.732C61.7019 98.8426 61.5604 99.3467 61.4598 99.865C61.4119 100.111 62.3183 100.304 62.7914 100.698C63.0584 100.92 64.2593 101.518 64.841 102.073C64.9876 102.213 65.5031 102.534 65.8794 103.057C66.1897 103.487 66.0004 104.07 66.2892 104.606C66.5856 105.155 67.522 105.317 68.1369 106.351C68.5468 107.041 67.6715 108.398 65.5108 110.423C64.422 109.975 63.6812 109.501 63.2886 109.002C63.0472 108.696 63.0663 108.339 62.9492 108.184C62.6967 107.849 61.7375 107.899 61.6256 107.835L61.6259 107.835Z" fill="#53439A"/>
</g>
<g style="mix-blend-mode:multiply" opacity="0.8">
<path d="M74.8893 90.2814C74.4945 90.4693 73.2642 90.7596 72.5221 91.1668C71.7802 91.5739 71.9454 91.7979 71.6644 92.0228C71.4772 92.1726 71.3015 92.2675 71.1371 92.3073C71.2236 91.894 71.4744 91.5421 71.889 91.2516C72.5111 90.8157 74.0305 90.2359 74.4648 90.1055C74.7542 90.0186 75.0159 90.0079 75.2496 90.0735C75.2727 90.0869 75.1527 90.1562 74.8895 90.2814L74.8893 90.2814Z" fill="#53439A"/>
</g>
<g style="mix-blend-mode:multiply">
<path d="M82.3732 102.857C82.3223 103.763 80.3928 105.009 76.5851 106.596C72.7773 108.183 69.2435 109.262 65.9837 109.836C64.5755 111.51 63.8557 112.614 63.8246 113.148C63.7775 113.95 67.574 116.625 68.1341 116.362C68.5075 116.186 77.4118 111.045 94.847 100.94C92.7025 100.435 90.921 100.305 89.5029 100.549C88.0847 100.793 85.7081 101.563 82.3732 102.857Z" fill="#53439A"/>
</g>
<g style="mix-blend-mode:hard-light">
<path d="M81.8107 105.732L80.1867 105.562C77.1886 106.756 75.206 107.595 74.2388 108.082C72.7876 108.811 69.1166 110.537 68.4694 110.928C67.5667 111.474 67.0308 111.986 66.8615 112.464C64.8603 112.781 63.7759 112.955 63.6078 112.986C63.3557 113.033 63.3691 112.261 65.7271 111.166C67.2992 110.436 69.0604 109.896 71.011 109.547L81.4315 108.681C81.7453 108.584 81.4487 108.796 80.5417 109.32C79.6348 109.844 78.6834 110.351 77.6877 110.843L71.4584 110.601L68.4869 111.194L81.8106 105.732L81.8107 105.732Z" fill="#F36331"/>
</g>
<g style="mix-blend-mode:multiply" opacity="0.371">
<path d="M81.0726 91.8671C81.1171 91.9802 80.6336 92.1576 80.4758 92.3226C80.3182 92.4874 79.9583 92.6988 79.4566 92.7261C78.9551 92.7534 78.9713 92.565 79.0543 92.517C79.1163 92.4813 79.3095 92.7372 79.8372 92.5619C80.1891 92.445 80.3855 92.3131 80.4266 92.1661C80.8138 91.8565 81.0294 91.7568 81.0726 91.8671L81.0726 91.8671Z" fill="#6854C0"/>
</g>
</g>
<path d="M159.671 246.779L168.101 230.428L150.895 242.254L159.671 246.779Z" fill="#262E4F"/>
<mask id="mask4" mask-type="alpha" maskUnits="userSpaceOnUse" x="105" y="187" width="96" height="79">
<path fill-rule="evenodd" clip-rule="evenodd" d="M106.25 241.254C106.289 239.057 107.867 236.389 109.769 235.305L192.59 188.117C193.878 187.382 195.1 187.279 195.979 187.83L199.757 190.197C199.151 189.858 198.313 189.917 197.381 190.455L114.374 238.379C113.177 239.07 112.111 240.387 111.479 241.814C112.111 240.387 113.177 239.071 114.374 238.38L197.381 190.455C199.276 189.361 200.782 190.248 200.746 192.435L200.443 210.708C200.407 212.895 198.841 215.555 196.947 216.649L113.939 264.573C113.385 264.893 112.865 265.044 112.406 265.042C112.388 265.047 112.375 265.049 112.365 265.049C111.355 265.049 108.389 263.374 106.845 262.459C106.226 262.092 105.896 261.301 105.914 260.268L106.25 241.254Z" fill="url(#paint9_linear)"/>
</mask>
<g mask="url(#mask4)">
<path fill-rule="evenodd" clip-rule="evenodd" d="M109.769 235.305C107.867 236.389 106.289 239.057 106.25 241.254L105.914 260.268C105.896 261.301 106.226 262.092 106.845 262.459C108.389 263.374 111.355 265.049 112.365 265.049C112.375 265.049 112.389 265.046 112.408 265.041C111.297 265.038 110.549 264.141 110.575 262.593L110.878 244.32C110.914 242.133 112.479 239.473 114.374 238.379L197.381 190.455C198.313 189.917 199.151 189.858 199.757 190.197L195.979 187.83C195.1 187.279 193.878 187.382 192.59 188.117L109.769 235.305Z" fill="#262E4F" fill-opacity="0.85"/>
<path d="M110.877 244.32C110.913 242.132 112.479 239.473 114.373 238.379L197.381 190.454C199.276 189.36 200.782 190.247 200.746 192.434L200.443 210.706C200.407 212.894 198.841 215.554 196.947 216.648L113.939 264.572C112.044 265.666 110.538 264.78 110.574 262.592L110.877 244.32Z" fill="#262E4F"/>
<path d="M122.657 247.523C122.627 247.846 122.559 248.163 122.453 248.477C122.347 248.787 122.209 249.082 122.039 249.36C121.868 249.635 121.668 249.889 121.438 250.12C121.211 250.347 120.958 250.541 120.679 250.703C120.341 250.897 120.048 250.993 119.799 250.988C119.551 250.981 119.345 250.897 119.182 250.736C119.018 250.575 118.898 250.345 118.82 250.048C118.742 249.751 118.705 249.407 118.709 249.015L118.723 248.141C118.732 247.75 118.783 247.357 118.875 246.961C118.967 246.563 119.099 246.186 119.27 245.832C119.445 245.473 119.659 245.147 119.912 244.852C120.166 244.555 120.459 244.31 120.791 244.118C121.083 243.95 121.342 243.849 121.569 243.817C121.796 243.785 121.989 243.813 122.148 243.901C122.308 243.989 122.433 244.135 122.525 244.34C122.618 244.545 122.675 244.799 122.698 245.102L121.784 245.63C121.772 245.451 121.743 245.299 121.697 245.175C121.654 245.046 121.593 244.951 121.514 244.889C121.434 244.825 121.333 244.799 121.21 244.812C121.089 244.824 120.945 244.878 120.777 244.975C120.572 245.094 120.398 245.248 120.257 245.436C120.116 245.625 120 245.837 119.911 246.071C119.822 246.303 119.756 246.55 119.714 246.812C119.675 247.073 119.653 247.335 119.648 247.598L119.634 248.482C119.629 248.757 119.642 249.006 119.674 249.228C119.708 249.447 119.765 249.622 119.846 249.756C119.927 249.889 120.036 249.968 120.174 249.993C120.312 250.018 120.485 249.97 120.693 249.85C121.012 249.666 121.258 249.421 121.429 249.116C121.599 248.809 121.703 248.454 121.74 248.053L122.657 247.523ZM124.565 244.311C124.711 243.995 124.887 243.712 125.092 243.463C125.3 243.213 125.529 243.015 125.78 242.87C125.993 242.747 126.188 242.671 126.364 242.641C126.543 242.611 126.695 242.636 126.819 242.718C126.944 242.797 127.039 242.938 127.106 243.14C127.173 243.339 127.204 243.607 127.198 243.944L127.15 246.875L126.24 247.4L126.289 244.461C126.292 244.279 126.274 244.135 126.236 244.03C126.2 243.92 126.146 243.844 126.074 243.801C126.004 243.758 125.918 243.745 125.814 243.764C125.711 243.783 125.593 243.831 125.461 243.907C125.264 244.021 125.088 244.171 124.934 244.355C124.78 244.537 124.654 244.736 124.555 244.953L124.497 248.406L123.588 248.932L123.7 242.183L124.609 241.657L124.565 244.311ZM130.185 245.209C129.881 245.385 129.604 245.487 129.355 245.515C129.106 245.543 128.893 245.506 128.716 245.405C128.542 245.303 128.407 245.141 128.313 244.92C128.219 244.695 128.174 244.421 128.18 244.096L128.183 243.916C128.189 243.538 128.247 243.168 128.356 242.806C128.467 242.443 128.612 242.104 128.791 241.789C128.972 241.472 129.18 241.19 129.416 240.941C129.653 240.69 129.902 240.49 130.161 240.341C130.46 240.168 130.723 240.074 130.949 240.06C131.176 240.042 131.363 240.095 131.512 240.218C131.663 240.336 131.776 240.517 131.85 240.758C131.924 241 131.958 241.292 131.952 241.635L131.945 242.079L129.091 243.727C129.103 243.902 129.139 244.051 129.2 244.173C129.261 244.294 129.341 244.384 129.441 244.443C129.543 244.497 129.662 244.518 129.798 244.506C129.936 244.49 130.088 244.435 130.253 244.339C130.484 244.206 130.696 244.031 130.891 243.814C131.088 243.596 131.249 243.359 131.374 243.105L131.86 243.355C131.792 243.507 131.705 243.668 131.599 243.836C131.493 244.002 131.37 244.167 131.229 244.333C131.088 244.495 130.93 244.652 130.754 244.803C130.58 244.955 130.391 245.091 130.185 245.209ZM130.143 241.191C130.016 241.264 129.897 241.359 129.787 241.475C129.678 241.59 129.579 241.724 129.491 241.877C129.403 242.026 129.327 242.192 129.264 242.373C129.203 242.55 129.158 242.739 129.13 242.938L131.06 241.824L131.061 241.745C131.056 241.609 131.034 241.488 130.995 241.382C130.959 241.272 130.904 241.188 130.83 241.13C130.755 241.071 130.66 241.045 130.545 241.051C130.431 241.055 130.298 241.102 130.143 241.191ZM134.762 241.74C134.874 241.676 134.982 241.593 135.087 241.492C135.194 241.389 135.289 241.278 135.371 241.158C135.454 241.038 135.519 240.915 135.566 240.789C135.616 240.661 135.64 240.54 135.64 240.424L136.5 239.927C136.499 240.154 136.449 240.396 136.352 240.652C136.258 240.904 136.129 241.151 135.967 241.393C135.807 241.633 135.622 241.857 135.413 242.065C135.203 242.273 134.984 242.443 134.756 242.575C134.439 242.758 134.162 242.855 133.926 242.867C133.689 242.879 133.493 242.823 133.337 242.698C133.181 242.571 133.064 242.387 132.988 242.147C132.914 241.902 132.88 241.617 132.885 241.292L132.888 241.134C132.893 240.809 132.938 240.478 133.021 240.143C133.107 239.806 133.232 239.483 133.395 239.174C133.559 238.865 133.761 238.579 134.001 238.315C134.242 238.048 134.519 237.824 134.834 237.643C135.083 237.499 135.312 237.411 135.521 237.377C135.732 237.342 135.913 237.359 136.063 237.43C136.215 237.498 136.331 237.618 136.411 237.79C136.494 237.96 136.532 238.176 136.525 238.438L135.665 238.934C135.669 238.804 135.651 238.694 135.61 238.605C135.571 238.514 135.513 238.449 135.436 238.409C135.359 238.37 135.267 238.356 135.161 238.368C135.056 238.379 134.939 238.422 134.812 238.495C134.622 238.605 134.463 238.742 134.334 238.906C134.206 239.067 134.103 239.243 134.024 239.433C133.946 239.621 133.888 239.816 133.852 240.02C133.819 240.222 133.801 240.418 133.797 240.609L133.795 240.767C133.792 240.96 133.804 241.14 133.831 241.307C133.861 241.473 133.913 241.607 133.986 241.709C134.06 241.809 134.16 241.868 134.285 241.885C134.41 241.9 134.57 241.851 134.762 241.74ZM139.074 237.932L138.57 238.763L138.544 240.296L137.635 240.821L137.747 234.072L138.656 233.547L138.59 237.524L138.983 236.805L140.218 234.621L141.314 233.989L139.69 236.884L141.479 238.602L140.344 239.257L139.074 237.932ZM142.185 235.797C142.19 235.454 142.239 235.11 142.33 234.764C142.424 234.417 142.554 234.088 142.72 233.778C142.888 233.466 143.091 233.18 143.329 232.921C143.567 232.662 143.836 232.445 144.135 232.273C144.437 232.098 144.705 232.005 144.939 231.991C145.176 231.977 145.373 232.031 145.532 232.154C145.693 232.275 145.815 232.459 145.896 232.705C145.977 232.951 146.015 233.246 146.01 233.588L146.008 233.681C146.002 234.026 145.954 234.372 145.863 234.718C145.772 235.063 145.642 235.392 145.473 235.704C145.307 236.012 145.105 236.295 144.867 236.554C144.629 236.814 144.361 237.03 144.061 237.203C143.759 237.377 143.49 237.471 143.254 237.486C143.02 237.499 142.822 237.447 142.661 237.328C142.502 237.205 142.381 237.021 142.297 236.777C142.215 236.53 142.178 236.235 142.183 235.889L142.185 235.797ZM143.093 235.364C143.089 235.581 143.105 235.773 143.14 235.942C143.177 236.109 143.235 236.242 143.314 236.341C143.395 236.437 143.499 236.49 143.624 236.502C143.75 236.511 143.9 236.464 144.075 236.363C144.245 236.265 144.393 236.139 144.519 235.985C144.647 235.827 144.753 235.653 144.836 235.463C144.923 235.268 144.986 235.064 145.027 234.852C145.071 234.638 145.095 234.423 145.098 234.206L145.1 234.114C145.103 233.903 145.087 233.714 145.049 233.547C145.014 233.378 144.956 233.247 144.875 233.151C144.796 233.055 144.694 233 144.568 232.989C144.445 232.976 144.296 233.02 144.121 233.121C143.949 233.22 143.798 233.349 143.67 233.507C143.542 233.666 143.436 233.84 143.352 234.03C143.269 234.221 143.205 234.423 143.161 234.637C143.12 234.849 143.098 235.061 143.094 235.272L143.093 235.364ZM149.645 233.243C149.502 233.558 149.329 233.839 149.126 234.087C148.926 234.33 148.703 234.523 148.457 234.665C148.244 234.788 148.049 234.862 147.873 234.889C147.699 234.914 147.55 234.881 147.426 234.79C147.304 234.695 147.21 234.54 147.143 234.327C147.079 234.108 147.05 233.819 147.056 233.459L147.102 230.647L148.012 230.121L147.965 232.942C147.961 233.171 147.972 233.352 147.998 233.485C148.026 233.617 148.069 233.709 148.129 233.762C148.188 233.815 148.263 233.834 148.354 233.819C148.445 233.801 148.554 233.756 148.68 233.683C148.924 233.542 149.122 233.374 149.273 233.18C149.425 232.982 149.54 232.767 149.619 232.536L149.675 229.161L150.589 228.634L150.51 233.388L149.688 233.863L149.645 233.243ZM153.595 225.758L153.576 226.909L155.133 226.01L155.12 226.792L153.563 227.691L153.525 229.972C153.522 230.15 153.538 230.288 153.571 230.385C153.607 230.48 153.658 230.544 153.723 230.576C153.787 230.608 153.864 230.613 153.952 230.591C154.041 230.566 154.138 230.523 154.245 230.461C154.323 230.416 154.405 230.365 154.488 230.308C154.575 230.246 154.658 230.187 154.736 230.13C154.818 230.068 154.892 230.011 154.958 229.958C155.027 229.901 155.084 229.852 155.13 229.811L155.221 230.477C155.154 230.559 155.073 230.646 154.979 230.738C154.887 230.826 154.786 230.913 154.677 231C154.567 231.086 154.453 231.17 154.333 231.25C154.216 231.332 154.101 231.406 153.987 231.472C153.781 231.591 153.593 231.668 153.421 231.703C153.252 231.734 153.107 231.716 152.985 231.65C152.865 231.58 152.772 231.457 152.704 231.281C152.64 231.101 152.61 230.859 152.615 230.554L152.654 228.216L151.649 228.796L151.662 228.014L152.667 227.434L152.686 226.283L153.595 225.758ZM159.816 228.833L156.323 230.85L156.336 230.024L159.83 228.007L159.816 228.833ZM163.741 224.474C163.742 224.395 163.729 224.331 163.703 224.283C163.676 224.232 163.626 224.201 163.553 224.191C163.483 224.176 163.385 224.182 163.259 224.208C163.136 224.233 162.976 224.28 162.782 224.349C162.539 224.431 162.32 224.488 162.123 224.52C161.929 224.551 161.762 224.55 161.622 224.518C161.484 224.484 161.379 224.415 161.305 224.309C161.231 224.201 161.196 224.047 161.199 223.848C161.203 223.655 161.245 223.449 161.327 223.231C161.408 223.01 161.522 222.791 161.669 222.576C161.818 222.359 161.998 222.153 162.207 221.956C162.419 221.756 162.654 221.581 162.913 221.431C163.187 221.273 163.431 221.171 163.646 221.126C163.863 221.079 164.045 221.081 164.192 221.132C164.34 221.181 164.451 221.274 164.527 221.414C164.605 221.551 164.642 221.726 164.639 221.936L163.729 222.462C163.731 222.368 163.714 222.289 163.68 222.224C163.646 222.157 163.594 222.11 163.524 222.084C163.454 222.057 163.366 222.056 163.26 222.079C163.157 222.098 163.037 222.147 162.9 222.227C162.763 222.306 162.643 222.392 162.541 222.486C162.442 222.575 162.359 222.667 162.292 222.76C162.225 222.851 162.174 222.943 162.14 223.035C162.109 223.126 162.092 223.211 162.091 223.29C162.089 223.369 162.1 223.434 162.121 223.486C162.146 223.535 162.19 223.568 162.256 223.582C162.321 223.597 162.411 223.592 162.527 223.569C162.643 223.543 162.793 223.495 162.978 223.426C163.236 223.329 163.467 223.261 163.671 223.222C163.878 223.181 164.053 223.176 164.195 223.206C164.341 223.236 164.451 223.307 164.527 223.419C164.603 223.529 164.64 223.69 164.636 223.901C164.633 224.111 164.588 224.329 164.501 224.553C164.414 224.777 164.293 224.998 164.136 225.217C163.979 225.432 163.791 225.638 163.571 225.834C163.355 226.029 163.112 226.204 162.843 226.359C162.543 226.532 162.28 226.639 162.053 226.68C161.827 226.718 161.637 226.707 161.485 226.647C161.332 226.587 161.217 226.485 161.139 226.342C161.064 226.197 161.028 226.026 161.031 225.83L161.914 225.32C161.919 225.462 161.95 225.568 162.007 225.636C162.063 225.705 162.137 225.745 162.227 225.757C162.317 225.766 162.418 225.753 162.529 225.718C162.64 225.679 162.753 225.627 162.867 225.562C163.149 225.399 163.364 225.221 163.513 225.028C163.662 224.831 163.738 224.647 163.741 224.474ZM167.638 217.65L167.619 218.801L169.176 217.902L169.163 218.685L167.606 219.583L167.569 221.864C167.566 222.042 167.581 222.18 167.615 222.277C167.651 222.372 167.701 222.436 167.766 222.468C167.831 222.5 167.907 222.505 167.996 222.483C168.084 222.458 168.181 222.415 168.288 222.354C168.367 222.308 168.448 222.257 168.532 222.2C168.618 222.138 168.701 222.079 168.78 222.022C168.861 221.96 168.935 221.903 169.001 221.85C169.07 221.793 169.127 221.744 169.173 221.703L169.264 222.369C169.197 222.451 169.117 222.538 169.022 222.63C168.93 222.718 168.83 222.805 168.72 222.892C168.611 222.978 168.496 223.062 168.377 223.142C168.26 223.224 168.144 223.298 168.03 223.364C167.824 223.483 167.636 223.56 167.465 223.595C167.296 223.626 167.15 223.608 167.028 223.542C166.909 223.472 166.815 223.349 166.748 223.173C166.683 222.993 166.653 222.751 166.658 222.446L166.697 220.108L165.692 220.688L165.705 219.906L166.71 219.326L166.729 218.175L167.638 217.65ZM173.025 220.389C173 220.345 172.98 220.289 172.963 220.22C172.95 220.15 172.937 220.073 172.926 219.989C172.861 220.102 172.788 220.216 172.705 220.33C172.626 220.44 172.536 220.548 172.436 220.655C172.339 220.76 172.233 220.861 172.118 220.956C172.006 221.05 171.885 221.134 171.756 221.209C171.538 221.335 171.34 221.414 171.164 221.446C170.99 221.474 170.841 221.461 170.716 221.409C170.594 221.352 170.5 221.256 170.434 221.123C170.369 220.99 170.338 220.822 170.341 220.62C170.349 220.11 170.519 219.626 170.851 219.168C171.185 218.708 171.66 218.301 172.274 217.946L172.94 217.562L172.945 217.25C172.949 216.998 172.879 216.841 172.734 216.78C172.589 216.715 172.383 216.761 172.114 216.916C171.992 216.986 171.885 217.065 171.793 217.153C171.701 217.238 171.624 217.327 171.562 217.421C171.501 217.515 171.454 217.61 171.422 217.707C171.39 217.803 171.374 217.897 171.372 217.988L170.462 218.513C170.466 218.329 170.505 218.129 170.582 217.913C170.661 217.694 170.774 217.475 170.921 217.256C171.067 217.035 171.246 216.824 171.455 216.621C171.667 216.418 171.907 216.238 172.176 216.083C172.42 215.943 172.645 215.847 172.852 215.797C173.059 215.745 173.237 215.743 173.387 215.793C173.537 215.84 173.654 215.941 173.737 216.096C173.82 216.249 173.859 216.461 173.854 216.733L173.819 218.851C173.816 219.059 173.825 219.242 173.848 219.4C173.873 219.554 173.91 219.679 173.958 219.776L173.957 219.851L173.025 220.389ZM171.941 220.262C172.058 220.194 172.167 220.115 172.269 220.024C172.374 219.929 172.467 219.832 172.549 219.732C172.634 219.628 172.706 219.524 172.766 219.42C172.828 219.315 172.877 219.215 172.914 219.121L172.929 218.23L172.35 218.563C171.98 218.777 171.705 219.004 171.525 219.245C171.347 219.483 171.256 219.73 171.252 219.985C171.251 220.082 171.263 220.164 171.29 220.233C171.316 220.299 171.357 220.347 171.412 220.376C171.469 220.401 171.541 220.406 171.626 220.391C171.714 220.375 171.819 220.332 171.941 220.262ZM177.988 212.728C178.061 212.685 178.135 212.646 178.208 212.609C178.282 212.573 178.351 212.541 178.417 212.515C178.486 212.487 178.548 212.464 178.603 212.447C178.659 212.426 178.705 212.414 178.743 212.409L178.597 213.517C178.319 213.604 178.044 213.727 177.773 213.884C177.468 214.059 177.221 214.275 177.031 214.53C176.843 214.783 176.703 215.066 176.61 215.378L176.56 218.348L175.651 218.873L175.73 214.119L176.582 213.627L176.612 214.345C176.783 213.991 176.985 213.674 177.215 213.396C177.449 213.113 177.706 212.891 177.988 212.728ZM181.682 209.542L181.663 210.693L183.219 209.795L183.206 210.577L181.65 211.475L181.612 213.756C181.609 213.934 181.624 214.072 181.658 214.169C181.694 214.264 181.744 214.328 181.809 214.36C181.874 214.392 181.951 214.397 182.039 214.375C182.127 214.35 182.225 214.307 182.331 214.246C182.41 214.2 182.491 214.149 182.575 214.092C182.662 214.03 182.744 213.971 182.823 213.914C182.904 213.852 182.978 213.795 183.045 213.743C183.113 213.685 183.171 213.636 183.217 213.595L183.307 214.261C183.241 214.343 183.16 214.43 183.065 214.522C182.974 214.61 182.873 214.697 182.763 214.784C182.654 214.87 182.539 214.954 182.42 215.034C182.303 215.116 182.187 215.19 182.073 215.256C181.868 215.375 181.679 215.452 181.508 215.487C181.339 215.518 181.194 215.5 181.071 215.434C180.952 215.364 180.859 215.241 180.791 215.065C180.726 214.885 180.696 214.643 180.701 214.338L180.74 212.001L179.735 212.581L179.748 211.798L180.753 211.218L180.772 210.067L181.682 209.542ZM186.359 212.778C186.054 212.954 185.777 213.055 185.528 213.083C185.279 213.111 185.066 213.074 184.889 212.973C184.715 212.871 184.581 212.709 184.486 212.488C184.392 212.264 184.348 211.989 184.353 211.664L184.356 211.484C184.362 211.106 184.42 210.736 184.529 210.374C184.641 210.011 184.786 209.672 184.964 209.357C185.145 209.041 185.354 208.758 185.589 208.509C185.827 208.259 186.075 208.059 186.334 207.909C186.633 207.736 186.896 207.643 187.123 207.628C187.349 207.61 187.537 207.663 187.685 207.786C187.837 207.905 187.949 208.085 188.023 208.327C188.097 208.568 188.131 208.86 188.125 209.203L188.118 209.647L185.264 211.295C185.276 211.471 185.312 211.619 185.373 211.741C185.434 211.862 185.514 211.953 185.614 212.011C185.716 212.065 185.835 212.087 185.971 212.075C186.109 212.059 186.261 212.003 186.426 211.908C186.657 211.774 186.869 211.599 187.064 211.383C187.261 211.164 187.422 210.928 187.547 210.673L188.033 210.923C187.965 211.076 187.878 211.236 187.772 211.405C187.667 211.57 187.543 211.736 187.402 211.901C187.261 212.064 187.103 212.22 186.927 212.371C186.754 212.524 186.564 212.659 186.359 212.778ZM186.316 208.76C186.189 208.833 186.071 208.927 185.961 209.043C185.851 209.159 185.752 209.293 185.664 209.445C185.576 209.594 185.5 209.76 185.437 209.942C185.376 210.119 185.332 210.307 185.303 210.506L187.233 209.392L187.234 209.313C187.229 209.177 187.207 209.056 187.168 208.951C187.133 208.841 187.077 208.757 187.003 208.698C186.929 208.639 186.834 208.613 186.718 208.619C186.605 208.623 186.471 208.67 186.316 208.76ZM189.041 208.753C189.047 208.392 189.091 208.041 189.172 207.698C189.253 207.355 189.366 207.036 189.512 206.74C189.658 206.444 189.832 206.18 190.034 205.947C190.239 205.713 190.467 205.523 190.718 205.378C190.944 205.248 191.142 205.178 191.313 205.169C191.484 205.158 191.633 205.198 191.76 205.29L191.8 202.865L192.714 202.337L192.602 209.086L191.776 209.563L191.738 209.106C191.606 209.365 191.447 209.598 191.263 209.803C191.081 210.003 190.87 210.173 190.629 210.312C190.38 210.456 190.157 210.526 189.958 210.521C189.76 210.514 189.591 210.444 189.453 210.313C189.317 210.179 189.212 209.989 189.138 209.741C189.067 209.489 189.034 209.191 189.04 208.845L189.041 208.753ZM189.949 208.32C189.946 208.534 189.96 208.724 189.993 208.891C190.025 209.058 190.078 209.19 190.152 209.287C190.228 209.382 190.325 209.436 190.443 209.449C190.564 209.458 190.708 209.414 190.875 209.317C191.083 209.197 191.254 209.048 191.388 208.869C191.521 208.687 191.629 208.486 191.711 208.265L191.745 206.2C191.669 206.072 191.565 205.996 191.432 205.971C191.302 205.945 191.136 205.99 190.936 206.105C190.766 206.203 190.619 206.329 190.496 206.481C190.376 206.632 190.275 206.802 190.194 206.991C190.115 207.178 190.055 207.378 190.014 207.59C189.976 207.801 189.954 208.014 189.951 208.228L189.949 208.32Z" fill="white"/>
</g>
<defs>
<filter id="filter0_d" x="19.4443" y="193.408" width="447.091" height="308.106" filterUnits="userSpaceOnUse" color-interpolation-filters="sRGB">
<feFlood flood-opacity="0" result="BackgroundImageFix"/>
<feColorMatrix in="SourceAlpha" type="matrix" values="0 0 0 0 0 0 0 0 0 0 0 0 0 0 0 0 0 0 127 0"/>
<feOffset dy="50"/>
<feColorMatrix type="matrix" values="0 0 0 0 0.14902 0 0 0 0 0.180392 0 0 0 0 0.309804 0 0 0 0.05 0"/>
<feBlend mode="normal" in2="BackgroundImageFix" result="effect1_dropShadow"/>
<feBlend mode="normal" in="SourceGraphic" in2="effect1_dropShadow" result="shape"/>
</filter>
<filter id="filter1_d" x="15.2852" y="6.2793" width="447.097" height="308.109" filterUnits="userSpaceOnUse" color-interpolation-filters="sRGB">
<feFlood flood-opacity="0" result="BackgroundImageFix"/>
<feColorMatrix in="SourceAlpha" type="matrix" values="0 0 0 0 0 0 0 0 0 0 0 0 0 0 0 0 0 0 127 0"/>
<feOffset dy="50"/>
<feColorMatrix type="matrix" values="0 0 0 0 0.14902 0 0 0 0 0.180392 0 0 0 0 0.309804 0 0 0 0.1 0"/>
<feBlend mode="normal" in2="BackgroundImageFix" result="effect1_dropShadow"/>
<feBlend mode="normal" in="SourceGraphic" in2="effect1_dropShadow" result="shape"/>
</filter>
<filter id="filter2_d" x="147.853" y="248.09" width="20.7547" height="17.0541" filterUnits="userSpaceOnUse" color-interpolation-filters="sRGB">
<feFlood flood-opacity="0" result="BackgroundImageFix"/>
<feColorMatrix in="SourceAlpha" type="matrix" values="0 0 0 0 0 0 0 0 0 0 0 0 0 0 0 0 0 0 127 0"/>
<feOffset dy="4"/>
<feGaussianBlur stdDeviation="3"/>
<feColorMatrix type="matrix" values="0 0 0 0 0.14902 0 0 0 0 0.180392 0 0 0 0 0.309804 0 0 0 1 0"/>
<feBlend mode="normal" in2="BackgroundImageFix" result="effect1_dropShadow"/>
<feBlend mode="normal" in="SourceGraphic" in2="effect1_dropShadow" result="shape"/>
</filter>
<linearGradient id="paint0_linear" x1="463.548" y1="357.921" x2="42.5886" y2="422.24" gradientUnits="userSpaceOnUse">
<stop stop-color="white"/>
<stop offset="0.523713" stop-color="#F3F4F8"/>
<stop offset="1" stop-color="white"/>
</linearGradient>
<linearGradient id="paint1_linear" x1="463.579" y1="358.132" x2="42.6198" y2="422.451" gradientUnits="userSpaceOnUse">
<stop stop-color="white"/>
<stop offset="0.523713" stop-color="#F3F4F8"/>
<stop offset="1" stop-color="white"/>
</linearGradient>
<linearGradient id="paint2_linear" x1="181.537" y1="374.418" x2="195.208" y2="351.511" gradientUnits="userSpaceOnUse">
<stop stop-color="#F8F9FC"/>
<stop offset="1" stop-color="white"/>
</linearGradient>
<radialGradient id="paint3_radial" cx="0" cy="0" r="1" gradientUnits="userSpaceOnUse" gradientTransform="translate(107.691 23.9532) rotate(93.9168) scale(91.9409 84.0586)">
<stop stop-color="#B5AEEB"/>
<stop offset="1" stop-color="#E8EBF3"/>
</radialGradient>
<linearGradient id="paint4_linear" x1="463.689" y1="173.379" x2="32.3699" y2="234.887" gradientUnits="userSpaceOnUse">
<stop stop-color="#8274D9"/>
<stop offset="0.188382" stop-color="#3F357A"/>
<stop offset="0.666187" stop-color="#392F77"/>
<stop offset="1" stop-color="#7A6CD1"/>
</linearGradient>
<linearGradient id="paint5_linear" x1="177.38" y1="192.289" x2="191.051" y2="169.381" gradientUnits="userSpaceOnUse">
<stop stop-color="#4EB38D"/>
<stop offset="1" stop-color="#52BD95"/>
</linearGradient>
<linearGradient id="paint6_linear" x1="177.38" y1="192.291" x2="257.15" y2="77.3207" gradientUnits="userSpaceOnUse">
<stop stop-color="#4EB38D" stop-opacity="0"/>
<stop offset="1" stop-color="#52BD95"/>
</linearGradient>
<linearGradient id="paint7_linear" x1="177.38" y1="192.291" x2="275.636" y2="59.7145" gradientUnits="userSpaceOnUse">
<stop stop-color="#4F429F"/>
<stop offset="0.543707" stop-color="#6152BD"/>
<stop offset="1" stop-color="#6152BD"/>
</linearGradient>
<linearGradient id="paint8_linear" x1="159.92" y1="226.275" x2="175.92" y2="168.275" gradientUnits="userSpaceOnUse">
<stop stop-color="#8276CF"/>
<stop offset="1" stop-color="#8073D2" stop-opacity="0"/>
</linearGradient>
<linearGradient id="paint9_linear" x1="144.069" y1="236.156" x2="148.467" y2="187.299" gradientUnits="userSpaceOnUse">
<stop stop-color="#262E4F"/>
<stop offset="1" stop-color="#262E4F" stop-opacity="0.53"/>
</linearGradient>
<clipPath id="clip0">
<rect width="101.401" height="101.401" transform="matrix(0.866044 -0.499967 0.866044 0.499967 137.088 302.684)" fill="white"/>
</clipPath>
</defs>
</svg>
