<svg width="1009" height="671" viewBox="0 0 1009 671" fill="none" xmlns="http://www.w3.org/2000/svg">
<line x1="202.907" y1="186.051" x2="379.437" y2="186.051" stroke="url(#paint0_linear)" stroke-width="14"/>
<circle cx="347.503" cy="186.268" r="5.36401" fill="white"/>
<g filter="url(#filter0_d)">
<rect x="368.948" y="32.5566" width="590" height="570" rx="29" fill="white"/>
</g>
<path d="M483.379 502.641H485.311V499.329H486.151L488.203 502.641H490.267L487.999 498.993C489.007 498.693 489.763 498.009 489.763 496.713V496.665C489.763 494.889 488.479 494.061 486.451 494.061H483.379V502.641ZM485.311 498.009V495.549H486.403C487.339 495.549 487.867 495.849 487.867 496.725V496.773C487.867 497.601 487.375 498.009 486.403 498.009H485.311ZM493.197 502.773C494.229 502.773 494.865 502.293 495.189 501.657V502.641H496.917V496.365H495.189V500.049C495.189 500.973 494.613 501.429 493.881 501.429C493.137 501.429 492.789 501.021 492.789 500.169V496.365H491.061V500.409C491.061 502.053 491.973 502.773 493.197 502.773ZM498.457 502.641H500.197V499.017C500.197 498.093 500.761 497.637 501.505 497.637C502.273 497.637 502.609 498.045 502.609 498.897V502.641H504.349V498.645C504.349 496.965 503.473 496.221 502.237 496.221C501.193 496.221 500.509 496.737 500.197 497.361V496.365H498.457V502.641ZM505.84 502.641H507.58V499.017C507.58 498.093 508.144 497.637 508.888 497.637C509.656 497.637 509.992 498.045 509.992 498.897V502.641H511.732V498.645C511.732 496.965 510.856 496.221 509.62 496.221C508.576 496.221 507.892 496.737 507.58 497.361V496.365H505.84V502.641ZM513.271 502.641H514.999V496.365H513.271V502.641ZM514.123 495.513C514.687 495.513 515.119 495.105 515.119 494.565C515.119 494.025 514.687 493.617 514.123 493.617C513.571 493.617 513.139 494.025 513.139 494.565C513.139 495.105 513.571 495.513 514.123 495.513ZM516.598 502.641H518.338V499.017C518.338 498.093 518.902 497.637 519.646 497.637C520.414 497.637 520.75 498.045 520.75 498.897V502.641H522.49V498.645C522.49 496.965 521.614 496.221 520.378 496.221C519.334 496.221 518.65 496.737 518.338 497.361V496.365H516.598V502.641ZM526.764 504.957C528.828 504.957 530.064 504.009 530.076 502.149V496.365H528.348V497.301C527.988 496.665 527.376 496.221 526.356 496.221C524.796 496.221 523.596 497.481 523.596 499.281V499.365C523.596 501.225 524.808 502.365 526.332 502.365C527.256 502.365 528 501.813 528.348 501.201V502.149C528.348 503.133 527.82 503.685 526.764 503.685C525.876 503.685 525.48 503.325 525.372 502.773H523.644C523.812 504.069 524.736 504.957 526.764 504.957ZM526.848 501.057C525.984 501.057 525.372 500.409 525.372 499.365V499.269C525.372 498.237 525.912 497.541 526.884 497.541C527.832 497.541 528.396 498.189 528.396 499.257V499.341C528.396 500.409 527.76 501.057 526.848 501.057ZM537.425 502.773C539.453 502.773 540.701 501.561 540.701 500.037C540.701 498.261 539.633 497.697 537.557 497.433C536.237 497.241 535.961 496.953 535.961 496.341C535.961 495.765 536.393 495.369 537.245 495.369C538.097 495.369 538.553 495.729 538.673 496.509H540.461C540.305 494.805 539.177 493.941 537.245 493.941C535.349 493.941 534.125 495.033 534.125 496.497C534.125 498.153 535.025 498.813 537.221 499.101C538.481 499.293 538.841 499.533 538.841 500.217C538.841 500.889 538.277 501.357 537.425 501.357C536.153 501.357 535.829 500.721 535.745 499.953H533.885C533.993 501.669 535.073 502.773 537.425 502.773ZM541.945 502.641H543.685V499.017C543.685 498.093 544.249 497.637 544.993 497.637C545.761 497.637 546.097 498.045 546.097 498.897V502.641H547.837V498.645C547.837 496.965 546.961 496.221 545.725 496.221C544.681 496.221 543.997 496.737 543.685 497.361V493.521H541.945V502.641ZM552.256 501.453C551.272 501.453 550.72 500.733 550.72 499.533V499.437C550.72 498.237 551.296 497.541 552.256 497.541C553.228 497.541 553.792 498.261 553.792 499.461V499.545C553.792 500.733 553.228 501.453 552.256 501.453ZM552.244 502.773C554.128 502.773 555.556 501.513 555.556 499.533V499.437C555.556 497.481 554.14 496.221 552.256 496.221C550.372 496.221 548.944 497.505 548.944 499.473V499.569C548.944 501.525 550.372 502.773 552.244 502.773ZM559.615 502.773C561.331 502.773 562.411 502.017 562.615 500.661H560.971C560.863 501.189 560.467 501.537 559.663 501.537C558.715 501.537 558.151 500.937 558.103 499.893H562.627V499.413C562.627 497.169 561.187 496.221 559.567 496.221C557.743 496.221 556.339 497.505 556.339 499.485V499.581C556.339 501.585 557.719 502.773 559.615 502.773ZM558.127 498.825C558.259 497.937 558.787 497.421 559.567 497.421C560.395 497.421 560.875 497.877 560.935 498.825H558.127ZM566.104 502.773C567.76 502.773 568.744 502.065 568.744 500.709C568.744 499.365 567.88 498.969 566.308 498.741C565.396 498.609 565.096 498.453 565.096 498.057C565.096 497.673 565.42 497.409 565.984 497.409C566.584 497.409 566.872 497.649 566.968 498.165H568.564C568.408 496.725 567.364 496.221 565.972 496.221C564.688 496.221 563.488 496.869 563.488 498.177C563.488 499.401 564.136 499.881 565.804 500.133C566.704 500.265 567.076 500.445 567.076 500.877C567.076 501.309 566.764 501.561 566.092 501.561C565.336 501.561 565.06 501.237 564.988 500.673H563.368C563.428 502.029 564.412 502.773 566.104 502.773Z" fill="#262E4F"/>
<path d="M483.439 482.961H488.695V481.689H485.035V474.381H483.439V482.961ZM491.572 483.081C492.532 483.081 493.084 482.733 493.492 482.193V482.961H494.92V478.845C494.92 477.129 493.816 476.553 492.412 476.553C491.008 476.553 489.844 477.165 489.724 478.629H491.128C491.2 478.005 491.572 477.645 492.328 477.645C493.18 477.645 493.468 478.065 493.468 478.905V479.229H492.688C490.888 479.229 489.472 479.757 489.472 481.221C489.472 482.529 490.42 483.081 491.572 483.081ZM491.92 482.037C491.2 482.037 490.912 481.689 490.912 481.161C490.912 480.393 491.62 480.141 492.724 480.141H493.468V480.765C493.468 481.569 492.808 482.037 491.92 482.037ZM498.732 483.081C500.34 483.081 501.24 482.349 501.24 481.077C501.24 479.745 500.364 479.385 498.888 479.157C497.892 478.989 497.592 478.809 497.592 478.353C497.592 477.909 497.964 477.609 498.588 477.609C499.26 477.609 499.584 477.873 499.704 478.449H501.048C500.892 477.033 499.872 476.553 498.588 476.553C497.412 476.553 496.236 477.177 496.236 478.437C496.236 479.613 496.848 480.081 498.504 480.345C499.428 480.501 499.848 480.693 499.848 481.209C499.848 481.737 499.5 482.013 498.72 482.013C497.868 482.013 497.544 481.641 497.472 481.005H496.104C496.164 482.337 497.112 483.081 498.732 483.081ZM504.65 483.069C505.094 483.069 505.406 482.997 505.634 482.913V481.761C505.43 481.845 505.214 481.881 504.926 481.881C504.47 481.881 504.206 481.629 504.206 481.077V477.777H505.586V476.685H504.206V475.305H502.754V476.685H501.914V477.777H502.754V481.209C502.754 482.397 503.402 483.069 504.65 483.069ZM509.923 482.961H511.519V479.697H512.719C514.555 479.697 515.863 478.893 515.863 477.081V477.033C515.863 475.233 514.603 474.381 512.683 474.381H509.923V482.961ZM511.519 478.545V475.617H512.683C513.703 475.617 514.303 476.013 514.303 477.033V477.081C514.303 478.029 513.739 478.545 512.683 478.545H511.519ZM517.115 482.961H518.567V479.697C518.567 478.365 519.335 477.957 520.607 477.945V476.589C519.551 476.601 518.963 477.069 518.567 477.861V476.685H517.115V482.961ZM524.576 481.953C523.472 481.953 522.836 481.149 522.836 479.865V479.769C522.836 478.473 523.496 477.693 524.576 477.693C525.656 477.693 526.304 478.485 526.304 479.781V479.865C526.304 481.149 525.656 481.953 524.576 481.953ZM524.564 483.081C526.412 483.081 527.792 481.809 527.792 479.853V479.757C527.792 477.837 526.412 476.553 524.576 476.553C522.728 476.553 521.348 477.849 521.348 479.793V479.889C521.348 481.797 522.716 483.081 524.564 483.081ZM531.456 483.081C532.38 483.081 533.184 482.529 533.52 481.905V482.961H534.972V473.781H533.52V477.645C533.172 477.021 532.536 476.553 531.516 476.553C529.884 476.553 528.696 477.825 528.696 479.829V479.925C528.696 481.965 529.884 483.081 531.456 483.081ZM531.816 481.929C530.88 481.929 530.184 481.269 530.184 479.889V479.793C530.184 478.437 530.808 477.693 531.876 477.693C532.932 477.693 533.568 478.377 533.568 479.757V479.853C533.568 481.257 532.824 481.929 531.816 481.929ZM538.797 483.081C539.817 483.081 540.477 482.589 540.789 481.977V482.961H542.241V476.685H540.789V480.417C540.789 481.413 540.105 481.917 539.325 481.917C538.485 481.917 538.089 481.485 538.089 480.537V476.685H536.637V480.705C536.637 482.373 537.561 483.081 538.797 483.081ZM546.711 483.081C548.415 483.081 549.507 482.061 549.615 480.621H548.283C548.199 481.509 547.539 481.965 546.771 481.965C545.703 481.965 545.031 481.245 545.031 479.877V479.781C545.031 478.485 545.739 477.717 546.735 477.717C547.503 477.717 548.055 478.065 548.175 478.905H549.579C549.411 477.177 548.103 476.553 546.711 476.553C544.959 476.553 543.543 477.813 543.543 479.805V479.901C543.543 481.905 544.911 483.081 546.711 483.081ZM553.001 483.069C553.445 483.069 553.757 482.997 553.985 482.913V481.761C553.781 481.845 553.565 481.881 553.277 481.881C552.821 481.881 552.557 481.629 552.557 481.077V477.777H553.937V476.685H552.557V475.305H551.105V476.685H550.265V477.777H551.105V481.209C551.105 482.397 551.753 483.069 553.001 483.069ZM558.275 482.961H561.575C563.459 482.961 564.515 482.157 564.515 480.561V480.513C564.515 479.373 563.963 478.737 562.799 478.485C563.771 478.185 564.155 477.513 564.155 476.661V476.613C564.155 475.053 563.111 474.381 561.347 474.381H558.275V482.961ZM559.835 481.821V479.073H561.275C562.451 479.073 562.943 479.517 562.943 480.405V480.453C562.943 481.341 562.451 481.821 561.383 481.821H559.835ZM559.835 477.993V475.521H561.131C562.151 475.521 562.619 475.869 562.619 476.685V476.733C562.619 477.609 562.211 477.993 561.155 477.993H559.835ZM568.697 481.953C567.593 481.953 566.957 481.149 566.957 479.865V479.769C566.957 478.473 567.617 477.693 568.697 477.693C569.777 477.693 570.425 478.485 570.425 479.781V479.865C570.425 481.149 569.777 481.953 568.697 481.953ZM568.685 483.081C570.533 483.081 571.913 481.809 571.913 479.853V479.757C571.913 477.837 570.533 476.553 568.697 476.553C566.849 476.553 565.469 477.849 565.469 479.793V479.889C565.469 481.797 566.837 483.081 568.685 483.081ZM575.325 483.081C576.345 483.081 577.005 482.589 577.317 481.977V482.961H578.769V476.685H577.317V480.417C577.317 481.413 576.633 481.917 575.853 481.917C575.013 481.917 574.617 481.485 574.617 480.537V476.685H573.165V480.705C573.165 482.373 574.089 483.081 575.325 483.081ZM583.166 485.265C585.11 485.265 586.346 484.341 586.358 482.493V476.685H584.906V477.645C584.546 477.021 583.922 476.553 582.89 476.553C581.27 476.553 580.07 477.873 580.07 479.637V479.721C580.07 481.533 581.282 482.709 582.854 482.709C583.778 482.709 584.558 482.145 584.906 481.545V482.469C584.906 483.597 584.282 484.161 583.154 484.161C582.206 484.161 581.726 483.801 581.606 483.177H580.142C580.31 484.377 581.198 485.265 583.166 485.265ZM583.214 481.593C582.278 481.593 581.558 480.873 581.558 479.709V479.613C581.558 478.473 582.182 477.693 583.262 477.693C584.306 477.693 584.954 478.401 584.954 479.589V479.673C584.954 480.873 584.222 481.593 583.214 481.593ZM588.084 482.961H589.536V479.265C589.536 478.269 590.196 477.765 591.012 477.765C591.876 477.765 592.26 478.197 592.26 479.145V482.961H593.712V479.013C593.712 477.285 592.824 476.553 591.564 476.553C590.532 476.553 589.836 477.069 589.536 477.681V473.781H588.084V482.961ZM597.521 483.069C597.965 483.069 598.277 482.997 598.505 482.913V481.761C598.301 481.845 598.085 481.881 597.797 481.881C597.341 481.881 597.077 481.629 597.077 481.077V477.777H598.457V476.685H597.077V475.305H595.625V476.685H594.785V477.777H595.625V481.209C595.625 482.397 596.273 483.069 597.521 483.069Z" fill="#262E4F" fill-opacity="0.6"/>
<line x1="415.553" y1="522.641" x2="897.122" y2="522.641" stroke="#F0F0F1"/>
<rect x="434.016" y="474.641" width="32" height="32" rx="16" fill="#14B5D0"/>
<mask id="mask0" mask-type="alpha" maskUnits="userSpaceOnUse" x="434" y="474" width="33" height="33">
<rect x="434.016" y="474.641" width="32" height="32" rx="16" fill="white"/>
</mask>
<g mask="url(#mask0)">
<path d="M434.016 474.641H466.016V506.641H434.016V474.641Z" fill="#14B5D0"/>
<path fill-rule="evenodd" clip-rule="evenodd" d="M450.016 485.141C448.635 485.141 447.516 486.26 447.516 487.641C447.516 489.021 448.636 490.641 450.016 490.641C451.396 490.641 452.516 489.021 452.516 487.641C452.516 486.26 451.397 485.141 450.016 485.141ZM445.516 495.141C445.516 495.417 445.74 495.641 446.016 495.641H454.016C454.292 495.641 454.516 495.417 454.516 495.141V494.027C454.516 493.139 453.931 492.357 453.079 492.107C452.273 491.869 451.194 491.641 450.016 491.641C448.977 491.647 447.944 491.802 446.949 492.101C446.099 492.352 445.516 493.133 445.516 494.02V495.141Z" fill="white"/>
<path d="M460.452 485.806C460.187 486.011 459.897 486.186 459.585 486.32C460.19 487.66 460.516 489.127 460.516 490.641C460.516 496.431 455.806 501.141 450.016 501.141C444.226 501.141 439.516 496.431 439.516 490.641C439.516 484.851 444.226 480.141 450.016 480.141C452.027 480.141 453.991 480.731 455.67 481.804C455.571 482.072 455.519 482.355 455.516 482.641C455.516 484.019 456.638 485.141 458.016 485.141C459.394 485.141 460.516 484.019 460.516 482.641C460.516 481.263 459.394 480.141 458.016 480.141C457.292 480.141 456.644 480.456 456.187 480.949C454.344 479.772 452.203 479.145 450.016 479.141C443.675 479.141 438.516 484.3 438.516 490.641C438.516 496.982 443.675 502.141 450.016 502.141C456.357 502.141 461.516 496.982 461.516 490.641C461.516 488.946 461.144 487.301 460.452 485.806Z" fill="white"/>
</g>
<path d="M883.966 483.346H889.653V482.213H886.309L888.058 480.508C888.993 479.606 889.598 478.715 889.598 477.692C889.598 476.306 888.63 475.371 887.002 475.371C885.341 475.371 884.307 476.361 884.208 478.077H885.55C885.682 476.966 886.177 476.515 886.958 476.515C887.717 476.515 888.135 476.977 888.135 477.714C888.135 478.462 887.684 479.155 886.936 479.947L883.966 483.082V483.346ZM893.108 483.456C893.955 483.456 894.692 482.95 895 482.378V483.346H896.331V474.931H895V478.473C894.681 477.901 894.098 477.472 893.163 477.472C891.667 477.472 890.578 478.638 890.578 480.475V480.563C890.578 482.433 891.667 483.456 893.108 483.456ZM893.438 482.4C892.58 482.4 891.942 481.795 891.942 480.53V480.442C891.942 479.199 892.514 478.517 893.493 478.517C894.461 478.517 895.044 479.144 895.044 480.409V480.497C895.044 481.784 894.362 482.4 893.438 482.4Z" fill="#262E4F" fill-opacity="0.6"/>
<path d="M483.379 437.641H486.907C488.887 437.641 489.919 436.813 489.919 435.241V435.193C489.919 434.041 489.319 433.405 488.203 433.177C489.163 432.901 489.595 432.241 489.595 431.341V431.293C489.595 429.829 488.623 429.061 486.751 429.061H483.379V437.641ZM485.275 436.297V433.837H486.511C487.567 433.837 487.999 434.245 487.999 435.037V435.085C487.999 435.865 487.567 436.297 486.607 436.297H485.275ZM485.275 432.589V430.393H486.427C487.339 430.393 487.747 430.717 487.747 431.437V431.485C487.747 432.253 487.375 432.589 486.439 432.589H485.275ZM491.181 437.641H492.909V428.521H491.181V437.641ZM496.584 437.773C497.616 437.773 498.252 437.293 498.576 436.657V437.641H500.304V431.365H498.576V435.049C498.576 435.973 498 436.429 497.268 436.429C496.524 436.429 496.176 436.021 496.176 435.169V431.365H494.448V435.409C494.448 437.053 495.36 437.773 496.584 437.773ZM504.736 437.773C506.452 437.773 507.532 437.017 507.736 435.661H506.092C505.984 436.189 505.588 436.537 504.784 436.537C503.836 436.537 503.272 435.937 503.224 434.893H507.748V434.413C507.748 432.169 506.308 431.221 504.688 431.221C502.864 431.221 501.46 432.505 501.46 434.485V434.581C501.46 436.585 502.84 437.773 504.736 437.773ZM503.248 433.825C503.38 432.937 503.908 432.421 504.688 432.421C505.516 432.421 505.996 432.877 506.056 433.825H503.248Z" fill="#262E4F"/>
<path d="M483.439 417.961H485.035V414.445H487.963V413.209H485.035V410.653H488.755V409.381H483.439V417.961ZM491.431 418.081C492.391 418.081 492.943 417.733 493.351 417.193V417.961H494.779V413.845C494.779 412.129 493.675 411.553 492.271 411.553C490.867 411.553 489.703 412.165 489.583 413.629H490.987C491.059 413.005 491.431 412.645 492.187 412.645C493.039 412.645 493.327 413.065 493.327 413.905V414.229H492.547C490.747 414.229 489.331 414.757 489.331 416.221C489.331 417.529 490.279 418.081 491.431 418.081ZM491.779 417.037C491.059 417.037 490.771 416.689 490.771 416.161C490.771 415.393 491.479 415.141 492.583 415.141H493.327V415.765C493.327 416.569 492.667 417.037 491.779 417.037ZM497.912 417.961H499.604L501.872 411.685H500.444L498.824 416.473L497.18 411.685H495.62L497.912 417.961ZM505.521 416.953C504.417 416.953 503.781 416.149 503.781 414.865V414.769C503.781 413.473 504.441 412.693 505.521 412.693C506.601 412.693 507.249 413.485 507.249 414.781V414.865C507.249 416.149 506.601 416.953 505.521 416.953ZM505.509 418.081C507.357 418.081 508.737 416.809 508.737 414.853V414.757C508.737 412.837 507.357 411.553 505.521 411.553C503.673 411.553 502.293 412.849 502.293 414.793V414.889C502.293 416.797 503.661 418.081 505.509 418.081ZM510.049 417.961H511.501V414.697C511.501 413.365 512.269 412.957 513.541 412.945V411.589C512.485 411.601 511.897 412.069 511.501 412.861V411.685H510.049V417.961ZM514.855 417.961H516.307V411.685H514.855V417.961ZM515.563 410.653C516.043 410.653 516.427 410.293 516.427 409.825C516.427 409.345 516.043 408.985 515.563 408.985C515.083 408.985 514.699 409.345 514.699 409.825C514.699 410.293 515.083 410.653 515.563 410.653ZM520.212 418.069C520.656 418.069 520.968 417.997 521.196 417.913V416.761C520.992 416.845 520.776 416.881 520.488 416.881C520.032 416.881 519.768 416.629 519.768 416.077V412.777H521.148V411.685H519.768V410.305H518.316V411.685H517.476V412.777H518.316V416.209C518.316 417.397 518.964 418.069 520.212 418.069ZM525.266 418.081C526.874 418.081 527.942 417.361 528.146 416.041H526.742C526.634 416.653 526.178 417.001 525.302 417.001C524.222 417.001 523.622 416.329 523.574 415.141H528.17V414.721C528.17 412.477 526.766 411.553 525.206 411.553C523.418 411.553 522.086 412.849 522.086 414.793V414.889C522.086 416.869 523.418 418.081 525.266 418.081ZM523.598 414.169C523.742 413.197 524.33 412.609 525.206 412.609C526.106 412.609 526.658 413.089 526.73 414.169H523.598ZM532.446 417.961H534.042V414.697H535.242C537.078 414.697 538.386 413.893 538.386 412.081V412.033C538.386 410.233 537.126 409.381 535.206 409.381H532.446V417.961ZM534.042 413.545V410.617H535.206C536.226 410.617 536.826 411.013 536.826 412.033V412.081C536.826 413.029 536.262 413.545 535.206 413.545H534.042ZM539.639 417.961H541.091V414.697C541.091 413.365 541.859 412.957 543.131 412.945V411.589C542.075 411.601 541.487 412.069 541.091 412.861V411.685H539.639V417.961ZM547.099 416.953C545.995 416.953 545.359 416.149 545.359 414.865V414.769C545.359 413.473 546.019 412.693 547.099 412.693C548.179 412.693 548.827 413.485 548.827 414.781V414.865C548.827 416.149 548.179 416.953 547.099 416.953ZM547.087 418.081C548.935 418.081 550.315 416.809 550.315 414.853V414.757C550.315 412.837 548.935 411.553 547.099 411.553C545.251 411.553 543.871 412.849 543.871 414.793V414.889C543.871 416.797 545.239 418.081 547.087 418.081ZM553.979 418.081C554.903 418.081 555.707 417.529 556.043 416.905V417.961H557.495V408.781H556.043V412.645C555.695 412.021 555.059 411.553 554.039 411.553C552.407 411.553 551.219 412.825 551.219 414.829V414.925C551.219 416.965 552.407 418.081 553.979 418.081ZM554.339 416.929C553.403 416.929 552.707 416.269 552.707 414.889V414.793C552.707 413.437 553.331 412.693 554.399 412.693C555.455 412.693 556.091 413.377 556.091 414.757V414.853C556.091 416.257 555.347 416.929 554.339 416.929ZM561.321 418.081C562.341 418.081 563.001 417.589 563.313 416.977V417.961H564.765V411.685H563.313V415.417C563.313 416.413 562.629 416.917 561.849 416.917C561.009 416.917 560.613 416.485 560.613 415.537V411.685H559.161V415.705C559.161 417.373 560.085 418.081 561.321 418.081ZM569.235 418.081C570.939 418.081 572.031 417.061 572.139 415.621H570.807C570.723 416.509 570.063 416.965 569.295 416.965C568.227 416.965 567.555 416.245 567.555 414.877V414.781C567.555 413.485 568.263 412.717 569.259 412.717C570.027 412.717 570.579 413.065 570.699 413.905H572.103C571.935 412.177 570.627 411.553 569.235 411.553C567.483 411.553 566.067 412.813 566.067 414.805V414.901C566.067 416.905 567.435 418.081 569.235 418.081ZM575.525 418.069C575.969 418.069 576.281 417.997 576.509 417.913V416.761C576.305 416.845 576.089 416.881 575.801 416.881C575.345 416.881 575.081 416.629 575.081 416.077V412.777H576.461V411.685H575.081V410.305H573.629V411.685H572.789V412.777H573.629V416.209C573.629 417.397 574.277 418.069 575.525 418.069ZM584.554 418.081C586.594 418.081 588.058 417.037 588.31 414.973H586.75C586.582 416.185 585.742 416.785 584.554 416.785C582.97 416.785 582.046 415.645 582.046 413.713V413.617C582.046 411.697 583.03 410.521 584.542 410.521C585.778 410.521 586.414 411.109 586.594 412.249H588.214C588.022 410.233 586.498 409.249 584.53 409.249C582.142 409.249 580.366 411.049 580.366 413.629V413.725C580.366 416.365 581.866 418.081 584.554 418.081ZM592.38 416.953C591.276 416.953 590.64 416.149 590.64 414.865V414.769C590.64 413.473 591.3 412.693 592.38 412.693C593.46 412.693 594.108 413.485 594.108 414.781V414.865C594.108 416.149 593.46 416.953 592.38 416.953ZM592.368 418.081C594.216 418.081 595.596 416.809 595.596 414.853V414.757C595.596 412.837 594.216 411.553 592.38 411.553C590.532 411.553 589.152 412.849 589.152 414.793V414.889C589.152 416.797 590.52 418.081 592.368 418.081ZM596.944 417.961H598.396V408.781H596.944V417.961ZM602.974 416.953C601.87 416.953 601.234 416.149 601.234 414.865V414.769C601.234 413.473 601.894 412.693 602.974 412.693C604.054 412.693 604.702 413.485 604.702 414.781V414.865C604.702 416.149 604.054 416.953 602.974 416.953ZM602.962 418.081C604.81 418.081 606.19 416.809 606.19 414.853V414.757C606.19 412.837 604.81 411.553 602.974 411.553C601.126 411.553 599.746 412.849 599.746 414.793V414.889C599.746 416.797 601.114 418.081 602.962 418.081ZM607.502 417.961H608.954V414.697C608.954 413.365 609.722 412.957 610.994 412.945V411.589C609.938 411.601 609.35 412.069 608.954 412.861V411.685H607.502V417.961Z" fill="#262E4F" fill-opacity="0.6"/>
<line x1="415.553" y1="457.641" x2="897.122" y2="457.641" stroke="#F0F0F1"/>
<rect x="434.016" y="409.641" width="32" height="32" rx="16" fill="#14B5D0"/>
<mask id="mask1" mask-type="alpha" maskUnits="userSpaceOnUse" x="434" y="409" width="33" height="33">
<rect x="434.016" y="409.641" width="32" height="32" rx="16" fill="white"/>
</mask>
<g mask="url(#mask1)">
<path d="M434.016 409.641H466.016V441.641H434.016V409.641Z" fill="#14B5D0"/>
<path fill-rule="evenodd" clip-rule="evenodd" d="M450.016 420.141C448.635 420.141 447.516 421.26 447.516 422.641C447.516 424.021 448.636 425.641 450.016 425.641C451.396 425.641 452.516 424.021 452.516 422.641C452.516 421.26 451.397 420.141 450.016 420.141ZM445.516 430.141C445.516 430.417 445.74 430.641 446.016 430.641H454.016C454.292 430.641 454.516 430.417 454.516 430.141V429.027C454.516 428.139 453.931 427.357 453.079 427.107C452.273 426.869 451.194 426.641 450.016 426.641C448.977 426.647 447.944 426.802 446.949 427.101C446.099 427.352 445.516 428.133 445.516 429.02V430.141Z" fill="white"/>
<path d="M460.452 420.806C460.187 421.011 459.897 421.186 459.585 421.32C460.19 422.66 460.516 424.127 460.516 425.641C460.516 431.431 455.806 436.141 450.016 436.141C444.226 436.141 439.516 431.431 439.516 425.641C439.516 419.851 444.226 415.141 450.016 415.141C452.027 415.141 453.991 415.731 455.67 416.804C455.571 417.072 455.519 417.355 455.516 417.641C455.516 419.019 456.638 420.141 458.016 420.141C459.394 420.141 460.516 419.019 460.516 417.641C460.516 416.263 459.394 415.141 458.016 415.141C457.292 415.141 456.644 415.456 456.187 415.949C454.344 414.772 452.203 414.145 450.016 414.141C443.675 414.141 438.516 419.3 438.516 425.641C438.516 431.982 443.675 437.141 450.016 437.141C456.357 437.141 461.516 431.982 461.516 425.641C461.516 423.946 461.144 422.301 460.452 420.806Z" fill="white"/>
</g>
<path d="M883.586 418.456C885.28 418.456 886.479 417.411 886.479 415.75C886.479 414.1 885.478 413.11 884.059 413.11C883.223 413.11 882.673 413.418 882.365 413.77L882.376 411.636H886.028V410.481H881.254L881.188 414.859H881.936C882.288 414.452 882.772 414.177 883.575 414.177C884.444 414.177 884.994 414.782 884.994 415.728C884.994 416.696 884.477 417.323 883.575 417.323C882.563 417.323 882.266 416.817 882.145 416.091H880.781C880.869 417.444 881.738 418.456 883.586 418.456ZM887.816 418.346H889.147V414.903C889.147 414.023 889.752 413.583 890.412 413.583C891.061 413.583 891.435 413.946 891.435 414.793V418.346H892.766V414.903C892.766 414.023 893.371 413.583 894.031 413.583C894.691 413.583 895.054 413.946 895.054 414.793V418.346H896.385V414.705C896.385 413.121 895.527 412.472 894.471 412.472C893.756 412.472 892.964 412.791 892.524 413.506C892.238 412.791 891.644 412.472 890.896 412.472C890.049 412.472 889.422 412.934 889.147 413.473V412.593H887.816V418.346Z" fill="#262E4F" fill-opacity="0.6"/>
<path d="M483.943 372.641H485.923L488.995 364.277V364.061H482.779V365.633H486.559L483.943 372.641ZM492.651 372.773C494.631 372.773 495.939 371.609 495.939 369.785C495.939 367.961 494.871 366.893 493.311 366.893C492.339 366.893 491.739 367.277 491.403 367.685L491.439 365.537H495.423V364.061H489.987L489.867 368.945H490.947C491.295 368.549 491.787 368.261 492.591 368.261C493.455 368.261 493.983 368.837 493.983 369.761C493.983 370.673 493.515 371.285 492.639 371.285C491.655 371.285 491.367 370.805 491.259 370.085H489.471C489.555 371.621 490.539 372.773 492.651 372.773ZM498.615 367.109C498.099 367.109 497.775 366.749 497.775 366.065C497.775 365.417 498.099 365.033 498.615 365.033C499.131 365.033 499.431 365.429 499.431 366.065C499.431 366.725 499.131 367.109 498.615 367.109ZM498.603 368.189C499.863 368.189 500.763 367.277 500.763 366.053C500.763 364.841 499.815 363.977 498.615 363.977C497.403 363.977 496.443 364.877 496.443 366.077C496.443 367.289 497.331 368.189 498.603 368.189ZM497.595 372.641H498.675L504.375 364.061H503.295L497.595 372.641ZM503.343 371.681C502.839 371.681 502.515 371.321 502.515 370.649C502.515 369.989 502.839 369.617 503.343 369.617C503.871 369.617 504.171 370.001 504.171 370.649C504.171 371.297 503.871 371.681 503.343 371.681ZM503.343 372.773C504.603 372.773 505.503 371.849 505.503 370.625C505.503 369.413 504.555 368.549 503.343 368.549C502.143 368.549 501.183 369.449 501.183 370.661C501.183 371.861 502.071 372.773 503.343 372.773Z" fill="#262E4F"/>
<path d="M483.439 352.961H485.035V349.697H486.235C488.071 349.697 489.379 348.893 489.379 347.081V347.033C489.379 345.233 488.119 344.381 486.199 344.381H483.439V352.961ZM485.035 348.545V345.617H486.199C487.219 345.617 487.819 346.013 487.819 347.033V347.081C487.819 348.029 487.255 348.545 486.199 348.545H485.035ZM490.631 352.961H492.083V349.697C492.083 348.365 492.851 347.957 494.123 347.945V346.589C493.067 346.601 492.479 347.069 492.083 347.861V346.685H490.631V352.961ZM498.091 351.953C496.987 351.953 496.351 351.149 496.351 349.865V349.769C496.351 348.473 497.011 347.693 498.091 347.693C499.171 347.693 499.819 348.485 499.819 349.781V349.865C499.819 351.149 499.171 351.953 498.091 351.953ZM498.079 353.081C499.927 353.081 501.307 351.809 501.307 349.853V349.757C501.307 347.837 499.927 346.553 498.091 346.553C496.243 346.553 494.863 347.849 494.863 349.793V349.889C494.863 351.797 496.231 353.081 498.079 353.081ZM502.619 355.109H504.071V351.977C504.407 352.589 505.127 353.081 506.123 353.081C507.743 353.081 508.907 351.857 508.907 349.841V349.745C508.907 347.717 507.695 346.553 506.123 346.553C505.199 346.553 504.419 347.093 504.071 347.693V346.685H502.619V355.109ZM505.763 351.929C504.707 351.929 504.023 351.269 504.023 349.865V349.769C504.023 348.377 504.743 347.693 505.751 347.693C506.699 347.693 507.419 348.377 507.419 349.769V349.865C507.419 351.209 506.831 351.929 505.763 351.929ZM512.973 353.081C514.581 353.081 515.649 352.361 515.853 351.041H514.449C514.341 351.653 513.885 352.001 513.009 352.001C511.929 352.001 511.329 351.329 511.281 350.141H515.877V349.721C515.877 347.477 514.473 346.553 512.913 346.553C511.125 346.553 509.793 347.849 509.793 349.793V349.889C509.793 351.869 511.125 353.081 512.973 353.081ZM511.305 349.169C511.449 348.197 512.037 347.609 512.913 347.609C513.813 347.609 514.365 348.089 514.437 349.169H511.305ZM517.174 352.961H518.626V349.265C518.626 348.269 519.286 347.765 520.102 347.765C520.966 347.765 521.35 348.197 521.35 349.145V352.961H522.802V349.013C522.802 347.285 521.914 346.553 520.654 346.553C519.622 346.553 518.926 347.069 518.626 347.681V346.685H517.174V352.961ZM526.623 353.081C528.231 353.081 529.131 352.349 529.131 351.077C529.131 349.745 528.255 349.385 526.779 349.157C525.783 348.989 525.483 348.809 525.483 348.353C525.483 347.909 525.855 347.609 526.479 347.609C527.151 347.609 527.475 347.873 527.595 348.449H528.939C528.783 347.033 527.763 346.553 526.479 346.553C525.303 346.553 524.127 347.177 524.127 348.437C524.127 349.613 524.739 350.081 526.395 350.345C527.319 350.501 527.739 350.693 527.739 351.209C527.739 351.737 527.391 352.013 526.611 352.013C525.759 352.013 525.435 351.641 525.363 351.005H523.995C524.055 352.337 525.003 353.081 526.623 353.081ZM530.441 352.961H531.893V346.685H530.441V352.961ZM531.149 345.653C531.629 345.653 532.013 345.293 532.013 344.825C532.013 344.345 531.629 343.985 531.149 343.985C530.669 343.985 530.285 344.345 530.285 344.825C530.285 345.293 530.669 345.653 531.149 345.653ZM535.798 353.069C536.242 353.069 536.554 352.997 536.782 352.913V351.761C536.578 351.845 536.362 351.881 536.074 351.881C535.618 351.881 535.354 351.629 535.354 351.077V347.777H536.734V346.685H535.354V345.305H533.902V346.685H533.062V347.777H533.902V351.209C533.902 352.397 534.55 353.069 535.798 353.069ZM538.788 355.109H540.216L543.636 346.685H542.22L540.684 350.729L539.016 346.685H537.444L539.928 352.325L538.788 355.109ZM549.72 353.069C550.164 353.069 550.476 352.997 550.704 352.913V351.761C550.5 351.845 550.284 351.881 549.996 351.881C549.54 351.881 549.276 351.629 549.276 351.077V347.777H550.656V346.685H549.276V345.305H547.824V346.685H546.984V347.777H547.824V351.209C547.824 352.397 548.472 353.069 549.72 353.069ZM554.822 351.953C553.718 351.953 553.082 351.149 553.082 349.865V349.769C553.082 348.473 553.742 347.693 554.822 347.693C555.902 347.693 556.55 348.485 556.55 349.781V349.865C556.55 351.149 555.902 351.953 554.822 351.953ZM554.81 353.081C556.658 353.081 558.038 351.809 558.038 349.853V349.757C558.038 347.837 556.658 346.553 554.822 346.553C552.974 346.553 551.594 347.849 551.594 349.793V349.889C551.594 351.797 552.962 353.081 554.81 353.081ZM562.329 352.961H565.629C567.513 352.961 568.569 352.157 568.569 350.561V350.513C568.569 349.373 568.017 348.737 566.853 348.485C567.825 348.185 568.209 347.513 568.209 346.661V346.613C568.209 345.053 567.165 344.381 565.401 344.381H562.329V352.961ZM563.889 351.821V349.073H565.329C566.505 349.073 566.997 349.517 566.997 350.405V350.453C566.997 351.341 566.505 351.821 565.437 351.821H563.889ZM563.889 347.993V345.521H565.185C566.205 345.521 566.673 345.869 566.673 346.685V346.733C566.673 347.609 566.265 347.993 565.209 347.993H563.889ZM572.044 353.081C573.064 353.081 573.724 352.589 574.036 351.977V352.961H575.488V346.685H574.036V350.417C574.036 351.413 573.352 351.917 572.572 351.917C571.732 351.917 571.336 351.485 571.336 350.537V346.685H569.884V350.705C569.884 352.373 570.808 353.081 572.044 353.081ZM577.905 355.109H579.333L582.753 346.685H581.337L579.801 350.729L578.133 346.685H576.561L579.045 352.325L577.905 355.109ZM588.033 352.961H589.641V344.381H588.213L586.221 345.797V347.201L588.033 345.965V352.961ZM595.309 352.961H596.857V351.221H598.009V350.033H596.857V344.381H594.853L591.061 350.657V351.221H595.309V352.961ZM592.765 350.033L595.333 345.593V350.033H592.765ZM603.816 351.701V345.641H604.74C606.756 345.641 607.596 346.757 607.596 348.605V348.701C607.596 350.597 606.672 351.701 604.752 351.701H603.816ZM602.22 352.961H604.8C607.812 352.961 609.264 351.185 609.264 348.689V348.581C609.264 346.085 607.812 344.381 604.824 344.381H602.22V352.961ZM612.31 353.081C613.27 353.081 613.822 352.733 614.23 352.193V352.961H615.658V348.845C615.658 347.129 614.554 346.553 613.15 346.553C611.746 346.553 610.582 347.165 610.462 348.629H611.866C611.938 348.005 612.31 347.645 613.066 347.645C613.918 347.645 614.206 348.065 614.206 348.905V349.229H613.426C611.626 349.229 610.21 349.757 610.21 351.221C610.21 352.529 611.158 353.081 612.31 353.081ZM612.658 352.037C611.938 352.037 611.65 351.689 611.65 351.161C611.65 350.393 612.358 350.141 613.462 350.141H614.206V350.765C614.206 351.569 613.546 352.037 612.658 352.037ZM617.843 355.109H619.271L622.691 346.685H621.275L619.739 350.729L618.071 346.685H616.499L618.983 352.325L617.843 355.109ZM625.928 353.081C627.536 353.081 628.436 352.349 628.436 351.077C628.436 349.745 627.56 349.385 626.084 349.157C625.088 348.989 624.788 348.809 624.788 348.353C624.788 347.909 625.16 347.609 625.784 347.609C626.456 347.609 626.78 347.873 626.9 348.449H628.244C628.088 347.033 627.068 346.553 625.784 346.553C624.608 346.553 623.432 347.177 623.432 348.437C623.432 349.613 624.044 350.081 625.7 350.345C626.624 350.501 627.044 350.693 627.044 351.209C627.044 351.737 626.696 352.013 625.916 352.013C625.064 352.013 624.74 351.641 624.668 351.005H623.3C623.36 352.337 624.308 353.081 625.928 353.081Z" fill="#262E4F" fill-opacity="0.6"/>
<line x1="415.553" y1="392.641" x2="897.122" y2="392.641" stroke="#F0F0F1"/>
<rect x="434.016" y="344.641" width="32" height="32" rx="16" fill="#14B5D0"/>
<mask id="mask2" mask-type="alpha" maskUnits="userSpaceOnUse" x="434" y="344" width="33" height="33">
<rect x="434.016" y="344.641" width="32" height="32" rx="16" fill="white"/>
</mask>
<g mask="url(#mask2)">
<path d="M434.016 344.641H466.016V376.641H434.016V344.641Z" fill="#14B5D0"/>
<path fill-rule="evenodd" clip-rule="evenodd" d="M450.016 355.141C448.635 355.141 447.516 356.26 447.516 357.641C447.516 359.021 448.636 360.641 450.016 360.641C451.396 360.641 452.516 359.021 452.516 357.641C452.516 356.26 451.397 355.141 450.016 355.141ZM445.516 365.141C445.516 365.417 445.74 365.641 446.016 365.641H454.016C454.292 365.641 454.516 365.417 454.516 365.141V364.027C454.516 363.139 453.931 362.357 453.079 362.107C452.273 361.869 451.194 361.641 450.016 361.641C448.977 361.647 447.944 361.802 446.949 362.101C446.099 362.352 445.516 363.133 445.516 364.02V365.141Z" fill="white"/>
<path d="M460.452 355.806C460.187 356.011 459.897 356.186 459.585 356.32C460.19 357.66 460.516 359.127 460.516 360.641C460.516 366.431 455.806 371.141 450.016 371.141C444.226 371.141 439.516 366.431 439.516 360.641C439.516 354.851 444.226 350.141 450.016 350.141C452.027 350.141 453.991 350.731 455.67 351.804C455.571 352.072 455.519 352.355 455.516 352.641C455.516 354.019 456.638 355.141 458.016 355.141C459.394 355.141 460.516 354.019 460.516 352.641C460.516 351.263 459.394 350.141 458.016 350.141C457.292 350.141 456.644 350.456 456.187 350.949C454.344 349.772 452.203 349.145 450.016 349.141C443.675 349.141 438.516 354.3 438.516 360.641C438.516 366.982 443.675 372.141 450.016 372.141C456.357 372.141 461.516 366.982 461.516 360.641C461.516 358.946 461.144 357.301 460.452 355.806Z" fill="white"/>
</g>
<path d="M880.829 353.346H886.516V352.213H883.172L884.921 350.508C885.856 349.606 886.461 348.715 886.461 347.692C886.461 346.306 885.493 345.371 883.865 345.371C882.204 345.371 881.17 346.361 881.071 348.077H882.413C882.545 346.966 883.04 346.515 883.821 346.515C884.58 346.515 884.998 346.977 884.998 347.714C884.998 348.462 884.547 349.155 883.799 349.947L880.829 353.082V353.346ZM887.816 353.346H889.147V349.903C889.147 349.023 889.752 348.583 890.412 348.583C891.061 348.583 891.435 348.946 891.435 349.793V353.346H892.766V349.903C892.766 349.023 893.371 348.583 894.031 348.583C894.691 348.583 895.054 348.946 895.054 349.793V353.346H896.385V349.705C896.385 348.121 895.527 347.472 894.471 347.472C893.756 347.472 892.964 347.791 892.524 348.506C892.238 347.791 891.644 347.472 890.896 347.472C890.049 347.472 889.422 347.934 889.147 348.473V347.593H887.816V353.346Z" fill="#262E4F" fill-opacity="0.6"/>
<path d="M486.211 307.773C488.299 307.773 489.535 306.753 489.535 305.145C489.535 304.053 488.863 303.345 487.867 303.129C488.719 302.829 489.283 302.229 489.283 301.269C489.283 299.925 488.179 298.941 486.295 298.941C484.339 298.941 483.223 300.093 483.127 301.665H484.843C484.939 300.861 485.443 300.369 486.259 300.369C487.051 300.369 487.447 300.825 487.447 301.437C487.447 302.169 487.039 302.577 486.139 302.577H485.515V303.873H486.187C487.111 303.873 487.567 304.293 487.567 305.109C487.567 305.877 487.111 306.345 486.139 306.345C485.107 306.345 484.663 305.745 484.591 304.917H482.839C482.911 306.657 484.027 307.773 486.211 307.773Z" fill="#262E4F"/>
<path d="M483.439 287.961H489.007V286.701H485.035V284.193H488.059V282.993H485.035V280.641H488.803V279.381H483.439V287.961ZM490.326 287.961H491.778V284.205C491.778 283.245 492.438 282.765 493.158 282.765C493.866 282.765 494.274 283.161 494.274 284.085V287.961H495.726V284.205C495.726 283.245 496.386 282.765 497.106 282.765C497.826 282.765 498.222 283.161 498.222 284.085V287.961H499.674V283.989C499.674 282.261 498.738 281.553 497.586 281.553C496.806 281.553 495.942 281.901 495.462 282.681C495.15 281.901 494.502 281.553 493.686 281.553C492.762 281.553 492.078 282.057 491.778 282.645V281.685H490.326V287.961ZM502.986 288.081C503.946 288.081 504.498 287.733 504.906 287.193V287.961H506.334V283.845C506.334 282.129 505.23 281.553 503.826 281.553C502.422 281.553 501.258 282.165 501.138 283.629H502.542C502.614 283.005 502.986 282.645 503.742 282.645C504.594 282.645 504.882 283.065 504.882 283.905V284.229H504.102C502.302 284.229 500.886 284.757 500.886 286.221C500.886 287.529 501.834 288.081 502.986 288.081ZM503.334 287.037C502.614 287.037 502.326 286.689 502.326 286.161C502.326 285.393 503.034 285.141 504.138 285.141H504.882V285.765C504.882 286.569 504.222 287.037 503.334 287.037ZM508.034 287.961H509.486V281.685H508.034V287.961ZM508.742 280.653C509.222 280.653 509.606 280.293 509.606 279.825C509.606 279.345 509.222 278.985 508.742 278.985C508.262 278.985 507.878 279.345 507.878 279.825C507.878 280.293 508.262 280.653 508.742 280.653ZM511.292 287.961H512.744V278.781H511.292V287.961ZM516.662 288.081C518.27 288.081 519.17 287.349 519.17 286.077C519.17 284.745 518.294 284.385 516.818 284.157C515.822 283.989 515.522 283.809 515.522 283.353C515.522 282.909 515.894 282.609 516.518 282.609C517.19 282.609 517.514 282.873 517.634 283.449H518.978C518.822 282.033 517.802 281.553 516.518 281.553C515.342 281.553 514.166 282.177 514.166 283.437C514.166 284.613 514.778 285.081 516.434 285.345C517.358 285.501 517.778 285.693 517.778 286.209C517.778 286.737 517.43 287.013 516.65 287.013C515.798 287.013 515.474 286.641 515.402 286.005H514.034C514.094 287.337 515.042 288.081 516.662 288.081ZM525.439 288.069C525.883 288.069 526.195 287.997 526.423 287.913V286.761C526.219 286.845 526.003 286.881 525.715 286.881C525.259 286.881 524.995 286.629 524.995 286.077V282.777H526.375V281.685H524.995V280.305H523.543V281.685H522.703V282.777H523.543V286.209C523.543 287.397 524.191 288.069 525.439 288.069ZM530.541 286.953C529.437 286.953 528.801 286.149 528.801 284.865V284.769C528.801 283.473 529.461 282.693 530.541 282.693C531.621 282.693 532.269 283.485 532.269 284.781V284.865C532.269 286.149 531.621 286.953 530.541 286.953ZM530.529 288.081C532.377 288.081 533.757 286.809 533.757 284.853V284.757C533.757 282.837 532.377 281.553 530.541 281.553C528.693 281.553 527.313 282.849 527.313 284.793V284.889C527.313 286.797 528.681 288.081 530.529 288.081ZM537.421 288.081C538.345 288.081 539.149 287.529 539.485 286.905V287.961H540.937V278.781H539.485V282.645C539.137 282.021 538.501 281.553 537.481 281.553C535.849 281.553 534.661 282.825 534.661 284.829V284.925C534.661 286.965 535.849 288.081 537.421 288.081ZM537.781 286.929C536.845 286.929 536.149 286.269 536.149 284.889V284.793C536.149 283.437 536.773 282.693 537.841 282.693C538.897 282.693 539.533 283.377 539.533 284.757V284.853C539.533 286.257 538.789 286.929 537.781 286.929ZM544.306 288.081C545.266 288.081 545.818 287.733 546.226 287.193V287.961H547.654V283.845C547.654 282.129 546.55 281.553 545.146 281.553C543.742 281.553 542.578 282.165 542.458 283.629H543.862C543.934 283.005 544.306 282.645 545.062 282.645C545.914 282.645 546.202 283.065 546.202 283.905V284.229H545.422C543.622 284.229 542.206 284.757 542.206 286.221C542.206 287.529 543.154 288.081 544.306 288.081ZM544.654 287.037C543.934 287.037 543.646 286.689 543.646 286.161C543.646 285.393 544.354 285.141 545.458 285.141H546.202V285.765C546.202 286.569 545.542 287.037 544.654 287.037ZM549.839 290.109H551.267L554.687 281.685H553.271L551.735 285.729L550.067 281.685H548.495L550.979 287.325L549.839 290.109Z" fill="#262E4F" fill-opacity="0.6"/>
<line x1="415.553" y1="327.641" x2="897.122" y2="327.641" stroke="#F0F0F1"/>
<rect x="434.016" y="279.641" width="32" height="32" rx="16" fill="#14B5D0"/>
<mask id="mask3" mask-type="alpha" maskUnits="userSpaceOnUse" x="434" y="279" width="33" height="33">
<rect x="434.016" y="279.641" width="32" height="32" rx="16" fill="white"/>
</mask>
<g mask="url(#mask3)">
<path d="M434.016 279.641H466.016V311.641H434.016V279.641Z" fill="#14B5D0"/>
<path fill-rule="evenodd" clip-rule="evenodd" d="M450.016 290.141C448.635 290.141 447.516 291.26 447.516 292.641C447.516 294.021 448.636 295.641 450.016 295.641C451.396 295.641 452.516 294.021 452.516 292.641C452.516 291.26 451.397 290.141 450.016 290.141ZM445.516 300.141C445.516 300.417 445.74 300.641 446.016 300.641H454.016C454.292 300.641 454.516 300.417 454.516 300.141V299.027C454.516 298.139 453.931 297.357 453.079 297.107C452.273 296.869 451.194 296.641 450.016 296.641C448.977 296.647 447.944 296.802 446.949 297.101C446.099 297.352 445.516 298.133 445.516 299.02V300.141Z" fill="white"/>
<path d="M460.452 290.806C460.187 291.011 459.897 291.186 459.585 291.32C460.19 292.66 460.516 294.127 460.516 295.641C460.516 301.431 455.806 306.141 450.016 306.141C444.226 306.141 439.516 301.431 439.516 295.641C439.516 289.851 444.226 285.141 450.016 285.141C452.027 285.141 453.991 285.731 455.67 286.804C455.571 287.072 455.519 287.355 455.516 287.641C455.516 289.019 456.638 290.141 458.016 290.141C459.394 290.141 460.516 289.019 460.516 287.641C460.516 286.263 459.394 285.141 458.016 285.141C457.292 285.141 456.644 285.456 456.187 285.949C454.344 284.772 452.203 284.145 450.016 284.141C443.675 284.141 438.516 289.3 438.516 295.641C438.516 301.982 443.675 307.141 450.016 307.141C456.357 307.141 461.516 301.982 461.516 295.641C461.516 293.946 461.144 292.301 460.452 290.806Z" fill="white"/>
</g>
<path d="M878.724 288.346H884.411V287.213H881.067L882.816 285.508C883.751 284.606 884.356 283.715 884.356 282.692C884.356 281.306 883.388 280.371 881.76 280.371C880.099 280.371 879.065 281.361 878.966 283.077H880.308C880.44 281.966 880.935 281.515 881.716 281.515C882.475 281.515 882.893 281.977 882.893 282.714C882.893 283.462 882.442 284.155 881.694 284.947L878.724 288.082V288.346ZM888.874 288.346H890.293V286.751H891.349V285.662H890.293V280.481H888.456L884.98 286.234V286.751H888.874V288.346ZM886.542 285.662L888.896 281.592V285.662H886.542ZM894.447 288.456C895.921 288.456 896.746 287.785 896.746 286.619C896.746 285.398 895.943 285.068 894.59 284.859C893.677 284.705 893.402 284.54 893.402 284.122C893.402 283.715 893.743 283.44 894.315 283.44C894.931 283.44 895.228 283.682 895.338 284.21H896.57C896.427 282.912 895.492 282.472 894.315 282.472C893.237 282.472 892.159 283.044 892.159 284.199C892.159 285.277 892.72 285.706 894.238 285.948C895.085 286.091 895.47 286.267 895.47 286.74C895.47 287.224 895.151 287.477 894.436 287.477C893.655 287.477 893.358 287.136 893.292 286.553H892.038C892.093 287.774 892.962 288.456 894.447 288.456Z" fill="#262E4F" fill-opacity="0.6"/>
<path d="M608.134 227.246H610.01V217.236H608.134V227.246ZM614.975 227.386C616.053 227.386 616.991 226.742 617.383 226.014V227.246H619.077V216.536H617.383V221.044C616.977 220.316 616.235 219.77 615.045 219.77C613.141 219.77 611.755 221.254 611.755 223.592V223.704C611.755 226.084 613.141 227.386 614.975 227.386ZM615.395 226.042C614.303 226.042 613.491 225.272 613.491 223.662V223.55C613.491 221.968 614.219 221.1 615.465 221.1C616.697 221.1 617.439 221.898 617.439 223.508V223.62C617.439 225.258 616.571 226.042 615.395 226.042ZM624.311 227.386C626.187 227.386 627.433 226.546 627.671 225.006H626.033C625.907 225.72 625.375 226.126 624.353 226.126C623.093 226.126 622.393 225.342 622.337 223.956H627.699V223.466C627.699 220.848 626.061 219.77 624.241 219.77C622.155 219.77 620.601 221.282 620.601 223.55V223.662C620.601 225.972 622.155 227.386 624.311 227.386ZM622.365 222.822C622.533 221.688 623.219 221.002 624.241 221.002C625.291 221.002 625.935 221.562 626.019 222.822H622.365ZM629.212 227.246H630.906V222.934C630.906 221.772 631.676 221.184 632.628 221.184C633.636 221.184 634.084 221.688 634.084 222.794V227.246H635.778V222.64C635.778 220.624 634.742 219.77 633.272 219.77C632.068 219.77 631.256 220.372 630.906 221.086V219.924H629.212V227.246ZM640.221 227.372C640.739 227.372 641.103 227.288 641.369 227.19V225.846C641.131 225.944 640.879 225.986 640.543 225.986C640.011 225.986 639.703 225.692 639.703 225.048V221.198H641.313V219.924H639.703V218.314H638.009V219.924H637.029V221.198H638.009V225.202C638.009 226.588 638.765 227.372 640.221 227.372ZM642.939 227.246H644.633V219.924H642.939V227.246ZM643.765 218.72C644.325 218.72 644.773 218.3 644.773 217.754C644.773 217.194 644.325 216.774 643.765 216.774C643.205 216.774 642.757 217.194 642.757 217.754C642.757 218.3 643.205 218.72 643.765 218.72ZM649.19 227.372C649.708 227.372 650.072 227.288 650.338 227.19V225.846C650.1 225.944 649.848 225.986 649.512 225.986C648.98 225.986 648.672 225.692 648.672 225.048V221.198H650.282V219.924H648.672V218.314H646.978V219.924H645.998V221.198H646.978V225.202C646.978 226.588 647.734 227.372 649.19 227.372ZM651.908 227.246H653.602V219.924H651.908V227.246ZM652.734 218.72C653.294 218.72 653.742 218.3 653.742 217.754C653.742 217.194 653.294 216.774 652.734 216.774C652.174 216.774 651.726 217.194 651.726 217.754C651.726 218.3 652.174 218.72 652.734 218.72ZM658.887 227.386C660.763 227.386 662.009 226.546 662.247 225.006H660.609C660.483 225.72 659.951 226.126 658.929 226.126C657.669 226.126 656.969 225.342 656.913 223.956H662.275V223.466C662.275 220.848 660.637 219.77 658.817 219.77C656.731 219.77 655.177 221.282 655.177 223.55V223.662C655.177 225.972 656.731 227.386 658.887 227.386ZM656.941 222.822C657.109 221.688 657.795 221.002 658.817 221.002C659.867 221.002 660.511 221.562 660.595 222.822H656.941ZM666.362 227.386C668.238 227.386 669.288 226.532 669.288 225.048C669.288 223.494 668.266 223.074 666.544 222.808C665.382 222.612 665.032 222.402 665.032 221.87C665.032 221.352 665.466 221.002 666.194 221.002C666.978 221.002 667.356 221.31 667.496 221.982H669.064C668.882 220.33 667.692 219.77 666.194 219.77C664.822 219.77 663.45 220.498 663.45 221.968C663.45 223.34 664.164 223.886 666.096 224.194C667.174 224.376 667.664 224.6 667.664 225.202C667.664 225.818 667.258 226.14 666.348 226.14C665.354 226.14 664.976 225.706 664.892 224.964H663.296C663.366 226.518 664.472 227.386 666.362 227.386Z" fill="#262E4F" fill-opacity="0.6"/>
<path d="M499.291 227.246H501.041L501.825 224.768H505.647L506.445 227.246H508.377L505.073 217.236H502.637L499.291 227.246ZM503.743 218.762L505.213 223.41H502.259L503.743 218.762ZM512.01 227.386C513.2 227.386 513.97 226.812 514.334 226.098V227.246H516.028V219.924H514.334V224.278C514.334 225.44 513.536 226.028 512.626 226.028C511.646 226.028 511.184 225.524 511.184 224.418V219.924H509.49V224.614C509.49 226.56 510.568 227.386 512.01 227.386ZM520.78 227.386C521.858 227.386 522.796 226.742 523.188 226.014V227.246H524.882V216.536H523.188V221.044C522.782 220.316 522.04 219.77 520.85 219.77C518.946 219.77 517.56 221.254 517.56 223.592V223.704C517.56 226.084 518.946 227.386 520.78 227.386ZM521.2 226.042C520.108 226.042 519.296 225.272 519.296 223.662V223.55C519.296 221.968 520.024 221.1 521.27 221.1C522.502 221.1 523.244 221.898 523.244 223.508V223.62C523.244 225.258 522.376 226.042 521.2 226.042ZM526.938 227.246H528.632V219.924H526.938V227.246ZM527.764 218.72C528.324 218.72 528.772 218.3 528.772 217.754C528.772 217.194 528.324 216.774 527.764 216.774C527.204 216.774 526.756 217.194 526.756 217.754C526.756 218.3 527.204 218.72 527.764 218.72ZM533.916 227.386C535.792 227.386 537.038 226.546 537.276 225.006H535.638C535.512 225.72 534.98 226.126 533.958 226.126C532.698 226.126 531.998 225.342 531.942 223.956H537.304V223.466C537.304 220.848 535.666 219.77 533.846 219.77C531.76 219.77 530.206 221.282 530.206 223.55V223.662C530.206 225.972 531.76 227.386 533.916 227.386ZM531.97 222.822C532.138 221.688 532.824 221.002 533.846 221.002C534.896 221.002 535.54 221.562 535.624 222.822H531.97ZM538.817 227.246H540.511V222.934C540.511 221.772 541.281 221.184 542.233 221.184C543.241 221.184 543.689 221.688 543.689 222.794V227.246H545.383V222.64C545.383 220.624 544.347 219.77 542.877 219.77C541.673 219.77 540.861 220.372 540.511 221.086V219.924H538.817V227.246ZM550.541 227.386C552.529 227.386 553.803 226.196 553.929 224.516H552.375C552.277 225.552 551.507 226.084 550.611 226.084C549.365 226.084 548.581 225.244 548.581 223.648V223.536C548.581 222.024 549.407 221.128 550.569 221.128C551.465 221.128 552.109 221.534 552.249 222.514H553.887C553.691 220.498 552.165 219.77 550.541 219.77C548.497 219.77 546.845 221.24 546.845 223.564V223.676C546.845 226.014 548.441 227.386 550.541 227.386ZM558.608 227.386C560.484 227.386 561.73 226.546 561.968 225.006H560.33C560.204 225.72 559.672 226.126 558.65 226.126C557.39 226.126 556.69 225.342 556.634 223.956H561.996V223.466C561.996 220.848 560.358 219.77 558.538 219.77C556.452 219.77 554.898 221.282 554.898 223.55V223.662C554.898 225.972 556.452 227.386 558.608 227.386ZM556.662 222.822C556.83 221.688 557.516 221.002 558.538 221.002C559.588 221.002 560.232 221.562 560.316 222.822H556.662ZM566.083 227.386C567.959 227.386 569.009 226.532 569.009 225.048C569.009 223.494 567.987 223.074 566.265 222.808C565.103 222.612 564.753 222.402 564.753 221.87C564.753 221.352 565.187 221.002 565.915 221.002C566.699 221.002 567.077 221.31 567.217 221.982H568.785C568.603 220.33 567.413 219.77 565.915 219.77C564.543 219.77 563.171 220.498 563.171 221.968C563.171 223.34 563.885 223.886 565.817 224.194C566.895 224.376 567.385 224.6 567.385 225.202C567.385 225.818 566.979 226.14 566.069 226.14C565.075 226.14 564.697 225.706 564.613 224.964H563.017C563.087 226.518 564.193 227.386 566.083 227.386Z" fill="#262E4F" fill-opacity="0.6"/>
<rect x="415.024" y="207.555" width="59.1602" height="31.1946" rx="7" fill="#262E4F" fill-opacity="0.1"/>
<path d="M429.662 227.246H431.538V218.706H434.324V217.236H426.876V218.706H429.662V227.246ZM435.19 227.246H436.884V223.438C436.884 221.884 437.78 221.408 439.264 221.394V219.812C438.032 219.826 437.346 220.372 436.884 221.296V219.924H435.19V227.246ZM442.536 227.386C443.656 227.386 444.3 226.98 444.776 226.35V227.246H446.442V222.444C446.442 220.442 445.154 219.77 443.516 219.77C441.878 219.77 440.52 220.484 440.38 222.192H442.018C442.102 221.464 442.536 221.044 443.418 221.044C444.412 221.044 444.748 221.534 444.748 222.514V222.892H443.838C441.738 222.892 440.086 223.508 440.086 225.216C440.086 226.742 441.192 227.386 442.536 227.386ZM442.942 226.168C442.102 226.168 441.766 225.762 441.766 225.146C441.766 224.25 442.592 223.956 443.88 223.956H444.748V224.684C444.748 225.622 443.978 226.168 442.942 226.168ZM448.425 227.246H450.119V219.924H448.425V227.246ZM449.251 218.72C449.811 218.72 450.259 218.3 450.259 217.754C450.259 217.194 449.811 216.774 449.251 216.774C448.691 216.774 448.243 217.194 448.243 217.754C448.243 218.3 448.691 218.72 449.251 218.72ZM454.676 227.372C455.194 227.372 455.558 227.288 455.824 227.19V225.846C455.586 225.944 455.334 225.986 454.998 225.986C454.466 225.986 454.158 225.692 454.158 225.048V221.198H455.768V219.924H454.158V218.314H452.464V219.924H451.484V221.198H452.464V225.202C452.464 226.588 453.22 227.372 454.676 227.372ZM459.926 227.386C461.802 227.386 462.852 226.532 462.852 225.048C462.852 223.494 461.83 223.074 460.108 222.808C458.946 222.612 458.596 222.402 458.596 221.87C458.596 221.352 459.03 221.002 459.758 221.002C460.542 221.002 460.92 221.31 461.06 221.982H462.628C462.446 220.33 461.256 219.77 459.758 219.77C458.386 219.77 457.014 220.498 457.014 221.968C457.014 223.34 457.728 223.886 459.66 224.194C460.738 224.376 461.228 224.6 461.228 225.202C461.228 225.818 460.822 226.14 459.912 226.14C458.918 226.14 458.54 225.706 458.456 224.964H456.86C456.93 226.518 458.036 227.386 459.926 227.386Z" fill="#262E4F"/>
<path d="M526.722 119.919V107.881H528.386C532.312 107.881 533.95 109.935 533.95 113.757V113.965C533.95 117.813 532.182 119.919 528.438 119.919H526.722ZM522.51 123.195H528.568C535.094 123.195 538.344 119.477 538.344 113.913V113.705C538.344 108.141 535.12 104.605 528.594 104.605H522.51V123.195ZM544.703 123.481C546.835 123.481 548.031 122.649 548.811 121.557V123.195H552.477V114.329C552.477 110.637 550.111 109.285 546.783 109.285C543.455 109.285 540.907 110.715 540.673 113.939H544.235C544.391 112.769 545.067 112.015 546.549 112.015C548.265 112.015 548.759 112.899 548.759 114.511V115.057H547.225C543.065 115.057 540.153 116.253 540.153 119.425C540.153 122.285 542.233 123.481 544.703 123.481ZM545.821 120.855C544.443 120.855 543.845 120.205 543.845 119.217C543.845 117.761 545.119 117.293 547.303 117.293H548.759V118.437C548.759 119.945 547.485 120.855 545.821 120.855ZM558.998 123.195H563.236L568.176 109.597H564.536L561.312 119.321L558.062 109.597H554.032L558.998 123.195ZM570.315 123.195H574.059V109.597H570.315V123.195ZM572.161 107.751C573.383 107.751 574.319 106.867 574.319 105.697C574.319 104.527 573.383 103.643 572.161 103.643C570.965 103.643 570.029 104.527 570.029 105.697C570.029 106.867 570.965 107.751 572.161 107.751ZM582.619 123.481C584.621 123.481 586.285 122.311 586.987 120.933V123.195H590.731V103.435H586.987V111.625C586.233 110.247 584.881 109.285 582.697 109.285C579.291 109.285 576.717 111.911 576.717 116.383V116.591C576.717 121.115 579.317 123.481 582.619 123.481ZM583.737 120.543C581.865 120.543 580.565 119.217 580.565 116.513V116.305C580.565 113.601 581.735 112.171 583.841 112.171C585.895 112.171 587.091 113.549 587.091 116.253V116.461C587.091 119.217 585.713 120.543 583.737 120.543ZM600.18 123.195H604.392V114.849L610.814 123.195H615.728L608.006 113.393L615.364 104.579H610.892L604.392 112.613V104.605H600.18V123.195ZM617.643 123.195H621.387V109.597H617.643V123.195ZM619.489 107.751C620.711 107.751 621.647 106.867 621.647 105.697C621.647 104.527 620.711 103.643 619.489 103.643C618.293 103.643 617.357 104.527 617.357 105.697C617.357 106.867 618.293 107.751 619.489 107.751ZM624.852 123.195H628.622V115.161C628.622 113.315 629.792 112.379 631.248 112.379C632.574 112.379 633.38 113.159 633.38 114.901V123.195H637.124V115.161C637.124 113.315 638.294 112.379 639.75 112.379C641.102 112.379 641.882 113.159 641.882 114.901V123.195H645.626V114.485C645.626 110.871 643.676 109.285 641.154 109.285C639.438 109.285 637.67 110.013 636.578 111.651C635.928 110.039 634.576 109.285 632.782 109.285C630.754 109.285 629.298 110.403 628.622 111.677V109.597H624.852V123.195Z" fill="#262E4F"/>
<path d="M525.699 151.84C527.067 151.84 528.381 150.976 528.921 150.058V151.678H530.415V137.764H528.921V143.776C528.381 142.858 527.409 142.102 525.843 142.102C523.251 142.102 521.451 144.136 521.451 147.016V147.16C521.451 150.094 523.233 151.84 525.699 151.84ZM525.861 150.598C524.277 150.598 522.999 149.464 522.999 147.088V146.944C522.999 144.658 524.115 143.344 525.987 143.344C527.823 143.344 528.975 144.478 528.975 146.89V147.034C528.975 149.446 527.607 150.598 525.861 150.598ZM533.688 151.678H535.182V146.8L539.358 151.678H541.176L536.802 146.638L540.834 142.264H539.088L535.182 146.602V137.764H533.688V151.678ZM543.255 151.678H544.749V142.264H543.255V151.678ZM543.975 140.302C544.515 140.302 544.965 139.852 544.965 139.312C544.965 138.772 544.515 138.322 543.975 138.322C543.435 138.322 542.985 138.772 542.985 139.312C542.985 139.852 543.435 140.302 543.975 140.302ZM548.057 151.678H549.551V145.918C549.551 144.226 550.811 143.398 552.035 143.398C553.331 143.398 554.033 144.082 554.033 145.738V151.678H555.527V145.918C555.527 144.226 556.787 143.398 558.011 143.398C559.307 143.398 560.009 144.082 560.009 145.738V151.678H561.503V145.846C561.503 143.11 560.027 142.102 558.335 142.102C557.165 142.102 555.761 142.642 555.113 143.866C554.627 142.606 553.565 142.102 552.359 142.102C551.009 142.102 549.983 142.822 549.551 143.704V142.264H548.057V151.678ZM571.44 154.324C574.032 154.324 576.156 153.244 577.074 151.678H575.688C574.572 152.632 573.402 153.136 571.44 153.136C567.426 153.136 565.374 150.238 565.374 146.962C565.374 143.146 568.038 140.482 571.674 140.482C575.382 140.482 577.542 142.696 577.542 145.918C577.542 148.366 576.498 149.392 575.472 149.392C574.788 149.392 574.482 148.924 574.608 147.97L575.148 143.434H573.654L573.528 144.514C573.276 143.902 572.628 143.29 571.35 143.29C569.388 143.29 567.804 145.054 567.804 147.466C567.804 149.41 568.956 150.598 570.702 150.598C571.818 150.598 572.862 149.86 573.384 148.924C573.528 149.86 573.996 150.472 575.454 150.472C576.894 150.472 578.838 149.266 578.838 145.882C578.838 142.174 575.976 139.294 571.674 139.294C567.516 139.294 563.988 142.588 563.988 146.998C563.988 150.832 566.634 154.324 571.44 154.324ZM571.026 149.446C570.054 149.446 569.334 148.708 569.334 147.448C569.334 145.558 570.324 144.478 571.458 144.478C572.628 144.478 573.33 145.144 573.33 146.512C573.33 148.42 572.142 149.446 571.026 149.446ZM585.262 151.84C587.386 151.84 588.952 150.85 589.276 148.96H587.782C587.584 150.058 586.738 150.598 585.28 150.598C583.354 150.598 582.328 149.41 582.256 147.268H589.348V146.782C589.348 143.416 587.296 142.102 585.118 142.102C582.526 142.102 580.708 144.082 580.708 146.926V147.07C580.708 149.968 582.598 151.84 585.262 151.84ZM582.31 146.062C582.562 144.388 583.588 143.344 585.118 143.344C586.666 143.344 587.674 144.118 587.818 146.062H582.31ZM591.891 151.678H593.385V145.918C593.385 144.226 594.645 143.398 595.869 143.398C597.165 143.398 597.867 144.082 597.867 145.738V151.678H599.361V145.918C599.361 144.226 600.621 143.398 601.845 143.398C603.141 143.398 603.843 144.082 603.843 145.738V151.678H605.337V145.846C605.337 143.11 603.861 142.102 602.169 142.102C600.999 142.102 599.595 142.642 598.947 143.866C598.461 142.606 597.399 142.102 596.193 142.102C594.843 142.102 593.817 142.822 593.385 143.704V142.264H591.891V151.678ZM610.882 151.84C612.268 151.84 613.114 151.372 613.816 150.49V151.678H615.31V145.468C615.31 142.84 613.672 142.102 611.872 142.102C610.054 142.102 608.344 142.894 608.146 145.036H609.64C609.784 143.884 610.504 143.344 611.8 143.344C613.24 143.344 613.816 143.974 613.816 145.468V146.152H612.466C610.054 146.152 607.75 146.89 607.75 149.068C607.75 150.994 609.136 151.84 610.882 151.84ZM611.026 150.652C609.712 150.652 609.244 150.04 609.244 149.068C609.244 147.682 610.63 147.214 612.52 147.214H613.816V148.384C613.816 149.842 612.61 150.652 611.026 150.652ZM618.53 151.678H620.024V142.264H618.53V151.678ZM619.25 140.302C619.79 140.302 620.24 139.852 620.24 139.312C620.24 138.772 619.79 138.322 619.25 138.322C618.71 138.322 618.26 138.772 618.26 139.312C618.26 139.852 618.71 140.302 619.25 140.302ZM623.368 151.678H624.88V137.764H623.368V151.678ZM629.214 151.768C629.844 151.768 630.366 151.264 630.366 150.616C630.366 149.968 629.844 149.464 629.214 149.464C628.584 149.464 628.062 149.968 628.062 150.616C628.062 151.264 628.584 151.768 629.214 151.768ZM636.967 151.84C639.235 151.84 640.873 150.328 641.071 148.294H639.685C639.523 149.824 638.317 150.598 636.985 150.598C635.167 150.598 633.907 149.374 633.907 147.07V146.926C633.907 144.712 635.221 143.344 636.931 143.344C638.227 143.344 639.307 143.902 639.541 145.396H641.017C640.729 143.002 638.893 142.102 636.931 142.102C634.411 142.102 632.359 144.046 632.359 146.926V147.07C632.359 149.986 634.339 151.84 636.967 151.84ZM647.5 150.598C645.592 150.598 644.422 149.194 644.422 147.052V146.908C644.422 144.748 645.61 143.344 647.5 143.344C649.372 143.344 650.578 144.748 650.578 146.926V147.052C650.578 149.176 649.39 150.598 647.5 150.598ZM647.482 151.84C650.164 151.84 652.126 149.878 652.126 147.034V146.89C652.126 144.064 650.164 142.102 647.5 142.102C644.836 142.102 642.874 144.082 642.874 146.908V147.052C642.874 149.806 644.8 151.84 647.482 151.84ZM654.69 151.678H656.184V145.918C656.184 144.226 657.444 143.398 658.668 143.398C659.964 143.398 660.666 144.082 660.666 145.738V151.678H662.16V145.918C662.16 144.226 663.42 143.398 664.644 143.398C665.94 143.398 666.642 144.082 666.642 145.738V151.678H668.136V145.846C668.136 143.11 666.66 142.102 664.968 142.102C663.798 142.102 662.394 142.642 661.746 143.866C661.26 142.606 660.198 142.102 658.992 142.102C657.642 142.102 656.616 142.822 656.184 143.704V142.264H654.69V151.678Z" fill="#262E4F" fill-opacity="0.5"/>
<path fill-rule="evenodd" clip-rule="evenodd" d="M850.871 105.113H865.446C865.844 105.113 866.109 105.378 866.109 105.776V120.351C866.109 120.748 865.844 121.013 865.446 121.013H850.871C850.474 121.013 850.209 120.748 850.209 120.351V105.776C850.209 105.378 850.474 105.113 850.871 105.113ZM852.595 118.695H854.914H854.98V111.077H852.595V118.695ZM853.721 110.017C852.993 110.017 852.33 109.421 852.33 108.626C852.33 107.897 852.926 107.235 853.721 107.235C854.45 107.235 855.113 107.831 855.113 108.626C855.113 109.421 854.516 110.017 853.721 110.017ZM861.404 118.695H863.789V114.587C863.789 112.533 863.325 110.943 860.94 110.943C859.748 110.943 859.019 111.54 858.688 112.136V111.076H856.435V118.695H858.82V114.918C858.82 113.925 858.953 112.997 860.211 112.997C861.404 112.997 861.404 114.123 861.404 114.985V118.695Z" fill="#262E4F" fill-opacity="0.25"/>
<path d="M896.914 108.096C896.317 108.394 895.721 108.494 895.025 108.593C895.721 108.195 896.218 107.599 896.417 106.804C895.82 107.202 895.125 107.4 894.33 107.599C893.734 107.003 892.839 106.605 891.945 106.605C890.256 106.605 888.765 108.096 888.765 109.885C888.765 110.183 888.765 110.382 888.864 110.58C886.181 110.481 883.697 109.189 882.107 107.202C881.809 107.699 881.709 108.195 881.709 108.891C881.709 109.984 882.306 110.978 883.2 111.574C882.703 111.574 882.206 111.375 881.709 111.177C881.709 112.767 882.802 114.059 884.293 114.357C883.995 114.456 883.697 114.456 883.399 114.456C883.2 114.456 883.001 114.456 882.802 114.357C883.2 115.649 884.392 116.642 885.883 116.642C884.79 117.537 883.399 118.034 881.809 118.034C881.511 118.034 881.312 118.034 881.014 118.034C882.504 118.928 884.194 119.524 885.982 119.524C891.945 119.524 895.224 114.555 895.224 110.282C895.224 110.183 895.224 109.984 895.224 109.885C895.92 109.388 896.516 108.792 896.914 108.096Z" fill="#262E4F" fill-opacity="0.25"/>
<circle cx="458.459" cy="130.031" r="44.8028" fill="#F8F8F8"/>
<mask id="mask4" mask-type="alpha" maskUnits="userSpaceOnUse" x="421" y="92" width="75" height="76">
<ellipse cx="458.458" cy="130.032" rx="37.4479" ry="37.4479" fill="#C4C4C4"/>
</mask>
<g mask="url(#mask4)">
<ellipse cx="458.458" cy="130.032" rx="37.4479" ry="37.4479" fill="#CDEBF1"/>
<rect x="422.815" y="99.7812" width="73.6808" height="73.6808" rx="15" fill="#CDEBF1"/>
<mask id="mask5" mask-type="alpha" maskUnits="userSpaceOnUse" x="422" y="99" width="75" height="75">
<rect x="422.815" y="99.7812" width="73.6808" height="73.6808" rx="15" fill="white"/>
</mask>
<g mask="url(#mask5)">
<g opacity="0.88">
<path fill-rule="evenodd" clip-rule="evenodd" d="M449.952 159.205L448.48 156.986C448.443 156.93 448.355 156.962 448.364 157.029C448.365 157.04 448.369 157.05 448.375 157.059L449.952 159.205ZM447.057 153.896C447.452 154.143 447.96 153.831 447.918 153.366L447.525 149.012C447.516 148.91 447.513 148.809 447.513 148.707C447.513 148.192 447.482 146.526 447.069 146.077C446.938 145.935 446.808 145.795 446.68 145.657C445.382 144.258 444.241 143.028 443.779 141.334C443.539 140.456 443.49 139.333 443.447 138.363C443.389 137.026 443.343 135.981 442.829 136.274C441.944 136.78 440.686 135.659 440.109 134.44C439.563 133.29 439.46 132.284 439.369 131.41C439.319 130.926 439.274 130.483 439.16 130.077C438.459 127.579 439.624 125.795 439.856 125.65C440.432 125.29 441.084 124.83 441.106 124.151C441.151 122.759 441.194 120.591 441.058 119.769C440.969 119.23 440.837 118.774 440.728 118.396C440.594 117.935 440.495 117.592 440.552 117.365C440.696 116.787 441.129 116.012 441.582 115.202C442.119 114.239 442.685 113.226 442.829 112.433C442.907 112.009 442.83 111.583 442.759 111.192C442.672 110.707 442.594 110.276 442.829 109.966C443.786 108.711 444.583 107.303 445.253 106.118C446.001 104.797 446.591 103.755 447.069 103.516C448.031 103.035 448.637 103.036 449.146 103.038C449.44 103.039 449.701 103.039 449.979 102.947C450.435 102.795 450.915 102.438 451.266 102.177C451.5 102.003 451.676 101.871 451.751 101.871C452.137 101.871 452.488 102.056 452.739 102.188C452.899 102.272 453.018 102.335 453.079 102.314C453.341 102.227 453.429 102.073 453.527 101.902C453.643 101.7 453.773 101.473 454.218 101.302C455.041 100.986 459.596 101.176 461.115 101.51C461.874 101.678 461.975 101.774 462.144 101.936C462.313 102.099 462.55 102.326 463.583 102.757C464.145 102.991 464.751 103.139 465.349 103.285C466.122 103.474 466.88 103.658 467.505 104.022C468.42 104.553 468.849 105.072 469.256 105.566C469.616 106.002 469.959 106.418 470.605 106.804C471.388 107.272 471.736 107.38 471.997 107.461C472.221 107.53 472.381 107.579 472.694 107.816C473.477 108.409 473.32 108.638 473.132 108.914C472.955 109.173 472.749 109.473 473.263 110.156C473.564 110.555 473.994 110.737 474.398 110.909C474.83 111.092 475.233 111.263 475.414 111.674C476.026 113.059 476.007 118.176 475.915 121.64C475.878 123.076 478.127 124.267 478.515 125.65C478.85 126.848 478.601 128.33 478.347 129.841C478.191 130.772 478.033 131.714 478.008 132.607C477.976 133.807 476.892 135.091 475.035 135.642C474.76 135.724 472.639 137.146 472.533 137.412C471.746 139.386 470.605 142.468 470.605 143.746C470.605 145.331 470.898 148.508 471.008 149.645C471.033 149.908 471.176 150.146 471.397 150.293L471.853 150.597C471.883 150.617 471.897 150.653 471.889 150.688C471.927 150.579 472.059 150.54 472.151 150.61L474.683 152.548C474.853 152.679 475.04 152.787 475.238 152.869L477.823 153.945L485.886 157.298L487.974 158.495C492.8 161.26 495.699 166.468 495.508 172.027L495.376 175.828C494.911 181.299 490.334 185.504 484.843 185.504H462.538H432.391C431.547 185.504 430.767 185.057 430.34 184.329C430.089 183.9 429.978 183.403 430.024 182.908L430.261 180.339C430.309 179.82 430.318 179.298 430.288 178.778L429.954 173.045C429.954 168.983 432.011 165.198 435.42 162.989L444.273 157.253C444.674 156.993 444.999 156.63 445.212 156.202L446.253 154.122C446.402 153.824 446.775 153.72 447.057 153.896ZM465.757 159.958C465.398 160.237 465.057 160.49 464.737 160.724L465.362 160.292C465.504 160.194 465.636 160.082 465.757 159.958Z" fill="#6854C0" style="mix-blend-mode:multiply"/>
<g opacity="0.01">
<path fill-rule="evenodd" clip-rule="evenodd" d="M461.477 163.366C459.002 165.281 455.604 164.841 453.065 163.013C452.32 162.476 451.663 161.828 451.117 161.09L450.578 160.361C448.887 158.073 447.896 155.344 447.728 152.504L447.548 149.465C447.524 149.061 447.519 148.658 447.506 148.254C447.484 147.548 447.396 146.432 447.069 146.077C445.614 144.496 444.287 143.196 443.779 141.334C443.209 139.247 443.715 135.769 442.83 136.274C441.944 136.78 440.686 135.659 440.109 134.44C439.262 132.654 439.48 131.217 439.16 130.077C438.459 127.579 439.624 125.795 439.856 125.65C440.432 125.29 441.084 124.83 441.106 124.151C441.152 122.759 441.194 120.591 441.058 119.769C440.86 118.572 440.449 117.777 440.552 117.365C440.868 116.101 442.563 113.895 442.83 112.433C443.003 111.485 442.403 110.525 442.83 109.966C444.854 107.31 446.163 103.969 447.069 103.516C448.587 102.757 449.22 103.199 449.979 102.947C450.739 102.694 451.565 101.871 451.751 101.871C452.384 101.871 452.922 102.367 453.08 102.314C453.649 102.124 453.396 101.618 454.218 101.302C455.041 100.986 459.597 101.176 461.115 101.51C462.634 101.845 461.517 101.896 463.583 102.757C464.872 103.294 466.397 103.378 467.506 104.022C469.227 105.021 469.228 105.98 470.605 106.804C472.055 107.671 472.014 107.301 472.694 107.816C474.211 108.966 472.201 108.745 473.263 110.156C473.886 110.983 475.064 110.879 475.414 111.674C476.026 113.059 476.007 118.176 475.916 121.64C475.878 123.076 478.127 124.267 478.515 125.65C479.058 127.586 478.072 130.267 478.009 132.607C477.976 133.807 476.892 135.091 475.035 135.642C474.76 135.724 472.639 137.146 472.533 137.412C471.746 139.386 470.605 142.468 470.605 143.746C470.605 145.333 470.898 148.515 471.008 149.648C471.033 149.91 471.175 150.145 471.394 150.291C471.7 150.495 471.846 150.867 471.754 151.223C471.47 152.317 470.822 154.62 470.194 155.465C467.202 159.492 464.076 160.984 462.823 162.203C462.394 162.621 461.937 163.01 461.477 163.366Z" fill="#6854C0" style="mix-blend-mode:multiply"/>
</g>
<g opacity="0.370697">
<path fill-rule="evenodd" clip-rule="evenodd" d="M461.595 148.855C460.583 148.159 463.804 136.998 465.576 135.417C467.347 133.836 469.508 134.177 471.339 132.728C472.857 131.527 474.439 128.65 474.629 128.65C474.819 128.65 474.312 130.231 475.446 130.231C475.917 130.231 475.636 127.639 476.648 125.931C476.995 125.347 477.85 125.109 477.977 126.943C478.103 128.777 477.977 130.548 476.901 131.939C475.826 133.33 475.705 133.11 474.94 132.951C474.175 132.792 474.692 131.4 474.629 131.084C474.566 130.768 473.364 131.655 473.364 133.361C473.364 135.119 472.548 137.462 471.592 139.748C471.07 140.998 470.91 142.191 469.882 143.353C466.973 146.641 462.607 149.551 461.595 148.855Z" fill="#6854C0" style="mix-blend-mode:multiply"/>
</g>
<path fill-rule="evenodd" clip-rule="evenodd" d="M453.681 138.701C454.794 138.453 456.019 138.569 457.117 138.877C457.132 138.881 457.146 138.886 457.16 138.89C457.73 139.08 460.195 138.989 460.261 138.954C460.49 138.829 461.843 138.085 461.843 137.942C461.843 137.798 460.844 137.891 460.261 137.748C458.949 137.427 457.925 136.735 457.603 136.677C456.907 136.55 455.946 136.913 455.199 136.993C454.452 137.074 454.566 136.614 453.491 136.677C452.999 136.706 452.241 137.392 451.403 137.748C450.409 138.171 449.363 138.157 449.378 138.321C449.406 138.623 450.503 139.161 451.403 138.954C452.139 138.784 453.424 138.758 453.681 138.701Z" fill="#6854C0" style="mix-blend-mode:multiply"/>
<path fill-rule="evenodd" clip-rule="evenodd" d="M442.861 123.084C442.745 125.286 441.491 124.169 441.498 121.964C441.501 121.072 441.479 120.239 441.406 119.796C441.208 118.599 440.797 117.805 440.9 117.393C441.216 116.128 442.911 113.922 443.177 112.46C443.35 111.513 442.751 110.553 443.177 109.994C445.202 107.337 446.511 103.996 447.417 103.543C448.935 102.784 449.568 103.227 450.327 102.974C451.086 102.721 451.913 101.899 452.099 101.899C452.731 101.899 453.27 102.394 453.427 102.341C453.997 102.152 453.744 101.646 454.566 101.33C455.389 101.013 459.944 101.203 461.463 101.538C462.981 101.872 461.865 101.923 463.931 102.784C465.22 103.322 466.745 103.405 467.853 104.049C469.575 105.049 469.575 106.008 470.953 106.832C472.403 107.699 472.362 107.329 473.042 107.843C474.559 108.993 472.549 108.773 473.611 110.183C474.234 111.01 475.412 110.907 475.762 111.701C476.344 113.018 476.355 117.324 476.277 120.463C476.219 122.772 476.178 125.841 474.062 126.768C473.947 126.818 473.857 126.8 473.801 126.689C472.599 124.286 472.255 118.709 471.839 117.962C471.523 117.393 471.143 117.203 470.384 116.76C469.625 116.318 469.752 110.183 468.992 109.488C468.233 108.792 463.955 109.488 462.728 109.488C458.173 109.488 455.119 109.431 453.174 109.488C448.809 109.614 446.576 109.944 446.025 111.005C445.139 112.713 443.777 116.137 443.62 116.634C442.924 118.847 442.899 122.372 442.861 123.084Z" fill="#6854C0" style="mix-blend-mode:multiply"/>
<g opacity="0.370697">
<path fill-rule="evenodd" clip-rule="evenodd" d="M449.188 122.642C446.493 121.989 444.316 124.223 444.696 124.54C445.075 124.856 445.771 123.401 447.923 124.35C448.887 124.775 450.264 124.35 450.896 124.35C451.497 124.35 451.81 123.839 451.315 123.498C450.895 123.209 450.233 122.896 449.188 122.642Z" fill="#6854C0" style="mix-blend-mode:multiply"/>
</g>
<g opacity="0.370697">
<path fill-rule="evenodd" clip-rule="evenodd" d="M449.378 122.705C449.223 122.668 449.076 122.64 448.936 122.621C447.383 122.406 447.375 124.632 448.935 124.476C450.372 124.332 450.781 123.045 449.378 122.705Z" fill="#6854C0" style="mix-blend-mode:multiply"/>
</g>
<g opacity="0.370697">
<path fill-rule="evenodd" clip-rule="evenodd" d="M462.793 122.643C463.995 122.516 464.692 123.03 465.26 123.149C465.812 123.265 465.981 123.941 465.459 124.157C464.983 124.354 464.447 124.516 463.931 124.54C462.603 124.603 462.608 124.301 461.843 124.097C461.266 123.943 461.105 123.244 461.645 122.989C461.999 122.823 462.396 122.685 462.793 122.643Z" fill="#6854C0" style="mix-blend-mode:multiply"/>
</g>
<path fill-rule="evenodd" clip-rule="evenodd" d="M449.504 124.287C450.063 124.287 450.516 123.975 450.516 123.591C450.516 123.207 450 122.832 449.441 122.832C448.882 122.832 448.492 122.895 448.492 123.528C448.492 124.16 448.945 124.287 449.504 124.287Z" fill="#6854C0" style="mix-blend-mode:multiply"/>
<path fill-rule="evenodd" clip-rule="evenodd" d="M463.425 124.288C464.019 124.288 464.501 123.976 464.501 123.592C464.501 123.208 464.019 122.896 463.425 122.896C462.831 122.896 462.35 123.208 462.35 123.592C462.35 123.976 462.831 124.288 463.425 124.288Z" fill="#6854C0" style="mix-blend-mode:multiply"/>
<g opacity="0.370697">
<path fill-rule="evenodd" clip-rule="evenodd" d="M460.008 133.205C459.85 133.363 459.548 133.754 458.995 133.646C458.615 133.572 458.236 132.951 458.046 132.824C457.857 132.698 457.107 132.824 456.971 132.824C456.465 132.824 456.528 133.205 455.786 133.205C455.18 133.205 454.354 133.199 453.767 133.349C453.565 133.401 453.343 133.424 453.111 133.393C452.219 133.274 451.529 133.583 451.34 132.824C451.15 132.065 452.352 130.674 453.111 130.611C453.87 130.548 454.819 131.37 455.579 131.307C456.338 131.243 457.021 130.392 458.489 130.801C459.958 131.209 460.767 132.448 460.008 133.205Z" fill="#6854C0" style="mix-blend-mode:multiply"/>
</g>
<path fill-rule="evenodd" clip-rule="evenodd" d="M447.591 154.23C447.022 153.875 446.272 154.086 445.972 154.685L445.212 156.203C444.999 156.631 444.674 156.993 444.273 157.253L435.42 162.99C432.011 165.199 429.954 168.984 429.954 173.046L430.288 178.778C430.318 179.298 430.309 179.82 430.261 180.339L430.024 182.909C429.978 183.404 430.089 183.901 430.34 184.33C430.767 185.057 431.547 185.504 432.391 185.504H462.538H484.843C490.334 185.504 494.911 181.3 495.376 175.828L495.508 172.027C495.699 166.469 492.8 161.26 487.974 158.495L485.886 157.299L477.823 153.945L475.238 152.87C475.04 152.787 474.853 152.679 474.683 152.549C473.343 151.523 471.392 152.105 470.833 153.698L470.494 154.666C470.338 155.109 470.088 155.513 469.76 155.849L466.439 159.259C465.865 159.848 465.235 160.38 464.558 160.848L459.919 164.056C458.265 165.199 456.071 165.178 454.44 164.002L453.515 163.248C452.533 162.447 451.656 161.525 450.905 160.503L448.899 157.772C448.549 157.296 448.327 156.738 448.254 156.151L448.116 155.053C448.074 154.713 447.881 154.411 447.591 154.23Z" fill="#10ABC9"/>
<path fill-rule="evenodd" clip-rule="evenodd" d="M446.574 153.504C446.131 153.504 445.572 157.222 447.017 162.168C447.438 163.61 448.701 166.093 449.844 168.191C450.852 170.042 453.377 170.275 454.762 168.687C456.012 167.255 455.688 165.045 454.175 163.894C452.967 162.975 451.718 161.905 451.13 161.03C447.776 156.034 447.017 153.504 446.574 153.504Z" fill="#382683"/>
<path fill-rule="evenodd" clip-rule="evenodd" d="M472.218 150.721C475.052 150.721 475.593 155.205 474.429 157.79C473.397 160.081 472.133 162.654 471.142 163.938C470.033 165.376 467.65 167.631 465.723 169.376C464.167 170.784 461.764 170.565 460.441 168.936C458.987 167.146 459.488 164.481 461.412 163.21C462.577 162.441 463.75 161.603 464.499 160.902C466.361 159.161 468.73 157.218 470.003 155.337C471.65 152.905 471.968 150.721 472.218 150.721Z" fill="#382683"/>
<g opacity="0.370697">
<path fill-rule="evenodd" clip-rule="evenodd" d="M454.44 148.572C452.324 148.624 450.366 150.632 451.429 152.463C451.512 152.606 451.608 152.743 451.72 152.872C452.922 154.264 452.289 153.947 453.365 155.402C456.598 159.774 461.852 162.543 466.02 159.052C466.688 158.492 467.259 157.978 467.664 157.552C468.609 156.558 469.385 155.256 469.976 154.052C471.036 151.894 471.048 149.431 470.805 147.04C470.712 146.127 470.658 145.199 470.701 144.461C470.751 143.613 469.321 143.082 468.929 143.835C468.887 143.915 468.832 143.985 468.764 144.043C468.112 144.6 464.534 147.63 462.982 148.382C461.482 149.109 459.559 148.951 458.869 148.951C456.655 148.951 456.123 148.531 454.44 148.572Z" fill="#6854C0" style="mix-blend-mode:multiply"/>
</g>
<g opacity="0.370697">
<path fill-rule="evenodd" clip-rule="evenodd" d="M458.11 154.895C456.355 155.381 455.594 157.753 457.4 157.985C457.426 157.988 457.451 157.991 457.477 157.994C458.239 158.063 459.595 157.672 460.957 156.476C461.422 156.068 462.175 155.026 462.503 154.559C462.608 154.411 462.639 154.225 462.592 154.05C462.496 153.691 462.11 153.495 461.763 153.627C460.837 153.979 459.137 154.61 458.11 154.895Z" fill="#6854C0" style="mix-blend-mode:multiply"/>
</g>
<g opacity="0.370697">
<path fill-rule="evenodd" clip-rule="evenodd" d="M452.604 140.034C452.92 139.907 455.135 140.793 456.4 140.856C457.666 140.919 456.802 140.596 457.729 141.106C458.656 141.615 453.889 142.321 453.047 142.058C452.637 141.929 453.16 141.565 453.047 141.046C452.933 140.527 452.441 140.099 452.604 140.034Z" fill="#6854C0" style="mix-blend-mode:multiply"/>
</g>
<path fill-rule="evenodd" clip-rule="evenodd" d="M443.05 124.983C443.05 124.73 445.391 120.936 446.151 120.746C446.699 120.609 450.022 120.472 451.824 120.407C452.471 120.383 452.984 119.853 452.984 119.206C452.984 118.503 452.383 117.952 451.684 118.012L448.555 118.28H448.347C446.51 118.28 444.804 119.232 443.839 120.796C443.323 121.632 443.05 122.595 443.05 123.577C443.05 124.352 443.05 125.112 443.05 124.983Z" fill="#6854C0" style="mix-blend-mode:multiply"/>
<g opacity="0.370697">
<path fill-rule="evenodd" clip-rule="evenodd" d="M443.601 135.911C443.495 135.249 444.38 134.625 445.012 134.849C446.629 135.424 447.282 135.386 447.606 135.861C448.282 136.855 447.796 138.96 447.796 140.035C447.796 141.11 448.049 141.426 448.302 141.995C448.555 142.565 448.327 144.357 448.618 145.158C449.124 146.549 449.953 148.038 449.757 147.94C449.377 147.75 445.502 144.19 444.506 142.312C443.509 140.434 443.902 138.274 443.683 136.494C443.658 136.289 443.63 136.095 443.601 135.911Z" fill="#6854C0" style="mix-blend-mode:multiply"/>
</g>
<path fill-rule="evenodd" clip-rule="evenodd" d="M459.772 119.417C460.191 118.126 461.395 117.252 462.752 117.253L464.111 117.253C465.081 117.253 466.03 117.536 466.842 118.066L467.048 118.2C467.434 118.451 467.787 118.747 468.101 119.083C468.972 120.016 470.722 121.911 470.495 121.837C470.194 121.739 467.844 120.577 465.918 119.951C463.993 119.326 459.655 119.778 459.772 119.417Z" fill="#6854C0" style="mix-blend-mode:multiply"/>
<g opacity="0.370697">
<path fill-rule="evenodd" clip-rule="evenodd" d="M454.569 132.703C454.506 132.892 453.747 133.082 453.494 133.082C453.241 133.082 452.325 132.859 452.292 132.513C452.259 132.167 452.746 131.702 453.367 131.754C453.988 131.806 454.633 132.513 454.569 132.703Z" fill="#6854C0" style="mix-blend-mode:multiply"/>
</g>
<g opacity="0.370697">
<path fill-rule="evenodd" clip-rule="evenodd" d="M456.692 132.356C456.712 132.526 457.313 132.819 457.524 132.864C457.736 132.909 458.541 132.886 458.63 132.602C458.719 132.319 458.394 131.844 457.866 131.777C457.338 131.71 456.673 132.186 456.692 132.356Z" fill="#6854C0" style="mix-blend-mode:multiply"/>
</g>
<g opacity="0.370697">
<path fill-rule="evenodd" clip-rule="evenodd" d="M459.755 123.655C459.73 123.575 460.072 123.655 460.641 123.212C461.184 122.789 461.881 122.294 462.729 122.173C463.867 122.012 465.311 122.561 465.544 122.654C465.566 122.663 465.588 122.671 465.611 122.677L466.435 122.921C466.684 122.995 466.725 123.331 466.5 123.461C466.435 123.499 466.359 123.511 466.285 123.494C465.761 123.377 463.562 122.896 462.729 122.896C462.16 122.896 461.274 123.583 460.641 123.907C460.308 124.078 459.781 123.734 459.755 123.655Z" fill="#6854C0" style="mix-blend-mode:multiply"/>
</g>
</g>
</g>
</g>
<g filter="url(#filter1_d)">
<rect x="71.5254" y="35.9609" width="179.935" height="326.94" rx="15" fill="url(#paint1_radial)"/>
<g clip-path="url(#clip0)">
<path d="M102.606 263.686C103.004 263.686 103.326 263.364 103.326 262.966C103.326 262.568 103.004 262.246 102.606 262.246C102.208 262.246 101.886 262.568 101.886 262.966C101.886 263.364 102.208 263.686 102.606 263.686Z" stroke="white" stroke-width="2" stroke-linecap="round" stroke-linejoin="round"/>
<path d="M110.527 263.686C110.924 263.686 111.247 263.364 111.247 262.966C111.247 262.568 110.924 262.246 110.527 262.246C110.129 262.246 109.807 262.568 109.807 262.966C109.807 263.364 110.129 263.686 110.527 263.686Z" stroke="white" stroke-width="2" stroke-linecap="round" stroke-linejoin="round"/>
<path d="M96.8447 248.564H99.7251L101.655 258.206C101.721 258.538 101.901 258.836 102.164 259.048C102.428 259.26 102.757 259.372 103.095 259.366H110.094C110.432 259.372 110.762 259.26 111.025 259.048C111.288 258.836 111.469 258.538 111.535 258.206L112.687 252.165H100.445" stroke="white" stroke-width="2" stroke-linecap="round" stroke-linejoin="round"/>
</g>
<rect x="71.5303" y="82.0059" width="179.93" height="199.368" fill="#E8EBF3"/>
<path d="M136.494 143.051L123.994 159.717V218.051C123.994 220.261 124.872 222.381 126.435 223.943C127.998 225.506 130.117 226.384 132.327 226.384H190.661C192.871 226.384 194.991 225.506 196.553 223.943C198.116 222.381 198.994 220.261 198.994 218.051V159.717L186.494 143.051H136.494Z" stroke="white" stroke-width="5" stroke-linecap="round" stroke-linejoin="round"/>
<path d="M123.996 159.719H198.996" stroke="white" stroke-width="5" stroke-linecap="round" stroke-linejoin="round"/>
<path d="M178.161 176.385C178.161 180.805 176.406 185.044 173.28 188.17C170.154 191.295 165.915 193.051 161.495 193.051C157.075 193.051 152.835 191.295 149.71 188.17C146.584 185.044 144.828 180.805 144.828 176.385" stroke="white" stroke-width="5" stroke-linecap="round" stroke-linejoin="round"/>
<rect x="97.0112" y="55.4453" width="128.968" height="12.1257" rx="5" fill="#E8EBF3"/>
<path fill-rule="evenodd" clip-rule="evenodd" d="M180.39 332.291C180.607 332.291 180.825 332.346 181.029 332.455C181.219 332.579 181.382 332.743 181.505 332.949C181.627 333.155 181.681 333.374 181.681 333.607C181.681 333.84 181.613 334.06 181.505 334.265C181.396 334.485 181.233 334.649 181.029 334.759C180.825 334.882 180.607 334.937 180.39 334.937C180.159 334.937 179.955 334.882 179.751 334.759C179.547 334.635 179.397 334.471 179.275 334.265C179.166 334.046 179.112 333.84 179.112 333.607C179.112 333.388 179.152 333.168 179.275 332.949C179.397 332.73 179.56 332.579 179.764 332.455C179.968 332.346 180.172 332.291 180.39 332.291ZM180.906 334.567C181.083 334.471 181.219 334.334 181.314 334.156C181.409 333.991 181.45 333.813 181.437 333.607C181.437 333.415 181.396 333.237 181.301 333.059C181.192 332.88 181.056 332.743 180.893 332.647C180.716 332.551 180.539 332.51 180.362 332.51C180.172 332.51 180.009 332.551 179.832 332.647C179.669 332.743 179.533 332.88 179.438 333.059C179.343 333.237 179.302 333.415 179.302 333.607C179.302 333.813 179.343 333.991 179.438 334.156C179.547 334.334 179.669 334.471 179.846 334.567C180.009 334.663 180.186 334.718 180.376 334.718C180.566 334.718 180.743 334.663 180.906 334.567ZM180.485 333.717C180.539 333.731 180.58 333.758 180.607 333.785C180.653 333.822 180.692 333.877 180.742 333.947C180.766 333.981 180.793 334.019 180.825 334.06L180.988 334.334H180.716L180.594 334.114C180.498 333.936 180.417 333.827 180.362 333.785C180.322 333.758 180.267 333.744 180.186 333.744H180.05V334.334H179.832V332.922H180.308C180.458 332.922 180.58 332.935 180.648 332.963C180.73 332.99 180.784 333.045 180.825 333.1C180.866 333.155 180.893 333.237 180.893 333.305C180.893 333.415 180.852 333.497 180.784 333.58C180.702 333.662 180.607 333.703 180.485 333.717ZM180.05 333.539H180.322C180.444 333.539 180.539 333.525 180.58 333.484C180.621 333.429 180.648 333.388 180.648 333.319C180.648 333.278 180.648 333.251 180.621 333.209C180.612 333.191 180.59 333.179 180.564 333.164C180.552 333.157 180.539 333.15 180.526 333.141C180.485 333.127 180.417 333.113 180.308 333.113H180.05V333.539ZM139.644 332.743L134.492 308.199H188.193L182.932 332.469L182.823 332.949L182.415 332.675C182.388 332.647 180.267 331.249 176.651 330.536C173.32 329.891 167.977 329.727 161.519 332.62L161.37 332.688L161.234 332.606C161.233 332.606 161.232 332.605 161.23 332.604C161.115 332.545 158.462 331.168 154.599 330.467C150.983 329.809 145.518 329.644 140.039 332.538L139.644 332.743ZM171.765 315.312V313.43H173.713V315.423L172.671 316.719H172.239L172.712 315.312H171.765ZM149.029 318.935C149.029 316.204 150.72 314.573 153.56 314.573C156.59 314.573 158.091 316.58 158.105 318.935C158.105 319.117 158.091 319.298 158.064 319.437H152.329C152.329 320.608 152.965 321.319 153.966 321.319C154.818 321.319 155.481 321.068 155.616 320.343H158.118C157.807 322.211 156.536 323.312 153.736 323.312C150.652 323.312 149.029 321.667 149.029 318.935ZM173.916 317.43C173.916 315.646 175.539 314.601 178.054 314.601C180.3 314.601 181.666 315.758 181.638 317.137H179.339C179.339 316.733 178.852 316.343 178.041 316.343C177.216 316.343 176.891 316.65 176.891 316.914C176.891 317.41 177.624 317.531 178.53 317.68C179.994 317.921 181.909 318.237 181.909 320.329C181.909 321.96 180.732 323.228 177.622 323.228C174.876 323.228 173.848 321.974 173.848 320.468V320.427H176.364C176.364 321.137 176.905 321.5 177.676 321.5C178.352 321.5 178.704 321.263 178.704 320.817C178.704 320.374 178.035 320.255 177.198 320.105C175.794 319.853 173.916 319.517 173.916 317.43ZM167.938 323.033V314.768H170.94V323.033H167.938ZM161.202 323.047L157.266 314.782H160.742L162.852 319.549H162.906L165.016 314.782H167.491L163.677 323.047H161.202ZM141.347 323.033V314.852H144.336V320.942H148.881V323.033H141.347ZM154.737 317.974C154.737 317.068 154.439 316.343 153.587 316.343C152.735 316.343 152.438 317.165 152.451 317.974H154.737Z" fill="#9C222F"/>
</g>
<g filter="url(#filter2_d)">
<path d="M25.146 164.742C25.146 158.667 30.0709 153.742 36.146 153.742H283.882C289.957 153.742 294.882 158.667 294.882 164.742V204.101C294.882 210.176 289.957 215.101 283.882 215.101H36.146C30.0709 215.101 25.146 210.176 25.146 204.101V164.742Z" fill="white"/>
<path d="M252.041 188.635H253.515V180.77H252.206L250.38 182.068V183.355L252.041 182.222V188.635ZM258.53 187.579C257.353 187.579 256.671 186.677 256.671 184.895V184.499C256.671 182.75 257.32 181.804 258.508 181.804C259.685 181.804 260.323 182.816 260.323 184.488V184.873C260.323 186.655 259.74 187.579 258.53 187.579ZM258.497 188.745C260.554 188.745 261.786 187.238 261.786 184.873V184.477C261.786 182.112 260.488 180.66 258.497 180.66C256.517 180.66 255.197 182.123 255.197 184.51V184.906C255.197 187.271 256.495 188.745 258.497 188.745ZM263.141 188.635H264.472V185.192C264.472 184.312 265.077 183.872 265.737 183.872C266.386 183.872 266.76 184.235 266.76 185.082V188.635H268.091V185.192C268.091 184.312 268.696 183.872 269.356 183.872C270.016 183.872 270.379 184.235 270.379 185.082V188.635H271.71V184.994C271.71 183.41 270.852 182.761 269.796 182.761C269.081 182.761 268.289 183.08 267.849 183.795C267.563 183.08 266.969 182.761 266.221 182.761C265.374 182.761 264.747 183.223 264.472 183.762V182.882H263.141V188.635Z" fill="#262E4F" fill-opacity="0.6"/>
<path d="M83.4679 188.635H85.3999V185.515H86.4919C88.4479 185.515 89.7079 184.651 89.7079 182.839V182.791C89.7079 180.979 88.5199 180.055 86.4319 180.055H83.4679V188.635ZM85.3999 184.159V181.531H86.3839C87.3079 181.531 87.8359 181.891 87.8359 182.803V182.851C87.8359 183.703 87.3319 184.159 86.3839 184.159H85.3999ZM90.8237 188.635H92.5637V185.491C92.5637 184.291 93.3077 183.871 94.5917 183.883V182.263C93.5717 182.275 92.9597 182.719 92.5637 183.559V182.359H90.8237V188.635ZM98.5446 187.447C97.5606 187.447 97.0086 186.727 97.0086 185.527V185.431C97.0086 184.231 97.5846 183.535 98.5446 183.535C99.5166 183.535 100.081 184.255 100.081 185.455V185.539C100.081 186.727 99.5166 187.447 98.5446 187.447ZM98.5326 188.767C100.417 188.767 101.845 187.507 101.845 185.527V185.431C101.845 183.475 100.429 182.215 98.5446 182.215C96.6606 182.215 95.2326 183.499 95.2326 185.467V185.563C95.2326 187.519 96.6606 188.767 98.5326 188.767ZM105.363 188.767C106.287 188.767 107.055 188.227 107.379 187.591V188.635H109.107V179.515H107.379V183.295C107.031 182.659 106.407 182.215 105.399 182.215C103.827 182.215 102.639 183.427 102.639 185.491V185.587C102.639 187.675 103.839 188.767 105.363 188.767ZM105.879 187.411C105.015 187.411 104.415 186.799 104.415 185.551V185.455C104.415 184.207 104.955 183.547 105.927 183.547C106.875 183.547 107.427 184.183 107.427 185.431V185.527C107.427 186.799 106.791 187.411 105.879 187.411ZM112.74 188.767C113.772 188.767 114.408 188.287 114.732 187.651V188.635H116.46V182.359H114.732V186.043C114.732 186.967 114.156 187.423 113.424 187.423C112.68 187.423 112.332 187.015 112.332 186.163V182.359H110.604V186.403C110.604 188.047 111.516 188.767 112.74 188.767ZM120.843 188.767C122.667 188.767 123.747 187.735 123.843 186.247H122.271C122.187 187.051 121.623 187.459 120.927 187.459C119.955 187.459 119.391 186.811 119.391 185.551V185.455C119.391 184.255 119.991 183.583 120.891 183.583C121.599 183.583 122.043 183.919 122.163 184.651H123.807C123.651 182.851 122.307 182.215 120.855 182.215C119.067 182.215 117.615 183.451 117.615 185.479V185.575C117.615 187.627 119.007 188.767 120.843 188.767ZM127.229 188.755C127.697 188.755 128.045 188.671 128.285 188.587V187.243C128.081 187.327 127.889 187.363 127.625 187.363C127.181 187.363 126.929 187.123 126.929 186.619V183.595H128.249V182.359H126.929V181.003H125.201V182.359H124.397V183.595H125.201V186.775C125.201 188.083 125.909 188.755 127.229 188.755ZM134.449 188.635H136.681L139.537 180.055H137.713L135.673 186.643L133.633 180.055H131.581L134.449 188.635ZM140.465 188.635H142.193V182.359H140.465V188.635ZM141.317 181.507C141.881 181.507 142.313 181.099 142.313 180.559C142.313 180.019 141.881 179.611 141.317 179.611C140.765 179.611 140.333 180.019 140.333 180.559C140.333 181.099 140.765 181.507 141.317 181.507ZM146.684 188.767C148.4 188.767 149.48 188.011 149.684 186.655H148.04C147.932 187.183 147.536 187.531 146.732 187.531C145.784 187.531 145.22 186.931 145.172 185.887H149.696V185.407C149.696 183.163 148.256 182.215 146.636 182.215C144.812 182.215 143.408 183.499 143.408 185.479V185.575C143.408 187.579 144.788 188.767 146.684 188.767ZM145.196 184.819C145.328 183.931 145.856 183.415 146.636 183.415C147.464 183.415 147.944 183.871 148.004 184.819H145.196ZM152.05 188.635H153.778L154.93 184.699L155.998 188.635H157.702L159.682 182.359H158.014L156.826 186.583L155.722 182.359H154.294L153.082 186.583L151.966 182.359H150.142L152.05 188.635ZM163.29 188.767C165.006 188.767 166.086 188.011 166.29 186.655H164.646C164.538 187.183 164.142 187.531 163.338 187.531C162.39 187.531 161.826 186.931 161.778 185.887H166.302V185.407C166.302 183.163 164.862 182.215 163.242 182.215C161.418 182.215 160.014 183.499 160.014 185.479V185.575C160.014 187.579 161.394 188.767 163.29 188.767ZM161.802 184.819C161.934 183.931 162.462 183.415 163.242 183.415C164.07 183.415 164.55 183.871 164.61 184.819H161.802ZM169.793 188.767C170.717 188.767 171.485 188.227 171.809 187.591V188.635H173.537V179.515H171.809V183.295C171.461 182.659 170.837 182.215 169.829 182.215C168.257 182.215 167.069 183.427 167.069 185.491V185.587C167.069 187.675 168.269 188.767 169.793 188.767ZM170.309 187.411C169.445 187.411 168.845 186.799 168.845 185.551V185.455C168.845 184.207 169.385 183.547 170.357 183.547C171.305 183.547 171.857 184.183 171.857 185.431V185.527C171.857 186.799 171.221 187.411 170.309 187.411Z" fill="#262E4F"/>
<g filter="url(#filter3_d)">
<circle cx="58.262" cy="184.716" r="17.1805" fill="#E0FBD9"/>
<path d="M64.2751 176.984H52.2488C51.3 176.984 50.5308 177.754 50.5308 178.702V190.729C50.5308 191.678 51.3 192.447 52.2488 192.447H64.2751C65.224 192.447 65.9932 191.678 65.9932 190.729V178.702C65.9932 177.754 65.224 176.984 64.2751 176.984Z" stroke="#52BD95" stroke-width="2" stroke-linecap="round" stroke-linejoin="round"/>
<path d="M50.5308 182.139H65.9932" stroke="#52BD95" stroke-width="2" stroke-linecap="round" stroke-linejoin="round"/>
<path d="M55.6851 192.447V182.139" stroke="#52BD95" stroke-width="2" stroke-linecap="round" stroke-linejoin="round"/>
</g>
</g>
<defs>
<filter id="filter0_d" x="318.948" y="0.556641" width="690" height="670" filterUnits="userSpaceOnUse" color-interpolation-filters="sRGB">
<feFlood flood-opacity="0" result="BackgroundImageFix"/>
<feColorMatrix in="SourceAlpha" type="matrix" values="0 0 0 0 0 0 0 0 0 0 0 0 0 0 0 0 0 0 127 0"/>
<feOffset dy="18"/>
<feGaussianBlur stdDeviation="25"/>
<feColorMatrix type="matrix" values="0 0 0 0 0.14902 0 0 0 0 0.180392 0 0 0 0 0.309804 0 0 0 0.06 0"/>
<feBlend mode="normal" in2="BackgroundImageFix" result="effect1_dropShadow"/>
<feBlend mode="normal" in="SourceGraphic" in2="effect1_dropShadow" result="shape"/>
</filter>
<filter id="filter1_d" x="21.5254" y="0.960938" width="279.935" height="426.94" filterUnits="userSpaceOnUse" color-interpolation-filters="sRGB">
<feFlood flood-opacity="0" result="BackgroundImageFix"/>
<feColorMatrix in="SourceAlpha" type="matrix" values="0 0 0 0 0 0 0 0 0 0 0 0 0 0 0 0 0 0 127 0"/>
<feOffset dy="15"/>
<feGaussianBlur stdDeviation="25"/>
<feColorMatrix type="matrix" values="0 0 0 0 0.14902 0 0 0 0 0.180392 0 0 0 0 0.309804 0 0 0 0.5 0"/>
<feBlend mode="normal" in2="BackgroundImageFix" result="effect1_dropShadow"/>
<feBlend mode="normal" in="SourceGraphic" in2="effect1_dropShadow" result="shape"/>
</filter>
<filter id="filter2_d" x="0.145996" y="143.742" width="320.339" height="111.654" filterUnits="userSpaceOnUse" color-interpolation-filters="sRGB">
<feFlood flood-opacity="0" result="BackgroundImageFix"/>
<feColorMatrix in="SourceAlpha" type="matrix" values="0 0 0 0 0 0 0 0 0 0 0 0 0 0 0 0 0 0 127 0"/>
<feOffset dy="15"/>
<feGaussianBlur stdDeviation="12.5"/>
<feColorMatrix type="matrix" values="0 0 0 0 0.14902 0 0 0 0 0.180392 0 0 0 0 0.309804 0 0 0 0.1 0"/>
<feBlend mode="normal" in2="BackgroundImageFix" result="effect1_dropShadow"/>
<feBlend mode="normal" in="SourceGraphic" in2="effect1_dropShadow" result="shape"/>
</filter>
<filter id="filter3_d" x="41.0815" y="167.535" width="34.3609" height="34.3609" filterUnits="userSpaceOnUse" color-interpolation-filters="sRGB">
<feFlood flood-opacity="0" result="BackgroundImageFix"/>
<feColorMatrix in="SourceAlpha" type="matrix" values="0 0 0 0 0 0 0 0 0 0 0 0 0 0 0 0 0 0 127 0"/>
<feOffset/>
<feColorMatrix type="matrix" values="0 0 0 0 0 0 0 0 0 0 0 0 0 0 0 0 0 0 0.09 0"/>
<feBlend mode="normal" in2="BackgroundImageFix" result="effect1_dropShadow"/>
<feBlend mode="normal" in="SourceGraphic" in2="effect1_dropShadow" result="shape"/>
</filter>
<linearGradient id="paint0_linear" x1="202.907" y1="182.053" x2="379.437" y2="182.053" gradientUnits="userSpaceOnUse">
<stop stop-color="#8276CF"/>
<stop offset="1" stop-color="#81CDB0"/>
</linearGradient>
<radialGradient id="paint1_radial" cx="0" cy="0" r="1" gradientUnits="userSpaceOnUse" gradientTransform="translate(189.595 298.622) rotate(-120.168) scale(983.19 327.644)">
<stop stop-color="#FCFDFF"/>
<stop offset="1" stop-color="white"/>
</radialGradient>
<clipPath id="clip0">
<rect x="96.125" y="254.906" width="17.2822" height="17.9166" fill="white"/>
</clipPath>
</defs>
</svg>
