<svg width="590" height="528" viewBox="0 0 590 528" fill="none" xmlns="http://www.w3.org/2000/svg">
<path d="M93.8311 335.274H95.9591L96.6451 333.048H100.271L100.957 335.274H103.323L100.075 325.264H97.1211L93.8311 335.274ZM98.4651 327.112L99.7811 331.438H97.1351L98.4651 327.112ZM107.117 335.428C108.195 335.428 109.091 334.798 109.469 334.056V335.274H111.485V324.634H109.469V329.044C109.063 328.302 108.335 327.784 107.159 327.784C105.325 327.784 103.939 329.198 103.939 331.606V331.718C103.939 334.154 105.339 335.428 107.117 335.428ZM107.719 333.846C106.711 333.846 106.011 333.132 106.011 331.676V331.564C106.011 330.108 106.641 329.338 107.775 329.338C108.881 329.338 109.525 330.08 109.525 331.536V331.648C109.525 333.132 108.783 333.846 107.719 333.846ZM116.031 335.428C117.109 335.428 118.005 334.798 118.383 334.056V335.274H120.399V324.634H118.383V329.044C117.977 328.302 117.249 327.784 116.073 327.784C114.239 327.784 112.853 329.198 112.853 331.606V331.718C112.853 334.154 114.253 335.428 116.031 335.428ZM116.633 333.846C115.625 333.846 114.925 333.132 114.925 331.676V331.564C114.925 330.108 115.555 329.338 116.689 329.338C117.795 329.338 118.439 330.08 118.439 331.536V331.648C118.439 333.132 117.697 333.846 116.633 333.846ZM125.575 335.428C127.577 335.428 128.837 334.546 129.075 332.964H127.157C127.031 333.58 126.569 333.986 125.631 333.986C124.525 333.986 123.867 333.286 123.811 332.068H129.089V331.508C129.089 328.89 127.409 327.784 125.519 327.784C123.391 327.784 121.753 329.282 121.753 331.592V331.704C121.753 334.042 123.363 335.428 125.575 335.428ZM123.839 330.822C123.993 329.786 124.609 329.184 125.519 329.184C126.485 329.184 127.045 329.716 127.115 330.822H123.839ZM133.161 335.428C134.239 335.428 135.135 334.798 135.513 334.056V335.274H137.529V324.634H135.513V329.044C135.107 328.302 134.379 327.784 133.203 327.784C131.369 327.784 129.983 329.198 129.983 331.606V331.718C129.983 334.154 131.383 335.428 133.161 335.428ZM133.763 333.846C132.755 333.846 132.055 333.132 132.055 331.676V331.564C132.055 330.108 132.685 329.338 133.819 329.338C134.925 329.338 135.569 330.08 135.569 331.536V331.648C135.569 333.132 134.827 333.846 133.763 333.846ZM145.109 335.414C145.655 335.414 146.061 335.316 146.341 335.218V333.65C146.103 333.748 145.879 333.79 145.571 333.79C145.053 333.79 144.759 333.51 144.759 332.922V329.394H146.299V327.952H144.759V326.37H142.743V327.952H141.805V329.394H142.743V333.104C142.743 334.63 143.569 335.414 145.109 335.414ZM151.128 333.888C149.98 333.888 149.336 333.048 149.336 331.648V331.536C149.336 330.136 150.008 329.324 151.128 329.324C152.262 329.324 152.92 330.164 152.92 331.564V331.662C152.92 333.048 152.262 333.888 151.128 333.888ZM151.114 335.428C153.312 335.428 154.978 333.958 154.978 331.648V331.536C154.978 329.254 153.326 327.784 151.128 327.784C148.93 327.784 147.264 329.282 147.264 331.578V331.69C147.264 333.972 148.93 335.428 151.114 335.428ZM164.133 335.428C166.597 335.428 168.375 334.154 168.627 331.676H166.401C166.219 332.964 165.351 333.594 164.105 333.594C162.453 333.594 161.501 332.39 161.501 330.318V330.206C161.501 328.134 162.509 326.902 164.091 326.902C165.351 326.902 166.023 327.546 166.191 328.75H168.515C168.277 326.286 166.485 325.11 164.077 325.11C161.235 325.11 159.107 327.182 159.107 330.22V330.332C159.107 333.412 160.857 335.428 164.133 335.428ZM171.958 335.428C173.106 335.428 173.75 334.98 174.17 334.392V335.274H176.144V330.5C176.144 328.512 174.87 327.784 173.078 327.784C171.286 327.784 169.914 328.554 169.788 330.29H171.706C171.79 329.66 172.154 329.254 172.952 329.254C173.876 329.254 174.142 329.73 174.142 330.598V330.892H173.316C171.076 330.892 169.508 331.536 169.508 333.244C169.508 334.784 170.628 335.428 171.958 335.428ZM172.56 334.014C171.818 334.014 171.496 333.664 171.496 333.132C171.496 332.348 172.182 332.096 173.358 332.096H174.142V332.712C174.142 333.524 173.456 334.014 172.56 334.014ZM177.886 335.274H179.916V331.606C179.916 330.206 180.784 329.716 182.282 329.73V327.84C181.092 327.854 180.378 328.372 179.916 329.352V327.952H177.886V335.274ZM186.357 335.414C186.903 335.414 187.309 335.316 187.589 335.218V333.65C187.351 333.748 187.127 333.79 186.819 333.79C186.301 333.79 186.007 333.51 186.007 332.922V329.394H187.547V327.952H186.007V326.37H183.991V327.952H183.053V329.394H183.991V333.104C183.991 334.63 184.817 335.414 186.357 335.414Z" fill="#0D1537"/>
<path d="M528.79 332.166H534.477V331.033H531.133L532.882 329.328C533.817 328.426 534.422 327.535 534.422 326.512C534.422 325.126 533.454 324.191 531.826 324.191C530.165 324.191 529.131 325.181 529.032 326.897H530.374C530.506 325.786 531.001 325.335 531.782 325.335C532.541 325.335 532.959 325.797 532.959 326.534C532.959 327.282 532.508 327.975 531.76 328.767L528.79 331.902V332.166ZM538.94 332.166H540.359V330.571H541.415V329.482H540.359V324.301H538.522L535.046 330.054V330.571H538.94V332.166ZM536.608 329.482L538.962 325.412V329.482H536.608ZM544.513 332.276C545.987 332.276 546.812 331.605 546.812 330.439C546.812 329.218 546.009 328.888 544.656 328.679C543.743 328.525 543.468 328.36 543.468 327.942C543.468 327.535 543.809 327.26 544.381 327.26C544.997 327.26 545.294 327.502 545.404 328.03H546.636C546.493 326.732 545.558 326.292 544.381 326.292C543.303 326.292 542.225 326.864 542.225 328.019C542.225 329.097 542.786 329.526 544.304 329.768C545.151 329.911 545.536 330.087 545.536 330.56C545.536 331.044 545.217 331.297 544.502 331.297C543.721 331.297 543.424 330.956 543.358 330.373H542.104C542.159 331.594 543.028 332.276 544.513 332.276Z" fill="#737A96"/>
<line x1="42.6367" y1="361.931" x2="547.188" y2="361.931" stroke="#F0F0F1"/>
<rect x="42.6367" y="313.931" width="32" height="32" rx="16" fill="#14B5D0"/>
<g clip-path="url(#clip0)">
<path d="M64.9697 323.598H52.3031C51.4286 323.598 50.7197 324.307 50.7197 325.181V333.098C50.7197 333.972 51.4286 334.681 52.3031 334.681H64.9697C65.8442 334.681 66.5531 333.972 66.5531 333.098V325.181C66.5531 324.307 65.8442 323.598 64.9697 323.598Z" stroke="white" stroke-width="2" stroke-linecap="round" stroke-linejoin="round"/>
<path d="M55.4697 337.848H61.8031" stroke="white" stroke-width="2" stroke-linecap="round" stroke-linejoin="round"/>
<path d="M58.6367 334.681V337.848" stroke="white" stroke-width="2" stroke-linecap="round" stroke-linejoin="round"/>
</g>
<path d="M94.6151 400.274H96.8691V396.634H98.1431C100.425 396.634 101.895 395.626 101.895 393.512V393.456C101.895 391.342 100.509 390.264 98.0731 390.264H94.6151V400.274ZM96.8691 395.052V391.986H98.0171C99.0951 391.986 99.7111 392.406 99.7111 393.47V393.526C99.7111 394.52 99.1231 395.052 98.0171 395.052H96.8691ZM103.197 400.274H105.227V396.606C105.227 395.206 106.095 394.716 107.593 394.73V392.84C106.403 392.854 105.689 393.372 105.227 394.352V392.952H103.197V400.274ZM112.205 398.888C111.057 398.888 110.413 398.048 110.413 396.648V396.536C110.413 395.136 111.085 394.324 112.205 394.324C113.339 394.324 113.997 395.164 113.997 396.564V396.662C113.997 398.048 113.339 398.888 112.205 398.888ZM112.191 400.428C114.389 400.428 116.055 398.958 116.055 396.648V396.536C116.055 394.254 114.403 392.784 112.205 392.784C110.007 392.784 108.341 394.282 108.341 396.578V396.69C108.341 398.972 110.007 400.428 112.191 400.428ZM120.16 400.428C121.238 400.428 122.134 399.798 122.512 399.056V400.274H124.528V389.634H122.512V394.044C122.106 393.302 121.378 392.784 120.202 392.784C118.368 392.784 116.982 394.198 116.982 396.606V396.718C116.982 399.154 118.382 400.428 120.16 400.428ZM120.762 398.846C119.754 398.846 119.054 398.132 119.054 396.676V396.564C119.054 395.108 119.684 394.338 120.818 394.338C121.924 394.338 122.568 395.08 122.568 396.536V396.648C122.568 398.132 121.826 398.846 120.762 398.846ZM128.766 400.428C129.97 400.428 130.712 399.868 131.09 399.126V400.274H133.106V392.952H131.09V397.25C131.09 398.328 130.418 398.86 129.564 398.86C128.696 398.86 128.29 398.384 128.29 397.39V392.952H126.274V397.67C126.274 399.588 127.338 400.428 128.766 400.428ZM138.22 400.428C140.348 400.428 141.608 399.224 141.72 397.488H139.886C139.788 398.426 139.13 398.902 138.318 398.902C137.184 398.902 136.526 398.146 136.526 396.676V396.564C136.526 395.164 137.226 394.38 138.276 394.38C139.102 394.38 139.62 394.772 139.76 395.626H141.678C141.496 393.526 139.928 392.784 138.234 392.784C136.148 392.784 134.454 394.226 134.454 396.592V396.704C134.454 399.098 136.078 400.428 138.22 400.428ZM145.67 400.414C146.216 400.414 146.622 400.316 146.902 400.218V398.65C146.664 398.748 146.44 398.79 146.132 398.79C145.614 398.79 145.32 398.51 145.32 397.922V394.394H146.86V392.952H145.32V391.37H143.304V392.952H142.366V394.394H143.304V398.104C143.304 399.63 144.13 400.414 145.67 400.414ZM154.092 400.274H156.696L160.028 390.264H157.9L155.52 397.95L153.14 390.264H150.746L154.092 400.274ZM161.112 400.274H163.128V392.952H161.112V400.274ZM162.106 391.958C162.764 391.958 163.268 391.482 163.268 390.852C163.268 390.222 162.764 389.746 162.106 389.746C161.462 389.746 160.958 390.222 160.958 390.852C160.958 391.482 161.462 391.958 162.106 391.958ZM168.368 400.428C170.37 400.428 171.63 399.546 171.868 397.964H169.95C169.824 398.58 169.362 398.986 168.424 398.986C167.318 398.986 166.66 398.286 166.604 397.068H171.882V396.508C171.882 393.89 170.202 392.784 168.312 392.784C166.184 392.784 164.546 394.282 164.546 396.592V396.704C164.546 399.042 166.156 400.428 168.368 400.428ZM166.632 395.822C166.786 394.786 167.402 394.184 168.312 394.184C169.278 394.184 169.838 394.716 169.908 395.822H166.632ZM174.628 400.274H176.644L177.988 395.682L179.234 400.274H181.222L183.532 392.952H181.586L180.2 397.88L178.912 392.952H177.246L175.832 397.88L174.53 392.952H172.402L174.628 400.274ZM187.741 400.428C189.743 400.428 191.003 399.546 191.241 397.964H189.323C189.197 398.58 188.735 398.986 187.797 398.986C186.691 398.986 186.033 398.286 185.977 397.068H191.255V396.508C191.255 393.89 189.575 392.784 187.685 392.784C185.557 392.784 183.919 394.282 183.919 396.592V396.704C183.919 399.042 185.529 400.428 187.741 400.428ZM186.005 395.822C186.159 394.786 186.775 394.184 187.685 394.184C188.651 394.184 189.211 394.716 189.281 395.822H186.005ZM195.328 400.428C196.406 400.428 197.302 399.798 197.68 399.056V400.274H199.696V389.634H197.68V394.044C197.274 393.302 196.546 392.784 195.37 392.784C193.535 392.784 192.149 394.198 192.149 396.606V396.718C192.149 399.154 193.55 400.428 195.328 400.428ZM195.93 398.846C194.922 398.846 194.222 398.132 194.222 396.676V396.564C194.222 395.108 194.852 394.338 195.986 394.338C197.092 394.338 197.736 395.08 197.736 396.536V396.648C197.736 398.132 196.994 398.846 195.93 398.846Z" fill="#0D1537"/>
<path d="M533.652 397.276C535.346 397.276 536.545 396.231 536.545 394.57C536.545 392.92 535.544 391.93 534.125 391.93C533.289 391.93 532.739 392.238 532.431 392.59L532.442 390.456H536.094V389.301H531.32L531.254 393.679H532.002C532.354 393.272 532.838 392.997 533.641 392.997C534.51 392.997 535.06 393.602 535.06 394.548C535.06 395.516 534.543 396.143 533.641 396.143C532.629 396.143 532.332 395.637 532.211 394.911H530.847C530.935 396.264 531.804 397.276 533.652 397.276ZM537.882 397.166H539.213V393.723C539.213 392.843 539.818 392.403 540.478 392.403C541.127 392.403 541.501 392.766 541.501 393.613V397.166H542.832V393.723C542.832 392.843 543.437 392.403 544.097 392.403C544.757 392.403 545.12 392.766 545.12 393.613V397.166H546.451V393.525C546.451 391.941 545.593 391.292 544.537 391.292C543.822 391.292 543.03 391.611 542.59 392.326C542.304 391.611 541.71 391.292 540.962 391.292C540.115 391.292 539.488 391.754 539.213 392.293V391.413H537.882V397.166Z" fill="#737A96"/>
<line x1="42.6367" y1="426.931" x2="547.188" y2="426.931" stroke="#F0F0F1"/>
<rect x="42.6367" y="378.931" width="32" height="32" rx="16" fill="#14B5D0"/>
<g clip-path="url(#clip1)">
<path d="M64.9697 388.598H52.3031C51.4286 388.598 50.7197 389.307 50.7197 390.181V398.098C50.7197 398.972 51.4286 399.681 52.3031 399.681H64.9697C65.8442 399.681 66.5531 398.972 66.5531 398.098V390.181C66.5531 389.307 65.8442 388.598 64.9697 388.598Z" stroke="white" stroke-width="2" stroke-linecap="round" stroke-linejoin="round"/>
<path d="M55.4697 402.848H61.8031" stroke="white" stroke-width="2" stroke-linecap="round" stroke-linejoin="round"/>
<path d="M58.6367 399.681V402.848" stroke="white" stroke-width="2" stroke-linecap="round" stroke-linejoin="round"/>
</g>
<path d="M98.1151 465.428C100.481 465.428 101.937 464.014 101.937 462.236C101.937 460.164 100.691 459.506 98.2691 459.198C96.7291 458.974 96.4071 458.638 96.4071 457.924C96.4071 457.252 96.9111 456.79 97.9051 456.79C98.8991 456.79 99.4311 457.21 99.5711 458.12H101.657C101.475 456.132 100.159 455.124 97.9051 455.124C95.6931 455.124 94.2651 456.398 94.2651 458.106C94.2651 460.038 95.3151 460.808 97.8771 461.144C99.3471 461.368 99.7671 461.648 99.7671 462.446C99.7671 463.23 99.1091 463.776 98.1151 463.776C96.6311 463.776 96.2531 463.034 96.1551 462.138H93.9851C94.1111 464.14 95.3711 465.428 98.1151 465.428ZM103.444 465.274H105.46V457.952H103.444V465.274ZM104.438 456.958C105.096 456.958 105.6 456.482 105.6 455.852C105.6 455.222 105.096 454.746 104.438 454.746C103.794 454.746 103.29 455.222 103.29 455.852C103.29 456.482 103.794 456.958 104.438 456.958ZM110.574 467.976C112.982 467.976 114.424 466.87 114.438 464.7V457.952H112.422V459.044C112.002 458.302 111.288 457.784 110.098 457.784C108.278 457.784 106.878 459.254 106.878 461.354V461.452C106.878 463.622 108.292 464.952 110.07 464.952C111.148 464.952 112.016 464.308 112.422 463.594V464.7C112.422 465.848 111.806 466.492 110.574 466.492C109.538 466.492 109.076 466.072 108.95 465.428H106.934C107.13 466.94 108.208 467.976 110.574 467.976ZM110.672 463.426C109.664 463.426 108.95 462.67 108.95 461.452V461.34C108.95 460.136 109.58 459.324 110.714 459.324C111.82 459.324 112.478 460.08 112.478 461.326V461.424C112.478 462.67 111.736 463.426 110.672 463.426ZM116.226 465.274H118.256V461.046C118.256 459.968 118.914 459.436 119.782 459.436C120.678 459.436 121.07 459.912 121.07 460.906V465.274H123.1V460.612C123.1 458.652 122.078 457.784 120.636 457.784C119.418 457.784 118.62 458.386 118.256 459.114V457.952H116.226V465.274ZM132.171 465.428C134.873 465.428 136.399 464.014 136.399 461.284V455.264H134.117V461.144C134.117 462.978 133.529 463.622 132.185 463.622C130.813 463.622 130.323 462.894 130.323 461.228V455.264H128.041V461.368C128.041 464.028 129.539 465.428 132.171 465.428ZM138.224 467.766H140.254V464.154C140.632 464.868 141.458 465.428 142.592 465.428C144.412 465.428 145.784 464.07 145.784 461.648V461.536C145.784 459.114 144.384 457.784 142.592 457.784C141.514 457.784 140.66 458.4 140.254 459.1V457.952H138.224V467.766ZM141.99 463.846C140.884 463.846 140.184 463.132 140.184 461.662V461.55C140.184 460.08 140.912 459.338 141.976 459.338C142.998 459.338 143.726 460.066 143.726 461.55V461.662C143.726 463.09 143.11 463.846 141.99 463.846ZM153.924 465.428C156.29 465.428 157.746 464.014 157.746 462.236C157.746 460.164 156.5 459.506 154.078 459.198C152.538 458.974 152.216 458.638 152.216 457.924C152.216 457.252 152.72 456.79 153.714 456.79C154.708 456.79 155.24 457.21 155.38 458.12H157.466C157.284 456.132 155.968 455.124 153.714 455.124C151.502 455.124 150.074 456.398 150.074 458.106C150.074 460.038 151.124 460.808 153.686 461.144C155.156 461.368 155.576 461.648 155.576 462.446C155.576 463.23 154.918 463.776 153.924 463.776C152.44 463.776 152.062 463.034 151.964 462.138H149.794C149.92 464.14 151.18 465.428 153.924 465.428ZM161.871 465.414C162.417 465.414 162.823 465.316 163.103 465.218V463.65C162.865 463.748 162.641 463.79 162.333 463.79C161.815 463.79 161.521 463.51 161.521 462.922V459.394H163.061V457.952H161.521V456.37H159.505V457.952H158.567V459.394H159.505V463.104C159.505 464.63 160.331 465.414 161.871 465.414ZM166.516 465.428C167.664 465.428 168.308 464.98 168.728 464.392V465.274H170.702V460.5C170.702 458.512 169.428 457.784 167.636 457.784C165.844 457.784 164.472 458.554 164.346 460.29H166.264C166.348 459.66 166.712 459.254 167.51 459.254C168.434 459.254 168.7 459.73 168.7 460.598V460.892H167.874C165.634 460.892 164.066 461.536 164.066 463.244C164.066 464.784 165.186 465.428 166.516 465.428ZM167.118 464.014C166.376 464.014 166.054 463.664 166.054 463.132C166.054 462.348 166.74 462.096 167.916 462.096H168.7V462.712C168.7 463.524 168.014 464.014 167.118 464.014ZM172.445 465.274H174.475V461.606C174.475 460.206 175.343 459.716 176.841 459.73V457.84C175.651 457.854 174.937 458.372 174.475 459.352V457.952H172.445V465.274ZM180.916 465.414C181.462 465.414 181.868 465.316 182.148 465.218V463.65C181.91 463.748 181.686 463.79 181.378 463.79C180.86 463.79 180.566 463.51 180.566 462.922V459.394H182.106V457.952H180.566V456.37H178.55V457.952H177.612V459.394H178.55V463.104C178.55 464.63 179.376 465.414 180.916 465.414ZM186.893 465.428C188.895 465.428 190.155 464.546 190.393 462.964H188.475C188.349 463.58 187.887 463.986 186.949 463.986C185.843 463.986 185.185 463.286 185.129 462.068H190.407V461.508C190.407 458.89 188.727 457.784 186.837 457.784C184.709 457.784 183.071 459.282 183.071 461.592V461.704C183.071 464.042 184.681 465.428 186.893 465.428ZM185.157 460.822C185.311 459.786 185.927 459.184 186.837 459.184C187.803 459.184 188.363 459.716 188.433 460.822H185.157ZM194.48 465.428C195.558 465.428 196.454 464.798 196.832 464.056V465.274H198.848V454.634H196.832V459.044C196.426 458.302 195.698 457.784 194.522 457.784C192.688 457.784 191.302 459.198 191.302 461.606V461.718C191.302 464.154 192.702 465.428 194.48 465.428ZM195.082 463.846C194.074 463.846 193.374 463.132 193.374 461.676V461.564C193.374 460.108 194.004 459.338 195.138 459.338C196.244 459.338 196.888 460.08 196.888 461.536V461.648C196.888 463.132 196.146 463.846 195.082 463.846Z" fill="#0D1537"/>
<path d="M532.548 462.166H534.055L536.915 454.477V454.301H531.415V455.489H535.078L532.548 462.166ZM537.882 462.166H539.213V458.723C539.213 457.843 539.818 457.403 540.478 457.403C541.127 457.403 541.501 457.766 541.501 458.613V462.166H542.832V458.723C542.832 457.843 543.437 457.403 544.097 457.403C544.757 457.403 545.12 457.766 545.12 458.613V462.166H546.451V458.525C546.451 456.941 545.593 456.292 544.537 456.292C543.822 456.292 543.03 456.611 542.59 457.326C542.304 456.611 541.71 456.292 540.962 456.292C540.115 456.292 539.488 456.754 539.213 457.293V456.413H537.882V462.166Z" fill="#737A96"/>
<line x1="42.6367" y1="491.931" x2="547.188" y2="491.931" stroke="#F0F0F1"/>
<rect x="42.6367" y="443.931" width="32" height="32" rx="16" fill="#14B5D0"/>
<g clip-path="url(#clip2)">
<path d="M64.9697 453.598H52.3031C51.4286 453.598 50.7197 454.307 50.7197 455.181V463.098C50.7197 463.972 51.4286 464.681 52.3031 464.681H64.9697C65.8442 464.681 66.5531 463.972 66.5531 463.098V455.181C66.5531 454.307 65.8442 453.598 64.9697 453.598Z" stroke="white" stroke-width="2" stroke-linecap="round" stroke-linejoin="round"/>
<path d="M55.4697 467.848H61.8031" stroke="white" stroke-width="2" stroke-linecap="round" stroke-linejoin="round"/>
<path d="M58.6367 464.681V467.848" stroke="white" stroke-width="2" stroke-linecap="round" stroke-linejoin="round"/>
</g>
<path d="M99.2771 268.622C97.6391 268.622 96.4631 267.362 96.4631 265.318V265.206C96.4631 263.19 97.5131 261.916 99.2491 261.916C100.999 261.916 102.035 263.246 102.035 265.192V265.304C102.035 267.32 100.971 268.622 99.2771 268.622ZM99.2351 270.428C102.357 270.428 104.401 268.258 104.401 265.276V265.164C104.401 262.154 102.259 260.124 99.2491 260.124C96.2811 260.124 94.0971 262.238 94.0971 265.22V265.332C94.0971 268.258 96.0991 270.428 99.2351 270.428ZM105.863 270.274H107.893V266.606C107.893 265.206 108.761 264.716 110.259 264.73V262.84C109.069 262.854 108.355 263.372 107.893 264.352V262.952H105.863V270.274ZM114.199 270.428C115.277 270.428 116.173 269.798 116.551 269.056V270.274H118.567V259.634H116.551V264.044C116.145 263.302 115.417 262.784 114.241 262.784C112.407 262.784 111.021 264.198 111.021 266.606V266.718C111.021 269.154 112.421 270.428 114.199 270.428ZM114.801 268.846C113.793 268.846 113.093 268.132 113.093 266.676V266.564C113.093 265.108 113.723 264.338 114.857 264.338C115.963 264.338 116.607 265.08 116.607 266.536V266.648C116.607 268.132 115.865 268.846 114.801 268.846ZM123.743 270.428C125.745 270.428 127.005 269.546 127.243 267.964H125.325C125.199 268.58 124.737 268.986 123.799 268.986C122.693 268.986 122.035 268.286 121.979 267.068H127.257V266.508C127.257 263.89 125.577 262.784 123.687 262.784C121.559 262.784 119.921 264.282 119.921 266.592V266.704C119.921 269.042 121.531 270.428 123.743 270.428ZM122.007 265.822C122.161 264.786 122.777 264.184 123.687 264.184C124.653 264.184 125.213 264.716 125.283 265.822H122.007ZM128.585 270.274H130.615V266.606C130.615 265.206 131.483 264.716 132.981 264.73V262.84C131.791 262.854 131.077 263.372 130.615 264.352V262.952H128.585V270.274ZM142.107 270.428C144.571 270.428 146.349 269.154 146.601 266.676H144.375C144.193 267.964 143.325 268.594 142.079 268.594C140.427 268.594 139.475 267.39 139.475 265.318V265.206C139.475 263.134 140.483 261.902 142.065 261.902C143.325 261.902 143.997 262.546 144.165 263.75H146.489C146.251 261.286 144.459 260.11 142.051 260.11C139.209 260.11 137.081 262.182 137.081 265.22V265.332C137.081 268.412 138.831 270.428 142.107 270.428ZM151.306 268.888C150.158 268.888 149.514 268.048 149.514 266.648V266.536C149.514 265.136 150.186 264.324 151.306 264.324C152.44 264.324 153.098 265.164 153.098 266.564V266.662C153.098 268.048 152.44 268.888 151.306 268.888ZM151.292 270.428C153.49 270.428 155.156 268.958 155.156 266.648V266.536C155.156 264.254 153.504 262.784 151.306 262.784C149.108 262.784 147.442 264.282 147.442 266.578V266.69C147.442 268.972 149.108 270.428 151.292 270.428ZM156.517 270.274H158.547V265.948C158.547 264.954 159.177 264.45 159.961 264.45C160.675 264.45 161.109 264.87 161.109 265.808V270.274H163.125V265.948C163.125 264.954 163.755 264.45 164.539 264.45C165.267 264.45 165.687 264.87 165.687 265.808V270.274H167.703V265.584C167.703 263.638 166.653 262.784 165.295 262.784C164.371 262.784 163.419 263.176 162.831 264.058C162.481 263.19 161.753 262.784 160.787 262.784C159.695 262.784 158.911 263.386 158.547 264.072V262.952H156.517V270.274ZM169.437 272.766H171.467V269.154C171.845 269.868 172.671 270.428 173.805 270.428C175.625 270.428 176.997 269.07 176.997 266.648V266.536C176.997 264.114 175.597 262.784 173.805 262.784C172.727 262.784 171.873 263.4 171.467 264.1V262.952H169.437V272.766ZM173.203 268.846C172.097 268.846 171.397 268.132 171.397 266.662V266.55C171.397 265.08 172.125 264.338 173.189 264.338C174.211 264.338 174.939 265.066 174.939 266.55V266.662C174.939 268.09 174.323 268.846 173.203 268.846ZM178.407 270.274H180.423V259.634H178.407V270.274ZM185.649 270.428C187.651 270.428 188.911 269.546 189.149 267.964H187.231C187.105 268.58 186.643 268.986 185.705 268.986C184.599 268.986 183.941 268.286 183.885 267.068H189.163V266.508C189.163 263.89 187.483 262.784 185.593 262.784C183.465 262.784 181.827 264.282 181.827 266.592V266.704C181.827 269.042 183.437 270.428 185.649 270.428ZM183.913 265.822C184.067 264.786 184.683 264.184 185.593 264.184C186.559 264.184 187.119 264.716 187.189 265.822H183.913ZM193.166 270.414C193.712 270.414 194.118 270.316 194.398 270.218V268.65C194.16 268.748 193.936 268.79 193.628 268.79C193.11 268.79 192.816 268.51 192.816 267.922V264.394H194.356V262.952H192.816V261.37H190.8V262.952H189.862V264.394H190.8V268.104C190.8 269.63 191.626 270.414 193.166 270.414ZM199.143 270.428C201.145 270.428 202.405 269.546 202.643 267.964H200.725C200.599 268.58 200.137 268.986 199.199 268.986C198.093 268.986 197.435 268.286 197.379 267.068H202.657V266.508C202.657 263.89 200.977 262.784 199.087 262.784C196.959 262.784 195.321 264.282 195.321 266.592V266.704C195.321 269.042 196.931 270.428 199.143 270.428ZM197.407 265.822C197.561 264.786 198.177 264.184 199.087 264.184C200.053 264.184 200.613 264.716 200.683 265.822H197.407ZM206.73 270.428C207.808 270.428 208.704 269.798 209.082 269.056V270.274H211.098V259.634H209.082V264.044C208.676 263.302 207.948 262.784 206.772 262.784C204.938 262.784 203.552 264.198 203.552 266.606V266.718C203.552 269.154 204.952 270.428 206.73 270.428ZM207.332 268.846C206.324 268.846 205.624 268.132 205.624 266.676V266.564C205.624 265.108 206.254 264.338 207.388 264.338C208.494 264.338 209.138 265.08 209.138 266.536V266.648C209.138 268.132 208.396 268.846 207.332 268.846Z" fill="#0D1537"/>
<path d="M535.558 267.166H541.245V266.033H537.901L539.65 264.328C540.585 263.426 541.19 262.535 541.19 261.512C541.19 260.126 540.222 259.191 538.594 259.191C536.933 259.191 535.899 260.181 535.8 261.897H537.142C537.274 260.786 537.769 260.335 538.55 260.335C539.309 260.335 539.727 260.797 539.727 261.534C539.727 262.282 539.276 262.975 538.528 263.767L535.558 266.902V267.166ZM544.513 267.276C545.987 267.276 546.812 266.605 546.812 265.439C546.812 264.218 546.009 263.888 544.656 263.679C543.743 263.525 543.468 263.36 543.468 262.942C543.468 262.535 543.809 262.26 544.381 262.26C544.997 262.26 545.294 262.502 545.404 263.03H546.636C546.493 261.732 545.558 261.292 544.381 261.292C543.303 261.292 542.225 261.864 542.225 263.019C542.225 264.097 542.786 264.526 544.304 264.768C545.151 264.911 545.536 265.087 545.536 265.56C545.536 266.044 545.217 266.297 544.502 266.297C543.721 266.297 543.424 265.956 543.358 265.373H542.104C542.159 266.594 543.028 267.276 544.513 267.276Z" fill="#737A96"/>
<line x1="42.6367" y1="296.931" x2="547.188" y2="296.931" stroke="#F0F0F1"/>
<rect x="42.6367" y="248.931" width="32" height="32" rx="16" fill="#14B5D0"/>
<g clip-path="url(#clip3)">
<path d="M64.9697 258.598H52.3031C51.4286 258.598 50.7197 259.307 50.7197 260.181V268.098C50.7197 268.972 51.4286 269.681 52.3031 269.681H64.9697C65.8442 269.681 66.5531 268.972 66.5531 268.098V260.181C66.5531 259.307 65.8442 258.598 64.9697 258.598Z" stroke="white" stroke-width="2" stroke-linecap="round" stroke-linejoin="round"/>
<path d="M55.4697 272.848H61.8031" stroke="white" stroke-width="2" stroke-linecap="round" stroke-linejoin="round"/>
<path d="M58.6367 269.681V272.848" stroke="white" stroke-width="2" stroke-linecap="round" stroke-linejoin="round"/>
</g>
<path d="M305.31 190.737H307.186V180.727H305.31V190.737ZM312.151 190.877C313.229 190.877 314.167 190.233 314.559 189.505V190.737H316.253V180.027H314.559V184.535C314.153 183.807 313.411 183.261 312.221 183.261C310.317 183.261 308.931 184.745 308.931 187.083V187.195C308.931 189.575 310.317 190.877 312.151 190.877ZM312.571 189.533C311.479 189.533 310.667 188.763 310.667 187.153V187.041C310.667 185.459 311.395 184.591 312.641 184.591C313.873 184.591 314.615 185.389 314.615 186.999V187.111C314.615 188.749 313.747 189.533 312.571 189.533ZM321.486 190.877C323.362 190.877 324.608 190.037 324.846 188.497H323.208C323.082 189.211 322.55 189.617 321.528 189.617C320.268 189.617 319.568 188.833 319.512 187.447H324.874V186.957C324.874 184.339 323.236 183.261 321.416 183.261C319.33 183.261 317.776 184.773 317.776 187.041V187.153C317.776 189.463 319.33 190.877 321.486 190.877ZM319.54 186.313C319.708 185.179 320.394 184.493 321.416 184.493C322.466 184.493 323.11 185.053 323.194 186.313H319.54ZM326.387 190.737H328.081V186.425C328.081 185.263 328.851 184.675 329.803 184.675C330.811 184.675 331.259 185.179 331.259 186.285V190.737H332.953V186.131C332.953 184.115 331.917 183.261 330.447 183.261C329.243 183.261 328.431 183.863 328.081 184.577V183.415H326.387V190.737ZM337.397 190.863C337.915 190.863 338.279 190.779 338.545 190.681V189.337C338.307 189.435 338.055 189.477 337.719 189.477C337.187 189.477 336.879 189.183 336.879 188.539V184.689H338.489V183.415H336.879V181.805H335.185V183.415H334.205V184.689H335.185V188.693C335.185 190.079 335.941 190.863 337.397 190.863ZM340.115 190.737H341.809V183.415H340.115V190.737ZM340.941 182.211C341.501 182.211 341.949 181.791 341.949 181.245C341.949 180.685 341.501 180.265 340.941 180.265C340.381 180.265 339.933 180.685 339.933 181.245C339.933 181.791 340.381 182.211 340.941 182.211ZM346.366 190.863C346.884 190.863 347.248 190.779 347.514 190.681V189.337C347.276 189.435 347.024 189.477 346.688 189.477C346.156 189.477 345.848 189.183 345.848 188.539V184.689H347.458V183.415H345.848V181.805H344.154V183.415H343.174V184.689H344.154V188.693C344.154 190.079 344.91 190.863 346.366 190.863ZM349.084 190.737H350.778V183.415H349.084V190.737ZM349.91 182.211C350.47 182.211 350.918 181.791 350.918 181.245C350.918 180.685 350.47 180.265 349.91 180.265C349.35 180.265 348.902 180.685 348.902 181.245C348.902 181.791 349.35 182.211 349.91 182.211ZM356.063 190.877C357.939 190.877 359.185 190.037 359.423 188.497H357.785C357.659 189.211 357.127 189.617 356.105 189.617C354.845 189.617 354.145 188.833 354.089 187.447H359.451V186.957C359.451 184.339 357.813 183.261 355.993 183.261C353.907 183.261 352.353 184.773 352.353 187.041V187.153C352.353 189.463 353.907 190.877 356.063 190.877ZM354.117 186.313C354.285 185.179 354.971 184.493 355.993 184.493C357.043 184.493 357.687 185.053 357.771 186.313H354.117ZM363.538 190.877C365.414 190.877 366.464 190.023 366.464 188.539C366.464 186.985 365.442 186.565 363.72 186.299C362.558 186.103 362.208 185.893 362.208 185.361C362.208 184.843 362.642 184.493 363.37 184.493C364.154 184.493 364.532 184.801 364.672 185.473H366.24C366.058 183.821 364.868 183.261 363.37 183.261C361.998 183.261 360.626 183.989 360.626 185.459C360.626 186.831 361.34 187.377 363.272 187.685C364.35 187.867 364.84 188.091 364.84 188.693C364.84 189.309 364.434 189.631 363.524 189.631C362.53 189.631 362.152 189.197 362.068 188.455H360.472C360.542 190.009 361.648 190.877 363.538 190.877Z" fill="#737A96"/>
<path d="M196.466 190.737H198.216L199 188.259H202.822L203.62 190.737H205.552L202.248 180.727H199.812L196.466 190.737ZM200.918 182.253L202.388 186.901H199.434L200.918 182.253ZM209.184 190.877C210.374 190.877 211.144 190.303 211.508 189.589V190.737H213.202V183.415H211.508V187.769C211.508 188.931 210.71 189.519 209.8 189.519C208.82 189.519 208.358 189.015 208.358 187.909V183.415H206.664V188.105C206.664 190.051 207.742 190.877 209.184 190.877ZM217.955 190.877C219.033 190.877 219.971 190.233 220.363 189.505V190.737H222.057V180.027H220.363V184.535C219.957 183.807 219.215 183.261 218.025 183.261C216.121 183.261 214.735 184.745 214.735 187.083V187.195C214.735 189.575 216.121 190.877 217.955 190.877ZM218.375 189.533C217.283 189.533 216.471 188.763 216.471 187.153V187.041C216.471 185.459 217.199 184.591 218.445 184.591C219.677 184.591 220.419 185.389 220.419 186.999V187.111C220.419 188.749 219.551 189.533 218.375 189.533ZM224.112 190.737H225.806V183.415H224.112V190.737ZM224.938 182.211C225.498 182.211 225.946 181.791 225.946 181.245C225.946 180.685 225.498 180.265 224.938 180.265C224.378 180.265 223.93 180.685 223.93 181.245C223.93 181.791 224.378 182.211 224.938 182.211ZM231.091 190.877C232.967 190.877 234.213 190.037 234.451 188.497H232.813C232.687 189.211 232.155 189.617 231.133 189.617C229.873 189.617 229.173 188.833 229.117 187.447H234.479V186.957C234.479 184.339 232.841 183.261 231.021 183.261C228.935 183.261 227.381 184.773 227.381 187.041V187.153C227.381 189.463 228.935 190.877 231.091 190.877ZM229.145 186.313C229.313 185.179 229.999 184.493 231.021 184.493C232.071 184.493 232.715 185.053 232.799 186.313H229.145ZM235.992 190.737H237.686V186.425C237.686 185.263 238.456 184.675 239.408 184.675C240.416 184.675 240.864 185.179 240.864 186.285V190.737H242.558V186.131C242.558 184.115 241.522 183.261 240.052 183.261C238.848 183.261 238.036 183.863 237.686 184.577V183.415H235.992V190.737ZM247.716 190.877C249.704 190.877 250.978 189.687 251.104 188.007H249.55C249.452 189.043 248.682 189.575 247.786 189.575C246.54 189.575 245.756 188.735 245.756 187.139V187.027C245.756 185.515 246.582 184.619 247.744 184.619C248.64 184.619 249.284 185.025 249.424 186.005H251.062C250.866 183.989 249.34 183.261 247.716 183.261C245.672 183.261 244.02 184.731 244.02 187.055V187.167C244.02 189.505 245.616 190.877 247.716 190.877ZM255.783 190.877C257.659 190.877 258.905 190.037 259.143 188.497H257.505C257.379 189.211 256.847 189.617 255.825 189.617C254.565 189.617 253.865 188.833 253.809 187.447H259.171V186.957C259.171 184.339 257.533 183.261 255.713 183.261C253.627 183.261 252.073 184.773 252.073 187.041V187.153C252.073 189.463 253.627 190.877 255.783 190.877ZM253.837 186.313C254.005 185.179 254.691 184.493 255.713 184.493C256.763 184.493 257.407 185.053 257.491 186.313H253.837ZM263.258 190.877C265.134 190.877 266.184 190.023 266.184 188.539C266.184 186.985 265.162 186.565 263.44 186.299C262.278 186.103 261.928 185.893 261.928 185.361C261.928 184.843 262.362 184.493 263.09 184.493C263.874 184.493 264.252 184.801 264.392 185.473H265.96C265.778 183.821 264.588 183.261 263.09 183.261C261.718 183.261 260.346 183.989 260.346 185.459C260.346 186.831 261.06 187.377 262.992 187.685C264.07 187.867 264.56 188.091 264.56 188.693C264.56 189.309 264.154 189.631 263.244 189.631C262.25 189.631 261.872 189.197 261.788 188.455H260.192C260.262 190.009 261.368 190.877 263.258 190.877Z" fill="#737A96"/>
<path d="M126.837 190.737H128.713V182.197H131.499V180.727H124.051V182.197H126.837V190.737ZM132.365 190.737H134.059V186.929C134.059 185.375 134.955 184.899 136.439 184.885V183.303C135.207 183.317 134.521 183.863 134.059 184.787V183.415H132.365V190.737ZM139.711 190.877C140.831 190.877 141.475 190.471 141.951 189.841V190.737H143.617V185.935C143.617 183.933 142.329 183.261 140.691 183.261C139.053 183.261 137.695 183.975 137.555 185.683H139.193C139.277 184.955 139.711 184.535 140.593 184.535C141.587 184.535 141.923 185.025 141.923 186.005V186.383H141.013C138.913 186.383 137.261 186.999 137.261 188.707C137.261 190.233 138.367 190.877 139.711 190.877ZM140.117 189.659C139.277 189.659 138.941 189.253 138.941 188.637C138.941 187.741 139.767 187.447 141.055 187.447H141.923V188.175C141.923 189.113 141.153 189.659 140.117 189.659ZM145.601 190.737H147.295V183.415H145.601V190.737ZM146.427 182.211C146.987 182.211 147.435 181.791 147.435 181.245C147.435 180.685 146.987 180.265 146.427 180.265C145.867 180.265 145.419 180.685 145.419 181.245C145.419 181.791 145.867 182.211 146.427 182.211ZM151.851 190.863C152.369 190.863 152.733 190.779 152.999 190.681V189.337C152.761 189.435 152.509 189.477 152.173 189.477C151.641 189.477 151.333 189.183 151.333 188.539V184.689H152.943V183.415H151.333V181.805H149.639V183.415H148.659V184.689H149.639V188.693C149.639 190.079 150.395 190.863 151.851 190.863ZM157.102 190.877C158.978 190.877 160.028 190.023 160.028 188.539C160.028 186.985 159.006 186.565 157.284 186.299C156.122 186.103 155.772 185.893 155.772 185.361C155.772 184.843 156.206 184.493 156.934 184.493C157.718 184.493 158.096 184.801 158.236 185.473H159.804C159.622 183.821 158.432 183.261 156.934 183.261C155.562 183.261 154.19 183.989 154.19 185.459C154.19 186.831 154.904 187.377 156.836 187.685C157.914 187.867 158.404 188.091 158.404 188.693C158.404 189.309 157.998 189.631 157.088 189.631C156.094 189.631 155.716 189.197 155.632 188.455H154.036C154.106 190.009 155.212 190.877 157.102 190.877Z" fill="#737A96"/>
<rect x="36.623" y="171.046" width="66.3125" height="31.1946" rx="5" fill="#ECEEF3"/>
<path d="M49.1414 190.737H55.6374V189.267H51.0034V186.341H54.5314V184.941H51.0034V182.197H55.3994V180.727H49.1414V190.737ZM58.8901 190.737H60.8641L63.5101 183.415H61.8441L59.9541 189.001L58.0361 183.415H56.2161L58.8901 190.737ZM67.7116 190.877C69.5876 190.877 70.8336 190.037 71.0716 188.497H69.4336C69.3076 189.211 68.7756 189.617 67.7536 189.617C66.4936 189.617 65.7936 188.833 65.7376 187.447H71.0996V186.957C71.0996 184.339 69.4616 183.261 67.6416 183.261C65.5556 183.261 64.0016 184.773 64.0016 187.041V187.153C64.0016 189.463 65.5556 190.877 67.7116 190.877ZM65.7656 186.313C65.9336 185.179 66.6196 184.493 67.6416 184.493C68.6916 184.493 69.3356 185.053 69.4196 186.313H65.7656ZM72.6127 190.737H74.3067V186.425C74.3067 185.263 75.0767 184.675 76.0287 184.675C77.0367 184.675 77.4847 185.179 77.4847 186.285V190.737H79.1787V186.131C79.1787 184.115 78.1427 183.261 76.6727 183.261C75.4687 183.261 74.6567 183.863 74.3067 184.577V183.415H72.6127V190.737ZM83.6223 190.863C84.1403 190.863 84.5043 190.779 84.7703 190.681V189.337C84.5323 189.435 84.2803 189.477 83.9443 189.477C83.4123 189.477 83.1043 189.183 83.1043 188.539V184.689H84.7143V183.415H83.1043V181.805H81.4103V183.415H80.4303V184.689H81.4103V188.693C81.4103 190.079 82.1663 190.863 83.6223 190.863ZM88.8726 190.877C90.7486 190.877 91.7986 190.023 91.7986 188.539C91.7986 186.985 90.7766 186.565 89.0546 186.299C87.8926 186.103 87.5426 185.893 87.5426 185.361C87.5426 184.843 87.9766 184.493 88.7046 184.493C89.4886 184.493 89.8666 184.801 90.0066 185.473H91.5746C91.3926 183.821 90.2026 183.261 88.7046 183.261C87.3326 183.261 85.9606 183.989 85.9606 185.459C85.9606 186.831 86.6746 187.377 88.6066 187.685C89.6846 187.867 90.1746 188.091 90.1746 188.693C90.1746 189.309 89.7686 189.631 88.8586 189.631C87.8646 189.631 87.4866 189.197 87.4026 188.455H85.8066C85.8766 190.009 86.9826 190.877 88.8726 190.877Z" fill="#0D1537"/>
<path fill-rule="evenodd" clip-rule="evenodd" d="M499.152 67.6783H515.728C516.18 67.6783 516.482 67.9797 516.482 68.4318V85.0082C516.482 85.4603 516.18 85.7617 515.728 85.7617H499.152C498.7 85.7617 498.398 85.4603 498.398 85.0082V68.4318C498.398 67.9797 498.7 67.6783 499.152 67.6783ZM501.112 83.1254H503.749H503.825V74.4605H501.112V83.1254ZM502.393 73.2557C501.564 73.2557 500.811 72.5776 500.811 71.6734C500.811 70.8446 501.489 70.0911 502.393 70.0911C503.222 70.0911 503.975 70.7693 503.975 71.6734C503.975 72.5776 503.297 73.2557 502.393 73.2557ZM511.131 83.1248H513.843V78.4533C513.843 76.1175 513.316 74.3092 510.603 74.3092C509.247 74.3092 508.418 74.9873 508.041 75.6654V74.4599H505.48V83.1248H508.192V78.83C508.192 77.6998 508.343 76.6449 509.774 76.6449C511.131 76.6449 511.131 77.9258 511.131 78.9054V83.1248Z" fill="#0D1537"/>
<path d="M551.517 71.0708C550.839 71.4099 550.161 71.5229 549.37 71.6359C550.161 71.1838 550.726 70.5057 550.952 69.6015C550.274 70.0536 549.483 70.2797 548.578 70.5057C547.9 69.8276 546.883 69.3755 545.866 69.3755C543.945 69.3755 542.249 71.0708 542.249 73.1052C542.249 73.4442 542.249 73.6703 542.362 73.8963C539.311 73.7833 536.485 72.314 534.677 70.0536C534.338 70.6187 534.225 71.1838 534.225 71.975C534.225 73.2182 534.903 74.3484 535.92 75.0265C535.355 75.0265 534.79 74.8005 534.225 74.5745C534.225 76.3828 535.468 77.8521 537.163 78.1911C536.824 78.3042 536.485 78.3042 536.146 78.3042C535.92 78.3042 535.694 78.3042 535.468 78.1911C535.92 79.6604 537.276 80.7906 538.972 80.7906C537.728 81.8078 536.146 82.3729 534.338 82.3729C533.999 82.3729 533.773 82.3729 533.434 82.3729C535.129 83.3901 537.05 84.0682 539.085 84.0682C545.866 84.0682 549.596 78.4172 549.596 73.5573C549.596 73.4442 549.596 73.2182 549.596 73.1052C550.387 72.5401 551.065 71.862 551.517 71.0708Z" fill="#0D1537"/>
<path d="M146.577 82.9417C149.517 82.9417 151.277 81.3817 151.277 78.1417V68.4617H148.017V78.1017C148.017 79.7417 147.217 80.3617 145.997 80.3617C145.157 80.3617 144.677 80.2017 144.197 80.0217V82.5017C144.697 82.7617 145.337 82.9417 146.577 82.9417ZM156.64 82.9817C158.28 82.9817 159.2 82.3417 159.8 81.5017V82.7617H162.62V75.9417C162.62 73.1017 160.8 72.0617 158.24 72.0617C155.68 72.0617 153.72 73.1617 153.54 75.6417H156.28C156.4 74.7417 156.92 74.1617 158.06 74.1617C159.38 74.1617 159.76 74.8417 159.76 76.0817V76.5017H158.58C155.38 76.5017 153.14 77.4217 153.14 79.8617C153.14 82.0617 154.74 82.9817 156.64 82.9817ZM157.5 80.9617C156.44 80.9617 155.98 80.4617 155.98 79.7017C155.98 78.5817 156.96 78.2217 158.64 78.2217H159.76V79.1017C159.76 80.2617 158.78 80.9617 157.5 80.9617ZM165.109 82.7617H168.009V76.7217C168.009 75.1817 168.949 74.4217 170.189 74.4217C171.469 74.4217 172.029 75.1017 172.029 76.5217V82.7617H174.929V76.1017C174.929 73.3017 173.469 72.0617 171.409 72.0617C169.669 72.0617 168.529 72.9217 168.009 73.9617V72.3017H165.109V82.7617ZM182.234 82.9817C185.094 82.9817 186.894 81.7217 187.234 79.4617H184.494C184.314 80.3417 183.654 80.9217 182.314 80.9217C180.734 80.9217 179.794 79.9217 179.714 78.1817H187.254V77.3817C187.254 73.6417 184.854 72.0617 182.154 72.0617C179.114 72.0617 176.774 74.2017 176.774 77.5017V77.6617C176.774 81.0017 179.074 82.9817 182.234 82.9817ZM179.754 76.4017C179.974 74.9217 180.854 74.0617 182.154 74.0617C183.534 74.0617 184.334 74.8217 184.434 76.4017H179.754ZM193.846 82.7617H197.086V76.3417L202.026 82.7617H205.806L199.866 75.2217L205.526 68.4417H202.086L197.086 74.6217V68.4617H193.846V82.7617ZM207.279 82.7617H210.159V72.3017H207.279V82.7617ZM208.699 70.8817C209.639 70.8817 210.359 70.2017 210.359 69.3017C210.359 68.4017 209.639 67.7217 208.699 67.7217C207.779 67.7217 207.059 68.4017 207.059 69.3017C207.059 70.2017 207.779 70.8817 208.699 70.8817ZM212.824 82.7617H215.724V76.5817C215.724 75.1617 216.624 74.4417 217.744 74.4417C218.764 74.4417 219.384 75.0417 219.384 76.3817V82.7617H222.264V76.5817C222.264 75.1617 223.164 74.4417 224.284 74.4417C225.324 74.4417 225.924 75.0417 225.924 76.3817V82.7617H228.804V76.0617C228.804 73.2817 227.304 72.0617 225.364 72.0617C224.044 72.0617 222.684 72.6217 221.844 73.8817C221.344 72.6417 220.304 72.0617 218.924 72.0617C217.364 72.0617 216.244 72.9217 215.724 73.9017V72.3017H212.824V82.7617Z" fill="#0D1537"/>
<path d="M143.623 111.45C145.247 111.394 145.863 110.638 145.863 109.238V101.454H144.701V109.336C144.701 109.98 144.449 110.4 143.623 110.47V111.45ZM145.261 99.9275C145.681 99.9275 146.031 99.5775 146.031 99.1575C146.031 98.7375 145.681 98.3875 145.261 98.3875C144.841 98.3875 144.491 98.7375 144.491 99.1575C144.491 99.5775 144.841 99.9275 145.261 99.9275ZM148.491 108.776H149.653V104.982L152.901 108.776H154.315L150.913 104.856L154.049 101.454H152.691L149.653 104.828V97.9535H148.491V108.776ZM155.988 108.776H157.15V101.454H155.988V108.776ZM156.548 99.9275C156.968 99.9275 157.318 99.5775 157.318 99.1575C157.318 98.7375 156.968 98.3875 156.548 98.3875C156.128 98.3875 155.778 98.7375 155.778 99.1575C155.778 99.5775 156.128 99.9275 156.548 99.9275ZM159.779 108.776H160.941V104.296C160.941 102.98 161.921 102.336 162.873 102.336C163.881 102.336 164.427 102.868 164.427 104.156V108.776H165.589V104.296C165.589 102.98 166.569 102.336 167.521 102.336C168.529 102.336 169.075 102.868 169.075 104.156V108.776H170.237V104.24C170.237 102.112 169.089 101.328 167.773 101.328C166.863 101.328 165.771 101.748 165.267 102.7C164.889 101.72 164.063 101.328 163.125 101.328C162.075 101.328 161.277 101.888 160.941 102.574V101.454H159.779V108.776ZM178.021 110.834C180.037 110.834 181.689 109.994 182.403 108.776H181.325C180.457 109.518 179.547 109.91 178.021 109.91C174.899 109.91 173.303 107.656 173.303 105.108C173.303 102.14 175.375 100.068 178.203 100.068C181.087 100.068 182.767 101.79 182.767 104.296C182.767 106.2 181.955 106.998 181.157 106.998C180.625 106.998 180.387 106.634 180.485 105.892L180.905 102.364H179.743L179.645 103.204C179.449 102.728 178.945 102.252 177.951 102.252C176.425 102.252 175.193 103.624 175.193 105.5C175.193 107.012 176.089 107.936 177.447 107.936C178.315 107.936 179.127 107.362 179.533 106.634C179.645 107.362 180.009 107.838 181.143 107.838C182.263 107.838 183.775 106.9 183.775 104.268C183.775 101.384 181.549 99.1435 178.203 99.1435C174.969 99.1435 172.225 101.706 172.225 105.136C172.225 108.118 174.283 110.834 178.021 110.834ZM177.699 107.04C176.943 107.04 176.383 106.466 176.383 105.486C176.383 104.016 177.153 103.176 178.035 103.176C178.945 103.176 179.491 103.694 179.491 104.758C179.491 106.242 178.567 107.04 177.699 107.04ZM188.827 108.902C190.479 108.902 191.697 108.132 191.949 106.662H190.787C190.633 107.516 189.975 107.936 188.841 107.936C187.343 107.936 186.545 107.012 186.489 105.346H192.005V104.968C192.005 102.35 190.409 101.328 188.715 101.328C186.699 101.328 185.285 102.868 185.285 105.08V105.192C185.285 107.446 186.755 108.902 188.827 108.902ZM186.531 104.408C186.727 103.106 187.525 102.294 188.715 102.294C189.919 102.294 190.703 102.896 190.815 104.408H186.531ZM194.038 108.776H195.2V104.296C195.2 102.98 196.18 102.336 197.132 102.336C198.14 102.336 198.686 102.868 198.686 104.156V108.776H199.848V104.296C199.848 102.98 200.828 102.336 201.78 102.336C202.788 102.336 203.334 102.868 203.334 104.156V108.776H204.496V104.24C204.496 102.112 203.348 101.328 202.032 101.328C201.122 101.328 200.03 101.748 199.526 102.7C199.148 101.72 198.322 101.328 197.384 101.328C196.334 101.328 195.536 101.888 195.2 102.574V101.454H194.038V108.776ZM208.864 108.902C209.942 108.902 210.6 108.538 211.146 107.852V108.776H212.308V103.946C212.308 101.902 211.034 101.328 209.634 101.328C208.22 101.328 206.89 101.944 206.736 103.61H207.898C208.01 102.714 208.57 102.294 209.578 102.294C210.698 102.294 211.146 102.784 211.146 103.946V104.478H210.096C208.22 104.478 206.428 105.052 206.428 106.746C206.428 108.244 207.506 108.902 208.864 108.902ZM208.976 107.978C207.954 107.978 207.59 107.502 207.59 106.746C207.59 105.668 208.668 105.304 210.138 105.304H211.146V106.214C211.146 107.348 210.208 107.978 208.976 107.978ZM214.869 108.776H216.031V101.454H214.869V108.776ZM215.429 99.9275C215.849 99.9275 216.199 99.5775 216.199 99.1575C216.199 98.7375 215.849 98.3875 215.429 98.3875C215.009 98.3875 214.659 98.7375 214.659 99.1575C214.659 99.5775 215.009 99.9275 215.429 99.9275ZM218.687 108.776H219.863V97.9535H218.687V108.776ZM223.289 108.846C223.779 108.846 224.185 108.454 224.185 107.95C224.185 107.446 223.779 107.054 223.289 107.054C222.799 107.054 222.393 107.446 222.393 107.95C222.393 108.454 222.799 108.846 223.289 108.846ZM229.375 108.902C231.139 108.902 232.413 107.726 232.567 106.144H231.489C231.363 107.334 230.425 107.936 229.389 107.936C227.975 107.936 226.995 106.984 226.995 105.192V105.08C226.995 103.358 228.017 102.294 229.347 102.294C230.355 102.294 231.195 102.728 231.377 103.89H232.525C232.301 102.028 230.873 101.328 229.347 101.328C227.387 101.328 225.791 102.84 225.791 105.08V105.192C225.791 107.46 227.331 108.902 229.375 108.902ZM237.624 107.936C236.14 107.936 235.23 106.844 235.23 105.178V105.066C235.23 103.386 236.154 102.294 237.624 102.294C239.08 102.294 240.018 103.386 240.018 105.08V105.178C240.018 106.83 239.094 107.936 237.624 107.936ZM237.61 108.902C239.696 108.902 241.222 107.376 241.222 105.164V105.052C241.222 102.854 239.696 101.328 237.624 101.328C235.552 101.328 234.026 102.868 234.026 105.066V105.178C234.026 107.32 235.524 108.902 237.61 108.902ZM243.271 108.776H244.433V104.296C244.433 102.98 245.413 102.336 246.365 102.336C247.373 102.336 247.919 102.868 247.919 104.156V108.776H249.081V104.296C249.081 102.98 250.061 102.336 251.013 102.336C252.021 102.336 252.567 102.868 252.567 104.156V108.776H253.729V104.24C253.729 102.112 252.581 101.328 251.265 101.328C250.355 101.328 249.263 101.748 248.759 102.7C248.381 101.72 247.555 101.328 246.617 101.328C245.567 101.328 244.769 101.888 244.433 102.574V101.454H243.271V108.776Z" fill="#262E4F" fill-opacity="0.5"/>
<circle cx="79.5949" cy="96.7755" r="43.8312" fill="#E8E3FF"/>
<mask id="mask0" mask-type="alpha" maskUnits="userSpaceOnUse" x="35" y="30" width="90" height="111">
<path fill-rule="evenodd" clip-rule="evenodd" d="M124.224 30.3828H35.9847V92.3464C35.8385 93.803 35.7637 95.2805 35.7637 96.7755C35.7637 120.983 55.3876 140.607 79.5949 140.607C102.767 140.607 121.74 122.625 123.32 99.8535H124.224V30.3828Z" fill="#E8E3FF"/>
</mask>
<g mask="url(#mask0)">
<path fill-rule="evenodd" clip-rule="evenodd" d="M62.9516 51.8926C61.1329 53.4475 58.2233 56.0341 56.9952 57.6728C54.0365 61.6205 52.7901 66.1477 52.7651 67.0768C52.7387 68.0554 52.9557 69.0236 53.153 69.9039C53.2463 70.32 53.3351 70.7165 53.3918 71.0851C53.5662 72.2197 53.4302 73.0902 53.0784 73.5518C52.1703 74.7432 51.1733 75.7089 50.2868 76.5674C49.3381 77.4863 48.516 78.2825 48.065 79.1017C47.1928 80.6862 47.4142 81.8501 48.3784 82.185C50.7756 83.0175 50.5075 83.7252 50.2015 84.5328C50.1675 84.6224 50.133 84.7133 50.1017 84.8058C49.9817 85.1601 49.6904 85.5925 49.3895 86.0392C48.9048 86.7586 48.395 87.5152 48.535 88.0432C48.6914 88.6328 49.1274 88.8932 49.5581 89.1504C50.0169 89.4244 50.4696 89.6948 50.5717 90.3557C50.6366 90.7756 50.3524 91.2517 50.0796 91.7086C49.8388 92.112 49.6068 92.5004 49.6317 92.8223C49.7216 93.9857 51.1984 94.0556 51.1984 94.0556C51.1984 94.0556 51.7606 95.6924 51.5117 96.0598C50.5717 97.4473 50.919 99.5639 51.1984 99.9139C52.9218 102.072 56.3685 101.61 56.3685 101.61C56.3685 101.61 62.4786 100.376 66.2386 99.7597C69.9987 99.1431 74.2287 110.86 74.2287 110.86L77.0488 120.264C77.0488 120.264 72.0354 119.03 67.1786 124.272C62.3219 129.514 59.8152 149.401 59.8152 149.401L119.819 148.63C119.819 148.63 121.229 143.234 116.999 131.518C116.588 130.379 115.644 129.253 114.78 128.222C114.14 127.459 113.544 126.748 113.239 126.122C112.174 123.935 109.367 120.903 105.876 117.643C105.249 117.057 104.559 116.537 103.857 116.007C102.532 115.007 101.162 113.973 100.079 112.401C97.9776 109.351 96.319 100.376 96.319 100.376C96.319 100.376 96.7628 95.894 97.3449 92.8871L98.6942 94.7681C98.6942 94.7681 98.5375 91.0681 100.731 87.6765C101.545 86.4171 102.014 85.8379 102.386 85.3785C103.016 84.6008 103.367 84.1664 104.648 81.3558C106.684 76.885 106.841 71.0267 106.841 71.0267C106.841 71.0267 111.854 71.1809 113.108 68.7143C113.675 67.5973 115.326 63.7628 114.988 61.931C114.649 60.0992 111.854 56.9977 110.758 56.5352C109.661 56.0728 105.744 56.6894 105.744 56.6894C105.744 56.6894 104.206 53.2952 103.238 51.7561C102.629 50.7895 103.866 51.6783 104.89 52.4142C105.496 52.8499 106.028 53.232 106.058 53.1436C106.12 52.9597 105.481 50.5677 103.864 48.827C101.416 46.1919 96.9771 43.6036 94.4641 42.6604C91.6963 41.6216 87.9641 41.4156 85.8304 41.2978C84.7181 41.2364 84.0402 41.199 84.1599 41.0801C84.4217 40.8198 87.0329 40.9499 88.6648 41.0313C89.2088 41.0584 89.644 41.0801 89.8471 41.0801C90.6596 41.0801 85.7848 39.4798 80.8339 40.2799C75.9573 41.0681 71.7193 44.4082 70.8447 45.0975C70.8314 45.108 70.8189 45.1178 70.8071 45.1271C70.7088 45.2045 70.5051 45.3572 70.2245 45.5675C68.491 46.8667 63.8239 50.3648 62.9516 51.8926Z" fill="#53439A" style="mix-blend-mode:multiply"/>
<path opacity="0.5" fill-rule="evenodd" clip-rule="evenodd" d="M56.5503 99.7012C56.0803 99.3929 60.1537 83.9765 61.0937 82.8973C62.0337 81.8182 77.7006 71.0267 77.7006 71.1808C77.7006 71.335 79.5806 77.0391 79.894 76.4224C80.2073 75.8057 81.4606 73.0308 81.4606 73.0308C81.4606 73.0308 85.4185 69.7933 86.474 69.7933C87.2574 69.7933 87.8841 71.335 87.4141 71.6433C86.117 72.4942 85.064 75.0349 85.064 75.0349L84.7507 77.5016C84.7507 77.5016 82.0873 80.1224 83.3407 80.5849C84.594 81.0473 84.7507 78.4265 85.2207 77.6557C85.6907 76.8849 85.8474 75.0349 85.8474 75.0349C85.8474 75.0349 88.6674 71.6433 90.5474 72.4141C92.4275 73.185 92.2873 74.3931 91.8008 76.2682C91.3142 78.1434 88.9807 79.6599 88.6674 79.6599C88.3541 79.6599 84.4373 80.4307 84.2807 80.739C84.124 81.0473 80.834 83.9765 80.834 83.9765L83.8107 84.8244C83.8107 84.8244 80.5206 94.3055 79.7373 94.6138C78.9539 94.9221 62.6604 99.3929 62.6604 99.3929C62.6604 99.3929 57.0203 100.01 56.5503 99.7012Z" fill="#382683"/>
<path fill-rule="evenodd" clip-rule="evenodd" d="M71.5901 123.751C72.0601 124.059 74.2535 130.997 74.2535 130.997L79.8936 125.293C79.8936 125.293 76.1335 126.372 75.7418 126.218C75.3502 126.063 71.1201 123.443 71.5901 123.751Z" fill="#14B5D0" style="mix-blend-mode:multiply"/>
<path fill-rule="evenodd" clip-rule="evenodd" d="M49.3593 86.2867C49.6979 86.22 55.6559 88.9684 55.6559 89.3538C55.6559 89.7392 51.566 93.9762 51.052 94.0212C50.5379 94.0662 49.5625 93.7545 49.6302 92.6877C49.6979 91.6208 50.6457 91.3541 50.578 90.4207C50.5103 89.4872 48.5469 88.8204 48.5469 87.887C48.5469 86.9535 49.0208 86.3534 49.3593 86.2867Z" fill="#53439A" style="mix-blend-mode:multiply"/>
<path fill-rule="evenodd" clip-rule="evenodd" d="M60.7807 141.48C60.7807 141.48 71.3838 123.165 73.3142 122.055C75.1118 121.022 76.2909 120.205 76.2909 120.205H77.3876C77.3876 120.205 73.7809 122.99 73.3142 124.368C72.2175 127.605 71.7475 131.922 71.7475 131.922C71.7475 131.922 80.3315 130.784 84.1244 129.609C93.8826 126.587 99.9143 123.688 101.985 123.288C106.297 122.456 109.348 121.13 109.348 121.13C109.348 121.13 115.145 128.068 114.675 127.913C114.205 127.759 109.937 124.34 101.201 127.913C92.4657 131.487 91.3311 134.08 86.4744 138.551C81.6176 143.022 80.3643 149.188 80.3643 149.188H59.5273L60.7807 141.48Z" fill="#53439A" style="mix-blend-mode:multiply"/>
<path fill-rule="evenodd" clip-rule="evenodd" d="M55.6101 64.0893C55.6101 64.2435 54.9834 65.9393 55.2967 66.2476C55.4251 66.3739 56.8404 65.3731 58.7434 65.0143C60.6464 64.6555 62.5035 65.3226 62.6602 65.1685C62.8168 65.0143 60.3347 63.4727 59.6835 63.3185C59.0322 63.1643 55.6101 63.9351 55.6101 64.0893Z" fill="#53439A" style="mix-blend-mode:multiply"/>
<path fill-rule="evenodd" clip-rule="evenodd" d="M96.8146 92.1473L98.6947 94.7681C98.6947 94.7681 98.538 91.0681 100.731 87.6765C102.925 84.2849 102.611 85.8265 104.648 81.3558C106.685 76.885 106.841 71.0267 106.841 71.0267C106.841 71.0267 111.855 71.1809 113.108 68.7143C113.676 67.5973 115.327 63.7628 114.988 61.931C114.65 60.0992 111.855 56.9977 110.758 56.5352C109.661 56.0728 105.745 56.6894 105.745 56.6894C105.745 56.6894 104.206 53.2952 103.238 51.7561C102.27 50.2171 105.978 53.3813 106.058 53.1436C106.12 52.9597 105.482 50.5677 103.865 48.827C101.417 46.1919 96.9776 43.6036 94.4646 42.6604C90.2538 41.0801 83.8111 41.4271 84.1603 41.0801C84.5095 40.733 89.0351 41.0801 89.8476 41.0801C90.66 41.0801 85.7852 39.4798 80.8344 40.2799C75.8836 41.0801 71.5909 44.5104 70.8076 45.1271C70.0242 45.7437 62.5515 51.1389 62.8175 52.3728C63.0835 53.6067 72.5309 49.4437 71.4343 50.677C70.3376 51.9103 67.9599 53.2846 68.4576 54.3769C68.9552 55.4693 74.411 53.9144 73.941 54.6853C73.471 55.4561 70.4837 57.9364 72.6876 59.4644C74.8915 60.9923 81.6177 59.4644 80.8344 59.4644C80.0511 59.4644 76.291 59.9269 77.231 61.4685C78.171 63.0102 80.3644 64.0893 80.0511 65.0143C79.7377 65.9393 77.2987 66.9538 77.231 69.4851C77.1633 72.0163 79.7377 76.7308 79.7377 76.7308C79.7377 76.7308 85.5345 69.3309 86.6311 69.9476C87.7278 70.5642 86.6039 72.858 88.8245 71.7975C91.0451 70.7371 92.9507 72.4993 94.4646 73.9559C95.9785 75.4124 95.8746 76.5767 95.8746 78.5808C95.8746 80.5849 93.2112 88.4473 93.2112 88.4473C93.2112 88.4473 93.7401 91.4033 94.4646 92.1473C95.1891 92.8912 96.8146 92.1473 96.8146 92.1473Z" fill="#53439A" style="mix-blend-mode:multiply"/>
<path fill-rule="evenodd" clip-rule="evenodd" d="M87.4141 83.8223C87.4141 83.8223 89.9208 83.3599 91.9575 81.0474C93.9941 78.7349 94.2966 78.3331 94.6208 76.8849C94.7766 76.1891 94.714 74.7345 93.9941 73.4933C93.7152 73.0125 92.7408 72.4142 92.7408 72.4142C92.7408 72.4142 93.1448 73.4364 93.2108 73.9558C93.2505 74.2684 93.2305 75.5791 92.7408 77.0391C92.4167 78.0052 91.798 78.986 91.1741 79.9682C89.6074 82.4349 87.4141 83.8223 87.4141 83.8223Z" fill="#14B5D0" style="mix-blend-mode:multiply"/>
<path fill-rule="evenodd" clip-rule="evenodd" d="M56.7077 69.1967C56.6569 69.5053 56.5499 71.4891 57.0199 71.7975C57.4899 72.1058 57.3482 71.1512 59.7856 71.5513C62.223 71.9513 64.4572 71.7975 64.4572 71.7975C64.4572 71.7975 61.8247 68.1156 61.072 67.5506C60.3192 66.9857 58.524 67.0833 58.2744 67.1573C57.0734 67.5133 56.8632 68.2517 56.7077 69.1967Z" fill="#14B5D0" style="mix-blend-mode:multiply"/>
<path fill-rule="evenodd" clip-rule="evenodd" d="M49.18 81.5324C49.1292 81.841 49.9633 82.3032 50.4333 82.6115C50.6177 82.7325 51.1114 82.2189 51.8433 82.149C52.2136 82.1137 52.5505 82.4494 52.94 82.4574C53.7429 82.4738 54.4468 82.0987 54.5657 81.9087C55.1452 80.9838 54.6634 80.5085 54.6634 80.5085C54.6634 80.5085 54.4303 81.3087 53.7533 81.5692C53.3642 81.7189 52.9054 81.7166 52.3133 81.5324C51.9482 81.4188 51.6103 81.1489 51.53 81.0699C50.9033 80.4533 49.3355 80.5874 49.18 81.5324Z" fill="#042A75"/>
<path fill-rule="evenodd" clip-rule="evenodd" d="M58.2167 73.2783C58.3682 73.2783 58.4809 72.7938 58.3733 72.3408C58.2586 71.8573 58.0695 71.5737 57.9033 71.5737C57.7773 71.5737 57.639 71.9217 57.7467 72.4095C57.8554 72.9022 58.0592 73.2783 58.2167 73.2783Z" fill="#53439A" style="mix-blend-mode:multiply"/>
<g opacity="0.5">
<path fill-rule="evenodd" clip-rule="evenodd" d="M88.9808 50.5227C95.3238 51.8548 104.178 55.3018 101.201 55.456C99.755 55.5309 95.1042 55.9188 88.6674 58.231C86.2703 59.092 82.0873 61.6226 82.0873 61.6226C82.0873 61.6226 79.6642 63.4006 80.2073 63.9351C80.7504 64.4695 83.184 63.6267 83.184 63.6267C83.184 63.6267 87.8402 62.1646 90.7041 61.7768C93.568 61.3889 100.104 61.6226 100.104 61.6226C100.104 61.6226 103.081 62.3934 102.141 62.5476C101.201 62.7017 82.0873 69.9475 83.184 69.9475C83.7789 69.9475 89.1147 68.1 94.4642 67.3267C98.9759 66.6744 103.238 66.71 103.238 67.3267C103.238 67.9433 92.6038 70.093 93.0542 71.1808C93.2951 71.7628 96.7772 72.7521 100.104 72.4141C102.995 72.1204 105.514 70.7378 105.744 71.6433C106.214 73.4933 98.1812 81.0126 98.3809 82.1265C98.5807 83.2404 106.058 77.3474 106.058 77.3474C106.058 77.3474 106.917 67.4155 106.841 64.2434C106.765 61.0712 105.744 56.6893 105.744 56.6893C105.744 56.6893 104.178 52.0644 102.768 50.9852C101.358 49.9061 87.723 43.4773 87.1007 43.5853C86.4784 43.6934 100.104 51.4477 100.104 51.4477C100.104 51.4477 91.1648 47.6613 86.4741 47.1311C81.7833 46.6009 77.641 48.6336 76.9172 48.8269C76.1935 49.0202 75.4311 49.873 75.5072 50.0602C75.5833 50.2475 82.6377 49.1907 88.9808 50.5227Z" fill="#53439A" style="mix-blend-mode:lighten"/>
</g>
<path fill-rule="evenodd" clip-rule="evenodd" d="M87.0776 85.5169C87.0776 85.8518 86.9677 86.403 86.7953 86.8198C86.9677 87.0168 87.0776 87.316 87.0776 87.6509C87.0776 87.998 86.9595 88.5776 86.7762 88.9989C86.9595 89.1953 87.0776 89.504 87.0776 89.8511C87.0776 90.1561 86.9864 90.6406 86.8399 91.0394C88.1045 91.3257 89.0557 92.5622 89.0557 94.0441C89.0557 95.738 87.8129 97.1112 86.2798 97.1112C84.7467 97.1112 83.5039 95.738 83.5039 94.0441C83.5039 92.543 84.4799 91.2938 85.7689 91.0288C85.6247 90.632 85.5351 90.1534 85.5351 89.8511C85.5351 89.504 85.6532 89.1953 85.8366 88.9989C85.6532 88.5776 85.5351 87.998 85.5351 87.6509C85.5351 87.316 85.6451 87.0168 85.8174 86.8198C85.6451 86.403 85.5351 85.8518 85.5351 85.5169C85.5351 84.9234 85.8804 84.4424 86.3064 84.4424C86.7323 84.4424 87.0776 84.9234 87.0776 85.5169ZM86.2798 95.9778C87.4016 95.9778 88.311 95.4412 88.311 94.2324C88.311 93.0237 87.4016 92.0439 86.2798 92.0439C85.158 92.0439 84.2487 93.0237 84.2487 94.2324C84.2487 95.4412 85.158 95.9778 86.2798 95.9778Z" fill="#14B5D0" style="mix-blend-mode:multiply"/>
<path fill-rule="evenodd" clip-rule="evenodd" d="M85.9946 84.4501C85.9946 84.785 85.8846 85.3363 85.7122 85.753C85.8846 85.9501 85.9946 86.2492 85.9946 86.5841C85.9946 86.9312 85.8764 87.5108 85.6931 87.9321C85.8764 88.1285 85.9946 88.4372 85.9946 88.7843C85.9946 89.0893 85.9034 89.5738 85.7569 89.9727C87.0215 90.2589 87.9727 91.4954 87.9727 92.9774C87.9727 94.6713 86.7299 96.0445 85.1968 96.0445C83.6637 96.0445 82.4209 94.6713 82.4209 92.9774C82.4209 91.4763 83.3968 90.227 84.6859 89.962C84.5417 89.5652 84.4521 89.0866 84.4521 88.7843C84.4521 88.4372 84.5702 88.1285 84.7535 87.9321C84.5702 87.5108 84.4521 86.9312 84.4521 86.5841C84.4521 86.2492 84.562 85.9501 84.7344 85.753C84.562 85.3363 84.4521 84.785 84.4521 84.4501C84.4521 83.8567 84.7974 83.3756 85.2233 83.3756C85.6493 83.3756 85.9946 83.8567 85.9946 84.4501ZM85.1968 94.911C86.3186 94.911 87.228 94.3743 87.228 93.1656C87.228 91.9569 86.3186 90.977 85.1968 90.977C84.075 90.977 83.1656 91.9569 83.1656 93.1656C83.1656 94.3743 84.075 94.911 85.1968 94.911Z" fill="#53439A" style="mix-blend-mode:multiply"/>
<path fill-rule="evenodd" clip-rule="evenodd" d="M77.9674 118.35C78.9892 119.233 80.3478 120.019 82.0343 120.18C86.2281 120.58 100.115 111.646 100.115 111.646C100.115 111.646 101.789 111.618 104.652 113.246C107.514 114.874 107.563 115.78 107.563 115.78L107.168 115.931C108.081 116.844 108.949 117.8 109.774 118.714C111.312 120.421 111.822 123.035 111.128 122.874L105.164 124.101C99.2261 123.735 91.9302 123.911 86.6856 124.037C82.7102 124.133 79.9135 124.2 79.7804 123.982C79.7683 123.962 79.7792 123.934 79.812 123.898C79.6413 123.881 79.47 123.861 79.2984 123.838C79.5879 124.118 79.9269 124.389 80.3221 124.649C80.8638 125.004 84.9932 125.35 90.1075 125.779C91.6647 125.909 93.3133 126.047 94.9797 126.196L86.6187 127.916C81.8048 128.241 75.2913 128.173 72.282 126.127C67.768 123.058 69.2256 119.108 69.845 119.073C70.1172 119.058 71.3897 118.929 73.6626 118.688C74.3364 118.036 75.6739 115.513 75.6739 115.513C75.6739 115.513 76.4049 116.953 77.8395 118.238C77.8903 118.232 77.9412 118.227 77.9924 118.221C77.9839 118.264 77.9756 118.307 77.9674 118.35ZM94.9797 126.196L105.164 124.101C108.468 124.304 111.351 124.675 113.227 125.315C121.031 127.979 120.878 136.65 120.878 136.65C120.878 136.65 115.463 131.383 111.671 128.916C109.764 127.675 102.204 126.839 94.9797 126.196Z" fill="#F36331" style="mix-blend-mode:hard-light"/>
</g>
<defs>
<clipPath id="clip0">
<rect x="49.1367" y="320.431" width="19" height="19" fill="white"/>
</clipPath>
<clipPath id="clip1">
<rect x="49.1367" y="385.431" width="19" height="19" fill="white"/>
</clipPath>
<clipPath id="clip2">
<rect x="49.1367" y="450.431" width="19" height="19" fill="white"/>
</clipPath>
<clipPath id="clip3">
<rect x="49.1367" y="255.431" width="19" height="19" fill="white"/>
</clipPath>
</defs>
</svg>
