<?xml version="1.0"?>
<svg xmlns="http://www.w3.org/2000/svg" xmlns:xlink="http://www.w3.org/1999/xlink" xmlns:svgjs="http://svgjs.com/svgjs" version="1.1" width="512" height="512" x="0" y="0" viewBox="0 0 74 74" style="enable-background:new 0 0 512 512" xml:space="preserve"><g><path xmlns="http://www.w3.org/2000/svg" d="m37 65.01a28 28 0 1 1 28-28 27.72 27.72 0 0 1 -2.779 12.176 1 1 0 0 1 -1.8-.872 25.708 25.708 0 0 0 2.579-11.304 26 26 0 1 0 -26 26 25.66 25.66 0 0 0 11.987-2.927 1 1 0 0 1 .926 1.774 27.652 27.652 0 0 1 -12.913 3.153z" fill="#46f7ad" data-original="#000000" style=""/><path xmlns="http://www.w3.org/2000/svg" d="m55.2 57.94a1 1 0 0 1 -.665-1.747 20.213 20.213 0 0 0 1.953-1.993 1 1 0 0 1 1.524 1.3 22.556 22.556 0 0 1 -2.147 2.188 1 1 0 0 1 -.665.252z" fill="#46f7ad" data-original="#000000" style=""/><path xmlns="http://www.w3.org/2000/svg" d="m37 55.01a18 18 0 1 1 18-18 18.02 18.02 0 0 1 -18 18zm0-34a16 16 0 1 0 16 16 16.019 16.019 0 0 0 -16-16z" fill="#46f7ad" data-original="#000000" style=""/><path xmlns="http://www.w3.org/2000/svg" d="m37 72.01a1 1 0 0 1 -1-1v-68a1 1 0 1 1 2 0v68a1 1 0 0 1 -1 1z" fill="#46f7ad" data-original="#000000" style=""/><path xmlns="http://www.w3.org/2000/svg" d="m71 38.01h-68a1 1 0 0 1 0-2h68a1 1 0 0 1 0 2z" fill="#46f7ad" data-original="#000000" style=""/></g></svg>
