<?xml version="1.0"?>
<svg xmlns="http://www.w3.org/2000/svg" xmlns:xlink="http://www.w3.org/1999/xlink" xmlns:svgjs="http://svgjs.com/svgjs" version="1.1" width="512" height="512" x="0" y="0" viewBox="0 0 496 496" style="enable-background:new 0 0 512 512" xml:space="preserve"><g>
<g xmlns="http://www.w3.org/2000/svg">
	<g>
		<path d="M248,0C111.256,0,0,111.248,0,248s111.256,248,248,248s248-111.248,248-248S384.744,0,248,0z M256,16.208    C377.568,20.352,475.648,118.432,479.8,240h-24.168c-0.88-22.976-5.312-45.504-13.632-67.016l-2.056-5.312L432,168    c-26.472,0-48-21.528-48-48c0-6.488,1.272-12.784,3.784-18.712l2.24-5.296l-4.312-3.816C349.688,60.312,303.88,42.208,256,40.368    V16.208z M370.992,100.616C369,106.856,368,113.36,368,120c0,34.28,27.096,62.352,60.992,63.928    c2.728,7.696,4.784,15.552,6.504,23.48l-65.16-7.76C356.776,161.912,320.368,136,280,136h-64    c-40.368,0-76.776,25.912-90.336,63.648l-65.16,7.76c1.72-7.928,3.776-15.784,6.504-23.48C100.904,182.352,128,154.28,128,120    c0-6.64-1-13.144-2.992-19.384C159.496,71.808,202.96,56,248,56S336.504,71.808,370.992,100.616z M240,16.2v24.16    c-47.88,1.848-93.688,19.944-129.712,51.816l-4.312,3.816l2.24,5.296C110.728,107.216,112,113.512,112,120    c0,26.472-21.528,48-48,48l-7.944-0.328L54,172.984c-8.32,21.512-12.752,44.04-13.632,67.016H16.2    C20.352,118.432,118.432,20.352,240,16.2z M240,479.8C118.432,475.648,20.352,377.568,16.2,256h24    c4.128,108.336,91.464,195.672,199.8,199.8V479.8z M60.352,288.568l77.928,9.192c13.768,22.88,34.472,40.992,59,51.632    l10.152,86.256C134.072,419.8,76.2,361.928,60.352,288.568z M223.872,438.432l-11.816-100.36l-4.48-1.744    c-24.32-9.472-44.704-27.2-57.4-49.944l-1.992-3.568l-90.616-10.688C56.576,264.216,56,256.176,56,248    c0-8.12,0.68-16.16,1.688-24.144l80.152-9.544l1.496-5.04C149.36,175.544,180.88,152,216,152h64    c35.12,0,66.64,23.544,76.664,57.272l1.496,5.04l80.152,9.544C439.32,231.84,440,239.88,440,248    c0,8.144-0.688,16.176-1.688,24.144l-90.488,10.672l-1.992,3.568c-12.696,22.744-33.08,40.48-57.4,49.944l-4.488,1.744    L272.136,438.36C264.184,439.352,256.144,440,248,440C239.824,440,231.784,439.424,223.872,438.432z M256,479.8v-24.12    c42.488-1.592,82.744-15.672,116.824-41.288l-9.608-12.8c-22.416,16.848-47.752,28.224-74.64,33.992l10.144-86.2    c24.528-10.64,45.232-28.752,59-51.632l77.84-9.176c-7.44,34.624-24.232,66.632-49.32,92.656l11.512,11.112    C433.448,355.32,453.864,307.168,455.8,256h23.992C475.648,377.568,377.568,475.648,256,479.8z" fill="#46f7ad" data-original="#000000" style=""/>
	</g>
</g>
<g xmlns="http://www.w3.org/2000/svg">
	<g>
		<path d="M280,168h-64c-35.288,0-64,28.712-64,64c0,52.936,43.064,96,96,96c52.936,0,96-43.064,96-96    C344,196.712,315.288,168,280,168z M248,312c-44.112,0-80-35.888-80-80c0-26.472,21.528-48,48-48h64c26.472,0,48,21.528,48,48    C328,276.112,292.112,312,248,312z" fill="#46f7ad" data-original="#000000" style=""/>
	</g>
</g>
<g xmlns="http://www.w3.org/2000/svg">
	<g>
		<path d="M248,208c-22.056,0-40,17.944-40,40c0,22.056,17.944,40,40,40c22.056,0,40-17.944,40-40C288,225.944,270.056,208,248,208z     M248,272c-13.232,0-24-10.768-24-24s10.768-24,24-24s24,10.768,24,24S261.232,272,248,272z" fill="#46f7ad" data-original="#000000" style=""/>
	</g>
</g>
<g xmlns="http://www.w3.org/2000/svg">
</g>
<g xmlns="http://www.w3.org/2000/svg">
</g>
<g xmlns="http://www.w3.org/2000/svg">
</g>
<g xmlns="http://www.w3.org/2000/svg">
</g>
<g xmlns="http://www.w3.org/2000/svg">
</g>
<g xmlns="http://www.w3.org/2000/svg">
</g>
<g xmlns="http://www.w3.org/2000/svg">
</g>
<g xmlns="http://www.w3.org/2000/svg">
</g>
<g xmlns="http://www.w3.org/2000/svg">
</g>
<g xmlns="http://www.w3.org/2000/svg">
</g>
<g xmlns="http://www.w3.org/2000/svg">
</g>
<g xmlns="http://www.w3.org/2000/svg">
</g>
<g xmlns="http://www.w3.org/2000/svg">
</g>
<g xmlns="http://www.w3.org/2000/svg">
</g>
<g xmlns="http://www.w3.org/2000/svg">
</g>
</g></svg>
