<?xml version="1.0"?>
<svg xmlns="http://www.w3.org/2000/svg" xmlns:xlink="http://www.w3.org/1999/xlink" xmlns:svgjs="http://svgjs.com/svgjs" version="1.1" width="512" height="512" x="0" y="0" viewBox="0 0 74 74" style="enable-background:new 0 0 512 512" xml:space="preserve"><g><path xmlns="http://www.w3.org/2000/svg" d="m49.059 22.75a1 1 0 0 1 -.815-1.579 28.7 28.7 0 0 0 1.6-2.511 1 1 0 1 1 1.744.98 31.136 31.136 0 0 1 -1.717 2.689 1 1 0 0 1 -.812.421z" fill="#002b44" data-original="#000000" style=""/><path xmlns="http://www.w3.org/2000/svg" d="m37 72.01a1 1 0 0 1 -1-1v-36.56a1 1 0 0 1 .369-.776 81.782 81.782 0 0 0 6.984-6.57 1 1 0 1 1 1.455 1.372 84.474 84.474 0 0 1 -6.808 6.444v36.09a1 1 0 0 1 -1 1z" fill="#002b44" data-original="#000000" style=""/><path xmlns="http://www.w3.org/2000/svg" d="m37 35.45a.994.994 0 0 1 -.63-.224c-.665-.54-16.27-13.34-16.27-22.866a10.349 10.349 0 0 1 16.9-8.013 10.349 10.349 0 0 1 16.9 8.013v.1a1 1 0 0 1 -2 0v-.1a8.348 8.348 0 0 0 -14.2-5.96 1 1 0 0 1 -1.4 0 8.348 8.348 0 0 0 -14.2 5.96c0 8.585 15.376 21.188 15.531 21.314a1 1 0 0 1 -.631 1.776z" fill="#002b44" data-original="#000000" style=""/><path xmlns="http://www.w3.org/2000/svg" d="m41.052 57.633a13.358 13.358 0 0 1 -4.38-.758 1 1 0 0 1 -.651-1.15 12.14 12.14 0 0 1 16.25-9.2 1 1 0 0 1 .65 1.15 12.367 12.367 0 0 1 -5.967 8.412 11.906 11.906 0 0 1 -5.902 1.546zm-2.852-2.381a10.064 10.064 0 0 0 12.546-7.1 10.064 10.064 0 0 0 -12.546 7.1z" fill="#002b44" data-original="#000000" style=""/><path xmlns="http://www.w3.org/2000/svg" d="m32.948 50.566a11.912 11.912 0 0 1 -5.9-1.545 12.371 12.371 0 0 1 -5.966-8.412 1 1 0 0 1 .651-1.15 12.141 12.141 0 0 1 16.25 9.2 1 1 0 0 1 -.651 1.15 13.357 13.357 0 0 1 -4.384.757zm-9.693-9.483a10.066 10.066 0 0 0 12.547 7.1 10.065 10.065 0 0 0 -12.547-7.1z" fill="#002b44" data-original="#000000" style=""/></g></svg>
