<?xml version="1.0"?>
<svg xmlns="http://www.w3.org/2000/svg" xmlns:xlink="http://www.w3.org/1999/xlink" xmlns:svgjs="http://svgjs.com/svgjs" version="1.1" width="512" height="512" x="0" y="0" viewBox="0 0 60 60" style="enable-background:new 0 0 512 512" xml:space="preserve" class=""><g><g xmlns="http://www.w3.org/2000/svg" id="Page-1" fill="none" fill-rule="evenodd"><g id="048---Creative-Learning" fill="rgb(0,0,0)" fill-rule="nonzero" transform="translate(0 -1)"><path id="Shape" d="m47 32c0 .5522847.4477153 1 1 1h4c.5522847 0 1-.4477153 1-1s-.4477153-1-1-1h-4c-.5522847 0-1 .4477153-1 1z" fill="#002b44" data-original="#000000" style="" class=""/><path id="Shape" d="m7 32c0 .5522847.44771525 1 1 1h4c.5522847 0 1-.4477153 1-1s-.4477153-1-1-1h-4c-.55228475 0-1 .4477153-1 1z" fill="#002b44" data-original="#000000" style="" class=""/><path id="Shape" d="m13.424 35.771c-.1262477-.5366639-.6630237-.8699124-1.2-.745l-3.9.916c-.49523084.115186-.82519116.5836477-.76685226 1.0887398.0583389.505092.4864028.8860008.99485226.8852602.07705237-.0003019.15384118-.0090203.229-.026l3.9-.916c.5373082-.1271154.8699161-.6656447.743-1.203z" fill="#002b44" data-original="#000000" style="" class=""/><path id="Shape" d="m13.334 39.021-3.605 1.788c-.47648632.2547751-.66441661.8419751-.42439965 1.3260633.24001695.4840883.82116645.6899689 1.31239965.4649367l3.606-1.788c.4813709-.2525014.6728847-.8432802.4312048-1.3301742-.24168-.486894-.828031-.6915635-1.3202048-.4608258z" fill="#002b44" data-original="#000000" style="" class=""/><path id="Shape" d="m12.016 46.635c.3505166.4264677.9803033.4882379 1.407.138l3.129-2.568c.4271923-.3507008.4892008-.9813077.1385-1.4085s-.9813077-.4892008-1.4085-.1385l-3.129 2.569c-.2049511.1684978-.3345386.4115378-.3602335.675614s.0546093.5275389.2232335.732386z" fill="#002b44" data-original="#000000" style="" class=""/><path id="Shape" d="m12.679 27.026-3.9-.916c-.53792535-.1261971-1.07630293.2075747-1.2025.7455s.20757465 1.0763029.7455 1.2025l3.9.916c.0751588.0169797.1519476.0256981.229.026.5084495.0007406.9365134-.3801682.9948523-.8852602.0583389-.5050921-.2716215-.9735538-.7668523-1.0887398z" fill="#002b44" data-original="#000000" style="" class=""/><path id="Shape" d="m47.238 36.974 3.9.916c.0751588.0169797.1519476.0256981.229.026.5084495.0007406.9365134-.3801682.9948523-.8852602.0583389-.5050921-.2716215-.9735538-.7668523-1.0887398l-3.9-.916c-.5379253-.1261971-1.0763029.2075747-1.2025.7455s.2075747 1.0763029.7455 1.2025z" fill="#002b44" data-original="#000000" style="" class=""/><path id="Shape" d="m45.243 39.473c-.2446667.4943319-.0428811 1.0934247.451 1.339l3.606 1.788c.1379106.0672452.2895756.101481.443.1.4678561.0043033.8761551-.3163699.9828493-.7719182s-.1167412-.9241803-.5378493-1.1280818l-3.605-1.788c-.2387391-.1171203-.5142951-.1343284-.7657505-.0478203-.2514554.0865082-.4580996.2696076-.5742495.5088203z" fill="#002b44" data-original="#000000" style="" class=""/><path id="Shape" d="m43.227 42.8c-.1685092.2049725-.2486448.4685142-.2227618.732596.025883.2640817.1556623.5070494.3607618.675404l3.13 2.568c.2761663.2268636.6523848.2891613.9869376.1634261.3345529-.1257352.5766135-.4204011.635-.773.0583866-.3525988-.0757713-.7095625-.3519376-.9364261l-3.13-2.569c-.2050979-.1683944-.4687187-.2483615-.732806-.2222904-.2640874.0260711-.5069827.1560423-.675194.3612904z" fill="#002b44" data-original="#000000" style="" class=""/><path id="Shape" d="m51.139 26.11-3.9.916c-.4950429.1151445-.8249698.5833122-.7669054 1.0882422.0580644.5049299.4856479.8859878.9939054.8857578.0770524-.0003019.1538412-.0090203.229-.026l3.9-.916c.5379253-.1261971.8716971-.6645747.7455-1.2025s-.6645747-.8716971-1.2025-.7455z" fill="#002b44" data-original="#000000" style="" class=""/><path id="Shape" d="m58.669 11.118-27.993-10.004c-.4411171-.15497811-.9218829-.15497811-1.363 0l-27.984 10c-.79384095.2854846-1.32318688 1.0383858-1.32318688 1.882s.52934593 1.5965154 1.32318688 1.882l12.671 4.527v4.595c0 1.079.971 1.9 3 2.544-3.8158941 6.6192936-2.0314816 15.0503088 4.139 19.556 1.4600709 1.0991727 2.441196 2.7180291 2.74 4.521.1062687.5703011.3855951 1.0940381.8 1.5-.6207683.7498711-.8338972 1.7566911-.570234 2.6937832s.9705249 1.6850607 1.891234 2.0012168v.184c0 2.209139 1.790861 4 4 4s4-1.790861 4-4v-.184c.9219874-.3162668 1.6296394-1.0654845 1.8928243-2.0040042.2631848-.9385197.0482808-1.9464456-.5748243-2.6959958.4144049-.4059619.6937313-.9296989.8-1.5.298804-1.8029709 1.2799291-3.4218273 2.74-4.521 6.1695655-4.503822 7.9551843-12.9322708 4.142-19.551 2.027-.646 3-1.465 3-2.544v-4.594l2-.712v2.306c0 1.1045695.8954305 2 2 2h2c1.1045695 0 2-.8954305 2-2v-3c-.0031192-.4629326-.1144137-.9187262-.325-1.331l5-1.787c.793841-.2854846 1.3231869-1.0383858 1.3231869-1.882s-.5293459-1.5965154-1.3231869-1.882zm-14.669 10.736c-4-1.786-12.744-1.854-14-1.854-2.037 0-4 .079-5.822.233-2.7914489.1094473-5.5495619.6467026-8.178 1.593v-6.719c.642-.74 5.373-2.107 14-2.107s13.358 1.367 14 2.107zm-27.865 2.146c1.2229689-.6521856 2.5573364-1.0693874 3.934-1.23-.6986259.6195856-1.3380518 1.3028674-1.91 2.041-.7152731-.155242-1.3994347-.4293799-2.024-.811zm13.865 35c-1.1045695 0-2-.8954305-2-2h4c0 1.1045695-.8954305 2-2 2zm3-4h-6c-.5522847 0-1-.4477153-1-1s.4477153-1 1-1h6c.5522847 0 1 .4477153 1 1s-.4477153 1-1 1zm4.678-10.516c-1.8741047 1.401385-3.1367621 3.4704814-3.526 5.778-.10539.4445084-.5094209.753178-.966.738h-6.372c-.4565791.015178-.86061-.2934916-.966-.738-.3892379-2.3075186-1.6518953-4.376615-3.526-5.778-3.7108137-2.7139315-5.7107292-7.1871508-5.2587285-11.76222.4520008-4.5750691 3.2885851-8.5704593 7.4587285-10.50578 1.723-.141 3.561-.216 5.478-.216 2.03 0 3.843.076 5.439.2 4.1835554 1.9238512 7.0355883 5.9191551 7.4959521 10.5007929.4603639 4.5816378-1.5397824 9.0644895-5.2569521 11.7822071zm4.162-19.676c-.5729813-.7385018-1.2134059-1.4221124-1.913-2.042 1.3792894.1630643 2.7168515.5782983 3.946 1.225-.6261674.3861766-1.3137336.6624882-2.033.817zm6.629-8.4-2.469.875v-2.283c0-3.888-14.362-4-16-4s-16 .112-16 4v2.282l-11.995-4.282 28.008-10 19.987 7.142v5.042c-.6318023.222999-1.1707719.6510767-1.531 1.216zm3.531 4.592h-2v-3c0-.5522847.4477153-1 1-1s1 .4477153 1 1zm0-5.856v-4.287l6 2.143z" fill="#002b44" data-original="#000000" style="" class=""/><path id="Shape" d="m23.406 25.2c-2.7820134 2.0678648-4.4171358 5.3336562-4.406 8.8 0 .5522847.4477153 1 1 1s1-.4477153 1-1c-.0091599-2.8365972 1.329594-5.5089088 3.607-7.2.2858125-.2143593.4355548-.5649147.3928204-.9196153-.0427345-.3547005-.2714532-.6596588-.6000001-.8s-.7070078-.0947441-.9928203.1196153z" fill="#002b44" data-original="#000000" style="" class=""/></g></g></g></svg>
