<svg width="262" height="45" viewBox="0 0 262 45" fill="none" xmlns="http://www.w3.org/2000/svg">
<path fill-rule="evenodd" clip-rule="evenodd" d="M47.4746 5.3561H59.559V6.90342H49.2886V13.7863H58.4119V15.3336H49.2886V24.4041H47.4746V5.3561ZM61.6479 5.3561H63.3285V13.2528H63.3819C63.5597 12.7548 63.8132 12.319 64.1422 11.9455C64.4712 11.5721 64.8491 11.2564 65.2759 10.9985C65.7027 10.7406 66.1651 10.5494 66.6631 10.4249C67.161 10.3004 67.659 10.2382 68.157 10.2382C69.2062 10.2382 70.1177 10.4338 70.8913 10.8251C71.6649 11.2164 72.3096 11.7455 72.8253 12.4124C73.3411 13.0794 73.7234 13.853 73.9724 14.7334C74.2214 15.6138 74.3459 16.543 74.3459 17.5212C74.3459 18.4994 74.2214 19.4287 73.9724 20.3091C73.7234 21.1895 73.3411 21.9631 72.8253 22.6301C72.3096 23.297 71.6649 23.8217 70.8913 24.2041C70.1177 24.5864 69.2062 24.7776 68.157 24.7776C67.0365 24.7776 66.0362 24.5198 65.1559 24.004C64.2755 23.4882 63.6398 22.7501 63.2485 21.7897H63.1951V24.4041H61.6479V5.3561ZM72.6653 17.5209C72.6653 16.8095 72.5809 16.1025 72.4119 15.4C72.243 14.6975 71.9762 14.0705 71.6116 13.5192C71.247 12.9679 70.7802 12.5188 70.2111 12.172C69.642 11.8251 68.9573 11.6517 68.157 11.6517C67.2678 11.6517 66.5164 11.8251 65.9029 12.172C65.2893 12.5188 64.7914 12.9679 64.409 13.5192C64.0266 14.0705 63.751 14.6975 63.582 15.4C63.4131 16.1025 63.3286 16.8095 63.3286 17.5209C63.3286 18.2323 63.4131 18.9393 63.582 19.6418C63.751 20.3443 64.0266 20.9712 64.409 21.5226C64.7914 22.0739 65.2893 22.523 65.9029 22.8698C66.5164 23.2166 67.2678 23.39 68.157 23.39C68.9573 23.39 69.642 23.2166 70.2111 22.8698C70.7802 22.523 71.247 22.0739 71.6116 21.5226C71.9762 20.9712 72.243 20.3443 72.4119 19.6418C72.5809 18.9393 72.6653 18.2323 72.6653 17.5209ZM78.302 18.135C78.2842 19.1131 78.4354 19.9313 78.7555 20.5893C79.0756 21.2474 79.5158 21.772 80.076 22.1633C80.6362 22.5546 81.2987 22.8347 82.0634 23.0037C82.8281 23.1726 83.6462 23.2571 84.5176 23.2571C85.0156 23.2571 85.558 23.186 86.1449 23.0437C86.7318 22.9014 87.2786 22.6746 87.7855 22.3634C88.2923 22.0522 88.7147 21.652 89.0526 21.1629C89.3905 20.6738 89.5594 20.0824 89.5594 19.3888C89.5594 18.8553 89.4394 18.3928 89.1993 18.0016C88.9592 17.6103 88.648 17.2813 88.2656 17.0145C87.8833 16.7477 87.4609 16.5298 86.9985 16.3609C86.5361 16.1919 86.0826 16.0541 85.638 15.9474L81.3965 14.9069C80.8452 14.7646 80.3072 14.5868 79.7826 14.3734C79.2579 14.1599 78.8 13.8754 78.4087 13.5197C78.0175 13.164 77.7018 12.7282 77.4617 12.2125C77.2216 11.6967 77.1016 11.0653 77.1016 10.3183C77.1016 9.8559 77.1905 9.31345 77.3683 8.69096C77.5462 8.06848 77.8796 7.48157 78.3687 6.93022C78.8578 6.37887 79.5291 5.91202 80.3828 5.52963C81.2364 5.14724 82.3301 4.95605 83.664 4.95605C84.6065 4.95605 85.5046 5.08055 86.3583 5.32955C87.2119 5.57854 87.9589 5.95203 88.5991 6.45002C89.2393 6.94801 89.7506 7.56604 90.133 8.30413C90.5154 9.04223 90.7065 9.90036 90.7065 10.8786H88.8925C88.857 10.1494 88.6925 9.51354 88.399 8.97108C88.1056 8.42863 87.7232 7.97511 87.2519 7.61051C86.7807 7.24591 86.2382 6.97024 85.6247 6.78349C85.0111 6.59675 84.3664 6.50337 83.6906 6.50337C83.0682 6.50337 82.468 6.57007 81.89 6.70346C81.312 6.83685 80.8051 7.05027 80.3694 7.34373C79.9337 7.63719 79.5825 8.02401 79.3157 8.50422C79.0489 8.98442 78.9156 9.58023 78.9156 10.2916C78.9156 10.7363 78.9911 11.1231 79.1423 11.4521C79.2935 11.7812 79.5024 12.0613 79.7692 12.2925C80.036 12.5237 80.3428 12.7104 80.6895 12.8527C81.0363 12.995 81.4054 13.1106 81.7966 13.1995L86.4383 14.3467C87.1141 14.5245 87.7499 14.7424 88.3457 15.0003C88.9414 15.2582 89.4661 15.5783 89.9196 15.9607C90.3731 16.3431 90.7288 16.8099 90.9866 17.3613C91.2445 17.9126 91.3734 18.5796 91.3734 19.3621C91.3734 19.5756 91.3512 19.8601 91.3068 20.2158C91.2623 20.5715 91.1556 20.9495 90.9866 21.3496C90.8177 21.7498 90.5776 22.1544 90.2664 22.5635C89.9551 22.9726 89.5283 23.3416 88.9859 23.6706C88.4435 23.9997 87.7721 24.2664 86.9718 24.471C86.1715 24.6755 85.2112 24.7778 84.0908 24.7778C82.9704 24.7778 81.93 24.6488 80.9697 24.3909C80.0093 24.133 79.1912 23.7373 78.5154 23.2038C77.8396 22.6702 77.3194 21.9855 76.9549 21.1496C76.5903 20.3136 76.4347 19.3088 76.488 18.135H78.302ZM96.7698 10.6383H99.5709V12.0522H96.7698V21.3361C96.7698 21.8875 96.8454 22.3188 96.9966 22.63C97.1478 22.9413 97.5257 23.1147 98.1303 23.1502C98.6105 23.1502 99.0907 23.1236 99.5709 23.0702V24.4841C99.3219 24.4841 99.0729 24.493 98.8239 24.5108C98.5749 24.5286 98.326 24.5375 98.077 24.5375C96.9566 24.5375 96.1741 24.3196 95.7295 23.8839C95.2849 23.4481 95.0714 22.6434 95.0892 21.4695V12.0522H92.6884V10.6383H95.0892V6.50322H96.7698V10.6383ZM102.007 14.8531C102.06 14.0527 102.229 13.3591 102.514 12.7722C102.798 12.1853 103.185 11.7051 103.674 11.3316C104.163 10.9581 104.737 10.6824 105.395 10.5046C106.053 10.3267 106.782 10.2378 107.582 10.2378C108.187 10.2378 108.791 10.2956 109.396 10.4112C110.001 10.5268 110.543 10.7447 111.023 11.0648C111.504 11.3849 111.895 11.834 112.197 12.412C112.5 12.9901 112.651 13.7415 112.651 14.6663V21.9761C112.651 22.6519 112.98 22.9898 113.638 22.9898C113.833 22.9898 114.011 22.9543 114.171 22.8831V24.2971C113.976 24.3326 113.802 24.3593 113.651 24.3771C113.5 24.3949 113.309 24.4038 113.078 24.4038C112.651 24.4038 112.308 24.346 112.05 24.2304C111.793 24.1148 111.593 23.9503 111.45 23.7368C111.308 23.5234 111.215 23.27 111.17 22.9765C111.126 22.683 111.103 22.3585 111.103 22.0028H111.05C110.748 22.4474 110.441 22.8431 110.13 23.1899C109.819 23.5367 109.472 23.8258 109.089 24.057C108.707 24.2882 108.271 24.466 107.782 24.5905C107.293 24.715 106.711 24.7773 106.035 24.7773C105.395 24.7773 104.794 24.7017 104.234 24.5505C103.674 24.3993 103.185 24.1592 102.767 23.8302C102.349 23.5012 102.02 23.0832 101.78 22.5763C101.54 22.0695 101.42 21.4692 101.42 20.7756C101.42 19.8152 101.633 19.0637 102.06 18.5213C102.487 17.9788 103.052 17.5653 103.754 17.2808C104.457 16.9962 105.248 16.7961 106.128 16.6805C107.009 16.5649 107.902 16.4538 108.809 16.347C109.165 16.3115 109.476 16.267 109.743 16.2137C110.01 16.1603 110.232 16.0669 110.41 15.9335C110.588 15.8001 110.726 15.6178 110.823 15.3866C110.921 15.1554 110.97 14.8531 110.97 14.4796C110.97 13.9105 110.877 13.4436 110.69 13.079C110.503 12.7144 110.245 12.4254 109.916 12.212C109.587 11.9985 109.205 11.8518 108.769 11.7718C108.334 11.6917 107.867 11.6517 107.369 11.6517C106.302 11.6517 105.43 11.9052 104.754 12.412C104.079 12.9189 103.723 13.7326 103.687 14.8531H102.007ZM110.97 16.8808H110.916C110.81 17.0764 110.605 17.2187 110.303 17.3076C110.001 17.3965 109.734 17.4588 109.503 17.4944C108.791 17.6188 108.058 17.73 107.302 17.8278C106.546 17.9256 105.857 18.0724 105.234 18.268C104.612 18.4637 104.101 18.7438 103.701 19.1084C103.3 19.473 103.1 19.9932 103.1 20.669C103.1 21.0959 103.185 21.4738 103.354 21.8028C103.523 22.1319 103.749 22.4164 104.034 22.6565C104.319 22.8966 104.648 23.0789 105.021 23.2034C105.394 23.3279 105.777 23.3902 106.168 23.3902C106.808 23.3902 107.422 23.2924 108.009 23.0967C108.596 22.9011 109.107 22.6165 109.543 22.243C109.978 21.8695 110.325 21.416 110.583 20.8825C110.841 20.3489 110.97 19.7442 110.97 19.0683V16.8808ZM116.18 10.6382H117.727V13.8662H117.78C118.207 12.7457 118.869 11.8831 119.767 11.2784C120.666 10.6737 121.737 10.3981 122.982 10.4514V12.1321C122.217 12.0965 121.524 12.1988 120.901 12.4389C120.279 12.679 119.741 13.0214 119.287 13.466C118.834 13.9106 118.483 14.4398 118.234 15.0534C117.985 15.6669 117.86 16.3383 117.86 17.0675V24.404H116.18V10.6382ZM127.419 10.638H130.22V12.0519H127.419V21.3359C127.419 21.8872 127.494 22.3185 127.646 22.6297C127.797 22.941 128.175 23.1144 128.779 23.15C129.26 23.15 129.74 23.1233 130.22 23.0699V24.4839C129.971 24.4839 129.722 24.4927 129.473 24.5105C129.224 24.5283 128.975 24.5372 128.726 24.5372C127.606 24.5372 126.823 24.3193 126.379 23.8836C125.934 23.4479 125.72 22.6431 125.738 21.4692V12.0519H123.337V10.638H125.738V6.50293H127.419V10.638Z" fill="#233D93"/>
<path fill-rule="evenodd" clip-rule="evenodd" d="M139.23 17.1437H146.726L143.045 7.37953L139.23 17.1437ZM142.112 5.56543H144.139L151.608 24.6135H149.661L147.34 18.691H138.67L136.376 24.6135H134.456L142.112 5.56543ZM162.333 15.1696C162.102 14.138 161.675 13.3288 161.052 12.7419C160.43 12.155 159.558 11.8615 158.438 11.8615C157.638 11.8615 156.935 12.0305 156.331 12.3684C155.726 12.7063 155.224 13.1509 154.823 13.7023C154.423 14.2536 154.121 14.8806 153.916 15.5831C153.712 16.2856 153.61 17.0015 153.61 17.7307C153.61 18.4599 153.712 19.1757 153.916 19.8782C154.121 20.5808 154.423 21.2077 154.823 21.759C155.224 22.3104 155.726 22.755 156.331 23.0929C156.935 23.4308 157.638 23.5998 158.438 23.5998C158.954 23.5998 159.443 23.502 159.905 23.3063C160.368 23.1107 160.777 22.8395 161.132 22.4927C161.488 22.1459 161.781 21.7323 162.013 21.2521C162.244 20.7719 162.386 20.2473 162.44 19.6781H164.12C163.889 21.35 163.275 22.6527 162.279 23.5865C161.284 24.5202 160.003 24.9871 158.438 24.9871C157.389 24.9871 156.46 24.7959 155.65 24.4135C154.841 24.0311 154.161 23.5109 153.61 22.8528C153.058 22.1948 152.64 21.4256 152.356 20.5452C152.071 19.6648 151.929 18.7266 151.929 17.7307C151.929 16.7347 152.071 15.7965 152.356 14.9161C152.64 14.0358 153.058 13.2666 153.61 12.6085C154.161 11.9504 154.841 11.4258 155.65 11.0345C156.46 10.6432 157.389 10.4476 158.438 10.4476C159.914 10.4476 161.163 10.8389 162.186 11.6214C163.209 12.404 163.818 13.5867 164.013 15.1696H162.333ZM175.779 15.1698C175.547 14.1383 175.121 13.329 174.498 12.7421C173.876 12.1552 173.004 11.8618 171.884 11.8618C171.084 11.8618 170.381 12.0307 169.776 12.3686C169.172 12.7066 168.669 13.1512 168.269 13.7025C167.869 14.2539 167.567 14.8808 167.362 15.5833C167.158 16.2858 167.055 17.0017 167.055 17.7309C167.055 18.4601 167.158 19.176 167.362 19.8785C167.567 20.581 167.869 21.2079 168.269 21.7593C168.669 22.3106 169.172 22.7552 169.776 23.0932C170.381 23.4311 171.084 23.6 171.884 23.6C172.4 23.6 172.889 23.5022 173.351 23.3066C173.813 23.1109 174.223 22.8397 174.578 22.4929C174.934 22.1461 175.227 21.7326 175.459 21.2524C175.69 20.7722 175.832 20.2475 175.885 19.6784H177.566C177.335 21.3502 176.721 22.653 175.725 23.5867C174.729 24.5204 173.449 24.9873 171.884 24.9873C170.835 24.9873 169.905 24.7961 169.096 24.4137C168.287 24.0313 167.607 23.5111 167.055 22.8531C166.504 22.195 166.086 21.4258 165.802 20.5454C165.517 19.665 165.375 18.7269 165.375 17.7309C165.375 16.7349 165.517 15.7968 165.802 14.9164C166.086 14.036 166.504 13.2668 167.055 12.6087C167.607 11.9507 168.287 11.426 169.096 11.0347C169.905 10.6435 170.835 10.4478 171.884 10.4478C173.36 10.4478 174.609 10.8391 175.632 11.6217C176.655 12.4042 177.264 13.5869 177.459 15.1698H175.779ZM189.412 16.77C189.394 16.1297 189.283 15.5161 189.079 14.9292C188.874 14.3423 188.585 13.8221 188.212 13.3685C187.838 12.915 187.385 12.5504 186.851 12.2747C186.318 11.9991 185.713 11.8612 185.037 11.8612C184.343 11.8612 183.73 11.9991 183.196 12.2747C182.663 12.5504 182.209 12.915 181.836 13.3685C181.462 13.8221 181.165 14.3467 180.942 14.9425C180.72 15.5383 180.573 16.1475 180.502 16.77H189.412ZM180.502 18.1842C180.502 18.7889 180.586 19.4158 180.755 20.065C180.924 20.7141 181.196 21.2966 181.569 21.8124C181.943 22.3282 182.414 22.755 182.983 23.0929C183.552 23.4308 184.237 23.5998 185.037 23.5998C186.264 23.5998 187.224 23.2797 187.918 22.6394C188.612 21.9991 189.092 21.1454 189.359 20.0783H191.039C190.684 21.6434 190.03 22.8528 189.078 23.7065C188.127 24.5602 186.78 24.9871 185.037 24.9871C183.952 24.9871 183.014 24.7959 182.223 24.4135C181.431 24.0311 180.787 23.5064 180.289 22.8395C179.791 22.1725 179.422 21.3989 179.182 20.5185C178.941 19.6381 178.821 18.7089 178.821 17.7307C178.821 16.8236 178.941 15.9343 179.182 15.0629C179.422 14.1914 179.791 13.4133 180.289 12.7285C180.787 12.0438 181.431 11.4925 182.223 11.0745C183.014 10.6566 183.952 10.4476 185.037 10.4476C186.14 10.4476 187.082 10.6699 187.865 11.1145C188.647 11.5592 189.283 12.1416 189.772 12.8619C190.261 13.5822 190.612 14.4093 190.826 15.343C191.039 16.2767 191.128 17.2238 191.093 18.1842H180.502ZM192.987 5.5656H194.668V24.6136H192.987V5.5656ZM207.393 16.77C207.376 16.1297 207.265 15.5161 207.06 14.9292C206.856 14.3423 206.567 13.8221 206.193 13.3685C205.82 12.915 205.366 12.5504 204.833 12.2747C204.299 11.9991 203.694 11.8612 203.019 11.8612C202.325 11.8612 201.711 11.9991 201.178 12.2747C200.644 12.5504 200.191 12.915 199.817 13.3685C199.444 13.8221 199.146 14.3467 198.924 14.9425C198.701 15.5383 198.555 16.1475 198.484 16.77H207.393ZM198.484 18.1841C198.484 18.7888 198.568 19.4157 198.737 20.0649C198.906 20.7141 199.177 21.2965 199.551 21.8123C199.924 22.3281 200.396 22.7549 200.965 23.0928C201.534 23.4308 202.219 23.5997 203.019 23.5997C204.246 23.5997 205.206 23.2796 205.9 22.6393C206.593 21.9991 207.074 21.1454 207.34 20.0782H209.021C208.665 21.6434 208.012 22.8527 207.06 23.7064C206.109 24.5601 204.762 24.987 203.019 24.987C201.934 24.987 200.996 24.7958 200.204 24.4134C199.413 24.031 198.768 23.5064 198.27 22.8394C197.772 22.1725 197.403 21.3988 197.163 20.5184C196.923 19.6381 196.803 18.7088 196.803 17.7306C196.803 16.8235 196.923 15.9343 197.163 15.0628C197.403 14.1913 197.772 13.4132 198.27 12.7285C198.768 12.0437 199.413 11.4924 200.204 11.0744C200.996 10.6565 201.934 10.4475 203.019 10.4475C204.121 10.4475 205.064 10.6698 205.847 11.1145C206.629 11.5591 207.265 12.1416 207.754 12.8619C208.243 13.5822 208.594 14.4092 208.808 15.3429C209.021 16.2766 209.11 17.2237 209.074 18.1841H198.484ZM210.943 10.8476H212.49V14.0757H212.543C212.97 12.9552 213.632 12.0926 214.531 11.4879C215.429 10.8832 216.5 10.6075 217.745 10.6609V12.3416C216.98 12.306 216.287 12.4083 215.664 12.6484C215.042 12.8885 214.504 13.2309 214.05 13.6755C213.597 14.1201 213.246 14.6493 212.997 15.2628C212.748 15.8764 212.623 16.5478 212.623 17.277V24.6135H210.943V10.8476ZM218.787 15.0628C218.84 14.2624 219.009 13.5688 219.293 12.9819C219.578 12.395 219.965 11.9148 220.454 11.5413C220.943 11.1678 221.516 10.8921 222.174 10.7143C222.833 10.5364 223.562 10.4475 224.362 10.4475C224.967 10.4475 225.571 10.5053 226.176 10.6209C226.781 10.7365 227.323 10.9544 227.803 11.2745C228.283 11.5947 228.675 12.0437 228.977 12.6218C229.279 13.1998 229.43 13.9512 229.43 14.876V22.1858C229.43 22.8616 229.759 23.1996 230.417 23.1996C230.613 23.1996 230.791 23.164 230.951 23.0928V24.5068C230.755 24.5423 230.582 24.569 230.431 24.5868C230.28 24.6046 230.088 24.6135 229.857 24.6135C229.43 24.6135 229.088 24.5557 228.83 24.4401C228.572 24.3245 228.372 24.16 228.23 23.9465C228.088 23.7331 227.994 23.4797 227.95 23.1862C227.905 22.8928 227.883 22.5682 227.883 22.2125H227.83C227.528 22.6571 227.221 23.0528 226.91 23.3996C226.598 23.7465 226.252 24.0355 225.869 24.2667C225.487 24.4979 225.051 24.6757 224.562 24.8002C224.073 24.9247 223.491 24.987 222.815 24.987C222.174 24.987 221.574 24.9114 221.014 24.7602C220.454 24.609 219.965 24.3689 219.547 24.0399C219.129 23.7109 218.8 23.2929 218.56 22.7861C218.32 22.2792 218.2 21.6789 218.2 20.9853C218.2 20.0249 218.413 19.2735 218.84 18.731C219.267 18.1886 219.831 17.775 220.534 17.4905C221.236 17.2059 222.028 17.0058 222.908 16.8902C223.788 16.7746 224.682 16.6635 225.589 16.5568C225.945 16.5212 226.256 16.4767 226.523 16.4234C226.79 16.37 227.012 16.2766 227.19 16.1432C227.367 16.0099 227.505 15.8276 227.603 15.5963C227.701 15.3651 227.75 15.0628 227.75 14.6893C227.75 14.1202 227.656 13.6533 227.47 13.2887C227.283 12.9241 227.025 12.6351 226.696 12.4217C226.367 12.2083 225.985 12.0615 225.549 11.9815C225.113 11.9015 224.647 11.8614 224.149 11.8614C223.081 11.8614 222.21 12.1149 221.534 12.6218C220.858 13.1286 220.503 13.9423 220.467 15.0628H218.787ZM227.75 17.0903H227.696C227.59 17.2859 227.385 17.4282 227.083 17.5171C226.78 17.606 226.514 17.6683 226.283 17.7038C225.571 17.8283 224.838 17.9395 224.082 18.0373C223.326 18.1351 222.637 18.2819 222.014 18.4775C221.392 18.6731 220.881 18.9533 220.48 19.3179C220.08 19.6825 219.88 20.2027 219.88 20.8785C219.88 21.3054 219.965 21.6833 220.134 22.0123C220.303 22.3414 220.529 22.6259 220.814 22.866C221.098 23.1061 221.427 23.2884 221.801 23.4129C222.174 23.5374 222.557 23.5997 222.948 23.5997C223.588 23.5997 224.202 23.5019 224.789 23.3062C225.376 23.1106 225.887 22.826 226.323 22.4525C226.758 22.079 227.105 21.6255 227.363 21.0919C227.621 20.5584 227.75 19.9537 227.75 19.2778V17.0903ZM235.06 10.848H237.861V12.2619H235.06V21.5458C235.06 22.0972 235.136 22.5285 235.287 22.8397C235.438 23.1509 235.816 23.3243 236.421 23.3599C236.901 23.3599 237.381 23.3332 237.861 23.2799V24.6938C237.612 24.6938 237.363 24.7027 237.114 24.7205C236.865 24.7383 236.616 24.7472 236.367 24.7472C235.247 24.7472 234.464 24.5293 234.02 24.0936C233.575 23.6578 233.362 22.853 233.379 21.6792V12.2619H230.979V10.848H233.379V6.71289H235.06V10.848ZM245.705 11.8612C244.905 11.8612 244.202 12.0302 243.598 12.3681C242.993 12.706 242.491 13.1507 242.09 13.702C241.69 14.2534 241.388 14.8803 241.183 15.5828C240.979 16.2853 240.877 17.0012 240.877 17.7304C240.877 18.4596 240.979 19.1754 241.183 19.878C241.388 20.5805 241.69 21.2074 242.09 21.7588C242.491 22.3101 242.993 22.7547 243.598 23.0926C244.202 23.4306 244.905 23.5995 245.705 23.5995C246.505 23.5995 247.208 23.4306 247.813 23.0926C248.417 22.7547 248.92 22.3101 249.32 21.7588C249.72 21.2074 250.022 20.5805 250.227 19.878C250.431 19.1754 250.534 18.4596 250.534 17.7304C250.534 17.0012 250.431 16.2853 250.227 15.5828C250.022 14.8803 249.72 14.2534 249.32 13.702C248.92 13.1507 248.417 12.706 247.813 12.3681C247.208 12.0302 246.505 11.8612 245.705 11.8612ZM245.705 10.4476C246.754 10.4476 247.684 10.6432 248.493 11.0345C249.302 11.4258 249.982 11.9504 250.534 12.6085C251.085 13.2666 251.503 14.0358 251.787 14.9161C252.072 15.7965 252.214 16.7347 252.214 17.7307C252.214 18.7266 252.072 19.6648 251.787 20.5452C251.503 21.4256 251.085 22.1948 250.534 22.8528C249.982 23.5109 249.302 24.0311 248.493 24.4135C247.684 24.7959 246.754 24.9871 245.705 24.9871C244.656 24.9871 243.727 24.7959 242.917 24.4135C242.108 24.0311 241.428 23.5109 240.877 22.8528C240.325 22.1948 239.907 21.4256 239.623 20.5452C239.338 19.6648 239.196 18.7266 239.196 17.7307C239.196 16.7347 239.338 15.7965 239.623 14.9161C239.907 14.0358 240.325 13.2666 240.877 12.6085C241.428 11.9504 242.108 11.4258 242.917 11.0345C243.727 10.6432 244.656 10.4476 245.705 10.4476ZM254.323 10.8476H255.87V14.0757H255.923C256.35 12.9552 257.013 12.0926 257.911 11.4879C258.809 10.8832 259.88 10.6075 261.125 10.6609V12.3416C260.361 12.306 259.667 12.4083 259.045 12.6484C258.422 12.8885 257.884 13.2309 257.431 13.6755C256.977 14.1201 256.626 14.6493 256.377 15.2628C256.128 15.8764 256.003 16.5478 256.003 17.277V24.6135H254.323V10.8476Z" fill="#00A3E7"/>
<path fill-rule="evenodd" clip-rule="evenodd" d="M176.295 35.2525C176.33 34.7358 176.439 34.2879 176.623 33.909C176.806 33.53 177.056 33.22 177.372 32.9788C177.688 32.7377 178.058 32.5597 178.483 32.4448C178.908 32.33 179.379 32.2726 179.895 32.2726C180.286 32.2726 180.676 32.3099 181.067 32.3846C181.457 32.4592 181.807 32.5999 182.117 32.8066C182.427 33.0133 182.68 33.3032 182.875 33.6764C183.07 34.0497 183.168 34.5348 183.168 35.132V39.8516C183.168 40.288 183.38 40.5062 183.805 40.5062C183.931 40.5062 184.046 40.4832 184.15 40.4373V41.3502C184.023 41.3732 183.911 41.3904 183.814 41.4019C183.716 41.4134 183.593 41.4191 183.443 41.4191C183.168 41.4191 182.947 41.3818 182.78 41.3072C182.614 41.2325 182.485 41.1263 182.393 40.9885C182.301 40.8507 182.241 40.6871 182.212 40.4976C182.183 40.3081 182.169 40.0985 182.169 39.8689H182.134C181.939 40.156 181.741 40.4115 181.54 40.6354C181.339 40.8593 181.115 41.0459 180.868 41.1952C180.622 41.3445 180.34 41.4593 180.024 41.5397C179.709 41.6201 179.333 41.6603 178.896 41.6603C178.483 41.6603 178.095 41.6115 177.734 41.5139C177.372 41.4163 177.056 41.2612 176.786 41.0488C176.516 40.8363 176.304 40.5665 176.149 40.2392C175.994 39.9119 175.917 39.5244 175.917 39.0765C175.917 38.4564 176.054 37.9712 176.33 37.621C176.605 37.2707 176.97 37.0038 177.424 36.82C177.877 36.6363 178.388 36.5071 178.957 36.4325C179.525 36.3578 180.102 36.286 180.688 36.2171C180.917 36.1942 181.118 36.1655 181.29 36.131C181.463 36.0966 181.606 36.0363 181.721 35.9502C181.836 35.864 181.925 35.7463 181.988 35.597C182.051 35.4478 182.083 35.2525 182.083 35.0114C182.083 34.6439 182.022 34.3425 181.902 34.1071C181.781 33.8717 181.615 33.6851 181.402 33.5473C181.19 33.4095 180.943 33.3147 180.662 33.263C180.38 33.2114 180.079 33.1855 179.757 33.1855C179.069 33.1855 178.506 33.3492 178.07 33.6764C177.633 34.0037 177.404 34.5291 177.381 35.2525H176.295ZM182.082 36.5611H182.048C181.979 36.6874 181.847 36.7793 181.652 36.8367C181.457 36.8941 181.284 36.9343 181.135 36.9573C180.676 37.0376 180.202 37.1094 179.714 37.1726C179.226 37.2357 178.781 37.3305 178.379 37.4568C177.977 37.5831 177.647 37.764 177.389 37.9994C177.13 38.2348 177.001 38.5707 177.001 39.007C177.001 39.2827 177.056 39.5267 177.165 39.7391C177.274 39.9516 177.42 40.1353 177.604 40.2903C177.788 40.4453 178 40.563 178.241 40.6434C178.483 40.7238 178.729 40.764 178.982 40.764C179.395 40.764 179.792 40.7009 180.171 40.5745C180.549 40.4482 180.88 40.2645 181.161 40.0233C181.442 39.7822 181.666 39.4894 181.833 39.1448C181.999 38.8003 182.082 38.4099 182.082 37.9735V36.5611ZM186.803 32.5305H188.611V33.4434H186.803V39.4377C186.803 39.7937 186.852 40.0722 186.949 40.2731C187.047 40.4741 187.291 40.5861 187.681 40.609C187.991 40.609 188.301 40.5918 188.611 40.5574V41.4703C188.451 41.4703 188.29 41.476 188.129 41.4875C187.968 41.499 187.808 41.5047 187.647 41.5047C186.923 41.5047 186.418 41.3641 186.131 41.0827C185.844 40.8014 185.706 40.2818 185.718 39.5238V33.4434H184.168V32.5305H185.718V29.8606H186.803V32.5305ZM194.641 29.12H195.95L203.116 39.524H203.15V29.12H204.321V41.4187H203.012L195.847 31.0148H195.813V41.4187H194.641V29.12ZM217.033 41.4189H216.189L216.034 39.1797H216C215.793 39.616 215.537 39.9921 215.233 40.3079C214.929 40.6237 214.593 40.8821 214.226 41.083C213.858 41.284 213.465 41.4304 213.046 41.5223C212.627 41.6141 212.193 41.6601 211.745 41.6601C210.781 41.6601 209.934 41.485 209.205 41.1347C208.476 40.7845 207.87 40.3165 207.388 39.7309C206.905 39.1452 206.544 38.4677 206.302 37.6983C206.061 36.9289 205.941 36.1193 205.941 35.2696C205.941 34.4198 206.061 33.6102 206.302 32.8408C206.544 32.0714 206.905 31.391 207.388 30.7996C207.87 30.2082 208.476 29.7374 209.205 29.3872C209.934 29.0369 210.781 28.8618 211.745 28.8618C212.388 28.8618 212.997 28.9479 213.571 29.1202C214.145 29.2924 214.656 29.5508 215.104 29.8953C215.552 30.2398 215.931 30.6647 216.241 31.17C216.551 31.6753 216.763 32.2666 216.878 32.9442H215.707C215.672 32.5882 215.555 32.2293 215.354 31.8676C215.153 31.5059 214.883 31.1757 214.544 30.8772C214.205 30.5786 213.801 30.3346 213.33 30.1451C212.859 29.9556 212.331 29.8609 211.745 29.8609C210.93 29.8609 210.23 30.0159 209.644 30.326C209.058 30.636 208.579 31.0465 208.206 31.5575C207.832 32.0686 207.557 32.6456 207.379 33.2887C207.201 33.9317 207.112 34.592 207.112 35.2696C207.112 35.9356 207.201 36.593 207.379 37.2418C207.557 37.8907 207.832 38.4706 208.206 38.9816C208.579 39.4926 209.058 39.9031 209.644 40.2132C210.23 40.5232 210.93 40.6782 211.745 40.6782C212.423 40.6782 213.028 40.5663 213.562 40.3424C214.096 40.1184 214.547 39.8055 214.914 39.4036C215.282 39.0017 215.558 38.5251 215.741 37.9739C215.925 37.4227 216.011 36.8198 216 36.1653H211.814V35.1662H217.033V41.4189ZM217.792 43.5548V42.6936H226.404V43.5548H217.792ZM227.386 29.12H228.557V34.4598H235.86V29.12H237.032V41.4187H235.86V35.4588H228.557V41.4187H227.386V29.12ZM239.134 29.12H240.305V36.7335C240.305 37.4455 240.385 38.0512 240.546 38.5507C240.707 39.0503 240.942 39.4579 241.252 39.7737C241.562 40.0895 241.941 40.3192 242.389 40.4627C242.837 40.6063 243.342 40.6781 243.905 40.6781C244.479 40.6781 244.99 40.6063 245.438 40.4627C245.886 40.3192 246.265 40.0895 246.575 39.7737C246.885 39.4579 247.12 39.0503 247.281 38.5507C247.441 38.0512 247.522 37.4455 247.522 36.7335V29.12H248.693V36.9919C248.693 37.6235 248.604 38.2235 248.426 38.7919C248.248 39.3603 247.967 39.857 247.582 40.2819C247.197 40.7068 246.704 41.0426 246.101 41.2895C245.498 41.5364 244.766 41.6599 243.905 41.6599C243.055 41.6599 242.329 41.5364 241.726 41.2895C241.123 41.0426 240.629 40.7068 240.245 40.2819C239.86 39.857 239.579 39.3603 239.401 38.7919C239.223 38.2235 239.134 37.6235 239.134 36.9919V29.12ZM251.966 34.5117H255.997C256.468 34.5117 256.875 34.4571 257.22 34.348C257.564 34.2389 257.851 34.0897 258.081 33.9002C258.311 33.7107 258.483 33.4897 258.598 33.237C258.713 32.9844 258.77 32.7145 258.77 32.4274C258.77 30.8887 257.846 30.1193 255.997 30.1193H251.966V34.5117ZM250.795 29.12H255.997C256.513 29.12 257.01 29.1688 257.487 29.2664C257.963 29.364 258.382 29.5305 258.744 29.7659C259.106 30.0013 259.396 30.3114 259.614 30.6961C259.832 31.0808 259.941 31.5602 259.941 32.1344C259.941 32.4559 259.889 32.7688 259.786 33.0732C259.683 33.3775 259.536 33.6531 259.347 33.9C259.157 34.1469 258.933 34.3564 258.675 34.5287C258.417 34.7009 258.127 34.8215 257.805 34.8904V34.9249C258.598 35.0282 259.229 35.3526 259.7 35.8981C260.171 36.4435 260.406 37.1182 260.406 37.922C260.406 38.1173 260.389 38.3383 260.354 38.5852C260.32 38.8321 260.251 39.0847 260.148 39.3431C260.044 39.6015 259.895 39.857 259.7 40.1096C259.505 40.3623 259.243 40.5833 258.916 40.7728C258.589 40.9623 258.187 41.1173 257.711 41.2379C257.234 41.3584 256.663 41.4187 255.997 41.4187H250.795V29.12ZM251.966 40.4201H255.997C256.433 40.4201 256.847 40.3828 257.237 40.3081C257.627 40.2335 257.972 40.0986 258.271 39.9033C258.569 39.7081 258.804 39.4469 258.977 39.1196C259.149 38.7923 259.235 38.3818 259.235 37.888C259.235 37.0956 258.957 36.5014 258.4 36.1052C257.843 35.709 257.042 35.5109 255.997 35.5109H251.966V40.4201Z" fill="#00A3E7"/>
<path fill-rule="evenodd" clip-rule="evenodd" d="M26.9614 1.45801L1.4624 26.9236C1.86016 27.8886 2.34194 28.8265 2.90082 29.7304L29.7718 2.89404C28.8667 2.33535 27.9276 1.85472 26.9614 1.45801Z" fill="#233D93"/>
<path fill-rule="evenodd" clip-rule="evenodd" d="M19.9193 0L0 19.8936C0.0260563 21.1671 0.176013 22.4374 0.450402 23.6871L23.7176 0.449821C22.4664 0.175786 21.1944 0.0260227 19.9193 0Z" fill="#233D93"/>
<path fill-rule="evenodd" clip-rule="evenodd" d="M5.71442 5.70271L5.71336 5.7043C3.00882 8.40536 1.26837 11.7023 0.482422 15.1718L15.1947 0.478516C11.7207 1.26345 8.41949 3.00166 5.71442 5.70271Z" fill="#233D93"/>
<path fill-rule="evenodd" clip-rule="evenodd" d="M38.5929 23.687C38.8673 22.4374 39.0172 21.1671 39.0433 19.8936L30.1459 11.0076L32.2702 8.88594L38.5642 15.1718C37.8819 12.1611 36.477 9.28266 34.3505 6.8089C34.0261 6.43184 33.6906 6.06062 33.3327 5.70374V5.7032H33.3322C32.9748 5.34579 32.6031 5.01068 32.2256 4.68726L4.69629 32.1811C5.02066 32.5581 5.3562 32.9288 5.71408 33.2862C6.07196 33.6436 6.44366 33.9788 6.82121 34.3027L19.5234 21.6169L32.2256 34.3027C32.6031 33.9788 32.9748 33.6436 33.3327 33.2862C33.6906 32.9288 34.0261 32.5581 34.3505 32.1811L21.6478 19.4947L23.7722 17.3731L36.1457 29.7301C36.7046 28.8263 37.1864 27.8884 37.5841 26.9234L25.8971 15.2514L28.0215 13.1292L38.5929 23.687Z" fill="#233D93"/>
<path fill-rule="evenodd" clip-rule="evenodd" d="M19.5231 25.8599L9.27441 36.0953C10.1795 36.6535 11.1186 37.1346 12.0848 37.5318L17.9453 31.6789V44.9998H21.1003V31.6789L26.9613 37.5318C27.9275 37.1346 28.8666 36.6535 29.7717 36.0953L19.5231 25.8599Z" fill="#00A3E7"/>
</svg>
