<?xml version="1.0"?>
<svg xmlns="http://www.w3.org/2000/svg" xmlns:xlink="http://www.w3.org/1999/xlink" xmlns:svgjs="http://svgjs.com/svgjs" version="1.1" width="512" height="512" x="0" y="0" viewBox="0 0 64 64" style="enable-background:new 0 0 512 512" xml:space="preserve"><g><g xmlns="http://www.w3.org/2000/svg"><g><path d="m22.473 47.821c-1.289-.669-2.973-1.159-4.836-1.459-.3-1.863-.789-3.546-1.459-4.836 2.959.996 5.3 3.337 6.295 6.295zm-4.584 5.74c.071-.844.111-1.702.111-2.561s-.04-1.717-.111-2.561c3.187.61 5.111 1.732 5.111 2.561s-1.924 1.951-5.111 2.561zm-4.889 7.439c-.829 0-1.951-1.924-2.561-5.111.844.071 1.702.111 2.561.111s1.717-.04 2.561-.111c-.61 3.187-1.732 5.111-2.561 5.111zm0-7c-1.014 0-1.965-.055-2.854-.146-.091-.889-.146-1.84-.146-2.854s.055-1.965.146-2.854c.889-.091 1.84-.146 2.854-.146s1.965.055 2.854.146c.091.889.146 1.84.146 2.854s-.055 1.965-.146 2.854c-.889.091-1.84.146-2.854.146zm-10-3c0-.829 1.924-1.951 5.111-2.561-.071.844-.111 1.702-.111 2.561s.04 1.717.111 2.561c-3.187-.61-5.111-1.732-5.111-2.561zm10-10c.829 0 1.951 1.924 2.561 5.111-.844-.071-1.702-.111-2.561-.111s-1.717.04-2.561.111c.61-3.187 1.732-5.111 2.561-5.111zm-3.179.527c-.669 1.289-1.159 2.973-1.459 4.836-1.863.3-3.546.789-4.836 1.459.996-2.959 3.337-5.3 6.295-6.295zm-6.294 12.652c1.289.669 2.973 1.159 4.836 1.459.3 1.863.789 3.546 1.459 4.836-2.959-.996-5.3-3.337-6.295-6.295zm12.652 6.294c.669-1.289 1.159-2.973 1.459-4.836 1.863-.3 3.546-.789 4.836-1.459-.996 2.959-3.337 5.3-6.295 6.295z" fill="#46f7ad" data-original="#000000" style=""/><path d="m55.889 38.561c.071-.844.111-1.702.111-2.561s-.04-1.717-.111-2.561c3.187.61 5.111 1.732 5.111 2.561s-1.924 1.951-5.111 2.561zm-4.889 7.439c-.829 0-1.951-1.924-2.561-5.111.844.071 1.702.111 2.561.111s1.717-.04 2.561-.111c-.61 3.187-1.732 5.111-2.561 5.111zm0-7c-1.014 0-1.965-.055-2.854-.146-.091-.889-.146-1.84-.146-2.854s.055-1.965.146-2.854c.889-.091 1.84-.146 2.854-.146s1.965.055 2.854.146c.091.889.146 1.84.146 2.854s-.055 1.965-.146 2.854c-.889.091-1.84.146-2.854.146zm-10-3c0-.829 1.924-1.951 5.111-2.561-.071.844-.111 1.702-.111 2.561s.04 1.717.111 2.561c-3.187-.61-5.111-1.732-5.111-2.561zm10-10c.829 0 1.951 1.924 2.561 5.111-.844-.071-1.702-.111-2.561-.111s-1.717.04-2.561.111c.61-3.187 1.732-5.111 2.561-5.111zm9.473 6.821c-1.289-.669-2.973-1.159-4.836-1.459-.3-1.863-.789-3.546-1.459-4.836 2.959.996 5.3 3.337 6.295 6.295zm-12.652-6.294c-.669 1.289-1.159 2.973-1.459 4.836-1.863.3-3.546.789-4.836 1.459.996-2.959 3.337-5.3 6.295-6.295zm-6.294 12.652c1.289.669 2.973 1.159 4.836 1.459.3 1.863.789 3.546 1.459 4.836-2.959-.996-5.3-3.337-6.295-6.295zm12.652 6.294c.669-1.289 1.159-2.973 1.459-4.836 1.863-.3 3.546-.789 4.836-1.459-.996 2.959-3.337 5.3-6.295 6.295z" fill="#46f7ad" data-original="#000000" style=""/><path d="m31.871 14.467c.082-.816.129-1.645.129-2.467s-.047-1.651-.129-2.467c2.604.62 4.129 1.662 4.129 2.467s-1.525 1.847-4.129 2.467zm-4.871 6.533c-.805 0-1.847-1.525-2.467-4.129.816.082 1.645.129 2.467.129s1.651-.047 2.467-.129c-.62 2.604-1.662 4.129-2.467 4.129zm0-6c-1.015 0-1.962-.061-2.832-.168-.107-.87-.168-1.817-.168-2.832s.061-1.962.168-2.832c.87-.107 1.817-.168 2.832-.168s1.962.061 2.832.168c.107.87.168 1.817.168 2.832s-.061 1.962-.168 2.832c-.87.107-1.817.168-2.832.168zm-9-3c0-.805 1.525-1.847 4.129-2.467-.082.816-.129 1.645-.129 2.467s.047 1.651.129 2.467c-2.604-.62-4.129-1.662-4.129-2.467zm9-9c.805 0 1.847 1.525 2.467 4.129-.816-.082-1.645-.129-2.467-.129s-1.651.047-2.467.129c.62-2.604 1.662-4.129 2.467-4.129zm8.357 5.677c-1.062-.544-2.371-.958-3.795-1.239-.281-1.423-.695-2.733-1.239-3.795 2.292.915 4.119 2.742 5.034 5.034zm-11.68-5.034c-.544 1.062-.958 2.371-1.239 3.795-1.423.281-2.733.695-3.795 1.239.915-2.292 2.742-4.119 5.034-5.034zm-5.034 11.68c1.062.544 2.371.958 3.795 1.239.281 1.423.695 2.733 1.239 3.795-2.292-.915-4.119-2.742-5.034-5.034zm11.68 5.034c.544-1.062.958-2.371 1.239-3.795 1.423-.281 2.733-.695 3.795-1.239-.915 2.292-2.742 4.119-5.034 5.034z" fill="#46f7ad" data-original="#000000" style=""/><path d="m52 3c1.103 0 2 .897 2 2s-.897 2-2 2-2-.897-2-2 .897-2 2-2z" fill="#46f7ad" data-original="#000000" style=""/><path d="m40 61c-1.103 0-2-.897-2-2s.897-2 2-2 2 .897 2 2-.897 2-2 2z" fill="#46f7ad" data-original="#000000" style=""/></g><path d="m20.514 20.865-8.176 18.169c.221-.013.439-.034.662-.034.509 0 1.007.042 1.5.104l7.741-17.202c-.609-.294-1.186-.641-1.727-1.037z" fill="#46f7ad" data-original="#000000" style=""/><path d="m43.259 26.845-7.812-7.812c-.428.513-.901.986-1.414 1.414l7.812 7.812c.432-.509.905-.982 1.414-1.414z" fill="#46f7ad" data-original="#000000" style=""/><path d="m37.516 8.778 11.08-1.705c-.348-.568-.557-1.226-.582-1.934l-11.288 1.738c.319.603.587 1.238.79 1.901z" fill="#46f7ad" data-original="#000000" style=""/><path d="m39.845 40.394-15.61 6.428c.233.624.421 1.269.548 1.938l15.956-6.57c-.346-.571-.646-1.169-.894-1.796z" fill="#46f7ad" data-original="#000000" style=""/><path d="m45.455 46.632-5.046 8.41c.706.073 1.358.317 1.907.709l5.001-8.335c-.647-.209-1.268-.473-1.862-.784z" fill="#46f7ad" data-original="#000000" style=""/></g></g></svg>
