<?xml version="1.0" encoding="utf-8"?>
<!-- Generator: Adobe Illustrator 20.0.0, SVG Export Plug-In . SVG Version: 6.00 Build 0)  -->
<svg version="1.1" id="Logo_Color" xmlns="http://www.w3.org/2000/svg" xmlns:xlink="http://www.w3.org/1999/xlink" x="0px" y="0px"
	 viewBox="0 0 363 139.5" style="enable-background:new 0 0 363 139.5;" xml:space="preserve">
<style type="text/css">
	.st0{fill-rule:evenodd;clip-rule:evenodd;fill:#EC721F;}
	.st1{fill-rule:evenodd;clip-rule:evenodd;fill:#1D1D1B;}
	.st2{fill:#1D1D1B;}
</style>
<g>
	<path class="st0" d="M135.5,92.9c-12.8,36-52.3,54.9-88.3,42.1c-36-12.8-54.9-52.3-42.1-88.3c12.8-36,52.3-54.9,88.3-42.1
		C129.4,17.3,148.2,56.9,135.5,92.9z M132.8,91.9c12.2-34.5-5.9-72.4-40.4-84.7C57.9-5,20,13.1,7.7,47.6
		c-12.2,34.5,5.9,72.4,40.4,84.7C82.7,144.5,120.6,126.5,132.8,91.9z M100.5,23.3c-1.7-5.3-4.4-9.1-7.8-11.1
		c-0.6,1.8-1.5,4.6-2.8,8.1C92.6,21.2,96.6,22.4,100.5,23.3z M102.6,34.4c-0.2-2.4-0.5-4.7-1-6.8c-5-1-10.1-2.6-12.9-3.5l-1.4,4.2
		C92.6,30.2,97.8,32.3,102.6,34.4z M101.3,57.7c1.3-7.1,1.8-13.7,1.6-19.6c-5-2.3-10.5-4.6-16.6-6.8c-2.1,6.2-4.5,13.2-6.9,20.1
		C87.4,54.2,94.7,56.2,101.3,57.7z M91,90.1c1.6-3.6,3.2-7.4,4.6-11.4c1.6-4.6,3-9.1,4-13.4c-6.4-3.3-13.7-6.5-21.9-9.4
		c-2,5.6-3.9,11.2-5.6,16.1c-0.9,2.6-1.9,5.4-3,8.3C77.1,83.2,84.5,86.5,91,90.1z M89.5,93.4l0.1-0.2c-6-3.4-13.2-6.8-21.5-9.9
		l-1.4,3.9C74.8,90,82.5,92,89.5,93.4z M74.2,116.5c4.6-5,9.1-11.4,13.2-19c-7.2-1.4-14.7-3.4-22.3-6c-2.6,7.1-5.2,14.2-7.5,20.4
		C63.5,113.9,69.1,115.4,74.2,116.5z M62.7,126c2.6-1.4,5.2-3.3,7.8-5.8c-4.7-1.1-9.5-2.4-14.4-4.1l-2.2,5.9
		C56.1,123,59.4,124.4,62.7,126z M51.5,128.6c2.2,0.4,4.5,0.1,7-0.7c-2-1.1-4.2-2.1-5.7-2.7L51.5,128.6z M42.9,122.4
		c1.4,2.2,3.1,3.8,5,4.9l1.2-3.5C47.4,123.4,45.2,122.8,42.9,122.4z M38.3,108.9c0.5,3.6,1.4,6.8,2.5,9.5c3.6,0.7,7,1.7,9.2,2.4l2-6
		C47.3,113,42.7,111,38.3,108.9z M39.5,80.5c-1.6,8.5-2.1,16.3-1.7,23.1c4.7,2.4,10,4.7,15.8,6.8c2.1-6.2,4.6-13.4,7.1-20.6
		C53.1,87.1,46,83.9,39.5,80.5z M40.5,75.8l-0.1,0.2c6.3,3.3,13.6,6.6,21.6,9.6l1.4-3.9C55.1,78.9,47.3,77,40.5,75.8z M50.2,47.8
		c-1.9,4.1-3.7,8.4-5.3,13c-1.4,4-2.6,7.9-3.6,11.7c7.3,1.3,15.3,3.4,23.2,6.1c1-2.9,2-5.7,2.9-8.3c1.7-4.9,3.7-10.4,5.7-16
		C65,51.4,57.2,49.3,50.2,47.8z M64.9,24.6c-3.8,4.5-7.6,9.9-11.1,16.2c6,3,13.1,6,21,8.9c2.5-6.9,5-13.9,7.3-20
		C75.9,27.7,70.2,26,64.9,24.6z M72.4,17.2c-1.7,1.4-3.4,2.9-5.1,4.7c5.1,1.4,10.5,3.1,15.8,4.9l1.5-4.2
		C81.9,21.6,76.9,19.6,72.4,17.2z M89,11c-3.9-0.6-8.4,0.7-13.1,3.7c3.6,1.8,7.5,3.4,10.1,4.4C87.3,15.5,88.4,12.7,89,11z
		 M43.6,17.3c4.7-3.5,9.8-6.4,15-8.3c-7.4,1.4-14.5,4.2-20.9,8.1C39.5,17.1,41.5,17.1,43.6,17.3z M33,27.3c2-2.4,4.2-4.5,6.4-6.5
		c-4.8,0-7.8,0.9-8.3,2.4C30.8,24.1,31.4,25.6,33,27.3z M23.3,41.7c2.1-4.1,4.5-7.9,7.2-11.3c-1.6-1.8-2.7-3.5-3.3-5.1
		c-5.4,5.2-9.9,11.5-13.2,18.6C16.5,42.7,19.6,41.9,23.3,41.7z M16.8,59.1c0.6-2.5,1.4-5,2.2-7.4c0.7-2.1,1.5-4.1,2.4-6
		c-4.6,0.7-7.5,2.2-8.3,4.5C12.3,52.3,13.6,55.4,16.8,59.1z M14.7,72.7c0.2-3,0.5-5.9,1.1-8.9c-2.7-2.8-4.7-5.5-5.8-8
		c-1.7,7.4-2,14.8-1.1,22C9.9,75.5,11.9,73.8,14.7,72.7z M15.3,87.6c-0.5-3.4-0.8-7-0.8-10.5c-1.1,0.7-1.9,1.5-2.2,2.5
		C11.6,81.6,12.7,84.4,15.3,87.6z M23.1,109.9c-2.7-4.6-4.8-9.6-6.2-14.9c-2.2-2-4-3.9-5.4-5.9C14,96.7,17.9,103.8,23.1,109.9z
		 M95.9,122.9c-4.5,3.3-9.4,5.9-14.4,7.7c8-1.5,15.6-4.5,22.4-8.9C101.6,122.4,98.9,122.8,95.9,122.9z M109,110.5
		c-2.3,2.8-4.7,5.4-7.2,7.7c4-0.8,6.6-2.3,7.4-4.4C109.5,112.8,109.4,111.7,109,110.5z M116.4,99.4c-1.5,2.7-3.1,5.2-4.8,7.6
		c1.5,2.6,2,5.2,1.3,7.6c5.3-5,9.7-11,13.1-17.9C123.5,98.1,120.2,99,116.4,99.4z M123.4,81.7c-0.5,2.1-1.2,4.2-1.9,6.2
		c-0.9,2.5-1.9,4.9-2.9,7.2c4.7-0.8,7.7-2.4,8.5-4.7C127.9,88.2,126.6,85.1,123.4,81.7z M126,64c-0.1,4.4-0.6,8.9-1.5,13.5
		c2.7,2.6,4.7,5.1,5.8,7.6c2-7.7,2.4-15.5,1.4-23.1C130.3,63,128.4,63.6,126,64z M125.1,51.1c0.5,3,0.8,6,0.9,9.1
		c2.3-0.4,3.7-1.1,4.1-2.1C130.5,56.6,128.8,54.1,125.1,51.1z M117.5,29.7c2.9,4.9,5.1,10.3,6.5,16.1c1.8,1.2,3.4,2.5,4.8,3.7
		C126.2,42.3,122.4,35.6,117.5,29.7z M109.5,24.6c-2-2.5-4.3-4.7-6.8-6.6c0.9,1.9,1.7,4,2.4,6.2C106.7,24.5,108.2,24.6,109.5,24.6z
		 M119.1,42.7c-1.6-5.3-4-10.2-6.9-14.5c-1.7,0.3-3.8,0.3-6.2,0c0.5,2.6,0.8,5.3,1,8.2C111.5,38.5,115.5,40.6,119.1,42.7z
		 M121.9,60.5c-0.1-4.4-0.6-8.7-1.5-12.8c-3.5-2.3-7.9-4.9-13.2-7.5c0.1,5.8-0.4,12-1.5,18.5C112.3,59.9,117.8,60.5,121.9,60.5z
		 M120.8,74.4c0.6-3.4,0.9-6.7,1.1-10c-4.7,0.2-10.5-0.4-16.9-1.6c-0.1,0.4-0.2,0.9-0.3,1.3C111,67.5,116.5,70.9,120.8,74.4z
		 M113.7,95.6c1.5-2.9,2.8-5.9,3.9-9.1c1-2.7,1.8-5.4,2.4-8.2c-3.9-3.4-9.4-7.1-16.1-10.8c-1,4.2-2.3,8.5-3.8,12.7
		c-1.5,4.2-3.2,8.3-5,12.2c1.3,0.8,2.6,1.7,3.9,2.5C104.6,95.7,109.5,95.9,113.7,95.6z M109,103.5c0.8-1.2,1.6-2.5,2.4-3.7
		c-2,0.1-4,0-6.2-0.1C106.7,101,108,102.3,109,103.5z M94.9,118.8c4.3-3.4,8.4-7.5,11.9-12.2c-1.8-2.3-4.5-4.8-8-7.5
		c-2.2-0.2-4.4-0.5-6.7-0.9c-3.9,7.3-8.4,13.8-13.1,19.1C85.1,118.5,90.4,118.9,94.9,118.8z M69.1,130.1c6.8-0.9,13.6-3.3,19.9-7.1
		c-4.2-0.2-8.8-0.8-13.5-1.7c-2.9,2.8-5.9,5.2-8.8,7C67.5,128.9,68.4,129.5,69.1,130.1z M22.3,99.3c2.5,7,6.2,13.1,11,18.1
		c1,0,2,0.1,3,0.2c-1.2-3.3-2-7-2.5-11.1C29.6,104.2,25.7,101.8,22.3,99.3z M18.6,75.5c-0.2,5.9,0.4,11.6,1.6,17
		c3.4,2.9,7.8,5.9,13.2,8.9c-0.3-7.1,0.3-14.9,1.9-23.1c-2-1.1-3.9-2.3-5.8-3.5C25.1,74.5,21.5,74.8,18.6,75.5z M19.4,67.2
		c-0.2,1.5-0.4,2.9-0.5,4.4c1.6-0.3,3.4-0.5,5.4-0.5C22.5,69.8,20.9,68.5,19.4,67.2z M26.2,45.2c-1.2,2.5-2.3,5.1-3.3,7.8
		c-1.1,3.2-2,6.4-2.7,9.5c3.1,2.8,7.1,5.8,11.9,8.7c1.5,0.1,3,0.3,4.6,0.5c1-4.2,2.3-8.4,3.8-12.6c1.5-4.3,3.2-8.4,5.1-12.3
		C38,45.5,31.4,45,26.2,45.2z M33.5,33.2c-2,2.6-3.8,5.4-5.4,8.4c5.5,0.1,12,0.8,19,2.2c0.2-0.4,0.4-0.8,0.6-1.2
		C42,39.4,37.1,36.2,33.5,33.2z M45.2,21c-3.3,2.6-6.4,5.6-9.2,9c3.2,2.6,7.8,5.6,13.7,8.7c3.2-5.7,6.8-10.9,10.5-15.3
		C54.4,22.2,49.4,21.4,45.2,21z M63.8,11.1c-5,1.5-9.8,3.8-14.4,6.9c4.1,0.6,8.6,1.5,13.3,2.7c1.9-2.1,3.9-4,5.9-5.7
		C66.6,13.7,64.9,12.4,63.8,11.1z M77.6,9.1c-3.2,0-6.3,0.3-9.4,0.9c1,0.8,2.3,1.6,3.7,2.5C73.8,11.1,75.7,10,77.6,9.1z"/>
	<path class="st1" d="M308.3,74.9h35.5l-12.4-20.2c-1.3-2-2.4-2.7-4.9-2.7h-0.9c-2.6,0-3.8,0.9-4.9,2.7L308.3,74.9z M328.2,45.6
		c4.2,0,6.1,1.3,7.9,4.1l26.1,43.5h-7.7L347.2,81h-42.4l-7.1,12.2H290l26.1-43.5c1.8-2.8,3.1-4.1,7.7-4.1H328.2z"/>
	<path class="st2" d="M185.1,50.8c-0.1,0-0.3,0.1-0.4,0.4c0,0-2.6,6.9-13.3,35.4c-1.5,4-4.8,6.4-9,6.4h-3c-3.2,0-7.3-2.2-8.5-7.1
		l-9.2-41h7.3l8.1,38.7c0.3,1.5,1.5,2.9,2.8,2.9c0.8,0,1.2,0,1.9,0c1.7,0,3-1.2,3.7-2.9c9.7-26.2,12.7-34.6,13.3-36
		c0.8-2,2.6-2.7,3.8-2.7h4.9c1.1,0,2.9,0.7,3.8,2.7c0.6,1.5,5,13.3,13.3,36c0.6,1.7,2,2.9,3.7,2.9c0.7,0,1.1,0,1.9,0
		c1.3,0,2.5-1.3,2.8-2.9l8.1-38.7h7.3l-9.2,41c-1.2,4.9-5.4,7.1-8.5,7.1h-3c-4.1,0-7.4-2.3-9-6.4c-11.6-30.6-13.3-35.4-13.3-35.4
		C185.4,50.9,185.2,50.8,185.1,50.8z"/>
	<path class="st2" d="M241.9,44.9h48.7v6.5h-48.7c-4.7,0-6.7,1.6-6.7,4.6v5c0,2.9,1.9,4.5,6.7,4.5h36.9c8.7,0,13.3,3.5,13.3,10.6
		v6.3c0,7.1-4.6,10.7-13.3,10.7h-48.7v-6.5h48.7c4.6,0,6.6-1.7,6.6-4.8v-5c0-3.1-2-4.8-6.6-4.8h-36.9c-8.8,0-13.4-3.2-13.4-9.7v-6.8
		C228.5,48.3,233.1,44.9,241.9,44.9z"/>
</g>
<g>
	<g>
		<path class="st2" d="M162.5,116.5h-2.5l0-0.1l-2.3-8.1h-0.1l-2.4,8.2h-2.5l0-0.1l-1.5-10.3l0-6.9h1.4v6.8l1.3,9.1h0.2l2.5-8.6h1.9
			l2.5,8.6h0.2l1.3-9.1l0-6.8h1.4v6.8L162.5,116.5z"/>
	</g>
	<g>
		<path class="st2" d="M172,116.8h-0.5c-2.4,0-4.3-2-4.3-4.4v-9c0-2.4,1.9-4.3,4.3-4.3h0.5c2.4,0,4.3,1.9,4.3,4.3v9
			C176.3,114.8,174.4,116.8,172,116.8z M171.6,100.5c-1.7,0-3,1.3-3,3v9c0,1.7,1.3,3,3,3h0.3c1.7,0,3-1.3,3-3v-9c0-1.7-1.3-3-3-3
			H171.6z"/>
	</g>
	<g>
		<path class="st2" d="M188,116.5h-1.6l0-0.1l-2.7-6.4H181v6.5h-1.4V99.3h4.4c2,0,3.6,1.6,3.6,3.6v3.4c0,1.5-1,2.9-2.4,3.4
			L188,116.5z M181,108.7h2.9c1.3,0,2.3-1,2.3-2.2V103c0-1.2-1-2.3-2.3-2.3H181V108.7z"/>
	</g>
	<g>
		<path class="st2" d="M197.8,116.5h-7.1V99.3h1.4v15.9h5.6V116.5z"/>
	</g>
	<g>
		<path class="st2" d="M204.1,116.5h-4.2V99.3h4.2c2.4,0,4.4,2,4.4,4.4v8.5C208.5,114.6,206.5,116.5,204.1,116.5z M201.3,115.2h2.7
			c1.7,0,3-1.3,3-3v-8.5c0-1.7-1.3-3-3-3h-2.7V115.2z"/>
	</g>
	<g>
		<path class="st2" d="M220.9,116.8h-0.5c-2.4,0-4.3-1.9-4.3-4.3v-0.7h1.4v0.7c0,1.7,1.3,3,3,3h0.3c1.6,0,3-1.3,3-2.8
			c0-2.4-1.8-3.4-3.6-4.4c-1.9-1-3.8-2.1-3.8-4.8c0-2.4,1.9-4.3,4.3-4.3c2.5,0,4.3,1.8,4.4,4.3l0,0.1h-1.4l0-0.1c-0.1-1.7-1.3-3-3-3
			c-1.6,0-2.9,1.2-2.9,2.8c0,1.8,1.5,2.6,3.2,3.6c2,1.1,4.3,2.4,4.3,5.6C225.3,114.8,223.3,116.8,220.9,116.8z"/>
	</g>
	<g>
		<path class="st2" d="M232.9,116.8h-0.5c-2.4,0-4.3-2-4.3-4.4V99.3h1.4v13.1c0,1.7,1.3,3,3,3h0.3c1.7,0,3-1.3,3-3V99.3h1.4v13.1
			C237.3,114.8,235.3,116.8,232.9,116.8z"/>
	</g>
	<g>
		<path class="st2" d="M251.8,116.5h-1.4v-13.9l0.1-1.2l-0.4,1l-3.1,6.4h-1.4l-3.1-6.4l-0.4-1l0.1,1.1l0,14h-1.4V99.3h1.8l0,0.1
			l3.6,7.5l0.2,0.5l0.2-0.5l3.7-7.6h1.8V116.5z"/>
	</g>
	<g>
		<path class="st2" d="M266.4,116.5H265v-13.9l0.1-1.2l-0.4,1l-3.1,6.4h-1.4l-3.1-6.4l-0.4-1l0.1,1.1l0,14h-1.4V99.3h1.8l0,0.1
			l3.6,7.5l0.2,0.5l0.2-0.5l3.7-7.6h1.8V116.5z"/>
	</g>
	<g>
		<path class="st2" d="M271.4,116.5h-1.5V99.3h1.5V116.5z"/>
	</g>
	<g>
		<path class="st2" d="M278.6,116.5h-1.5v-15.8h-3.7v-1.4h8.9v1.4h-3.7V116.5z"/>
	</g>
	<g>
		<path class="st2" d="M297.3,116.5h-1.4v-5.8h-6v5.8h-1.4l0-6.8l3.1-10.4h2.8l0,0.1l3,10.4V116.5z M290,109.4h5.8l-2.5-8.7h-0.8
			L290,109.4z"/>
	</g>
	<g>
		<path class="st2" d="M311.7,116.5h-2.5l0-0.1l-2.3-8.1h-0.1l-2.4,8.2H302l0-0.1l-1.5-10.3l0-6.9h1.4v6.8l1.3,9.1h0.2l2.5-8.6h1.9
			l2.5,8.6h0.2l1.3-9.1l0-6.8h1.4v6.8L311.7,116.5z"/>
	</g>
	<g>
		<path class="st2" d="M325.2,116.5h-1.4v-5.8h-6v5.8h-1.4l0-6.8l3.1-10.4h2.8l0,0.1l3,10.4V116.5z M317.9,109.4h5.8l-2.5-8.7h-0.8
			L317.9,109.4z"/>
	</g>
	<g>
		<path class="st2" d="M336.9,116.5h-1.6l0-0.1l-2.7-6.4h-2.8v6.5h-1.4V99.3h4.4c2,0,3.6,1.6,3.6,3.6v3.4c0,1.5-1,2.9-2.4,3.4
			L336.9,116.5z M329.9,108.7h2.9c1.3,0,2.3-1,2.3-2.2V103c0-1.2-1-2.3-2.3-2.3h-2.9V108.7z"/>
	</g>
	<g>
		<path class="st2" d="M343.9,116.5h-4.2V99.3h4.2c2.4,0,4.4,2,4.4,4.4v8.5C348.2,114.6,346.3,116.5,343.9,116.5z M341.1,115.2h2.7
			c1.7,0,3-1.3,3-3v-8.5c0-1.7-1.3-3-3-3h-2.7V115.2z"/>
	</g>
	<g>
		<path class="st2" d="M355.8,116.8h-0.5c-2.4,0-4.3-1.9-4.3-4.3v-0.7h1.4v0.7c0,1.7,1.3,3,3,3h0.3c1.6,0,3-1.3,3-2.8
			c0-2.4-1.8-3.4-3.6-4.4c-1.9-1-3.8-2.1-3.8-4.8c0-2.4,1.9-4.3,4.3-4.3c2.5,0,4.3,1.8,4.4,4.3l0,0.1h-1.4l0-0.1c-0.1-1.7-1.3-3-3-3
			c-1.6,0-2.9,1.2-2.9,2.8c0,1.8,1.5,2.6,3.2,3.6c2,1.1,4.3,2.4,4.3,5.6C360.1,114.8,358.2,116.8,355.8,116.8z"/>
	</g>
</g>
</svg>
